<?xml version="1.0" encoding="utf-8"?>
<!-- Generator: Adobe Illustrator 15.1.0, SVG Export Plug-In . SVG Version: 6.00 Build 0)  -->
<!DOCTYPE svg PUBLIC "-//W3C//DTD SVG 1.0//EN" "http://www.w3.org/TR/2001/REC-SVG-20010904/DTD/svg10.dtd">
<svg version="1.0"
	 id="svg2" xmlns:rdf="http://www.w3.org/1999/02/22-rdf-syntax-ns#" xmlns:dc="http://purl.org/dc/elements/1.1/" xmlns:inkscape="http://www.inkscape.org/namespaces/inkscape" xmlns:cc="http://creativecommons.org/ns#" xmlns:svg="http://www.w3.org/2000/svg"
	 xmlns="http://www.w3.org/2000/svg" xmlns:xlink="http://www.w3.org/1999/xlink" x="0px" y="0px" width="60px" height="60px"
	 viewBox="38.75 35.042 60 60" enable-background="new 38.75 35.042 60 60" xml:space="preserve">
<g id="g10" transform="matrix(1.25,0,0,-1.25,0,130.08375)">
	<path id="path12" inkscape:connector-curvature="0" fill="#006893" d="M31.182,29.501h2.577V74.68h-2.577V29.501z"/>
	<g id="g14">
		<g>
			<defs>
				<rect id="SVGID_1_" x="28.111" y="23.853" width="56.474" height="56.474"/>
			</defs>
			<clipPath id="SVGID_2_">
				<use xlink:href="#SVGID_1_"  overflow="visible"/>
			</clipPath>
			<g id="g16" clip-path="url(#SVGID_2_)">
				<g id="g22">
					<g id="g24">
						
							<linearGradient id="path32_1_" gradientUnits="userSpaceOnUse" x1="-258.1266" y1="-206.301" x2="-257.6924" y2="-206.301" gradientTransform="matrix(-164.0347 0 0 164.0347 -42262.7773 33892.6602)">
							<stop  offset="0" style="stop-color:#262162"/>
							<stop  offset="1" style="stop-color:#00AFD7"/>
						</linearGradient>
						<path id="path32" inkscape:connector-curvature="0" fill="url(#path32_1_)" d="M33.759,29.501h45.179V74.68H33.759V29.501z"/>
					</g>
				</g>
			</g>
		</g>
	</g>
	<g id="g34">
		<g>
			<defs>
				<rect id="SVGID_3_" x="25.213" y="23.853" width="59.694" height="56.474"/>
			</defs>
			<clipPath id="SVGID_4_">
				<use xlink:href="#SVGID_3_"  overflow="visible"/>
			</clipPath>
			<g id="g36" clip-path="url(#SVGID_4_)">
				<g id="g42" transform="translate(28.6406,58.5259)">
					<path id="path44" inkscape:connector-curvature="0" fill="#F3F3F4" d="M14.976-3.617C14.91-3.201,14.693-1.53,12.37-1.53
						c-2.905,0-3.424-2.973-3.424-4.979c0-2.268,0.652-4.725,3.409-4.725c0.735,0,1.435,0.186,1.952,0.719
						c0.434,0.467,0.536,0.985,0.586,1.269h1.836c-0.248-2.37-2.436-3.357-4.509-3.357c-4.241,0-5.059,3.742-5.059,6.079
						c0,2.54,0.985,6.329,5.277,6.329c1.703,0,4.108-0.684,4.323-3.42H14.976z"/>
				</g>
				<g id="g46" transform="translate(36.2969,66.021)">
					<path id="path48" inkscape:connector-curvature="0" fill="#F3F3F4" d="M10.643-7.858h2.321l5.928-9.968v9.968h1.536v-12.057
						h-2.138L12.162-9.678v-10.237h-1.519V-7.858z"/>
				</g>
				<g id="g50" transform="translate(62.0049,43.7861)">
					<path id="path52" inkscape:connector-curvature="0" fill="#F3F3F4" d="M-3.904,4.724l3.085,2.812
						c0.546,0.495,1.159,1.039,1.79,1.805c0.666,0.802,0.817,1.177,0.817,1.724c0,0.902-0.528,1.516-1.414,1.516
						c-1.362,0-1.48-1.399-1.499-1.739h-2.608c0,0.477,0,1.363,0.7,2.232c0.679,0.854,1.941,1.296,3.391,1.296
						c2.59,0,4.023-1.399,4.023-3.239c0-1.227-0.477-2.811-5.624-6.954C0.476,4.213,0.68,4.23,2.027,4.246
						c1.823,0.035,2.029,0.035,2.421,0.051V2.32h-8.352V4.724z"/>
				</g>
				<g id="g54" transform="translate(89.6865,45.7109)">
					<path id="path56" inkscape:connector-curvature="0" fill="#F3F3F4" d="M-19.568,3.634c0.017-0.377,0.119-1.588,1.533-1.588
						c0.955,0,1.535,0.702,1.535,1.622c0,1.755-1.687,1.755-2.932,1.755v1.994c1.194,0.035,2.949,0.07,2.949,1.775
						c0,0.937-0.699,1.415-1.466,1.415c-0.731,0-1.449-0.495-1.449-1.485h-2.606c0.051,0.529,0.101,1.28,0.698,2.012
						c0.785,0.955,2.045,1.313,3.305,1.313c3.034,0,4.005-1.943,4.005-3.238c0-1.995-1.756-2.54-2.284-2.694
						c0.374-0.117,0.87-0.272,1.417-0.733c0.832-0.698,0.969-1.566,0.969-2.13c0-2.011-1.84-3.511-4.313-3.511
						c-0.852,0-2.096,0.187-2.862,0.802c-1.058,0.87-1.091,2.215-1.091,2.693H-19.568z"/>
				</g>
			</g>
		</g>
	</g>
</g>
</svg>
