<?xml version="1.0" encoding="utf-8"?>
<!-- Generator: Adobe Illustrator 15.1.0, SVG Export Plug-In . SVG Version: 6.00 Build 0)  -->
<!DOCTYPE svg PUBLIC "-//W3C//DTD SVG 1.1//EN" "http://www.w3.org/Graphics/SVG/1.1/DTD/svg11.dtd">
<svg version="1.1" id="Capa_1" xmlns="http://www.w3.org/2000/svg" xmlns:xlink="http://www.w3.org/1999/xlink" x="0px" y="0px"
	 width="60px" height="60px" viewBox="0 0 60 60" enable-background="new 0 0 60 60" xml:space="preserve">
<g>
	<circle fill="#00BFBE" cx="30.125" cy="30.063" r="29.125"/>
	<path fill="none" d="M11.644,21.864c-0.032-1.411-0.051-2.443-0.056-2.833c-0.012-1.428,0.633-2.206,1.947-2.463
		c0.737-0.148,1.51-0.191,2.266-0.185c3.068,0.013,3.664,0.723,3.764,3.733c0.022,0.58,0.028,1.187,0.031,1.827
		c2.953,1.484,4.979,4.538,4.979,8.066c0,3.456-1.939,6.453-4.788,7.971c0.38,3.519,1.521,4.716,4.488,5.661
		c7.45,2.388,12.95-0.49,13.534-8.086c0-1.786-0.056-16.732-0.056-18.948c0-4.267,0.986-5.27,5.328-5.29
		c1.072-0.006,2.16,0.053,3.209,0.261c1.859,0.366,2.773,1.467,2.753,3.492c-0.075,7.479-0.049,14.958-0.059,22.44
		c0.059,6.638-5.075,9.448-5.075,9.448c-8.116,6.846-31.249,4.956-31.781-7.061c-0.017-0.386-0.036-0.92-0.058-1.554
		c-3.262-1.361-5.555-4.576-5.555-8.336C6.514,26.422,8.608,23.315,11.644,21.864z"/>
	<g>
		<path fill="#003F69" d="M46.29,11.579c-1.049-0.208-2.141-0.267-3.212-0.261c-4.346,0.02-5.329,1.022-5.329,5.29
			c0,2.216,0.053,17.162,0.053,18.948c-0.577,7.596-6.077,10.474-13.53,8.086c-2.966-0.949-4.104-2.14-4.484-5.661
			c2.849-1.518,4.788-4.515,4.788-7.971c0-3.528-2.026-6.583-4.979-8.066c-0.003-0.64-0.009-1.247-0.031-1.827
			c-0.1-3.01-0.695-3.72-3.764-3.733c-0.756-0.007-1.529,0.037-2.266,0.185c-1.315,0.257-1.962,1.036-1.947,2.463
			c0.003,0.389,0.024,1.421,0.056,2.833c1.178-0.567,2.501-0.884,3.899-0.884c-1.396,0-2.721,0.317-3.899,0.884
			c-3.036,1.451-5.13,4.558-5.13,8.146c0,3.76,2.294,6.975,5.553,8.336c1.07,0.446,2.243,0.692,3.476,0.692
			c-0.002,0-0.002,0-0.002,0c-1.231,0-2.404-0.246-3.474-0.692c0.021,0.634,0.043,1.165,0.058,1.551
			c0.534,12.02,23.666,13.909,31.785,7.063c0,0,5.134-2.813,5.072-9.448c0.013-7.482-0.017-14.961,0.062-22.44
			C49.063,13.05,48.146,11.945,46.29,11.579z M11.996,36.038c-2.063-1.221-3.454-3.459-3.454-6.028c0-2.443,1.253-4.59,3.152-5.844
			c1.106-0.732,2.426-1.154,3.849-1.154c1.503,0,2.897,0.481,4.04,1.286c1.789,1.273,2.959,3.351,2.959,5.711
			c0,2.331-1.143,4.39-2.894,5.662c-1.155,0.838-2.57,1.339-4.105,1.339C14.247,37.011,13.038,36.651,11.996,36.038z"/>
		<path fill="#BF00C7" d="M22.542,30.01c0-2.361-1.172-4.436-2.956-5.708v-0.003c-1.143-0.812-2.536-1.29-4.042-1.29
			c-1.423,0-2.744,0.425-3.847,1.157c0.018,0.891,0.041,1.857,0.066,2.856h2.087h0.882h0.853c0.231,0,0.447,0.086,0.481,0.198
			l0.073,0.198c0.069,0.201,0.155,0.441,0.252,0.719c0.094,0.277,0.198,0.574,0.305,0.88c0.11,0.31,0.215,0.606,0.308,0.88
			c0.098,0.277,0.185,0.521,0.257,0.732l0.078,0.211c0.038,0.115,0.104,0.118,0.145,0.007l0.071-0.212
			c0.072-0.208,0.156-0.448,0.254-0.725c0.097-0.27,0.194-0.567,0.303-0.877c0.104-0.31,0.205-0.601,0.298-0.877
			c0.091-0.271,0.175-0.514,0.247-0.722l0.07-0.208c0.042-0.112,0.275-0.205,0.519-0.205h0.307h0.003h0.498
			c0.247,0,0.417,0.079,0.379,0.172l-0.076,0.194c-0.074,0.194-0.165,0.438-0.275,0.729c-0.109,0.291-0.226,0.607-0.359,0.96
			c-0.054,0.148-0.114,0.31-0.173,0.465c0,0.003,0,0.006,0,0.01c-0.076,0.201-0.152,0.396-0.226,0.604
			c-0.137,0.37-0.272,0.726-0.4,1.078c-0.134,0.35-0.248,0.671-0.354,0.951c-0.107,0.283-0.194,0.518-0.267,0.708l-0.071,0.191
			c-0.035,0.089-0.264,0.158-0.511,0.158h-0.658c-0.242,0-0.477-0.082-0.52-0.191l-0.069-0.197c-0.071-0.198-0.16-0.438-0.268-0.726
			c-0.104-0.28-0.224-0.594-0.354-0.937c-0.13-0.343-0.262-0.689-0.396-1.049c-0.136-0.356-0.264-0.706-0.391-1.049l-0.073-0.191
			c-0.071-0.191-0.33-0.35-0.574-0.35h-0.326c-0.246,0-0.447,0.201-0.447,0.445v3.793c0,0.247-0.198,0.444-0.443,0.444h-0.715
			c-0.246,0-0.445-0.197-0.445-0.444v-3.793c0-0.174-0.103-0.313-0.243-0.389v-0.003c-0.063-0.033-0.128-0.053-0.203-0.053h-0.631
			c-0.243,0-0.444-0.198-0.444-0.448v-0.64c0-0.244,0.2-0.442,0.444-0.442h0.795c-0.025-0.999-0.046-1.958-0.068-2.856
			c-1.899,1.253-3.152,3.404-3.152,5.844c0,2.569,1.392,4.808,3.454,6.028l0,0c1.042,0.613,2.25,0.973,3.547,0.973
			c1.535,0,2.95-0.501,4.105-1.339v-0.004C21.398,34.396,22.542,32.338,22.542,30.01z"/>
		<g>
			<path fill="#BFD400" d="M20.056,27.022h-0.498c-0.006,0.792-0.01,1.629-0.003,2.52c0.056-0.155,0.115-0.317,0.169-0.465
				c0.134-0.353,0.25-0.669,0.363-0.96c0.107-0.29,0.198-0.534,0.275-0.729l0.073-0.194C20.473,27.101,20.303,27.022,20.056,27.022z
				"/>
			<path fill="#BFD400" d="M19.248,27.022c-0.247,0-0.48,0.093-0.519,0.205l-0.073,0.208c-0.069,0.208-0.153,0.452-0.248,0.729
				c-0.094,0.27-0.191,0.561-0.3,0.871c-0.104,0.31-0.205,0.607-0.298,0.877c-0.098,0.277-0.185,0.518-0.254,0.725l-0.074,0.212
				c-0.038,0.111-0.104,0.108-0.145-0.007l-0.075-0.208c-0.076-0.211-0.16-0.455-0.257-0.735c-0.097-0.274-0.203-0.57-0.308-0.88
				c-0.109-0.306-0.212-0.604-0.308-0.88c-0.096-0.277-0.182-0.515-0.25-0.719l-0.073-0.198c-0.035-0.112-0.25-0.198-0.481-0.198
				h-0.854h-0.88h-2.087H11.76h-0.793c-0.244,0-0.444,0.198-0.444,0.442v0.64c0,0.244,0.2,0.448,0.444,0.448h0.631
				c0.076,0,0.139,0.02,0.199,0.053l0,0c0.142,0.076,0.245,0.218,0.245,0.392v3.793c0,0.247,0.199,0.444,0.443,0.444h0.717
				c0.244,0,0.443-0.197,0.443-0.444v-3.793c0-0.247,0.201-0.445,0.444-0.445h0.33c0.244,0,0.501,0.159,0.574,0.35l0.071,0.191
				c0.127,0.34,0.257,0.693,0.391,1.049c0.135,0.359,0.265,0.706,0.397,1.049c0.128,0.343,0.249,0.656,0.354,0.937
				c0.106,0.287,0.196,0.527,0.266,0.726l0.071,0.197c0.041,0.109,0.275,0.191,0.521,0.191h0.658c0.244,0,0.473-0.069,0.507-0.158
				l0.071-0.191c0.072-0.19,0.163-0.425,0.267-0.708c0.105-0.28,0.223-0.602,0.356-0.951c0.128-0.352,0.26-0.708,0.396-1.078
				c0.077-0.211,0.153-0.409,0.231-0.613c-0.003-0.89,0-1.728,0.003-2.52H19.248z"/>
		</g>
	</g>
</g>
<rect x="0.125" y="0.063" fill="none" width="60" height="60"/>
</svg>
