<?xml version="1.0" encoding="utf-8"?>
<!-- Generator: Adobe Illustrator 15.1.0, SVG Export Plug-In . SVG Version: 6.00 Build 0)  -->
<!DOCTYPE svg PUBLIC "-//W3C//DTD SVG 1.1//EN" "http://www.w3.org/Graphics/SVG/1.1/DTD/svg11.dtd">
<svg version="1.1" id="Layer_1" xmlns="http://www.w3.org/2000/svg" xmlns:xlink="http://www.w3.org/1999/xlink" x="0px" y="0px"
	 width="22.715px" height="19.754px" viewBox="0 0 22.715 19.754" enable-background="new 0 0 22.715 19.754" xml:space="preserve">
<g>
	<g>
		<circle fill="#4D4E4F" cx="11.358" cy="9.877" r="9.711"/>
		<circle fill="#99999F" cx="10.787" cy="9.713" r="8.639"/>
		<circle fill="#E62F28" cx="10.422" cy="9.878" r="7.857"/>
		<path fill="#FBFBFB" d="M15.25,8.962c-0.695-0.75-1.484-0.815-1.484-0.815l2.293-2.528h-2.572l-2.271,2.464
			c-1.717,1.894-0.914,3.717-0.914,3.717H8.477c2.829-2.877,1.736-4.482,1.037-5C8.686,6.188,7.649,6.192,7.649,6.192
			C5.185,5.938,4.591,8.614,4.591,8.614h2.104c0.357-0.721,0.889-0.63,1.108-0.54c0.997,0.411,0.024,1.594,0.024,1.594l-3.253,3.84
			l8.746,0.053c2.313-0.244,2.484-2.441,2.484-2.441C16,9.667,15.25,8.962,15.25,8.962z M12.883,11.497
			c-0.498,0-0.904-0.406-0.904-0.904c0-0.499,0.406-0.905,0.904-0.905s0.904,0.406,0.904,0.905
			C13.788,11.09,13.381,11.497,12.883,11.497z"/>
	</g>
	<rect x="0" fill="none" width="22.715" height="19.754"/>
</g>
</svg>
