<?xml version="1.0" encoding="utf-8"?>
<!-- Generator: Adobe Illustrator 15.1.0, SVG Export Plug-In . SVG Version: 6.00 Build 0)  -->
<!DOCTYPE svg PUBLIC "-//W3C//DTD SVG 1.1//EN" "http://www.w3.org/Graphics/SVG/1.1/DTD/svg11.dtd">
<svg version="1.1" id="Capa_1" xmlns="http://www.w3.org/2000/svg" xmlns:xlink="http://www.w3.org/1999/xlink" x="0px" y="0px"
	 width="408.779px" height="226.133px" viewBox="-751.295 10.106 408.779 226.133"
	 enable-background="new -751.295 10.106 408.779 226.133" xml:space="preserve">
<rect x="-751.267" y="10.106" fill="none" width="408.779" height="226.134"/>
<g>
	<g>
		<path fill="#636466" d="M-718.215,58.745c-1.356-1.299-2.74-2.274-4.157-2.912c-1.412-0.642-2.897-0.963-4.467-0.963
			c-2.436,0-4.381,0.747-5.867,2.247c-1.479,1.5-2.218,3.498-2.218,5.985c0,2.432,0.704,4.37,2.12,5.828
			c1.412,1.458,3.309,2.176,5.684,2.176c1.435,0,2.885-0.301,4.363-0.917c1.486-0.611,3.103-1.595,4.844-2.931l-0.48,15.595
			c-1.623,0.663-3.245,1.156-4.858,1.485c-1.615,0.331-3.237,0.499-4.86,0.499c-2.008,0-3.953-0.225-5.821-0.684
			c-1.864-0.451-3.547-1.096-5.06-1.924c-3.652-2.109-6.424-4.786-8.289-8.012c-1.875-3.228-2.814-6.931-2.814-11.116
			c0-3.097,0.532-5.964,1.602-8.604c1.061-2.642,2.611-4.969,4.65-6.99c2.054-2.033,4.426-3.575,7.135-4.624
			c2.699-1.048,5.625-1.574,8.768-1.574c1.673,0,3.331,0.183,4.96,0.534c1.63,0.343,3.217,0.869,4.759,1.569v15.333H-718.215z"/>
		<path fill="#636466" d="M-718.818,83.729l14.75-41.428h16.559l14.466,41.428h-15.997l-1.328-5.204h-11.219l-1.269,5.204H-718.818z
			 M-699.095,68.68h6.186l-1.269-4.696c-0.618-2.383-1.048-4.212-1.271-5.492c-0.229-1.282-0.365-2.487-0.428-3.616h-0.246
			c-0.057,1.129-0.2,2.341-0.431,3.616c-0.221,1.28-0.646,3.116-1.269,5.492L-699.095,68.68z"/>
		<path fill="#636466" d="M-672.372,83.729V42.301h14.583l12.854,21.684c-0.165-0.961-0.287-2.032-0.343-3.192
			c-0.073-1.178-0.103-2.699-0.103-4.588V42.31h14.328v41.426h-14.691l-12.719-21.51c0.151,0.925,0.266,1.923,0.336,2.985
			c0.074,1.062,0.116,2.254,0.116,3.582v14.943h-14.361V83.729z"/>
		<path fill="#636466" d="M-630.56,83.729l14.757-41.428h16.56l14.471,41.428h-15.999l-1.335-5.204h-11.217l-1.273,5.204H-630.56z
			 M-610.836,68.68h6.197l-1.272-4.696c-0.618-2.383-1.048-4.212-1.269-5.492c-0.225-1.282-0.368-2.487-0.424-3.616h-0.259
			c-0.057,1.129-0.193,2.341-0.425,3.616c-0.228,1.28-0.652,3.116-1.269,5.492L-610.836,68.68z"/>
		<polygon fill="#636466" points="-584.114,83.729 -584.114,42.301 -569.219,42.301 -569.219,70.293 -554.746,70.293 
			-554.746,83.729 		"/>
		<polygon fill="#636466" points="-739.084,151.357 -739.084,110.914 -751.109,110.914 -751.109,91.236 -705.503,91.236 
			-705.503,110.914 -717.517,110.914 -717.517,151.357 		"/>
		<path fill="#636466" d="M-700.882,151.357V91.236h27.146c7.871,0,13.896,1.744,18.049,5.225c4.156,3.478,6.23,8.481,6.23,15.029
			c0,4.275-1.047,7.793-3.135,10.568c-2.097,2.756-4.917,4.36-8.471,4.842l16.037,24.469h-24.202l-10.492-19.834v19.834h-21.161
			V151.357z M-679.721,106.722v11.75h3.364c2.054,0,3.624-0.5,4.738-1.501c1.111-0.995,1.664-2.425,1.664-4.291
			c0-1.92-0.553-3.392-1.664-4.415c-1.108-1.038-2.684-1.542-4.738-1.542H-679.721z"/>
		<polygon fill="#636466" points="-642.944,151.357 -642.944,91.236 -602.797,91.236 -602.797,107.543 -621.781,107.543 
			-621.781,113.339 -604.555,113.339 -604.555,128.746 -621.781,128.746 -621.781,135.08 -602.302,135.08 -602.302,151.357 		"/>
		<path fill="#636466" d="M-601.791,146.226l6.883-16.838c3.094,2.16,5.843,3.744,8.267,4.746c2.418,1.004,4.679,1.492,6.792,1.492
			c1.476,0,2.64-0.271,3.48-0.826c0.845-0.561,1.269-1.332,1.269-2.285c0-1.668-2.109-2.943-6.35-3.813
			c-1.363-0.309-2.432-0.539-3.204-0.701c-4.486-1.094-7.916-3.041-10.289-5.837c-2.383-2.797-3.568-6.274-3.568-10.438
			c0-6.462,2.31-11.711,6.933-15.767c4.623-4.054,10.671-6.08,18.167-6.08c3.445,0,6.837,0.453,10.17,1.351
			c3.336,0.903,6.701,2.276,10.089,4.113l-6.56,15.725c-2.076-1.527-4.164-2.698-6.259-3.504c-2.096-0.813-4.119-1.213-6.084-1.213
			c-1.506,0-2.67,0.252-3.49,0.764c-0.817,0.504-1.227,1.212-1.227,2.117c0,1.695,3,3.183,8.985,4.479
			c0.958,0.203,1.697,0.378,2.212,0.484c4.128,0.924,7.376,2.838,9.759,5.705c2.384,2.872,3.567,6.35,3.567,10.444
			c0,6.645-2.396,12.076-7.198,16.295c-4.794,4.227-11.04,6.33-18.718,6.33c-3.931,0-7.874-0.563-11.814-1.682
			C-593.919,150.164-597.858,148.482-601.791,146.226z"/>
		<polygon fill="#F3A421" points="-750.418,184.439 -750.418,158.771 -741.194,158.771 -741.194,176.113 -732.233,176.113 
			-732.233,184.439 		"/>
		<path fill="#F3A421" d="M-732.813,184.439l9.138-25.652h10.261l8.964,25.652h-9.903l-0.823-3.225h-6.958l-0.781,3.225H-732.813z
			 M-720.591,175.123h3.834l-0.781-2.906c-0.39-1.473-0.649-2.623-0.793-3.422c-0.143-0.771-0.227-1.527-0.262-2.242h-0.157
			c-0.033,0.715-0.124,1.457-0.267,2.242c-0.144,0.799-0.403,1.949-0.789,3.422L-720.591,175.123z"/>
		<path fill="#F3A421" d="M-690.739,184.439v-25.652h11.011c3.872,0,6.708,0.734,8.501,2.242c1.794,1.492,2.686,3.875,2.686,7.119
			c0,3.023-0.803,5.244-2.419,6.633c-1.608,1.387-4.171,2.096-7.665,2.096h-2.884v7.563H-690.739L-690.739,184.439z
			 M-681.48,165.922v4.275h1.433c0.876,0,1.546-0.184,2.019-0.555c0.46-0.371,0.698-0.889,0.698-1.563
			c0-0.688-0.238-1.219-0.719-1.598c-0.479-0.371-1.149-0.561-1.998-0.561H-681.48z"/>
		<path fill="#F3A421" d="M-668.748,184.439l9.128-25.652h10.265l8.964,25.652h-9.908l-0.823-3.225h-6.95l-0.788,3.225H-668.748z
			 M-656.531,175.123h3.837l-0.788-2.906c-0.387-1.473-0.646-2.623-0.79-3.422c-0.143-0.771-0.224-1.527-0.259-2.242h-0.165
			c-0.028,0.715-0.123,1.457-0.266,2.242c-0.137,0.799-0.399,1.949-0.781,3.422L-656.531,175.123z"/>
		<path fill="#F3A421" d="M-615.55,184.439l-1.121-10.164c-0.069-0.77-0.145-1.563-0.207-2.326c-0.074-0.793-0.123-1.57-0.172-2.355
			c-0.109,0.742-0.252,1.527-0.452,2.355c-0.189,0.811-0.431,1.682-0.712,2.621l-2.944,9.869h-5.474l-2.943-9.869
			c-0.295-0.939-0.532-1.811-0.719-2.621c-0.186-0.828-0.336-1.619-0.437-2.355c-0.057,0.799-0.124,1.578-0.187,2.355
			c-0.063,0.764-0.136,1.557-0.2,2.326l-1.121,10.164h-9.035l4.377-25.652h9.511l1.815,6.336l0.267,0.896
			c0.768,2.691,1.24,4.891,1.418,6.615h0.158c0.145-1.078,0.343-2.256,0.624-3.463c0.28-1.232,0.655-2.605,1.121-4.133l1.911-6.252
			h9.486l4.063,25.652H-615.55L-615.55,184.439z"/>
		<path fill="#F3A421" d="M-603.975,184.439v-25.652h11.012c3.875,0,6.704,0.734,8.498,2.242c1.794,1.492,2.685,3.875,2.685,7.119
			c0,3.023-0.806,5.244-2.422,6.633c-1.605,1.387-4.16,2.096-7.664,2.096h-2.885v7.563H-603.975L-603.975,184.439z
			 M-594.715,165.922v4.275h1.437c0.876,0,1.543-0.184,2.008-0.555c0.466-0.371,0.704-0.889,0.704-1.563
			c0-0.688-0.245-1.219-0.718-1.598c-0.479-0.371-1.149-0.561-1.994-0.561H-594.715z"/>
		<path fill="#F3A421" d="M-581.989,184.439l9.136-25.652h10.257l8.964,25.652h-9.91l-0.82-3.225h-6.946l-0.792,3.225H-581.989z
			 M-569.766,175.123h3.833l-0.792-2.906c-0.386-1.473-0.645-2.623-0.782-3.422c-0.144-0.771-0.228-1.527-0.267-2.242h-0.158
			c-0.028,0.715-0.122,1.457-0.256,2.242c-0.143,0.799-0.403,1.949-0.791,3.422L-569.766,175.123z"/>
	</g>
	<g>
		<g>
			<path fill="#FFFFFF" d="M-433.232,201.652c-49.82,0-90.593-40.244-90.593-89.995c0-50.293,40.773-90.543,90.593-90.543
				c49.82,0,90.585,40.242,90.585,90.543C-342.647,161.408-383.413,201.652-433.232,201.652L-433.232,201.652z"/>
			<path fill="#1786C4" d="M-447.405,91.23c-2.25-1.113-6.209-1.68-11.88-1.68c-1.69,0-6.778,0.566-6.778-1.679
				c0-1.114,1.697-1.671,4.528-2.225c9.056-1.136,16.416-3.911,22.072-8.958c9.622-8.923,14.712-26.263,5.656-36.886
				c-7.346-8.94-20.376-8.376-29.999-3.91c-4.528,2.239-6.806,3.91-7.346,6.135c0,1.698,1.682,2.808,5.088,3.922
				c9.056,2.243,10.739,10.619,3.953,16.212c-5.088,3.904-13.576,3.351-18.112-1.12c-4.521-5.036-3.392-11.173,0.568-16.775
				c-18.679,14.56-31.142,37.46-31.142,63.158c0,14.55,3.975,27.964,10.752,39.685c-0.554-2.236-1.115-4.473-0.554-6.715
				c2.264-14.523,27.735-15.645,25.478-1.668c-0.561,3.35-2.846,6.146-6.799,8.941c-4.536,3.352-5.096,5.582,0.567,7.809
				c3.386,1.689,6.8,2.252,10.213,2.252C-440.578,157.742-417.945,103.512-447.405,91.23z"/>
			<path fill="#F3A421" d="M-423.616,28.077c5.671,1.104,11.327,3.35,15.854,6.705c7.367,5.021,10.206,11.747,9.07,20.123
				c-2.825,21.231-30.574,29.606-48.699,31.853h3.399c10.191,0,19.24,2.233,27.182,6.153c11.319,6.144,15.853,15.074,14.164,27.376
				c-1.71,9.51-6.224,16.772-12.462,22.913c21.518-6.141,42.476-9.49,60.58-11.168c2.824-7.829,3.974-16.211,3.974-24.606
				C-350.567,65.519-382.851,31.42-423.616,28.077z"/>
			<path fill="#007C31" d="M-473.437,174.513c12.462,7.822,27.167,12.84,43.037,12.84c33.966,0,62.843-21.789,74.716-51.41
				c-16.962,1.66-35.662,5.594-56.038,11.178C-434.928,153.816-456.447,163.875-473.437,174.513z"/>
		</g>
		
			<linearGradient id="SVGID_1_" gradientUnits="userSpaceOnUse" x1="-458.3076" y1="157.4519" x2="-386.1983" y2="207.9435" gradientTransform="matrix(1 0 0 -1 -31.1348 271.1577)">
			<stop  offset="0.0441" style="stop-color:#9FCDE6"/>
			<stop  offset="0.1048" style="stop-color:#89C1E0"/>
			<stop  offset="0.2125" style="stop-color:#67B0D8"/>
			<stop  offset="0.3283" style="stop-color:#4CA1D1"/>
			<stop  offset="0.4533" style="stop-color:#3796CC"/>
			<stop  offset="0.5918" style="stop-color:#288EC8"/>
			<stop  offset="0.7543" style="stop-color:#1F89C6"/>
			<stop  offset="1" style="stop-color:#1C88C5"/>
		</linearGradient>
		<path fill="url(#SVGID_1_)" d="M-450.152,32.648c-4.753,0-9.602,1.208-13.807,3.161c-4.536,2.239-6.814,3.918-7.375,6.158
			c0,1.686,1.697,2.814,5.103,3.925c9.091,2.247,10.766,10.636,3.974,16.25c-2.278,1.767-5.278,2.611-8.277,2.611
			c-3.68,0-7.374-1.276-9.869-3.74c-4.536-5.045-3.399-11.204,0.546-16.807c-10.191,7.952-18.56,18.395-24.034,30.417
			c4.878,32.493,25.157,59.954,53.165,74.765c18.076-15.779,25.429-48.86,3.21-58.129c-2.243-1.11-6.224-1.679-11.915-1.679
			c-0.562,0-1.515,0.067-2.531,0.067c-2.011,0-4.269-0.252-4.269-1.752c0-1.114,1.696-1.671,4.528-2.232
			c9.084-1.132,16.472-3.917,22.127-8.971c9.645-8.943,14.748-26.327,5.686-36.969C-438.062,34.672-444.019,32.648-450.152,32.648"
			/>
		
			<linearGradient id="SVGID_2_" gradientUnits="userSpaceOnUse" x1="-381.6987" y1="99.2581" x2="-345.9807" y2="150.2687" gradientTransform="matrix(1 0 0 -1 -31.1348 271.1577)">
			<stop  offset="0.0969" style="stop-color:#99CBAD"/>
			<stop  offset="0.1806" style="stop-color:#75B890"/>
			<stop  offset="0.2741" style="stop-color:#55A875"/>
			<stop  offset="0.3756" style="stop-color:#3A9A60"/>
			<stop  offset="0.4862" style="stop-color:#268F4F"/>
			<stop  offset="0.6104" style="stop-color:#178843"/>
			<stop  offset="0.7595" style="stop-color:#0F833C"/>
			<stop  offset="1" style="stop-color:#0C823A"/>
		</linearGradient>
		<path fill="url(#SVGID_2_)" d="M-355.599,135.957c-16.991,1.662-35.726,5.592-56.158,11.223
			c-8.389,2.426-16.555,5.27-24.364,8.416c10.388,3.568,21.546,5.504,33.14,5.504c13.176,0,25.765-2.504,37.315-7.037
			C-361.571,148.482-358.171,142.398-355.599,135.957"/>
		
			<radialGradient id="SVGID_3_" cx="-436.1211" cy="217.1667" r="43.5764" gradientTransform="matrix(1.0276 0 0 1.3439 13.7443 -74.6823)" gradientUnits="userSpaceOnUse">
			<stop  offset="0" style="stop-color:#BABABA"/>
			<stop  offset="1" style="stop-color:#E3E3E3"/>
		</radialGradient>
		<ellipse fill="url(#SVGID_3_)" cx="-434.426" cy="217.167" rx="63.028" ry="8.063"/>
	</g>
</g>
</svg>
