<?xml version="1.0" encoding="utf-8"?>
<!-- Generator: Adobe Illustrator 15.1.0, SVG Export Plug-In . SVG Version: 6.00 Build 0)  -->
<!DOCTYPE svg PUBLIC "-//W3C//DTD SVG 1.1//EN" "http://www.w3.org/Graphics/SVG/1.1/DTD/svg11.dtd">
<svg version="1.1" id="Layer_1" xmlns="http://www.w3.org/2000/svg" xmlns:xlink="http://www.w3.org/1999/xlink" x="0px" y="0px"
	 width="150px" height="83px" viewBox="0 0 150 83" enable-background="new 0 0 150 83" xml:space="preserve">
<g>
	<path fill="#7ABA48" stroke="#7ABA48" stroke-width="0.603" stroke-miterlimit="10" d="M143.929,41.386
		C142.935,17.3,118.06,16.833,118.06,16.833c-26.182,1.879-24.713,25.559-24.713,25.559c-2.674-3.813-8.68-3.784-8.68-3.784H52.418
		c-1.256-13.57,11.784-13.583,11.784-13.583h30.62l-0.167-7.86l-32.081,0.331c-6.826,0.123-12.604,6.219-12.604,6.219
		c-1.532-5.786-13.104-6.21-13.104-6.21L3.966,17.651v7.208H35.56c7.899,0.042,8.179,5.405,8.179,5.405
		c1.204,5.565-2.443,7.355-2.443,7.355c-4.531,1.264-26.029,0.819-26.029,0.819l0.161,6.062h23.077
		c7.424,1.264,6.057,7.525,6.057,7.525c0.272,6.066-6.227,6.876-6.227,6.876H3.966v7.529h36.948
		c8.408-2.651,9.706-6.219,9.706-6.219c3.496,5.964,12.438,6.058,12.438,6.058h23.738c9.333-1.074,9.986-10.801,9.986-10.801
		c9.383,14.534,26.853,11.81,26.853,11.81C145.014,61.93,143.929,41.386,143.929,41.386z M84.31,58.134c0,0-7.991,0.483-20.845,0
		c0,0-9.494-0.247-10.512-12.977h30.942c0,0,4.2-0.183,4.979,6.189C88.883,51.346,89.841,57.709,84.31,58.134z M119.426,59.22
		c0,0-17.367,0.954-18.56-16.29c0,0-1.047-18.432,17.474-18.334c0,0,17.494-0.098,17.375,16.781
		C135.715,41.386,137.039,58.346,119.426,59.22z"/>
	<g>
		<polygon fill="#7ABA48" stroke="#7ABA48" stroke-width="0.5277" stroke-miterlimit="10" points="112.049,36.932 112.049,38.51 
			114.844,38.51 114.844,45.025 116.694,45.025 116.694,38.543 119.531,38.543 119.531,36.932 		"/>
		<polygon fill="#7ABA48" stroke="#7ABA48" stroke-width="0.5277" stroke-miterlimit="10" points="119.82,36.932 124.584,45.025 
			125.543,45.025 130.492,36.932 128.556,36.932 125.152,43.163 121.429,36.932 		"/>
	</g>
	<path fill="#13773D" d="M146.54,41.386c-0.979-24.086-25.858-24.553-25.858-24.553c-26.186,1.879-24.71,25.559-24.71,25.559
		c-2.677-3.813-8.68-3.784-8.68-3.784H55.044c-1.256-13.57,11.785-13.583,11.785-13.583h30.611l-0.156-7.86l-32.088,0.331
		c-6.821,0.123-12.607,6.219-12.607,6.219c-1.527-5.786-13.095-6.21-13.095-6.21L6.591,17.651v7.208h31.595
		c7.894,0.042,8.178,5.405,8.178,5.405c1.192,5.565-2.456,7.355-2.456,7.355c-4.521,1.264-26.02,0.819-26.02,0.819l0.161,6.062
		H41.13c7.419,1.264,6.053,7.525,6.053,7.525c0.28,6.066-6.219,6.876-6.219,6.876H6.591v7.529h36.936
		c8.408-2.651,9.719-6.219,9.719-6.219c3.491,5.964,12.434,6.058,12.434,6.058h23.743c9.319-1.074,9.986-10.801,9.986-10.801
		c9.383,14.534,26.847,11.81,26.847,11.81C147.636,61.93,146.54,41.386,146.54,41.386z M86.94,58.134c0,0-7.988,0.483-20.846,0
		c0,0-9.494-0.247-10.512-12.977h30.938c0,0,4.203-0.183,4.976,6.189C91.496,51.346,92.464,57.709,86.94,58.134z M122.052,59.22
		c0,0-17.368,0.954-18.568-16.29c0,0-1.038-18.432,17.491-18.334c0,0,17.489-0.098,17.366,16.781
		C138.341,41.386,139.66,58.346,122.052,59.22z"/>
	<g>
		<polygon fill="#13773D" points="110.823,36.932 110.823,38.73 114.005,38.73 114.005,46.184 116.134,46.184 116.134,38.773 
			119.375,38.773 119.375,36.932 		"/>
		<polygon fill="#13773D" points="119.701,36.932 125.141,46.184 126.248,46.184 131.889,36.932 129.684,36.932 125.798,44.05 
			121.538,36.932 		"/>
	</g>
</g>
<rect x="0.258" y="0.657" fill="none" width="150" height="83"/>
</svg>
