<?xml version="1.0" encoding="utf-8"?>
<!-- Generator: Adobe Illustrator 15.1.0, SVG Export Plug-In . SVG Version: 6.00 Build 0)  -->
<!DOCTYPE svg PUBLIC "-//W3C//DTD SVG 1.0//EN" "http://www.w3.org/TR/2001/REC-SVG-20010904/DTD/svg10.dtd">
<svg version="1.0"
	 id="svg2" xmlns:dc="http://purl.org/dc/elements/1.1/" xmlns:cc="http://creativecommons.org/ns#" xmlns:svg="http://www.w3.org/2000/svg" xmlns:rdf="http://www.w3.org/1999/02/22-rdf-syntax-ns#" xmlns:inkscape="http://www.inkscape.org/namespaces/inkscape"
	 xmlns="http://www.w3.org/2000/svg" xmlns:xlink="http://www.w3.org/1999/xlink" x="0px" y="0px" width="60px" height="60px"
	 viewBox="177.5 158.75 60 60" enable-background="new 177.5 158.75 60 60" xml:space="preserve">
<g id="g10" transform="matrix(1.25,0,0,-1.25,0,377.5)">
	<g id="g12">
		<g>
			<defs>
				<rect id="SVGID_1_" x="136.094" y="123.797" width="59.812" height="54.407"/>
			</defs>
			<clipPath id="SVGID_2_">
				<use xlink:href="#SVGID_1_"  overflow="visible"/>
			</clipPath>
			<g id="g14" clip-path="url(#SVGID_2_)">
				<g id="g20" transform="translate(6.2544,31.0127)">
					<path id="path22" inkscape:connector-curvature="0" fill="#606163" d="M136.723,102.694v0.026c0,1.966,1.504,3.587,3.612,3.587
						c1.298,0,2.109-0.438,2.752-1.157l-1.196-1.285c-0.437,0.462-0.875,0.758-1.568,0.758c-0.977,0-1.671-0.861-1.671-1.877v-0.026
						c0-1.054,0.681-1.903,1.748-1.903c0.656,0,1.106,0.283,1.581,0.733l1.145-1.158c-0.669-0.732-1.44-1.259-2.816-1.259
						C138.239,99.133,136.723,100.727,136.723,102.694"/>
				</g>
				<g id="g24" transform="translate(55.1836,72.4941)">
					<path id="path26" inkscape:connector-curvature="0" fill="#606163" d="M94.845,67.192h1.954V63.72
						c0.45,0.579,1.029,1.105,2.019,1.105c1.479,0,2.34-0.977,2.34-2.559v-4.461h-1.955v3.845c0,0.926-0.436,1.401-1.182,1.401
						c-0.746,0-1.222-0.475-1.222-1.401v-3.845h-1.954V67.192z"/>
				</g>
				<g id="g28" transform="translate(135.2891,24.2314)">
					<path id="path30" inkscape:connector-curvature="0" fill="#606163" d="M26.285,108.498v0.347
						c-0.335,0.154-0.772,0.257-1.248,0.257c-0.836,0-1.35-0.334-1.35-0.952v-0.026c0-0.527,0.437-0.836,1.068-0.836
						C25.668,107.289,26.285,107.791,26.285,108.498 M21.797,108.048v0.026c0,1.504,1.144,2.198,2.777,2.198
						c0.695,0,1.196-0.116,1.684-0.282v0.115c0,0.81-0.502,1.26-1.478,1.26c-0.746,0-1.273-0.141-1.904-0.373l-0.489,1.492
						c0.759,0.334,1.505,0.553,2.675,0.553c1.067,0,1.839-0.284,2.327-0.773c0.514-0.513,0.746-1.273,0.746-2.198v-3.998h-1.89
						v0.745c-0.475-0.527-1.132-0.873-2.083-0.873C22.864,105.94,21.797,106.685,21.797,108.048"/>
				</g>
				<g id="g32" transform="translate(153.5107,31.0127)">
					<path id="path34" inkscape:connector-curvature="0" fill="#606163" d="M10.689,102.694v0.026c0,1.966,1.504,3.587,3.613,3.587
						c1.298,0,2.108-0.438,2.752-1.158l-1.197-1.284c-0.436,0.462-0.873,0.758-1.568,0.758c-0.977,0-1.671-0.861-1.671-1.877v-0.026
						c0-1.054,0.681-1.903,1.75-1.903c0.654,0,1.105,0.283,1.58,0.733l1.145-1.158c-0.67-0.732-1.441-1.259-2.816-1.259
						C12.206,99.133,10.689,100.727,10.689,102.694"/>
				</g>
				<g id="g36" transform="translate(237,31.0127)">
					<path id="path38" inkscape:connector-curvature="0" fill="#606163" d="M-60.767,102.694v0.026c0,1.016-0.734,1.902-1.813,1.902
						c-1.119,0-1.788-0.861-1.788-1.877v-0.026c0-1.016,0.734-1.903,1.813-1.903C-61.436,100.817-60.767,101.678-60.767,102.694
						 M-66.296,102.694v0.026c0,1.98,1.595,3.587,3.741,3.587c2.134,0,3.716-1.582,3.716-3.561v-0.026
						c0-1.98-1.595-3.588-3.741-3.588C-64.714,99.133-66.296,100.715-66.296,102.694"/>
				</g>
				<g id="g40" transform="translate(320.5859,52.8799)">
					<path id="path42" inkscape:connector-curvature="0" fill="#606163" d="M-132.306,83.979l-2.507-5.85l-2.481,5.85h-2.738v2.095
						h-0.631v-6.969c0-1.247,0.823-1.799,1.84-1.799c0.411,0,0.732,0.077,1.067,0.231v0.591c-0.373-0.168-0.644-0.231-0.965-0.231
						c-0.759,0-1.311,0.334-1.311,1.273v4.23h2.262l2.687-6.03h0.54l2.945,6.609H-132.306z"/>
				</g>
			</g>
		</g>
	</g>
	<g id="g44">
		<g>
			<defs>
				<path id="SVGID_3_" d="M157.727,150.17c1.85-1.248,3.696-1.971,5.486-2.273l0,0c-1.309,2.174-2.318,4.801-2.943,7.445l0,0
					c-2.373,1.365-4.399,3.403-5.8,5.577l0,0C152.034,157.744,152.188,153.908,157.727,150.17"/>
			</defs>
			<clipPath id="SVGID_4_">
				<use xlink:href="#SVGID_3_"  overflow="visible"/>
			</clipPath>
			<g id="g46" clip-path="url(#SVGID_4_)">
				<g id="g52">
					<g id="g54">
						
							<radialGradient id="path66_1_" cx="-143.7356" cy="-105.1242" r="0.1443" gradientTransform="matrix(131.4008 0 0 -131.4008 19040.4043 -13653.4365)" gradientUnits="userSpaceOnUse">
							<stop  offset="0" style="stop-color:#FFD86F"/>
							<stop  offset="0.2822" style="stop-color:#FFCD41"/>
							<stop  offset="0.9571" style="stop-color:#F78F42"/>
							<stop  offset="1" style="stop-color:#F78F42"/>
						</radialGradient>
						<path id="path66" inkscape:connector-curvature="0" fill="url(#path66_1_)" d="M157.727,150.17
							c1.85-1.248,3.696-1.971,5.486-2.273l0,0c-1.309,2.174-2.318,4.801-2.943,7.445l0,0c-2.373,1.365-4.399,3.403-5.8,5.577l0,0
							C152.034,157.744,152.188,153.908,157.727,150.17"/>
					</g>
				</g>
			</g>
		</g>
	</g>
	<g id="g68">
		<g>
			<defs>
				<path id="SVGID_5_" d="M176.716,160.625c0.727-0.986,1.357-2.025,1.854-3.091l0,0c1.484,3.737,1.158,7.582-1.934,9.609l0,0
					c-1.023,0.671-2.423,1.034-4.035,1.132l0,0C175.756,166.3,177.7,163.639,176.716,160.625"/>
			</defs>
			<clipPath id="SVGID_6_">
				<use xlink:href="#SVGID_5_"  overflow="visible"/>
			</clipPath>
			<g id="g70" clip-path="url(#SVGID_6_)">
				<g id="g76">
					<g id="g78">
						
							<radialGradient id="path90_1_" cx="-144.5414" cy="-104.3664" r="0.144" gradientTransform="matrix(106.4592 0 0 -106.4592 15563.4922 -10941.6963)" gradientUnits="userSpaceOnUse">
							<stop  offset="0" style="stop-color:#FFD879"/>
							<stop  offset="0.2822" style="stop-color:#FFCD41"/>
							<stop  offset="0.9571" style="stop-color:#F78F42"/>
							<stop  offset="1" style="stop-color:#F78F42"/>
						</radialGradient>
						<path id="path90" inkscape:connector-curvature="0" fill="url(#path90_1_)" d="M176.716,160.625
							c0.727-0.986,1.357-2.025,1.854-3.091l0,0c1.484,3.737,1.158,7.582-1.934,9.609l0,0c-1.023,0.671-2.423,1.034-4.035,1.132l0,0
							C175.756,166.3,177.7,163.639,176.716,160.625"/>
					</g>
				</g>
			</g>
		</g>
	</g>
	<g id="g92">
		<g>
			<defs>
				<path id="SVGID_7_" d="M173.875,156.735c-4.641-4.076-9.614-3.686-13.605-1.392l0,0c0.625-2.645,1.634-5.271,2.943-7.445l0,0
					c7.012-1.182,13.163,4.109,15.357,9.637l0,0c-0.497,1.066-1.127,2.104-1.854,3.091l0,0
					C176.309,159.381,175.403,158.077,173.875,156.735"/>
			</defs>
			<clipPath id="SVGID_8_">
				<use xlink:href="#SVGID_7_"  overflow="visible"/>
			</clipPath>
			<g id="g94" clip-path="url(#SVGID_8_)">
				<path id="path100" inkscape:connector-curvature="0" fill="#A12A36" d="M160.27,160.625h18.3v-13.91h-18.3V160.625z"/>
				<g id="g102" transform="translate(166.3594,218.7852)">
					<path id="path104" inkscape:connector-curvature="0" fill="#A12A36" d="M-0.307-58.016h7.745h4.288v0.568
						c0.344-0.367,0.634-0.779,0.863-1.235h-0.234v-2.952h0.773c-0.088-1.035-0.433-2.099-0.999-3.132
						c-1.134-2.066-3.158-4.007-5.803-5.334c-5.291-2.653-11.066-1.842-12.897,1.81h0.338v2.952H-7.11
						c0.089,1.035,0.432,2.099,0.999,3.132c0.567,1.033,1.356,2.035,2.334,2.945c0.489,0.455,1.026,0.887,1.605,1.287v-0.04H-0.307z
						"/>
				</g>
				<g id="g106" transform="translate(166.582,218.7852)">
					<path id="path108" inkscape:connector-curvature="0" fill="#A22C37" d="M-0.498-58.016h7.67h4.246v0.509
						c0.34-0.363,0.628-0.771,0.854-1.223h-0.14v-2.923h0.673c-0.088-1.024-0.428-2.078-0.989-3.101
						c-1.123-2.045-3.127-3.968-5.747-5.282c-5.239-2.626-10.957-1.824-12.77,1.793h0.245v2.923h-0.777
						c0.087,1.024,0.428,2.078,0.989,3.101s1.343,2.015,2.312,2.916c0.484,0.45,1.016,0.878,1.589,1.275
						c0.287,0.198,0.584,0.389,0.892,0.571v-0.558H-0.498z"/>
				</g>
				<g id="g110" transform="translate(166.8086,218.7852)">
					<path id="path112" inkscape:connector-curvature="0" fill="#A32D37" d="M-0.692-58.016h7.595h4.203v0.45
						c0.337-0.359,0.622-0.763,0.846-1.211c0.898-1.791,0.66-3.939-0.452-5.964c-1.112-2.026-3.096-3.929-5.689-5.23
						c-5.188-2.601-10.848-1.807-12.645,1.774h0.151v2.895h-0.678c0.086,1.014,0.423,2.058,0.979,3.07
						c0.555,1.013,1.329,1.995,2.289,2.886c0.48,0.446,1.005,0.87,1.573,1.263c0.284,0.196,0.579,0.385,0.884,0.566v-0.498H-0.692z"
						/>
				</g>
				<g id="g114" transform="translate(167.0352,218.7852)">
					<path id="path116" inkscape:connector-curvature="0" fill="#A52E38" d="M-0.886-58.016h7.517h4.163v0.391
						c0.333-0.356,0.615-0.756,0.837-1.199c0.889-1.773,0.653-3.899-0.447-5.904c-1.101-2.006-3.065-3.89-5.633-5.178
						c-5.135-2.575-10.74-1.788-12.518,1.757c-0.889,1.773-0.652,3.9,0.448,5.905c1.1,2.006,3.065,3.889,5.633,5.177V-58.016z"/>
				</g>
				<g id="g118" transform="translate(167.2578,218.7852)">
					<path id="path120" inkscape:connector-curvature="0" fill="#A62F39" d="M-1.077-58.016h7.443h4.12v0.332
						c0.33-0.352,0.609-0.748,0.829-1.187c0.88-1.755,0.646-3.86-0.442-5.845c-1.09-1.985-3.034-3.85-5.576-5.125
						c-5.084-2.549-10.632-1.77-12.392,1.739c-0.88,1.755-0.646,3.861,0.443,5.846c1.089,1.985,3.034,3.85,5.575,5.125V-58.016z"/>
				</g>
				<g id="g122" transform="translate(167.4844,218.7852)">
					<path id="path124" inkscape:connector-curvature="0" fill="#A8313A" d="M-1.271-58.016h7.366h4.079v0.273
						c0.326-0.348,0.602-0.741,0.82-1.175c0.871-1.737,0.64-3.82-0.438-5.786c-1.078-1.965-3.003-3.811-5.519-5.073
						c-5.032-2.523-10.523-1.752-12.265,1.721c-0.871,1.737-0.639,3.82,0.439,5.786c1.077,1.965,3.002,3.811,5.518,5.073V-58.016z"
						/>
				</g>
				<g id="g126" transform="translate(167.7109,218.7852)">
					<path id="path128" inkscape:connector-curvature="0" fill="#AA313B" d="M-1.464-58.016h7.29h4.036v0.213
						c0.323-0.345,0.597-0.733,0.813-1.163c0.862-1.719,0.633-3.781-0.434-5.725c-1.066-1.946-2.971-3.773-5.462-5.021
						c-4.98-2.497-10.414-1.734-12.138,1.704c-0.862,1.719-0.634,3.781,0.434,5.726c1.067,1.945,2.972,3.772,5.462,5.021V-58.016z"
						/>
				</g>
				<g id="g130" transform="translate(167.9375,218.7852)">
					<path id="path132" inkscape:connector-curvature="0" fill="#AC333C" d="M-1.658-58.016h7.214H9.55v0.154
						c0.32-0.341,0.59-0.725,0.803-1.151c0.853-1.7,0.627-3.741-0.429-5.666c-1.055-1.924-2.941-3.733-5.405-4.968
						c-4.927-2.471-10.305-1.716-12.011,1.686c-0.853,1.701-0.627,3.741,0.429,5.666c1.056,1.924,2.941,3.733,5.405,4.968V-58.016z"
						/>
				</g>
				<g id="g134" transform="translate(168.1641,218.7852)">
					<path id="path136" inkscape:connector-curvature="0" fill="#AD343D" d="M-1.852-58.016h7.138H8.15v0.981
						c0.812-0.505,1.461-1.183,1.883-2.025c0.844-1.684,0.62-3.703-0.425-5.607c-1.045-1.904-2.909-3.693-5.348-4.916
						c-4.876-2.445-10.197-1.698-11.885,1.668c-0.845,1.684-0.62,3.703,0.425,5.607c1.045,1.904,2.91,3.693,5.348,4.916V-58.016z"/>
				</g>
				<g id="g138" transform="translate(168.3867,218.7852)">
					<path id="path140" inkscape:connector-curvature="0" fill="#AF363E" d="M-2.043-58.016h7.063h2.834v0.912
						c0.803-0.5,1.445-1.17,1.863-2.003c0.836-1.665,0.614-3.663-0.42-5.547c-1.034-1.884-2.879-3.653-5.291-4.863
						c-4.824-2.419-10.088-1.68-11.759,1.65c-0.835,1.666-0.613,3.663,0.421,5.548c1.034,1.884,2.879,3.654,5.291,4.863V-58.016z"/>
				</g>
				<g id="g142" transform="translate(168.6133,218.7852)">
					<path id="path144" inkscape:connector-curvature="0" fill="#B0363E" d="M-2.237-58.016h6.986h2.803v0.843
						c0.795-0.495,1.43-1.158,1.843-1.981c1.653-3.295-0.877-7.905-5.649-10.298c-4.773-2.394-9.98-1.663-11.633,1.632
						c-0.826,1.647-0.606,3.624,0.416,5.487c1.022,1.864,2.847,3.615,5.234,4.812V-58.016z"/>
				</g>
				<g id="g146" transform="translate(168.8398,218.7852)">
					<path id="path148" inkscape:connector-curvature="0" fill="#B1383F" d="M-2.43-58.016H4.48h2.771v0.775
						c0.788-0.489,1.416-1.145,1.824-1.96c1.634-3.259-0.869-7.82-5.589-10.186c-4.72-2.366-9.872-1.644-11.506,1.615
						c-1.634,3.259,0.868,7.82,5.589,10.186V-58.016z"/>
				</g>
				<g id="g150" transform="translate(169.0625,218.7852)">
					<path id="path152" inkscape:connector-curvature="0" fill="#B33940" d="M-2.621-58.016h6.834h2.742v0.707
						c0.778-0.484,1.399-1.133,1.804-1.939c1.615-3.223-0.859-7.734-5.527-10.075c-4.67-2.341-9.763-1.626-11.38,1.597
						c-1.616,3.223,0.859,7.734,5.527,10.075V-58.016z"/>
				</g>
				<g id="g154" transform="translate(169.2891,218.7852)">
					<path id="path156" inkscape:connector-curvature="0" fill="#B43B42" d="M-2.815-58.016h6.759h2.711v0.638
						c0.77-0.478,1.384-1.12,1.784-1.918c1.598-3.187-0.849-7.647-5.467-9.962c-4.616-2.316-9.655-1.608-11.252,1.58
						c-1.598,3.187,0.849,7.648,5.466,9.962V-58.016z"/>
				</g>
				<g id="g158" transform="translate(169.5156,218.7852)">
					<path id="path160" inkscape:connector-curvature="0" fill="#B63C42" d="M-3.009-58.016h6.683h2.681v0.569
						c0.76-0.473,1.368-1.108,1.763-1.896c1.58-3.151-0.839-7.562-5.405-9.851c-4.565-2.289-9.546-1.589-11.127,1.561
						c-1.58,3.152,0.839,7.562,5.404,9.851V-58.016z"/>
				</g>
				<g id="g162" transform="translate(169.7422,218.7852)">
					<path id="path164" inkscape:connector-curvature="0" fill="#B73D43" d="M-3.202-58.016h6.606h2.649v0.501
						c0.752-0.468,1.353-1.095,1.745-1.875c1.562-3.116-0.83-7.476-5.343-9.739c-4.513-2.263-9.439-1.571-11.001,1.544
						c-1.562,3.116,0.83,7.476,5.344,9.739V-58.016z"/>
				</g>
				<g id="g166" transform="translate(169.9688,218.7852)">
					<path id="path168" inkscape:connector-curvature="0" fill="#B93E44" d="M-3.397-58.016h6.53h2.621v0.432
						c0.742-0.462,1.336-1.082,1.723-1.852c1.544-3.08-0.821-7.391-5.282-9.627c-4.461-2.238-9.33-1.555-10.874,1.525
						c-1.545,3.08,0.82,7.391,5.282,9.627V-58.016z"/>
				</g>
				<g id="g170" transform="translate(170.1914,218.7852)">
					<path id="path172" inkscape:connector-curvature="0" fill="#BA3F45" d="M-3.588-58.016h6.455h2.589v0.363
						c0.734-0.457,1.322-1.07,1.704-1.831c1.526-3.044-0.812-7.304-5.221-9.515s-9.221-1.536-10.747,1.508
						c-1.527,3.044,0.81,7.304,5.22,9.515V-58.016z"/>
				</g>
				<g id="g174" transform="translate(170.418,218.6172)">
					<path id="path176" inkscape:connector-curvature="0" fill="#BB4046" d="M-3.781-57.872c0.545,0.273,1.095,0.502,1.646,0.687
						v-0.662h7.292v0.294c0.726-0.451,1.306-1.057,1.683-1.809c1.508-3.008-0.801-7.218-5.159-9.403s-9.113-1.518-10.621,1.491
						C-10.448-64.267-8.139-60.057-3.781-57.872"/>
				</g>
				<g id="g178" transform="translate(170.6445,218.168)">
					<path id="path180" inkscape:connector-curvature="0" fill="#BD4147" d="M-3.975-57.488c0.537,0.27,1.082,0.496,1.626,0.678
						v-0.589h7.205v0.226c0.717-0.446,1.291-1.045,1.663-1.787c1.49-2.973-0.792-7.133-5.098-9.291
						c-4.305-2.159-9.004-1.499-10.495,1.473C-10.563-63.807-8.281-59.647-3.975-57.488"/>
				</g>
				<g id="g182" transform="translate(170.8672,217.7188)">
					<path id="path184" inkscape:connector-curvature="0" fill="#BE4248" d="M-4.166-57.103c1.063,0.533,2.152,0.893,3.208,1.086
						v-0.932h5.517v0.157c0.709-0.441,1.276-1.032,1.644-1.766c1.472-2.936-0.783-7.046-5.036-9.18
						c-4.254-2.132-8.896-1.48-10.368,1.456C-10.673-63.346-8.419-59.236-4.166-57.103"/>
				</g>
				<g id="g186" transform="translate(171.0938,217.2656)">
					<path id="path188" inkscape:connector-curvature="0" fill="#BF4349" d="M-4.359-56.715c1.051,0.527,2.124,0.881,3.169,1.072
						v-0.854h2.982v0.94c1.853-0.261,3.363-1.146,4.091-2.596c1.454-2.901-0.773-6.961-4.975-9.067
						c-4.202-2.107-8.787-1.463-10.242,1.438C-10.788-62.881-8.561-58.821-4.359-56.715"/>
				</g>
				<g id="g190" transform="translate(171.3203,216.8164)">
					<path id="path192" inkscape:connector-curvature="0" fill="#C14449" d="M-4.554-56.331c1.038,0.52,2.099,0.871,3.13,1.059
						v-0.775h2.946v0.861c1.83-0.257,3.322-1.132,4.04-2.564c1.437-2.865-0.763-6.875-4.913-8.955
						c-4.15-2.081-8.679-1.445-10.115,1.418C-10.903-62.421-8.704-58.411-4.554-56.331"/>
				</g>
				<g id="g194" transform="translate(171.5469,216.3672)">
					<path id="path196" inkscape:connector-curvature="0" fill="#C1464B" d="M-4.748-55.946c1.025,0.514,2.073,0.86,3.091,1.046
						v-0.698h2.909v0.782c1.808-0.254,3.28-1.118,3.99-2.532c1.419-2.829-0.753-6.788-4.852-8.843
						c-4.098-2.055-8.57-1.427-9.989,1.402C-11.018-61.961-8.846-58.001-4.748-55.946"/>
				</g>
				<g id="g198" transform="translate(171.7734,215.918)">
					<path id="path200" inkscape:connector-curvature="0" fill="#C3474B" d="M-4.941-55.562c2.023,1.014,4.138,1.366,5.923,1.116
						c1.785-0.25,3.239-1.104,3.94-2.5c1.4-2.793-0.745-6.703-4.791-8.732c-4.046-2.028-8.461-1.409-9.862,1.384
						C-11.132-61.5-8.988-57.591-4.941-55.562"/>
				</g>
				<g id="g202" transform="translate(171.9961,215.4688)">
					<path id="path204" inkscape:connector-curvature="0" fill="#C4484C" d="M-5.132-55.177c1.998,1.001,4.086,1.349,5.848,1.102
						c1.763-0.247,3.198-1.089,3.889-2.468c1.382-2.758-0.735-6.617-4.73-8.62c-3.994-2.002-8.353-1.391-9.736,1.366
						C-11.243-61.04-9.126-57.181-5.132-55.177"/>
				</g>
				<g id="g206" transform="translate(172.2227,215.0156)">
					<path id="path208" inkscape:connector-curvature="0" fill="#C5494D" d="M-5.326-54.789c1.971,0.988,4.033,1.332,5.771,1.088
						c1.74-0.244,3.156-1.075,3.838-2.436c1.365-2.721-0.725-6.531-4.667-8.508c-3.942-1.977-8.245-1.373-9.609,1.349
						C-11.358-60.575-9.268-56.766-5.326-54.789"/>
				</g>
				<g id="g210" transform="translate(172.4492,214.5664)">
					<path id="path212" inkscape:connector-curvature="0" fill="#C74B4E" d="M-5.52-54.405c1.945,0.976,3.979,1.315,5.695,1.074
						c1.717-0.241,3.115-1.061,3.788-2.404c1.347-2.686-0.716-6.445-4.605-8.396c-3.891-1.95-8.137-1.355-9.484,1.331
						C-11.473-60.115-9.411-56.356-5.52-54.405"/>
				</g>
				<g id="g214" transform="translate(172.6719,214.1172)">
					<path id="path216" inkscape:connector-curvature="0" fill="#C84C4F" d="M-5.71-54.02c1.92,0.963,3.926,1.296,5.62,1.059
						c1.693-0.237,3.073-1.047,3.738-2.371c1.328-2.651-0.707-6.359-4.545-8.284c-3.838-1.924-8.027-1.337-9.356,1.313
						C-11.584-59.654-9.549-55.945-5.71-54.02"/>
				</g>
				<g id="g218" transform="translate(172.8984,213.668)">
					<path id="path220" inkscape:connector-curvature="0" fill="#C94D50" d="M-5.905-53.636c1.895,0.949,3.874,1.279,5.544,1.045
						c1.671-0.235,3.031-1.033,3.688-2.34c1.311-2.615-0.697-6.273-4.484-8.173c-3.787-1.898-7.919-1.318-9.23,1.296
						C-11.698-59.193-9.691-55.535-5.905-53.636"/>
				</g>
				<g id="g222" transform="translate(173.125,213.2188)">
					<path id="path224" inkscape:connector-curvature="0" fill="#CA4E51" d="M-6.098-53.252c1.866,0.936,3.82,1.262,5.467,1.03
						c1.648-0.231,2.989-1.019,3.636-2.308c1.293-2.579-0.686-6.187-4.422-8.06c-3.734-1.872-7.811-1.3-9.104,1.278
						C-11.813-58.733-9.833-55.125-6.098-53.252"/>
				</g>
				<g id="g226" transform="translate(173.3516,212.7656)">
					<path id="path228" inkscape:connector-curvature="0" fill="#CC5052" d="M-6.292-52.864c3.684,1.847,7.702,1.283,8.977-1.259
						c1.275-2.543-0.677-6.101-4.36-7.948c-3.683-1.846-7.703-1.283-8.977,1.259C-11.928-58.268-9.975-54.711-6.292-52.864"/>
				</g>
				<g id="g230" transform="translate(173.5781,212.3164)">
					<path id="path232" inkscape:connector-curvature="0" fill="#CC5153" d="M-6.486-52.479c3.631,1.821,7.594,1.265,8.851-1.242
						c1.257-2.507-0.668-6.015-4.299-7.836c-3.631-1.821-7.594-1.265-8.85,1.242C-12.042-57.808-10.117-54.3-6.486-52.479"/>
				</g>
				<g id="g234" transform="translate(173.8008,211.8672)">
					<path id="path236" inkscape:connector-curvature="0" fill="#CD5153" d="M-6.677-52.095c3.58,1.795,7.486,1.246,8.725-1.224
						c1.239-2.471-0.659-5.929-4.238-7.724c-3.58-1.795-7.486-1.246-8.725,1.225C-12.153-57.347-10.255-53.89-6.677-52.095"/>
				</g>
				<g id="g238" transform="translate(174.0273,211.418)">
					<path id="path240" inkscape:connector-curvature="0" fill="#CF5354" d="M-6.87-51.71c3.528,1.769,7.377,1.229,8.598-1.207
						c1.222-2.436-0.648-5.843-4.176-7.612c-3.528-1.769-7.377-1.228-8.598,1.207C-12.268-56.887-10.398-53.479-6.87-51.71"/>
				</g>
				<g id="g242" transform="translate(174.2539,210.9688)">
					<path id="path244" inkscape:connector-curvature="0" fill="#CF5455" d="M-7.065-51.326c3.476,1.743,7.269,1.211,8.472-1.189
						c1.204-2.399-0.639-5.757-4.114-7.5c-3.476-1.743-7.269-1.21-8.472,1.189C-12.382-56.427-10.54-53.069-7.065-51.326"/>
				</g>
				<g id="g246" transform="translate(174.4766,210.5195)">
					<path id="path248" inkscape:connector-curvature="0" fill="#D05556" d="M-7.255-50.941c3.424,1.716,7.16,1.192,8.345-1.171
						c1.185-2.364-0.63-5.671-4.053-7.388c-3.424-1.717-7.16-1.192-8.345,1.172C-12.493-55.966-10.679-52.659-7.255-50.941"/>
				</g>
				<g id="g250" transform="translate(174.7031,210.0703)">
					<path id="path252" inkscape:connector-curvature="0" fill="#D25657" d="M-7.449-50.557c3.373,1.69,7.052,1.173,8.22-1.154
						c1.167-2.328-0.62-5.586-3.992-7.277c-3.372-1.691-7.052-1.174-8.218,1.154C-12.608-55.505-10.82-52.248-7.449-50.557"/>
				</g>
				<g id="g254" transform="translate(174.9297,209.6172)">
					<path id="path256" inkscape:connector-curvature="0" fill="#D35758" d="M-7.643-50.169c3.32,1.664,6.943,1.156,8.093-1.136
						c1.148-2.292-0.61-5.499-3.931-7.164c-3.32-1.665-6.943-1.156-8.092,1.136C-12.722-55.041-10.963-51.834-7.643-50.169"/>
				</g>
				<g id="g258" transform="translate(175.1563,209.168)">
					<path id="path260" inkscape:connector-curvature="0" fill="#D35858" d="M-7.837-49.785c3.269,1.639,6.834,1.139,7.966-1.117
						c1.131-2.256-0.6-5.414-3.868-7.053c-3.27-1.639-6.836-1.138-7.966,1.118C-12.837-54.581-11.105-51.424-7.837-49.785"/>
				</g>
				<g id="g262" transform="translate(175.3828,208.7188)">
					<path id="path264" inkscape:connector-curvature="0" fill="#D45859" d="M-8.03-49.4c3.216,1.612,6.725,1.12,7.839-1.1
						c1.114-2.221-0.591-5.327-3.808-6.941c-3.216-1.613-6.726-1.12-7.839,1.1C-12.952-54.12-11.247-51.013-8.03-49.4"/>
				</g>
				<g id="g266" transform="translate(175.6055,208.2695)">
					<path id="path268" inkscape:connector-curvature="0" fill="#D65A5A" d="M-8.221-49.016c3.165,1.587,6.618,1.102,7.713-1.083
						c1.095-2.184-0.582-5.241-3.747-6.829c-3.164-1.586-6.617-1.101-7.712,1.083C-13.062-53.66-11.385-50.603-8.221-49.016"/>
				</g>
				<g id="g270" transform="translate(175.832,207.8203)">
					<path id="path272" inkscape:connector-curvature="0" fill="#D65A5A" d="M-8.415-48.631c3.113,1.561,6.509,1.084,7.586-1.065
						c1.077-2.148-0.572-5.155-3.684-6.716c-3.113-1.561-6.51-1.084-7.587,1.065C-13.177-53.199-11.528-50.192-8.415-48.631"/>
				</g>
				<g id="g274" transform="translate(176.0586,207.3672)">
					<path id="path276" inkscape:connector-curvature="0" fill="#D75B5B" d="M-8.609-48.243c3.061,1.535,6.401,1.066,7.46-1.046
						c1.06-2.113-0.563-5.07-3.623-6.604c-3.061-1.535-6.4-1.066-7.459,1.046C-13.292-52.735-11.67-49.778-8.609-48.243"/>
				</g>
				<g id="g278" transform="translate(176.2813,206.918)">
					<path id="path280" inkscape:connector-curvature="0" fill="#D85C5C" d="M-8.8-47.859c3.009,1.509,6.293,1.048,7.334-1.029
						c1.041-2.077-0.553-4.984-3.562-6.493c-3.009-1.509-6.292-1.048-7.333,1.029C-13.402-52.275-11.808-49.367-8.8-47.859"/>
				</g>
				<g id="g282" transform="translate(176.5078,206.4688)">
					<path id="path284" inkscape:connector-curvature="0" fill="#D95D5D" d="M-8.993-47.474c2.956,1.483,6.183,1.03,7.207-1.011
						c1.023-2.041-0.545-4.898-3.501-6.38c-2.956-1.483-6.183-1.03-7.207,1.011S-11.95-48.957-8.993-47.474"/>
				</g>
				<g id="g286" transform="translate(176.7344,206.0195)">
					<path id="path288" inkscape:connector-curvature="0" fill="#DA5E5E" d="M-9.188-47.09c2.905,1.456,6.076,1.012,7.08-0.994
						c1.006-2.005-0.534-4.813-3.439-6.269c-2.905-1.456-6.074-1.012-7.08,0.994C-13.632-51.353-12.092-48.546-9.188-47.09"/>
				</g>
				<g id="g290" transform="translate(176.9609,205.5703)">
					<path id="path292" inkscape:connector-curvature="0" fill="#DA5F5E" d="M-9.381-46.705c2.853,1.43,5.966,0.994,6.954-0.976
						c0.988-1.969-0.524-4.726-3.377-6.157c-2.853-1.43-5.967-0.993-6.955,0.977C-13.746-50.893-12.234-48.137-9.381-46.705"/>
				</g>
				<g id="g294" transform="translate(177.1875,205.1172)">
					<path id="path296" inkscape:connector-curvature="0" fill="#DC5F5F" d="M-9.575-46.318c2.801,1.405,5.858,0.976,6.827-0.958
						c0.97-1.933-0.515-4.64-3.316-6.044c-2.802-1.405-5.859-0.977-6.829,0.958C-13.861-50.429-12.377-47.722-9.575-46.318"/>
				</g>
				<g id="g298" transform="translate(177.4102,204.668)">
					<path id="path300" inkscape:connector-curvature="0" fill="#DD6060" d="M-9.766-45.933c2.75,1.378,5.749,0.957,6.702-0.941
						c0.952-1.898-0.505-4.554-3.255-5.933c-2.749-1.378-5.749-0.957-6.701,0.941C-13.973-49.968-12.514-47.311-9.766-45.933"/>
				</g>
				<g id="g302" transform="translate(177.6367,204.2188)">
					<path id="path304" inkscape:connector-curvature="0" fill="#DE6161" d="M-9.959-45.549c2.698,1.353,5.641,0.94,6.575-0.923
						c0.934-1.862-0.496-4.468-3.193-5.821c-2.698-1.352-5.642-0.939-6.575,0.923C-14.087-49.507-12.657-46.901-9.959-45.549"/>
				</g>
				<g id="g306" transform="translate(177.8633,203.7695)">
					<path id="path308" inkscape:connector-curvature="0" fill="#DE6261" d="M-10.153-45.164c2.645,1.327,5.532,0.921,6.448-0.905
						c0.916-1.827-0.486-4.383-3.131-5.709c-2.646-1.327-5.533-0.922-6.449,0.905C-14.202-49.046-12.799-46.491-10.153-45.164"/>
				</g>
				<g id="g310" transform="translate(178.0859,203.3203)">
					<path id="path312" inkscape:connector-curvature="0" fill="#DE6262" d="M-10.345-44.78c2.595,1.3,5.425,0.903,6.323-0.887
						c0.898-1.791-0.477-4.297-3.07-5.597c-2.594-1.3-5.425-0.903-6.323,0.888C-14.312-48.586-12.937-46.08-10.345-44.78"/>
				</g>
				<g id="g314" transform="translate(178.3125,202.8711)">
					<path id="path316" inkscape:connector-curvature="0" fill="#DF6362" d="M-10.538-44.395c2.541,1.275,5.315,0.885,6.195-0.87
						c0.88-1.755-0.467-4.211-3.009-5.486c-2.542-1.274-5.315-0.885-6.196,0.87C-14.427-48.126-13.08-45.67-10.538-44.395"/>
				</g>
				<g id="g318" transform="translate(178.5391,202.4219)">
					<path id="path320" inkscape:connector-curvature="0" fill="#E06463" d="M-10.732-44.011c2.49,1.248,5.208,0.867,6.069-0.852
						c0.862-1.72-0.457-4.125-2.948-5.373c-2.49-1.248-5.207-0.867-6.069,0.852C-14.542-47.665-13.222-45.259-10.732-44.011"/>
				</g>
				<g id="g322" transform="translate(178.7656,201.9688)">
					<path id="path324" inkscape:connector-curvature="0" fill="#E16563" d="M-10.926-43.623c2.438,1.222,5.098,0.849,5.943-0.834
						c0.844-1.683-0.448-4.039-2.887-5.261c-2.438-1.222-5.099-0.849-5.943,0.834C-14.656-47.2-13.364-44.845-10.926-43.623"/>
				</g>
				<g id="g326" transform="translate(178.9922,201.5195)">
					<path id="path328" inkscape:connector-curvature="0" fill="#E16664" d="M-11.12-43.239c2.385,1.196,4.991,0.831,5.816-0.816
						c0.827-1.647-0.438-3.953-2.824-5.149c-2.387-1.196-4.991-0.831-5.817,0.816C-14.771-46.74-13.506-44.435-11.12-43.239"/>
				</g>
				<g id="g330" transform="translate(179.2148,201.0703)">
					<path id="path332" inkscape:connector-curvature="0" fill="#E26765" d="M-11.31-42.854c2.334,1.17,4.881,0.813,5.69-0.798
						c0.808-1.612-0.429-3.867-2.764-5.038c-2.334-1.171-4.881-0.813-5.69,0.798C-14.882-46.28-13.644-44.025-11.31-42.854"/>
				</g>
				<g id="g334" transform="translate(179.4414,200.6211)">
					<path id="path336" inkscape:connector-curvature="0" fill="#E36765" d="M-11.505-42.47c2.283,1.145,4.774,0.795,5.564-0.781
						c0.79-1.576-0.42-3.781-2.702-4.926c-2.283-1.145-4.773-0.795-5.564,0.781C-14.996-45.82-13.786-43.614-11.505-42.47"/>
				</g>
				<g id="g338" transform="translate(179.668,200.1719)">
					<path id="path340" inkscape:connector-curvature="0" fill="#E36866" d="M-11.698-42.085c2.23,1.118,4.664,0.777,5.436-0.763
						c0.773-1.54-0.409-3.695-2.64-4.813s-4.665-0.777-5.438,0.763C-15.111-45.359-13.929-43.204-11.698-42.085"/>
				</g>
				<g id="g342" transform="translate(179.8906,199.7188)">
					<path id="path344" inkscape:connector-curvature="0" fill="#E46967" d="M-11.888-41.697c2.179,1.093,4.557,0.759,5.31-0.745
						c0.755-1.504-0.4-3.609-2.579-4.701c-2.178-1.093-4.556-0.759-5.311,0.745C-15.222-44.895-14.067-42.79-11.888-41.697"/>
				</g>
				<g id="g346" transform="translate(180.1172,199.2695)">
					<path id="path348" inkscape:connector-curvature="0" fill="#E56967" d="M-12.083-41.313c2.127,1.067,4.448,0.741,5.184-0.727
						c0.737-1.468-0.391-3.523-2.517-4.589s-4.448-0.741-5.184,0.727C-15.337-44.434-14.209-42.379-12.083-41.313"/>
				</g>
				<g id="g350" transform="translate(180.3438,198.8203)">
					<path id="path352" inkscape:connector-curvature="0" fill="#E66A68" d="M-12.276-40.928c2.074,1.04,4.339,0.723,5.057-0.71
						c0.719-1.432-0.382-3.437-2.456-4.477c-2.075-1.04-4.34-0.723-5.058,0.71C-15.451-43.973-14.352-41.969-12.276-40.928"/>
				</g>
				<g id="g354" transform="translate(180.5703,198.3711)">
					<path id="path356" inkscape:connector-curvature="0" fill="#E66B68" d="M-12.47-40.544c2.023,1.014,4.23,0.704,4.93-0.692
						c0.701-1.396-0.371-3.351-2.395-4.366s-4.23-0.704-4.931,0.692C-15.566-43.513-14.494-41.559-12.47-40.544"/>
				</g>
				<g id="g358" transform="translate(180.7969,197.9219)">
					<path id="path360" inkscape:connector-curvature="0" fill="#E66B69" d="M-12.665-40.159c1.972,0.988,4.123,0.687,4.805-0.675
						c0.682-1.361-0.362-3.265-2.334-4.254c-1.971-0.988-4.123-0.686-4.805,0.675C-15.681-43.052-14.636-41.148-12.665-40.159"/>
				</g>
				<g id="g362" transform="translate(181.0234,197.4688)">
					<path id="path364" inkscape:connector-curvature="0" fill="#E76C69" d="M-12.858-39.772c1.919,0.963,4.013,0.669,4.678-0.657
						c0.664-1.324-0.353-3.179-2.273-4.141c-1.92-0.963-4.013-0.669-4.679,0.656C-15.795-42.588-14.778-40.734-12.858-39.772"/>
				</g>
				<g id="g366" transform="translate(181.2461,197.0195)">
					<path id="path368" inkscape:connector-curvature="0" fill="#E86D6A" d="M-13.048-39.387c1.866,0.936,3.905,0.65,4.552-0.639
						c0.646-1.289-0.344-3.094-2.211-4.03c-1.867-0.937-3.905-0.651-4.552,0.638C-15.906-42.128-14.916-40.323-13.048-39.387"/>
				</g>
				<g id="g370" transform="translate(181.4727,196.5703)">
					<path id="path372" inkscape:connector-curvature="0" fill="#E86D6A" d="M-13.243-39.003c1.816,0.911,3.797,0.632,4.427-0.621
						c0.627-1.253-0.335-3.007-2.15-3.918c-1.816-0.911-3.798-0.632-4.426,0.621C-16.02-41.667-15.059-39.913-13.243-39.003"/>
				</g>
				<g id="g374" transform="translate(181.6992,196.1211)">
					<path id="path376" inkscape:connector-curvature="0" fill="#E96E6B" d="M-13.436-38.618c1.763,0.884,3.688,0.614,4.298-0.604
						c0.61-1.217-0.324-2.921-2.088-3.805c-1.764-0.884-3.689-0.614-4.299,0.604C-16.136-41.207-15.201-39.503-13.436-38.618"/>
				</g>
				<g id="g378" transform="translate(181.9219,195.6719)">
					<path id="path380" inkscape:connector-curvature="0" fill="#E96E6B" d="M-13.627-38.233c1.712,0.857,3.58,0.596,4.173-0.586
						c0.592-1.182-0.315-2.836-2.027-3.694c-1.711-0.858-3.58-0.596-4.173,0.585C-16.246-40.746-15.339-39.092-13.627-38.233"/>
				</g>
				<g id="g382" transform="translate(182.1484,195.2227)">
					<path id="path384" inkscape:connector-curvature="0" fill="#EA6E6B" d="M-13.821-37.849c1.661,0.832,3.472,0.578,4.046-0.568
						c0.575-1.146-0.305-2.75-1.966-3.582c-1.659-0.832-3.471-0.578-4.045,0.568C-16.361-40.285-15.48-38.682-13.821-37.849"/>
				</g>
				<g id="g386" transform="translate(182.375,194.7734)">
					<path id="path388" inkscape:connector-curvature="0" fill="#EA6F6C" d="M-14.015-37.464c1.607,0.806,3.363,0.56,3.92-0.551
						c0.556-1.11-0.295-2.663-1.904-3.47c-1.608-0.807-3.363-0.56-3.92,0.55C-16.475-39.825-15.623-38.271-14.015-37.464"/>
				</g>
				<g id="g390" transform="translate(182.6016,194.3203)">
					<path id="path392" inkscape:connector-curvature="0" fill="#EA6F6C" d="M-14.209-37.077c1.555,0.78,3.254,0.542,3.794-0.532
						c0.538-1.075-0.287-2.578-1.844-3.358c-1.556-0.78-3.255-0.542-3.793,0.532C-16.59-39.36-15.765-37.857-14.209-37.077"/>
				</g>
				<g id="g394" transform="translate(182.8281,193.8711)">
					<path id="path396" inkscape:connector-curvature="0" fill="#EB706D" d="M-14.403-36.693c1.505,0.755,3.146,0.525,3.666-0.514
						c0.521-1.038-0.276-2.492-1.78-3.246c-1.505-0.754-3.146-0.524-3.666,0.514C-16.705-38.9-15.907-37.447-14.403-36.693"/>
				</g>
				<g id="g398" transform="translate(183.0508,193.4219)">
					<path id="path400" inkscape:connector-curvature="0" fill="#EB706D" d="M-14.593-36.308c1.452,0.729,3.037,0.505,3.541-0.497
						c0.502-1.003-0.268-2.405-1.72-3.134s-3.038-0.506-3.54,0.497C-16.815-38.439-16.046-37.036-14.593-36.308"/>
				</g>
				<g id="g402" transform="translate(183.2773,192.9727)">
					<path id="path404" inkscape:connector-curvature="0" fill="#EB706D" d="M-14.787-35.924c1.402,0.702,2.93,0.488,3.415-0.479
						c0.484-0.967-0.258-2.32-1.659-3.023c-1.401-0.702-2.929-0.487-3.414,0.479C-16.93-37.979-16.188-36.626-14.787-35.924"/>
				</g>
				<g id="g406" transform="translate(183.5039,192.5234)">
					<path id="path408" inkscape:connector-curvature="0" fill="#EC726E" d="M-14.981-35.539c1.348,0.676,2.82,0.47,3.288-0.462
						c0.467-0.931-0.248-2.234-1.597-2.91c-1.348-0.677-2.82-0.47-3.288,0.461C-17.045-37.518-16.331-36.216-14.981-35.539"/>
				</g>
				<g id="g410" transform="translate(183.7266,192.0703)">
					<path id="path412" inkscape:connector-curvature="0" fill="#EC726E" d="M-15.171-35.151c1.296,0.65,2.712,0.452,3.161-0.444
						c0.448-0.895-0.239-2.147-1.535-2.798c-1.298-0.651-2.713-0.452-3.161,0.443C-17.156-37.054-16.469-35.802-15.171-35.151"/>
				</g>
				<g id="g414" transform="translate(183.9531,191.6211)">
					<path id="path416" inkscape:connector-curvature="0" fill="#ED726F" d="M-15.366-34.767c1.245,0.624,2.603,0.434,3.034-0.426
						c0.431-0.859-0.229-2.062-1.474-2.686c-1.245-0.624-2.603-0.434-3.034,0.426C-17.27-36.594-16.611-35.391-15.366-34.767"/>
				</g>
				<g id="g418" transform="translate(184.1797,191.1719)">
					<path id="path420" inkscape:connector-curvature="0" fill="#ED736F" d="M-15.56-34.382c1.194,0.598,2.495,0.416,2.909-0.409
						c0.413-0.823-0.22-1.976-1.413-2.574c-1.193-0.599-2.495-0.416-2.908,0.408C-17.386-36.133-16.752-34.981-15.56-34.382"/>
				</g>
				<g id="g422" transform="translate(184.4063,190.7227)">
					<path id="path424" inkscape:connector-curvature="0" fill="#ED736F" d="M-15.753-33.998c1.141,0.572,2.387,0.398,2.782-0.39
						c0.394-0.789-0.21-1.891-1.352-2.463c-1.141-0.572-2.387-0.398-2.782,0.39C-17.5-35.672-16.895-34.57-15.753-33.998"/>
				</g>
				<g id="g426" transform="translate(184.6328,190.2734)">
					<path id="path428" inkscape:connector-curvature="0" fill="#EE7370" d="M-15.948-33.613c1.089,0.546,2.278,0.379,2.655-0.373
						c0.377-0.752-0.2-1.805-1.29-2.351c-1.089-0.546-2.278-0.379-2.655,0.373C-17.614-35.212-17.037-34.159-15.948-33.613"/>
				</g>
				<g id="g430" transform="translate(184.8555,189.8203)">
					<path id="path432" inkscape:connector-curvature="0" fill="#EE7370" d="M-16.138-33.225c1.038,0.521,2.17,0.361,2.53-0.354
						c0.359-0.716-0.191-1.718-1.229-2.239c-1.037-0.521-2.17-0.362-2.528,0.355C-17.725-34.748-17.175-33.746-16.138-33.225"/>
				</g>
				<g id="g434" transform="translate(185.082,189.3711)">
					<path id="path436" inkscape:connector-curvature="0" fill="#EF7470" d="M-16.331-32.841c0.985,0.494,2.06,0.343,2.402-0.338
						c0.341-0.68-0.181-1.633-1.166-2.127c-0.986-0.494-2.062-0.343-2.402,0.337C-17.84-34.288-17.318-33.335-16.331-32.841"/>
				</g>
				<g id="g438" transform="translate(185.3086,188.9219)">
					<path id="path440" inkscape:connector-curvature="0" fill="#F07471" d="M-16.526-32.457c0.934,0.469,1.952,0.326,2.276-0.319
						c0.323-0.645-0.172-1.547-1.105-2.015c-0.934-0.468-1.953-0.325-2.276,0.319C-17.955-33.827-17.46-32.925-16.526-32.457"/>
				</g>
				<g id="g442" transform="translate(185.5313,188.4727)">
					<path id="path444" inkscape:connector-curvature="0" fill="#F07471" d="M-16.716-32.072c0.883,0.442,1.845,0.307,2.15-0.302
						c0.305-0.609-0.163-1.461-1.045-1.903c-0.881-0.442-1.844-0.307-2.148,0.302C-18.066-33.366-17.598-32.514-16.716-32.072"/>
				</g>
				<g id="g446" transform="translate(185.7578,188.0234)">
					<path id="path448" inkscape:connector-curvature="0" fill="#F07471" d="M-16.91-31.688c0.83,0.416,1.736,0.289,2.023-0.284
						c0.287-0.573-0.153-1.375-0.983-1.791c-0.83-0.416-1.735-0.289-2.023,0.284C-18.18-32.906-17.74-32.104-16.91-31.688"/>
				</g>
				<g id="g450" transform="translate(185.9844,187.5742)">
					<path id="path452" inkscape:connector-curvature="0" fill="#F07471" d="M-17.104-31.303c0.777,0.39,1.627,0.271,1.897-0.266
						c0.269-0.537-0.144-1.289-0.922-1.679c-0.778-0.391-1.627-0.271-1.897,0.266C-18.295-32.445-17.882-31.693-17.104-31.303"/>
				</g>
				<g id="g454" transform="translate(186.2109,187.125)">
					<path id="path456" inkscape:connector-curvature="0" fill="#F17571" d="M-17.298-30.918c0.727,0.363,1.519,0.253,1.77-0.249
						c0.252-0.501-0.133-1.204-0.859-1.568c-0.727-0.364-1.52-0.252-1.771,0.249C-18.409-31.985-18.024-31.283-17.298-30.918"/>
				</g>
				<g id="g458" transform="translate(186.4375,186.6719)">
					<path id="path460" inkscape:connector-curvature="0" fill="#F17672" d="M-17.491-30.531c0.673,0.339,1.409,0.236,1.643-0.23
						c0.233-0.465-0.123-1.117-0.798-1.455c-0.674-0.338-1.41-0.235-1.645,0.231C-18.524-31.52-18.166-30.869-17.491-30.531"/>
				</g>
				<g id="g462" transform="translate(186.6602,186.2227)">
					<path id="path464" inkscape:connector-curvature="0" fill="#F17672" d="M-17.683-30.146c0.623,0.313,1.302,0.217,1.517-0.213
						c0.216-0.429-0.114-1.032-0.737-1.343c-0.622-0.312-1.301-0.217-1.517,0.213C-18.634-31.06-18.305-30.458-17.683-30.146"/>
				</g>
				<g id="g466" transform="translate(186.8867,185.7734)">
					<path id="path468" inkscape:connector-curvature="0" fill="#F17672" d="M-17.877-29.762c0.57,0.286,1.193,0.199,1.391-0.195
						c0.197-0.394-0.105-0.945-0.676-1.231c-0.571-0.286-1.194-0.199-1.391,0.195C-18.75-30.6-18.446-30.048-17.877-29.762"/>
				</g>
				<g id="g470" transform="translate(187.1133,185.3242)">
					<path id="path472" inkscape:connector-curvature="0" fill="#F17672" d="M-18.07-29.377c0.518,0.26,1.084,0.181,1.264-0.177
						c0.18-0.359-0.095-0.86-0.613-1.12c-0.52-0.26-1.086-0.181-1.266,0.177C-18.865-30.139-18.59-29.638-18.07-29.377"/>
				</g>
				<g id="g474" transform="translate(187.3359,184.875)">
					<path id="path476" inkscape:connector-curvature="0" fill="#F17672" d="M-18.261-28.993c0.467,0.234,0.977,0.162,1.138-0.159
						c0.162-0.323-0.086-0.774-0.553-1.008c-0.466-0.234-0.976-0.163-1.137,0.16C-18.974-29.678-18.727-29.227-18.261-28.993"/>
				</g>
				<g id="g478" transform="translate(187.5625,184.4219)">
					<path id="path480" inkscape:connector-curvature="0" fill="#F37673" d="M-18.455-28.605c0.416,0.208,0.87,0.145,1.013-0.142
						c0.144-0.286-0.077-0.688-0.491-0.895c-0.415-0.209-0.868-0.145-1.012,0.142C-19.09-29.214-18.87-28.813-18.455-28.605"/>
				</g>
				<g id="g482" transform="translate(187.7891,183.9727)">
					<path id="path484" inkscape:connector-curvature="0" fill="#F37673" d="M-18.648-28.221c0.363,0.183,0.759,0.127,0.884-0.123
						c0.126-0.252-0.066-0.602-0.43-0.784c-0.362-0.182-0.759-0.127-0.885,0.124C-19.204-28.753-19.012-28.402-18.648-28.221"/>
				</g>
				<g id="g486" transform="translate(188.0156,183.5234)">
					<path id="path488" inkscape:connector-curvature="0" fill="#F37773" d="M-18.843-27.836c0.311,0.156,0.651,0.109,0.759-0.106
						c0.108-0.215-0.057-0.516-0.368-0.672c-0.312-0.156-0.652-0.109-0.759,0.106C-19.319-28.293-19.154-27.992-18.843-27.836"/>
				</g>
				<g id="g490" transform="translate(188.2422,183.0742)">
					<path id="path492" inkscape:connector-curvature="0" fill="#F37773" d="M-19.036-27.452c0.258,0.13,0.541,0.09,0.631-0.089
						c0.09-0.179-0.047-0.43-0.307-0.56c-0.259-0.13-0.542-0.09-0.633,0.089C-19.434-27.832-19.296-27.582-19.036-27.452"/>
				</g>
				<g id="g494" transform="translate(188.4648,182.625)">
					<path id="path496" inkscape:connector-curvature="0" fill="#F37773" d="M-19.227-27.067c0.208,0.104,0.434,0.072,0.506-0.071
						c0.072-0.143-0.038-0.344-0.245-0.448c-0.208-0.104-0.434-0.072-0.506,0.071C-19.545-27.371-19.434-27.171-19.227-27.067"/>
				</g>
				<g id="g498" transform="translate(188.6914,182.1719)">
					<path id="path500" inkscape:connector-curvature="0" fill="#F37773" d="M-19.421-26.679c0.156,0.079,0.326,0.055,0.38-0.053
						c0.054-0.108-0.029-0.258-0.184-0.336c-0.155-0.079-0.325-0.055-0.38,0.053C-19.659-26.907-19.577-26.757-19.421-26.679"/>
				</g>
				<g id="g502" transform="translate(188.918,181.7227)">
					<path id="path504" inkscape:connector-curvature="0" fill="#F37773" d="M-19.615-26.295c0.104,0.052,0.217,0.036,0.252-0.036
						c0.037-0.072-0.019-0.172-0.123-0.224c-0.103-0.052-0.216-0.037-0.253,0.036C-19.774-26.447-19.72-26.347-19.615-26.295"/>
				</g>
				<g id="g506" transform="translate(189.1406,181.2734)">
					<path id="path508" inkscape:connector-curvature="0" fill="#F37773" d="M-19.805-25.911c0.052,0.026,0.109,0.018,0.127-0.017
						c0.018-0.036-0.009-0.086-0.061-0.112c-0.052-0.026-0.109-0.018-0.127,0.018C-19.884-25.986-19.858-25.936-19.805-25.911"/>
				</g>
			</g>
		</g>
	</g>
	<g id="g510">
		<g id="g512">
			<g id="g518">
				<g id="g520">
					
						<radialGradient id="path528_1_" cx="-143.3625" cy="-104.3329" r="0.1445" gradientTransform="matrix(108.6442 0 0 -108.6442 15729.3018 -11164.6846)" gradientUnits="userSpaceOnUse">
						<stop  offset="0" style="stop-color:#73D0F6"/>
						<stop  offset="1" style="stop-color:#2095D2"/>
					</radialGradient>
					<path id="path528" inkscape:connector-curvature="0" fill="url(#path528_1_)" d="M154.107,170.54
						c-2.602-1.823-2.025-5.917,0.363-9.621l0,0c1.287,1.679,3.3,3.174,5.622,4.371l0,0c0.496,1.555,1.338,2.7,2.574,3.18l0,0
						c1.312,0.509,3.116,0.252,5.063-0.561l0,0c1.718,0.324,3.384,0.457,4.871,0.366l0,0c-3.57,2.236-8.691,3.595-12.863,3.595l0,0
						C157.429,171.871,155.411,171.455,154.107,170.54"/>
				</g>
			</g>
		</g>
	</g>
	<g id="g530">
		<g id="g532">
			<g id="g538">
				<g id="g540">
					
						<radialGradient id="path548_1_" cx="-140.7211" cy="-101.5313" r="0.1441" gradientTransform="matrix(40.0819 0 0 -40.0819 5802.1509 -3901.7451)" gradientUnits="userSpaceOnUse">
						<stop  offset="0" style="stop-color:#886AAD"/>
						<stop  offset="1" style="stop-color:#643E95"/>
					</radialGradient>
					<path id="path548" inkscape:connector-curvature="0" fill="url(#path548_1_)" d="M162.666,168.471
						c-1.237-0.48-2.079-1.625-2.574-3.18l0,0c2.368,1.22,5.06,2.134,7.638,2.619l0,0c-1.268,0.529-2.475,0.823-3.525,0.823l0,0
						C163.642,168.732,163.124,168.648,162.666,168.471"/>
				</g>
			</g>
		</g>
	</g>
	<g id="g550">
		<g id="g552">
			<g id="g558">
				<g id="g560">
					
						<radialGradient id="path568_1_" cx="-143.8071" cy="-105.175" r="0.1434" gradientTransform="matrix(106.9253 0 0 -106.9253 15539.0801 -11091.0518)" gradientUnits="userSpaceOnUse">
						<stop  offset="0" style="stop-color:#00B163"/>
						<stop  offset="1" style="stop-color:#9DCC49"/>
					</radialGradient>
					<path id="path568" inkscape:connector-curvature="0" fill="url(#path568_1_)" d="M154.47,160.919
						c1.401-2.173,3.427-4.212,5.8-5.577l0,0c-0.867,3.669-0.999,7.371-0.178,9.948l0,0
						C157.77,164.093,155.757,162.598,154.47,160.919"/>
				</g>
			</g>
		</g>
	</g>
	<g id="g570">
		<g id="g572">
			<g id="g578">
				<g id="g580">
					
						<radialGradient id="path588_1_" cx="-144.9832" cy="-105.2172" r="0.143" gradientTransform="matrix(138.9308 0 0 -138.9308 20323.0195 -14458.5264)" gradientUnits="userSpaceOnUse">
						<stop  offset="0" style="stop-color:#00B163"/>
						<stop  offset="1" style="stop-color:#9DCC49"/>
					</radialGradient>
					<path id="path588" inkscape:connector-curvature="0" fill="url(#path588_1_)" d="M167.73,167.91
						c3.105-1.296,6.573-4.006,8.986-7.284l0,0c0.984,3.013-0.959,5.675-4.115,7.65l0,0c-0.307,0.019-0.623,0.029-0.945,0.029l0,0
						C170.422,168.304,169.092,168.167,167.73,167.91"/>
				</g>
			</g>
		</g>
	</g>
	<g id="g590">
		<g>
			<defs>
				<rect id="SVGID_9_" x="136.094" y="123.797" width="59.812" height="54.407"/>
			</defs>
			<clipPath id="SVGID_10_">
				<use xlink:href="#SVGID_9_"  overflow="visible"/>
			</clipPath>
			<g id="g592" clip-path="url(#SVGID_10_)">
				<g id="g598" transform="translate(180.3779,204.0801)">
					<path id="path600" inkscape:connector-curvature="0" fill="#373535" d="M-12.305-45.43c-1.042-0.727-2.477-0.471-3.204,0.571
						c-0.727,1.043-0.471,2.477,0.571,3.204c1.043,0.727,2.477,0.471,3.204-0.571C-11.008-43.269-11.263-44.704-12.305-45.43
						 M-12.648-36.17c-2.578-0.485-5.269-1.398-7.637-2.619c-0.821-2.577-0.689-6.279,0.178-9.948
						c3.991-2.294,8.964-2.684,13.605,1.392c1.528,1.341,2.434,2.646,2.841,3.89C-6.076-40.176-9.544-37.466-12.648-36.17"/>
				</g>
				<g id="g602" transform="translate(162.1138,230.2734)">
					<path id="path604" inkscape:connector-curvature="0" fill="#FFFFFF" d="M3.326-67.848c-1.042-0.727-1.298-2.161-0.571-3.204
						c0.728-1.043,2.161-1.298,3.204-0.571c1.042,0.726,1.298,2.161,0.571,3.204C5.803-67.377,4.369-67.121,3.326-67.848"/>
				</g>
			</g>
		</g>
	</g>
	<g id="g606">
		<g>
			<defs>
				<path id="SVGID_11_" d="M163.213,147.898c7.393-12.391,19.977,0.426,15.357,9.637l0,0
					C176.376,152.006,170.225,146.716,163.213,147.898"/>
			</defs>
			<clipPath id="SVGID_12_">
				<use xlink:href="#SVGID_11_"  overflow="visible"/>
			</clipPath>
			<g id="g608" clip-path="url(#SVGID_12_)">
				<path id="path614" inkscape:connector-curvature="0" fill="#3E2F6A" d="M163.213,157.535h19.976v-22.029h-19.976V157.535
					L163.213,157.535z"/>
				<g id="g616" transform="translate(181.3867,197.3398)">
					<path id="path618" inkscape:connector-curvature="0" fill="#3E2F6A" d="M-13.17-39.661h8.105h3.28v0.86
						c0.935-0.796,1.688-1.789,2.184-2.956c1.987-4.667-0.867-10.35-6.375-12.695c-2.753-1.172-5.648-1.287-8.103-0.526
						c-1.228,0.38-2.346,0.98-3.281,1.776c-0.468,0.398-0.889,0.845-1.256,1.338h0.298v8.835h-0.848
						c0.577,1.149,1.388,2.225,2.398,3.161c0.253,0.234,0.518,0.459,0.795,0.674v-0.467H-13.17z"/>
				</g>
				<g id="g620" transform="translate(181.5664,197.3398)">
					<path id="path622" inkscape:connector-curvature="0" fill="#402F6B" d="M-13.323-39.661h8.046h3.258v0.807
						c0.928-0.79,1.675-1.775,2.168-2.934c1.972-4.634-0.862-10.277-6.329-12.603c-2.734-1.164-5.609-1.279-8.047-0.523
						c-1.219,0.378-2.329,0.973-3.257,1.764c-0.464,0.395-0.882,0.84-1.247,1.329h0.234v8.772h-0.78
						c0.573,1.14,1.378,2.209,2.382,3.138c0.251,0.232,0.514,0.455,0.79,0.669v-0.418H-13.323z"/>
				</g>
				<g id="g624" transform="translate(181.7422,197.3398)">
					<path id="path626" inkscape:connector-curvature="0" fill="#412F6C" d="M-13.473-39.661h7.989h3.233v0.756
						c0.922-0.784,1.663-1.763,2.153-2.913c1.958-4.6-0.855-10.202-6.284-12.513c-2.715-1.156-5.568-1.27-7.989-0.52
						c-1.21,0.376-2.311,0.966-3.233,1.751c-0.461,0.393-0.877,0.834-1.239,1.32h0.169v8.709h-0.711
						c0.569,1.132,1.368,2.193,2.364,3.115c0.498,0.461,1.046,0.888,1.638,1.271v-0.976H-13.473z"/>
				</g>
				<g id="g628" transform="translate(181.9219,197.3398)">
					<path id="path630" inkscape:connector-curvature="0" fill="#422F6C" d="M-13.627-39.661h7.931h3.209v0.705
						c0.916-0.779,1.652-1.751,2.138-2.893c1.944-4.566-0.849-10.128-6.238-12.422c-2.695-1.147-5.528-1.259-7.93-0.515
						c-1.202,0.373-2.296,0.959-3.211,1.738c-0.457,0.389-0.87,0.827-1.229,1.31h0.104v8.645h-0.643
						c0.564,1.124,1.358,2.177,2.347,3.093c0.495,0.457,1.038,0.881,1.627,1.261v-0.923H-13.627z"/>
				</g>
				<g id="g632" transform="translate(182.1016,197.3398)">
					<path id="path634" inkscape:connector-curvature="0" fill="#43306D" d="M-13.781-39.661h7.873h3.186v0.654
						c0.908-0.773,1.638-1.737,2.122-2.871c1.929-4.533-0.843-10.054-6.194-12.332c-5.349-2.277-11.25-0.448-13.18,4.085h0.941
						v7.012h-0.574c0.56,1.116,1.348,2.161,2.33,3.07c0.491,0.454,1.031,0.875,1.616,1.253v-0.87H-13.781z"/>
				</g>
				<g id="g636" transform="translate(182.2773,197.3398)">
					<path id="path638" inkscape:connector-curvature="0" fill="#45306E" d="M-13.932-39.661h7.816h3.163v0.602
						c0.902-0.768,1.627-1.725,2.105-2.85c1.916-4.5-0.836-9.98-6.147-12.241c-5.311-2.259-11.168-0.444-13.083,4.055h0.869v6.96
						h-0.506c0.556,1.107,1.338,2.145,2.314,3.048c0.487,0.451,1.022,0.868,1.602,1.243v-0.817H-13.932z"/>
				</g>
				<g id="g640" transform="translate(182.457,197.3398)">
					<path id="path642" inkscape:connector-curvature="0" fill="#46306E" d="M-14.085-39.661h7.758h3.139v0.551
						c0.895-0.762,1.615-1.713,2.089-2.829c1.902-4.466-0.829-9.907-6.101-12.15c-5.271-2.244-11.085-0.442-12.987,4.024h0.798
						v6.909h-0.437c0.552,1.099,1.328,2.129,2.296,3.025c0.484,0.447,1.015,0.861,1.59,1.234v-0.764H-14.085z"/>
				</g>
				<g id="g644" transform="translate(182.6328,197.3398)">
					<path id="path646" inkscape:connector-curvature="0" fill="#47316F" d="M-14.236-39.661h7.7h3.116v0.499
						c0.888-0.756,1.603-1.699,2.075-2.808c1.887-4.433-0.824-9.832-6.056-12.059c-5.231-2.227-11.002-0.438-12.889,3.995h0.727
						v6.857h-0.369c0.548,1.092,1.318,2.113,2.279,3.002c0.48,0.444,1.008,0.855,1.579,1.224v-0.711H-14.236z"/>
				</g>
				<g id="g648" transform="translate(182.8125,197.3398)">
					<path id="path650" inkscape:connector-curvature="0" fill="#483170" d="M-14.39-39.661h7.642h3.091v0.448
						C-2.773-39.964-2.065-40.9-1.596-42c1.873-4.4-0.819-9.76-6.011-11.969c-5.192-2.21-10.92-0.434-12.793,3.965h0.656v6.806h-0.3
						c0.544,1.082,1.309,2.097,2.262,2.979c0.477,0.441,1,0.849,1.566,1.215v-0.658H-14.39z"/>
				</g>
				<g id="g652" transform="translate(182.9922,197.3398)">
					<path id="path654" inkscape:connector-curvature="0" fill="#4A3170" d="M-14.543-39.661h7.584h3.069v0.397
						c0.875-0.746,1.579-1.674,2.043-2.766c1.859-4.366-0.811-9.684-5.964-11.878c-5.154-2.194-10.837-0.431-12.696,3.935h0.584
						v6.754h-0.232c0.539,1.075,1.298,2.082,2.245,2.957c0.473,0.438,0.993,0.843,1.555,1.206v-0.605H-14.543z"/>
				</g>
				<g id="g656" transform="translate(183.1719,197.3398)">
					<path id="path658" inkscape:connector-curvature="0" fill="#4B3271" d="M-14.697-39.661h7.525h3.046v0.345
						c0.868-0.739,1.567-1.661,2.027-2.744c1.845-4.334-0.805-9.612-5.919-11.787c-5.114-2.177-10.754-0.429-12.599,3.905h0.513
						v6.702h-0.163c0.536,1.067,1.288,2.066,2.227,2.935c0.47,0.434,0.985,0.836,1.544,1.197v-0.552H-14.697z"/>
				</g>
				<g id="g660" transform="translate(183.3477,197.3398)">
					<path id="path662" inkscape:connector-curvature="0" fill="#4C3272" d="M-14.848-39.661h7.468h3.023v0.294
						c0.861-0.734,1.554-1.648,2.012-2.723c1.83-4.3-0.8-9.537-5.874-11.697c-5.073-2.16-10.671-0.425-12.502,3.875h0.442v6.651
						h-0.095c0.532,1.059,1.279,2.05,2.211,2.912c0.466,0.43,0.978,0.829,1.531,1.188v-0.499H-14.848z"/>
				</g>
				<g id="g664" transform="translate(183.5273,197.3398)">
					<path id="path666" inkscape:connector-curvature="0" fill="#4D3272" d="M-15.001-39.661h7.41h2.998v0.243
						c0.855-0.728,1.543-1.636,1.997-2.702c1.816-4.267-0.793-9.464-5.828-11.607c-5.034-2.144-10.589-0.422-12.405,3.845h0.371
						v6.599h-0.026c0.527,1.05,1.269,2.034,2.193,2.889c0.463,0.427,0.97,0.823,1.52,1.179v-0.446H-15.001z"/>
				</g>
				<g id="g668" transform="translate(183.7031,197.3398)">
					<path id="path670" inkscape:connector-curvature="0" fill="#4F3273" d="M-15.151-39.661H-7.8h2.976v0.191
						c0.848-0.723,1.531-1.622,1.98-2.681c1.802-4.233-0.787-9.388-5.782-11.516c-4.995-2.127-10.506-0.418-12.309,3.815h0.3v3.287
						h-0.859c0.067,1.112,0.378,2.22,0.901,3.261c0.523,1.042,1.259,2.019,2.176,2.866c0.459,0.425,0.963,0.816,1.507,1.17v-0.393
						H-15.151z"/>
				</g>
				<g id="g672" transform="translate(183.8828,197.3398)">
					<path id="path674" inkscape:connector-curvature="0" fill="#503373" d="M-15.305-39.661h7.294h2.952v0.139
						c0.841-0.716,1.518-1.61,1.966-2.66c1.788-4.2-0.781-9.315-5.737-11.425c-4.957-2.11-10.425-0.416-12.212,3.784h0.228v3.26
						h-0.784c0.068,1.103,0.375,2.202,0.895,3.236c0.519,1.034,1.248,2.003,2.158,2.844c0.455,0.421,0.955,0.81,1.496,1.161v-0.34
						H-15.305z"/>
				</g>
				<g id="g676" transform="translate(184.0625,197.3398)">
					<path id="path678" inkscape:connector-curvature="0" fill="#513374" d="M-15.459-39.661h7.236h2.928v0.088
						c0.836-0.71,1.506-1.597,1.951-2.639c1.773-4.166-0.775-9.24-5.692-11.334c-4.917-2.093-10.341-0.413-12.114,3.755h0.157v3.234
						h-0.708c0.066,1.095,0.373,2.185,0.888,3.211c0.515,1.025,1.239,1.986,2.141,2.821c0.452,0.417,0.948,0.804,1.484,1.151v-0.287
						H-15.459z"/>
				</g>
				<g id="g680" transform="translate(184.2383,197.3398)">
					<path id="path682" inkscape:connector-curvature="0" fill="#523374" d="M-15.61-39.661h7.179h2.905v0.036
						c0.827-0.705,1.494-1.584,1.934-2.618c1.759-4.134-0.769-9.167-5.646-11.244c-4.878-2.076-10.258-0.409-12.018,3.725
						c-0.879,2.066-0.687,4.359,0.334,6.393c0.511,1.017,1.229,1.97,2.125,2.799c0.448,0.414,0.939,0.798,1.472,1.141v-0.233H-15.61
						z"/>
				</g>
				<g id="g684" transform="translate(184.418,197.3398)">
					<path id="path686" inkscape:connector-curvature="0" fill="#543475" d="M-15.763-39.661h7.12h1.537v0.902
						c0.483-0.261,0.934-0.567,1.345-0.917c0.822-0.7,1.483-1.572,1.919-2.596c1.745-4.1-0.763-9.094-5.6-11.154
						c-4.839-2.059-10.176-0.405-11.921,3.695c-0.873,2.05-0.682,4.323,0.331,6.341c0.507,1.009,1.22,1.955,2.107,2.777
						c0.445,0.411,0.932,0.791,1.461,1.132v-0.18H-15.763z"/>
				</g>
				<g id="g688" transform="translate(184.5938,197.3398)">
					<path id="path690" inkscape:connector-curvature="0" fill="#553476" d="M-15.914-39.661h7.063h1.525v0.843
						c0.478-0.259,0.926-0.563,1.333-0.909c0.815-0.694,1.47-1.559,1.903-2.576c1.731-4.067-0.755-9.019-5.555-11.061
						c-4.799-2.044-10.093-0.404-11.823,3.664c-0.866,2.033-0.677,4.288,0.328,6.29c0.503,1,1.21,1.939,2.09,2.754
						c0.441,0.407,0.925,0.784,1.448,1.123v-0.127H-15.914z"/>
				</g>
				<g id="g692" transform="translate(184.7734,197.3398)">
					<path id="path694" inkscape:connector-curvature="0" fill="#563477" d="M-16.068-39.661h7.005h1.513v0.784
						c0.475-0.256,0.919-0.559,1.323-0.902c0.809-0.688,1.458-1.546,1.887-2.554c1.717-4.034-0.75-8.946-5.509-10.972
						c-4.759-2.026-10.01-0.399-11.727,3.634c-0.859,2.017-0.671,4.253,0.326,6.239c0.997,1.985,2.804,3.72,5.183,4.733V-39.661z"/>
				</g>
				<g id="g696" transform="translate(184.9531,197.3398)">
					<path id="path698" inkscape:connector-curvature="0" fill="#583477" d="M-16.221-39.661h6.945h1.501v0.725
						c0.471-0.255,0.911-0.554,1.311-0.895c0.802-0.682,1.448-1.534,1.873-2.534c1.702-4-0.744-8.871-5.464-10.881
						c-4.72-2.009-9.927-0.395-11.63,3.605c-0.852,2-0.666,4.218,0.323,6.187c0.988,1.97,2.781,3.689,5.141,4.694V-39.661z"/>
				</g>
				<g id="g700" transform="translate(185.1328,197.3398)">
					<path id="path702" inkscape:connector-curvature="0" fill="#593578" d="M-16.375-39.661h6.888h1.488v0.667
						c0.467-0.253,0.903-0.55,1.301-0.888c0.795-0.677,1.434-1.521,1.855-2.513c1.689-3.966-0.737-8.798-5.418-10.79
						c-4.68-1.992-9.845-0.392-11.533,3.575c-0.844,1.984-0.66,4.183,0.321,6.135c0.98,1.953,2.757,3.659,5.098,4.655V-39.661z"/>
				</g>
				<g id="g704" transform="translate(185.3086,197.3398)">
					<path id="path706" inkscape:connector-curvature="0" fill="#5A3578" d="M-16.526-39.661h6.83h1.476v0.608
						c0.463-0.251,0.895-0.545,1.289-0.88c0.789-0.671,1.422-1.508,1.841-2.491c1.674-3.933-0.73-8.723-5.373-10.7
						c-4.641-1.976-9.761-0.388-11.436,3.545c-0.837,1.968-0.655,4.148,0.318,6.084c0.972,1.937,2.734,3.628,5.055,4.616V-39.661z"
						/>
				</g>
				<g id="g708" transform="translate(185.4883,197.3398)">
					<path id="path710" inkscape:connector-curvature="0" fill="#5C3579" d="M-16.68-39.661h6.773h1.462v0.549
						c0.46-0.248,0.889-0.539,1.28-0.872c0.781-0.665,1.41-1.495,1.825-2.47c1.66-3.9-0.725-8.65-5.327-10.608
						c-4.602-1.96-9.679-0.387-11.339,3.513c-0.83,1.951-0.648,4.113,0.315,6.033c0.964,1.92,2.711,3.597,5.012,4.577V-39.661z"/>
				</g>
				<g id="g712" transform="translate(185.6641,197.3398)">
					<path id="path714" inkscape:connector-curvature="0" fill="#5D3579" d="M-16.83-39.661h6.715h1.45v0.49
						c0.455-0.246,0.88-0.536,1.268-0.865c0.775-0.659,1.398-1.482,1.809-2.448c1.646-3.867-0.718-8.576-5.281-10.519
						c-4.563-1.942-9.597-0.382-11.243,3.485c-0.823,1.933-0.644,4.077,0.312,5.98c0.956,1.903,2.688,3.566,4.97,4.537V-39.661z"/>
				</g>
				<g id="g716" transform="translate(185.8438,197.3398)">
					<path id="path718" inkscape:connector-curvature="0" fill="#5E367A" d="M-16.983-39.661h6.656h1.438v0.431
						c0.452-0.244,0.873-0.53,1.258-0.857c0.768-0.654,1.385-1.47,1.794-2.428c1.631-3.833-0.713-8.502-5.236-10.427
						c-4.524-1.926-9.514-0.379-11.146,3.454c-0.816,1.916-0.638,4.043,0.311,5.93c0.948,1.887,2.664,3.535,4.926,4.498V-39.661z"/>
				</g>
				<g id="g720" transform="translate(186.0234,197.3398)">
					<path id="path722" inkscape:connector-curvature="0" fill="#5F367A" d="M-17.137-39.661h6.599v0.969
						c1.999-0.62,3.64-1.953,4.449-3.854c1.617-3.8-0.706-8.427-5.191-10.336c-4.484-1.909-9.43-0.376-11.048,3.424
						c-1.618,3.8,0.706,8.428,5.191,10.337V-39.661z"/>
				</g>
				<g id="g724" transform="translate(186.1992,197.3398)">
					<path id="path726" inkscape:connector-curvature="0" fill="#61367B" d="M-17.288-39.661h6.541v0.905
						c1.981-0.614,3.609-1.936,4.411-3.82c1.603-3.766-0.7-8.354-5.145-10.247c-4.445-1.891-9.348-0.372-10.952,3.395
						c-1.603,3.766,0.7,8.354,5.145,10.246V-39.661z"/>
				</g>
				<g id="g728" transform="translate(186.3789,197.3398)">
					<path id="path730" inkscape:connector-curvature="0" fill="#62377C" d="M-17.441-39.661h6.483v0.84
						c1.964-0.609,3.577-1.918,4.371-3.786c1.59-3.733-0.694-8.28-5.099-10.155c-4.405-1.877-9.265-0.37-10.855,3.363
						c-1.589,3.734,0.694,8.28,5.1,10.156V-39.661z"/>
				</g>
				<g id="g732" transform="translate(186.5547,197.3398)">
					<path id="path734" inkscape:connector-curvature="0" fill="#63377C" d="M-17.592-39.661h6.426v0.776
						c1.947-0.604,3.545-1.902,4.332-3.752c1.575-3.7-0.688-8.205-5.053-10.064c-4.367-1.859-9.184-0.366-10.759,3.334
						s0.688,8.206,5.054,10.065V-39.661z"/>
				</g>
				<g id="g736" transform="translate(186.7344,197.3398)">
					<path id="path738" inkscape:connector-curvature="0" fill="#65377D" d="M-17.746-39.661h6.368v0.712
						c1.93-0.598,3.512-1.884,4.293-3.718c1.561-3.666-0.682-8.132-5.009-9.974c-4.327-1.842-9.1-0.363-10.661,3.304
						c-1.561,3.667,0.681,8.132,5.008,9.975V-39.661z"/>
				</g>
				<g id="g740" transform="translate(186.9141,197.3398)">
					<path id="path742" inkscape:connector-curvature="0" fill="#65387D" d="M-17.9-39.661h6.31v0.648
						c1.911-0.592,3.48-1.867,4.254-3.684c1.546-3.634-0.676-8.059-4.963-9.884c-4.288-1.825-9.017-0.359-10.564,3.274
						c-1.546,3.634,0.676,8.058,4.963,9.883V-39.661z"/>
				</g>
				<g id="g744" transform="translate(187.0938,197.3398)">
					<path id="path746" inkscape:connector-curvature="0" fill="#67387E" d="M-18.053-39.661h6.251v0.584
						c1.895-0.587,3.449-1.85,4.215-3.65c1.533-3.6-0.67-7.985-4.917-9.793c-4.248-1.808-8.934-0.355-10.466,3.245
						c-1.532,3.6,0.669,7.984,4.918,9.792V-39.661z"/>
				</g>
				<g id="g748" transform="translate(187.2695,197.3398)">
					<path id="path750" inkscape:connector-curvature="0" fill="#68387E" d="M-18.204-39.661h6.194v0.519
						c1.877-0.581,3.416-1.832,4.176-3.616c1.519-3.567-0.663-7.911-4.872-9.702c-4.209-1.792-8.852-0.353-10.37,3.214
						c-1.518,3.566,0.663,7.911,4.872,9.702V-39.661z"/>
				</g>
				<g id="g752" transform="translate(187.4492,197.3398)">
					<path id="path754" inkscape:connector-curvature="0" fill="#69397F" d="M-18.358-39.661h6.136v0.456
						c1.859-0.577,3.385-1.816,4.137-3.583c1.504-3.534-0.656-7.836-4.827-9.611c-4.169-1.775-8.769-0.35-10.273,3.184
						c-1.504,3.534,0.656,7.837,4.827,9.612V-39.661z"/>
				</g>
				<g id="g756" transform="translate(187.625,197.3203)">
					<path id="path758" inkscape:connector-curvature="0" fill="#6A397F" d="M-18.508-39.645c2.064,0.879,4.237,0.966,6.078,0.395
						c1.841-0.571,3.352-1.799,4.098-3.549c1.49-3.5-0.651-7.762-4.78-9.521c-4.13-1.758-8.687-0.346-10.177,3.154
						C-24.779-45.665-22.638-41.403-18.508-39.645"/>
				</g>
				<g id="g760" transform="translate(187.8047,196.8984)">
					<path id="path762" inkscape:connector-curvature="0" fill="#6B3980" d="M-18.661-39.284c2.045,0.871,4.196,0.957,6.02,0.391
						c1.824-0.565,3.32-1.782,4.059-3.515c1.476-3.466-0.645-7.689-4.735-9.43c-4.091-1.741-8.604-0.343-10.079,3.124
						C-24.873-45.246-22.752-41.025-18.661-39.284"/>
				</g>
				<g id="g764" transform="translate(187.9844,196.4805)">
					<path id="path766" inkscape:connector-curvature="0" fill="#6C3A80" d="M-18.815-38.926c2.025,0.862,4.156,0.948,5.962,0.388
						c1.806-0.56,3.29-1.764,4.02-3.481c1.462-3.433-0.638-7.614-4.691-9.339c-4.051-1.724-8.52-0.34-9.982,3.094
						C-24.967-44.832-22.867-40.65-18.815-38.926"/>
				</g>
				<g id="g768" transform="translate(188.1602,196.0625)">
					<path id="path770" inkscape:connector-curvature="0" fill="#6D3A81" d="M-18.966-38.568c2.005,0.854,4.116,0.938,5.905,0.384
						c1.789-0.555,3.257-1.748,3.981-3.447c1.448-3.4-0.632-7.541-4.645-9.249c-4.012-1.709-8.439-0.337-9.885,3.064
						C-25.058-44.416-22.978-40.276-18.966-38.568"/>
				</g>
				<g id="g772" transform="translate(188.3398,195.6445)">
					<path id="path774" inkscape:connector-curvature="0" fill="#6F3A81" d="M-19.119-38.21c1.986,0.845,4.075,0.929,5.846,0.379
						c1.771-0.549,3.225-1.73,3.942-3.413c1.433-3.366-0.627-7.466-4.599-9.158c-3.973-1.691-8.355-0.333-9.789,3.034
						C-25.152-44.002-23.093-39.901-19.119-38.21"/>
				</g>
				<g id="g776" transform="translate(188.5156,195.2266)">
					<path id="path778" inkscape:connector-curvature="0" fill="#703B82" d="M-19.27-37.853c1.966,0.837,4.035,0.92,5.788,0.376
						c1.755-0.543,3.194-1.713,3.903-3.38c1.42-3.333-0.62-7.393-4.552-9.068c-3.934-1.674-8.273-0.329-9.692,3.005
						C-25.242-43.587-23.203-39.527-19.27-37.853"/>
				</g>
				<g id="g780" transform="translate(188.6953,194.8047)">
					<path id="path782" inkscape:connector-curvature="0" fill="#713B83" d="M-19.424-37.491c1.948,0.829,3.995,0.91,5.731,0.373
						c1.736-0.538,3.161-1.696,3.863-3.346c1.405-3.3-0.613-7.32-4.508-8.977c-3.894-1.657-8.19-0.325-9.595,2.974
						C-25.336-43.168-23.318-39.149-19.424-37.491"/>
				</g>
				<g id="g784" transform="translate(188.875,194.3867)">
					<path id="path786" inkscape:connector-curvature="0" fill="#723B83" d="M-19.578-37.134c1.928,0.82,3.955,0.902,5.673,0.369
						c1.72-0.533,3.129-1.679,3.825-3.313c1.391-3.266-0.607-7.245-4.462-8.886c-3.855-1.641-8.107-0.323-9.497,2.943
						C-25.431-42.753-23.433-38.775-19.578-37.134"/>
				</g>
				<g id="g788" transform="translate(189.0547,193.9688)">
					<path id="path790" inkscape:connector-curvature="0" fill="#733B83" d="M-19.732-36.776c1.908,0.812,3.914,0.892,5.615,0.365
						c1.702-0.528,3.098-1.662,3.786-3.279c1.376-3.233-0.601-7.172-4.417-8.795c-3.816-1.624-8.024-0.32-9.401,2.914
						C-25.525-42.338-23.547-38.4-19.732-36.776"/>
				</g>
				<g id="g792" transform="translate(189.2305,193.5508)">
					<path id="path794" inkscape:connector-curvature="0" fill="#743C84" d="M-19.882-36.418c1.888,0.804,3.873,0.883,5.557,0.361
						c1.684-0.522,3.066-1.645,3.746-3.245c1.363-3.201-0.595-7.098-4.37-8.705c-3.777-1.608-7.942-0.316-9.304,2.883
						C-25.615-41.923-23.658-38.026-19.882-36.418"/>
				</g>
				<g id="g796" transform="translate(189.4102,193.1289)">
					<path id="path798" inkscape:connector-curvature="0" fill="#753C84" d="M-20.036-36.057c3.737,1.591,7.859,0.313,9.207-2.854
						c1.348-3.167-0.588-7.023-4.326-8.614c-3.737-1.591-7.859-0.313-9.207,2.853C-25.709-41.504-23.773-37.647-20.036-36.057"/>
				</g>
				<g id="g800" transform="translate(189.5859,192.7109)">
					<path id="path802" inkscape:connector-curvature="0" fill="#773C85" d="M-20.186-35.699c3.697,1.574,7.776,0.309,9.109-2.823
						c1.334-3.134-0.582-6.949-4.28-8.523c-3.698-1.573-7.776-0.31-9.11,2.823C-25.8-41.089-23.884-37.273-20.186-35.699"/>
				</g>
				<g id="g804" transform="translate(189.7656,192.293)">
					<path id="path806" inkscape:connector-curvature="0" fill="#783D85" d="M-20.34-35.342c3.659,1.557,7.694,0.307,9.013-2.793
						c1.32-3.1-0.576-6.876-4.234-8.433c-3.659-1.557-7.694-0.306-9.014,2.793C-25.894-40.674-23.998-36.899-20.34-35.342"/>
				</g>
				<g id="g808" transform="translate(189.9453,191.875)">
					<path id="path810" inkscape:connector-curvature="0" fill="#793D85" d="M-20.494-34.984c3.62,1.54,7.611,0.303,8.916-2.764
						c1.306-3.067-0.57-6.801-4.189-8.341c-3.618-1.541-7.61-0.304-8.915,2.762C-25.989-40.259-24.113-36.524-20.494-34.984"/>
				</g>
				<g id="g812" transform="translate(190.1211,191.457)">
					<path id="path814" inkscape:connector-curvature="0" fill="#7A3D86" d="M-20.644-34.626c3.58,1.523,7.528,0.3,8.819-2.734
						c1.292-3.034-0.563-6.727-4.143-8.252c-3.58-1.523-7.527-0.299-8.82,2.734C-26.079-39.845-24.224-36.15-20.644-34.626"/>
				</g>
				<g id="g816" transform="translate(190.3008,191.0352)">
					<path id="path818" inkscape:connector-curvature="0" fill="#7B3E86" d="M-20.798-34.265c3.541,1.507,7.445,0.296,8.723-2.703
						c1.277-3-0.558-6.655-4.098-8.161c-3.54-1.507-7.445-0.297-8.722,2.703C-26.173-39.426-24.339-35.772-20.798-34.265"/>
				</g>
				<g id="g820" transform="translate(190.4766,190.6172)">
					<path id="path822" inkscape:connector-curvature="0" fill="#7C3E87" d="M-20.948-33.908c3.501,1.49,7.363,0.293,8.626-2.673
						c1.262-2.967-0.552-6.58-4.052-8.07c-3.502-1.49-7.362-0.294-8.626,2.673C-26.264-39.01-24.449-35.398-20.948-33.908"/>
				</g>
				<g id="g824" transform="translate(190.6563,190.1992)">
					<path id="path826" inkscape:connector-curvature="0" fill="#7D3E87" d="M-21.103-33.55c3.462,1.473,7.28,0.29,8.529-2.643
						c1.248-2.933-0.545-6.506-4.007-7.98s-7.28-0.29-8.528,2.644C-26.358-38.596-24.564-35.023-21.103-33.55"/>
				</g>
				<g id="g828" transform="translate(190.8359,189.7813)">
					<path id="path830" inkscape:connector-curvature="0" fill="#7E3E88" d="M-21.257-33.192c3.422,1.456,7.198,0.286,8.432-2.614
						c1.234-2.9-0.539-6.432-3.962-7.888c-3.422-1.458-7.197-0.287-8.431,2.613C-26.452-38.181-24.678-34.649-21.257-33.192"/>
				</g>
				<g id="g832" transform="translate(191.0156,189.3594)">
					<path id="path834" inkscape:connector-curvature="0" fill="#7F3F88" d="M-21.41-32.831c3.382,1.441,7.114,0.284,8.334-2.582
						c1.221-2.867-0.533-6.358-3.916-7.798c-3.383-1.441-7.114-0.284-8.334,2.584C-26.546-37.762-24.793-34.271-21.41-32.831"/>
				</g>
				<g id="g836" transform="translate(191.1914,188.9414)">
					<path id="path838" inkscape:connector-curvature="0" fill="#803F88" d="M-21.561-32.474c3.344,1.423,7.031,0.28,8.238-2.553
						c1.206-2.833-0.527-6.284-3.87-7.707c-3.344-1.423-7.032-0.28-8.238,2.553C-26.637-37.347-24.904-33.896-21.561-32.474"/>
				</g>
				<g id="g840" transform="translate(191.3711,188.5234)">
					<path id="path842" inkscape:connector-curvature="0" fill="#813F89" d="M-21.714-32.115c3.305,1.406,6.949,0.277,8.141-2.524
						c1.192-2.799-0.52-6.209-3.825-7.616c-3.303-1.407-6.948-0.277-8.14,2.523C-26.731-36.932-25.018-33.522-21.714-32.115"/>
				</g>
				<g id="g844" transform="translate(191.5469,188.1055)">
					<path id="path846" inkscape:connector-curvature="0" fill="#823F89" d="M-21.865-31.758c3.266,1.39,6.866,0.273,8.045-2.494
						c1.177-2.766-0.515-6.136-3.78-7.526c-3.265-1.389-6.866-0.273-8.044,2.494C-26.821-36.517-25.129-33.148-21.865-31.758"/>
				</g>
				<g id="g848" transform="translate(191.7266,187.6875)">
					<path id="path850" inkscape:connector-curvature="0" fill="#83408A" d="M-22.018-31.4c3.225,1.373,6.784,0.27,7.947-2.463
						c1.164-2.734-0.508-6.063-3.734-7.436c-3.225-1.373-6.784-0.27-7.947,2.463C-26.916-36.102-25.244-32.773-22.018-31.4"/>
				</g>
				<g id="g852" transform="translate(191.9063,187.2656)">
					<path id="path854" inkscape:connector-curvature="0" fill="#84408A" d="M-22.172-31.039c3.186,1.357,6.701,0.268,7.85-2.433
						c1.149-2.7-0.502-5.988-3.688-7.345c-3.186-1.356-6.701-0.266-7.85,2.434C-27.01-35.683-25.358-32.395-22.172-31.039"/>
				</g>
				<g id="g856" transform="translate(192.082,186.8477)">
					<path id="path858" inkscape:connector-curvature="0" fill="#85408A" d="M-22.323-30.681c3.148,1.34,6.619,0.264,7.754-2.403
						s-0.496-5.914-3.643-7.254c-3.147-1.339-6.618-0.263-7.753,2.403C-27.1-35.268-25.469-32.02-22.323-30.681"/>
				</g>
				<g id="g860" transform="translate(192.2617,186.4297)">
					<path id="path862" inkscape:connector-curvature="0" fill="#85408A" d="M-22.476-30.324c3.107,1.323,6.535,0.261,7.656-2.373
						c1.121-2.633-0.49-5.839-3.598-7.163c-3.106-1.323-6.534-0.261-7.656,2.372C-27.195-34.853-25.584-31.647-22.476-30.324"/>
				</g>
				<g id="g864" transform="translate(192.4375,186.0117)">
					<path id="path866" inkscape:connector-curvature="0" fill="#86408B" d="M-22.627-29.966c3.069,1.307,6.453,0.258,7.56-2.343
						c1.106-2.6-0.483-5.767-3.552-7.073c-3.068-1.305-6.453-0.256-7.56,2.344C-27.285-34.439-25.695-31.272-22.627-29.966"/>
				</g>
				<g id="g868" transform="translate(192.6172,185.5938)">
					<path id="path870" inkscape:connector-curvature="0" fill="#87418C" d="M-22.781-29.608c3.03,1.289,6.371,0.254,7.463-2.313
						c1.091-2.567-0.477-5.693-3.507-6.982c-3.028-1.289-6.37-0.254-7.462,2.313C-27.379-34.024-25.81-30.897-22.781-29.608"/>
				</g>
				<g id="g872" transform="translate(192.7969,185.1719)">
					<path id="path874" inkscape:connector-curvature="0" fill="#89418C" d="M-22.935-29.247c2.99,1.273,6.288,0.25,7.366-2.282
						c1.079-2.534-0.471-5.618-3.46-6.891c-2.99-1.273-6.288-0.251-7.366,2.282C-27.473-33.604-25.924-30.52-22.935-29.247"/>
				</g>
				<g id="g876" transform="translate(192.9766,184.7539)">
					<path id="path878" inkscape:connector-curvature="0" fill="#8A418C" d="M-23.088-28.889c2.949,1.256,6.203,0.247,7.268-2.252
						c1.065-2.501-0.464-5.545-3.415-6.802c-2.951-1.255-6.205-0.246-7.269,2.254C-27.568-33.19-26.039-30.145-23.088-28.889"/>
				</g>
				<g id="g880" transform="translate(193.1523,184.3359)">
					<path id="path882" inkscape:connector-curvature="0" fill="#8B418D" d="M-23.239-28.532c2.911,1.239,6.122,0.244,7.172-2.222
						c1.05-2.467-0.459-5.471-3.369-6.709c-2.912-1.24-6.123-0.245-7.173,2.222C-27.658-32.775-26.15-29.77-23.239-28.532"/>
				</g>
				<g id="g884" transform="translate(193.332,183.918)">
					<path id="path886" inkscape:connector-curvature="0" fill="#8B418D" d="M-23.392-28.174c2.871,1.222,6.039,0.241,7.074-2.193
						c1.036-2.433-0.452-5.396-3.324-6.618c-2.87-1.223-6.038-0.241-7.074,2.192C-27.752-32.36-26.264-29.396-23.392-28.174"/>
				</g>
				<g id="g888" transform="translate(193.5078,183.5)">
					<path id="path890" inkscape:connector-curvature="0" fill="#8C428D" d="M-23.543-27.816c2.833,1.205,5.957,0.237,6.978-2.163
						c1.023-2.4-0.445-5.323-3.278-6.529c-2.831-1.205-5.955-0.237-6.978,2.164C-27.843-31.945-26.374-29.022-23.543-27.816"/>
				</g>
				<g id="g892" transform="translate(193.6875,183.0781)">
					<path id="path894" inkscape:connector-curvature="0" fill="#8D428E" d="M-23.696-27.455c2.793,1.189,5.873,0.234,6.881-2.133
						c1.007-2.367-0.441-5.249-3.233-6.438c-2.793-1.189-5.874-0.234-6.881,2.132C-27.937-31.526-26.49-28.643-23.696-27.455"/>
				</g>
				<g id="g896" transform="translate(193.8672,182.6602)">
					<path id="path898" inkscape:connector-curvature="0" fill="#8E428E" d="M-23.85-27.097c2.753,1.172,5.791,0.231,6.784-2.103
						c0.992-2.333-0.434-5.174-3.188-6.348c-2.753-1.172-5.791-0.23-6.784,2.103C-28.031-31.111-26.605-28.269-23.85-27.097"/>
				</g>
				<g id="g900" transform="translate(194.043,182.2422)">
					<path id="path902" inkscape:connector-curvature="0" fill="#8E438E" d="M-24.001-26.74c2.715,1.155,5.709,0.227,6.688-2.073
						s-0.427-5.101-3.141-6.256c-2.714-1.156-5.708-0.227-6.688,2.073C-28.121-30.696-26.715-27.895-24.001-26.74"/>
				</g>
				<g id="g904" transform="translate(194.2227,181.8242)">
					<path id="path906" inkscape:connector-curvature="0" fill="#8F438F" d="M-24.155-26.382c2.675,1.138,5.626,0.224,6.591-2.043
						c0.965-2.267-0.422-5.027-3.096-6.166c-2.675-1.139-5.626-0.225-6.591,2.042C-28.216-30.281-26.829-27.521-24.155-26.382"/>
				</g>
				<g id="g908" transform="translate(194.3984,181.4063)">
					<path id="path910" inkscape:connector-curvature="0" fill="#90438F" d="M-24.305-26.024c2.636,1.121,5.543,0.22,6.494-2.013
						s-0.416-4.954-3.05-6.075c-2.637-1.122-5.544-0.221-6.494,2.013C-28.306-29.866-26.941-27.146-24.305-26.024"/>
				</g>
				<g id="g912" transform="translate(194.5781,180.9844)">
					<path id="path914" inkscape:connector-curvature="0" fill="#91438F" d="M-24.459-25.663c2.596,1.105,5.46,0.218,6.397-1.982
						c0.936-2.2-0.409-4.88-3.005-5.985c-2.597-1.105-5.46-0.217-6.396,1.983C-28.4-29.447-27.055-26.768-24.459-25.663"/>
				</g>
				<g id="g916" transform="translate(194.7578,180.5664)">
					<path id="path918" inkscape:connector-curvature="0" fill="#924490" d="M-24.613-25.305c2.556,1.088,5.377,0.214,6.299-1.953
						c0.923-2.167-0.402-4.805-2.959-5.893c-2.556-1.089-5.377-0.215-6.299,1.952C-28.495-29.032-27.169-26.394-24.613-25.305"/>
				</g>
				<g id="g920" transform="translate(194.9336,180.1484)">
					<path id="path922" inkscape:connector-curvature="0" fill="#934490" d="M-24.763-24.947c2.518,1.072,5.295,0.211,6.202-1.923
						c0.909-2.133-0.397-4.732-2.914-5.803c-2.517-1.072-5.295-0.211-6.203,1.922C-28.585-28.617-27.281-26.02-24.763-24.947"/>
				</g>
				<g id="g924" transform="translate(195.1133,179.7305)">
					<path id="path926" inkscape:connector-curvature="0" fill="#944490" d="M-24.917-24.59c2.478,1.055,5.211,0.208,6.105-1.892
						c0.894-2.1-0.39-4.658-2.868-5.712c-2.478-1.055-5.212-0.208-6.106,1.892C-28.679-28.202-27.395-25.645-24.917-24.59"/>
				</g>
				<g id="g928" transform="translate(195.293,179.3125)">
					<path id="path930" inkscape:connector-curvature="0" fill="#954491" d="M-25.071-24.232c2.438,1.038,5.129,0.204,6.009-1.862
						c0.88-2.067-0.384-4.584-2.823-5.622c-2.438-1.037-5.128-0.205-6.009,1.863C-28.774-27.787-27.509-25.27-25.071-24.232"/>
				</g>
				<g id="g932" transform="translate(195.4688,178.8906)">
					<path id="path934" inkscape:connector-curvature="0" fill="#954491" d="M-25.221-23.871c2.399,1.022,5.047,0.202,5.913-1.832
						c0.866-2.034-0.378-4.51-2.777-5.532c-2.4-1.022-5.047-0.201-5.913,1.833C-28.864-27.368-27.621-24.892-25.221-23.871"/>
				</g>
				<g id="g936" transform="translate(195.6484,178.4727)">
					<path id="path938" inkscape:connector-curvature="0" fill="#964491" d="M-25.374-23.513c2.359,1.005,4.963,0.197,5.815-1.802
						c0.851-2-0.372-4.436-2.732-5.44c-2.36-1.005-4.963-0.198-5.816,1.802C-28.958-26.954-27.735-24.518-25.374-23.513"/>
				</g>
				<g id="g940" transform="translate(195.8281,178.0547)">
					<path id="path942" inkscape:connector-curvature="0" fill="#964591" d="M-25.528-23.156c2.32,0.988,4.88,0.195,5.718-1.772
						c0.836-1.966-0.366-4.362-2.687-5.35c-2.321-0.988-4.88-0.195-5.718,1.773C-29.052-26.538-27.849-24.143-25.528-23.156"/>
				</g>
				<g id="g944" transform="translate(196.0039,177.6367)">
					<path id="path946" inkscape:connector-curvature="0" fill="#974592" d="M-25.679-22.798c2.282,0.971,4.798,0.191,5.622-1.743
						s-0.36-4.288-2.641-5.259c-2.282-0.971-4.798-0.191-5.621,1.742C-29.143-26.124-27.96-23.769-25.679-22.798"/>
				</g>
				<g id="g948" transform="translate(196.1836,177.2188)">
					<path id="path950" inkscape:connector-curvature="0" fill="#984592" d="M-25.833-22.44c2.243,0.954,4.716,0.188,5.524-1.713
						c0.809-1.9-0.352-4.214-2.595-5.168c-2.242-0.955-4.715-0.188-5.524,1.711C-29.237-25.709-28.075-23.395-25.833-22.44"/>
				</g>
				<g id="g952" transform="translate(196.3594,176.7969)">
					<path id="path954" inkscape:connector-curvature="0" fill="#994592" d="M-25.983-22.079c2.203,0.938,4.633,0.185,5.427-1.682
						c0.795-1.866-0.347-4.14-2.549-5.078c-2.203-0.938-4.634-0.184-5.428,1.683C-29.328-25.29-28.185-23.017-25.983-22.079"/>
				</g>
				<g id="g956" transform="translate(196.5391,176.3789)">
					<path id="path958" inkscape:connector-curvature="0" fill="#994592" d="M-26.137-21.722c2.164,0.921,4.55,0.182,5.33-1.652
						c0.78-1.834-0.341-4.067-2.504-4.987c-2.164-0.922-4.551-0.181-5.33,1.652C-29.421-24.875-28.301-22.642-26.137-21.722"/>
				</g>
				<g id="g960" transform="translate(196.7188,175.9609)">
					<path id="path962" inkscape:connector-curvature="0" fill="#9A4693" d="M-26.291-21.364c2.123,0.904,4.467,0.178,5.234-1.622
						c0.766-1.8-0.335-3.992-2.459-4.896c-2.124-0.904-4.466-0.177-5.233,1.622C-29.515-24.46-28.415-22.268-26.291-21.364"/>
				</g>
				<g id="g964" transform="translate(196.8945,175.543)">
					<path id="path966" inkscape:connector-curvature="0" fill="#9B4693" d="M-26.441-21.006c2.084,0.887,4.384,0.175,5.136-1.592
						c0.752-1.767-0.328-3.919-2.413-4.806c-2.085-0.887-4.384-0.175-5.137,1.592C-29.606-24.045-28.526-21.894-26.441-21.006"/>
				</g>
				<g id="g968" transform="translate(197.0742,175.125)">
					<path id="path970" inkscape:connector-curvature="0" fill="#9B4693" d="M-26.595-20.648c2.045,0.87,4.302,0.171,5.038-1.562
						c0.738-1.734-0.321-3.845-2.366-4.715c-2.046-0.87-4.302-0.171-5.04,1.562C-29.701-23.63-28.641-21.519-26.595-20.648"/>
				</g>
				<g id="g972" transform="translate(197.25,174.7031)">
					<path id="path974" inkscape:connector-curvature="0" fill="#9C4794" d="M-26.745-20.287c2.006,0.854,4.22,0.169,4.943-1.532
						c0.723-1.699-0.316-3.77-2.322-4.625c-2.007-0.854-4.22-0.167-4.943,1.532C-29.792-23.211-28.752-21.14-26.745-20.287"/>
				</g>
				<g id="g976" transform="translate(197.4297,174.2852)">
					<path id="path978" inkscape:connector-curvature="0" fill="#9D4794" d="M-26.899-19.929c1.967,0.838,4.138,0.165,4.846-1.502
						c0.709-1.666-0.309-3.696-2.277-4.534c-1.966-0.838-4.137-0.165-4.846,1.502C-29.885-22.796-28.866-20.767-26.899-19.929"/>
				</g>
				<g id="g980" transform="translate(197.6094,173.8672)">
					<path id="path982" inkscape:connector-curvature="0" fill="#9D4794" d="M-27.052-19.572c1.927,0.82,4.053,0.161,4.748-1.471
						c0.696-1.634-0.303-3.623-2.23-4.443c-1.927-0.821-4.053-0.162-4.749,1.471C-29.98-22.381-28.981-20.392-27.052-19.572"/>
				</g>
				<g id="g984" transform="translate(197.7891,173.4492)">
					<path id="path986" inkscape:connector-curvature="0" fill="#9E4794" d="M-27.206-19.214c1.888,0.803,3.97,0.158,4.651-1.442
						c0.682-1.6-0.298-3.549-2.185-4.352c-1.888-0.804-3.971-0.158-4.652,1.441C-30.074-21.966-29.095-20.018-27.206-19.214"/>
				</g>
				<g id="g988" transform="translate(197.9648,173.0313)">
					<path id="path990" inkscape:connector-curvature="0" fill="#9F4794" d="M-27.357-18.856c1.848,0.787,3.888,0.155,4.555-1.412
						c0.666-1.567-0.291-3.475-2.141-4.262c-1.848-0.787-3.888-0.155-4.555,1.413C-30.163-21.552-29.206-19.643-27.357-18.856"/>
				</g>
				<g id="g992" transform="translate(198.1445,172.6094)">
					<path id="path994" inkscape:connector-curvature="0" fill="#9F4794" d="M-27.511-18.495c1.809,0.77,3.805,0.152,4.459-1.382
						c0.652-1.534-0.286-3.401-2.095-4.17c-1.809-0.771-3.805-0.152-4.458,1.381C-30.258-21.133-29.32-19.265-27.511-18.495"/>
				</g>
				<g id="g996" transform="translate(198.3203,172.1914)">
					<path id="path998" inkscape:connector-curvature="0" fill="#A04794" d="M-27.661-18.137c1.77,0.754,3.723,0.148,4.361-1.352
						c0.638-1.5-0.279-3.327-2.048-4.081c-1.77-0.753-3.723-0.148-4.362,1.352S-29.431-18.891-27.661-18.137"/>
				</g>
				<g id="g1000" transform="translate(198.5,171.7734)">
					<path id="path1002" inkscape:connector-curvature="0" fill="#A14795" d="M-27.815-17.779c1.73,0.736,3.64,0.145,4.264-1.322
						c0.624-1.467-0.273-3.254-2.003-3.989c-1.731-0.737-3.64-0.145-4.264,1.322C-30.444-20.303-29.545-18.516-27.815-17.779"/>
				</g>
				<g id="g1004" transform="translate(198.6797,171.3555)">
					<path id="path1006" inkscape:connector-curvature="0" fill="#A14795" d="M-27.969-17.422c1.691,0.72,3.556,0.141,4.167-1.292
						c0.61-1.433-0.266-3.178-1.959-3.899c-1.691-0.72-3.557-0.141-4.166,1.292C-30.538-19.888-29.66-18.142-27.969-17.422"/>
				</g>
				<g id="g1008" transform="translate(198.8555,170.9375)">
					<path id="path1010" inkscape:connector-curvature="0" fill="#A24896" d="M-28.12-17.064c1.652,0.703,3.475,0.138,4.071-1.262
						c0.595-1.4-0.261-3.105-1.913-3.808c-1.652-0.703-3.474-0.138-4.07,1.262C-30.627-19.472-29.771-17.768-28.12-17.064"/>
				</g>
				<g id="g1012" transform="translate(199.0352,170.5156)">
					<path id="path1014" inkscape:connector-curvature="0" fill="#A24896" d="M-28.273-16.703c1.613,0.687,3.391,0.135,3.973-1.232
						c0.582-1.366-0.253-3.03-1.866-3.717c-1.613-0.688-3.392-0.136-3.974,1.231C-30.722-19.054-29.886-17.39-28.273-16.703"/>
				</g>
				<g id="g1016" transform="translate(199.2109,170.0977)">
					<path id="path1018" inkscape:connector-curvature="0" fill="#A34896" d="M-28.423-16.345c1.573,0.67,3.309,0.132,3.877-1.202
						c0.567-1.333-0.248-2.957-1.821-3.627c-1.573-0.67-3.309-0.131-3.877,1.202C-30.812-18.639-29.996-17.015-28.423-16.345"/>
				</g>
				<g id="g1020" transform="translate(199.3906,169.6797)">
					<path id="path1022" inkscape:connector-curvature="0" fill="#A34896" d="M-28.577-15.988c1.534,0.653,3.227,0.129,3.78-1.171
						c0.554-1.3-0.241-2.883-1.776-3.536c-1.534-0.653-3.226-0.129-3.78,1.171C-30.906-18.224-30.112-16.64-28.577-15.988"/>
				</g>
				<g id="g1024" transform="translate(199.5703,169.2617)">
					<path id="path1026" inkscape:connector-curvature="0" fill="#A44896" d="M-28.731-15.63c1.495,0.636,3.144,0.125,3.683-1.142
						c0.539-1.266-0.235-2.81-1.73-3.445c-1.495-0.637-3.144-0.127-3.684,1.14C-31.001-17.809-30.226-16.266-28.731-15.63"/>
				</g>
				<g id="g1028" transform="translate(199.75,168.8398)">
					<path id="path1030" inkscape:connector-curvature="0" fill="#A44896" d="M-28.885-15.269c1.455,0.62,3.061,0.122,3.586-1.111
						c0.525-1.234-0.229-2.736-1.685-3.355c-1.455-0.619-3.06-0.121-3.586,1.112C-31.095-17.39-30.341-15.888-28.885-15.269"/>
				</g>
				<g id="g1032" transform="translate(199.9258,168.4219)">
					<path id="path1034" inkscape:connector-curvature="0" fill="#A44897" d="M-29.035-14.911c1.416,0.604,2.977,0.119,3.489-1.081
						c0.511-1.2-0.223-2.661-1.64-3.264c-1.415-0.603-2.978-0.119-3.488,1.081C-31.185-16.975-30.452-15.513-29.035-14.911"/>
				</g>
				<g id="g1036" transform="translate(200.1055,168.0039)">
					<path id="path1038" inkscape:connector-curvature="0" fill="#A54897" d="M-29.19-14.554c1.377,0.586,2.896,0.116,3.393-1.051
						c0.496-1.167-0.217-2.587-1.595-3.175c-1.376-0.585-2.895-0.115-3.391,1.052C-31.279-16.561-30.566-15.139-29.19-14.554"/>
				</g>
				<g id="g1040" transform="translate(200.2813,167.5859)">
					<path id="path1042" inkscape:connector-curvature="0" fill="#A54897" d="M-29.339-14.195c1.337,0.569,2.812,0.112,3.295-1.021
						c0.481-1.133-0.212-2.514-1.548-3.083c-1.337-0.57-2.813-0.112-3.296,1.022C-31.37-16.145-30.677-14.765-29.339-14.195"/>
				</g>
				<g id="g1044" transform="translate(200.4609,167.168)">
					<path id="path1046" inkscape:connector-curvature="0" fill="#A64997" d="M-29.494-13.838c1.298,0.552,2.73,0.108,3.198-0.992
						c0.468-1.1-0.205-2.44-1.502-2.992c-1.298-0.552-2.73-0.109-3.198,0.991C-31.464-15.73-30.792-14.391-29.494-13.838"/>
				</g>
				<g id="g1048" transform="translate(200.6406,166.7461)">
					<path id="path1050" inkscape:connector-curvature="0" fill="#A64997" d="M-29.648-13.477c1.259,0.536,2.648,0.106,3.102-0.961
						c0.454-1.067-0.198-2.365-1.458-2.902c-1.259-0.535-2.646-0.105-3.1,0.962C-31.559-15.311-30.906-14.012-29.648-13.477"/>
				</g>
				<g id="g1052" transform="translate(200.8164,166.3281)">
					<path id="path1054" inkscape:connector-curvature="0" fill="#A74997" d="M-29.798-13.119c1.22,0.519,2.565,0.102,3.005-0.931
						c0.439-1.033-0.192-2.292-1.412-2.811c-1.22-0.519-2.564-0.102-3.004,0.931C-31.649-14.897-31.017-13.638-29.798-13.119"/>
				</g>
				<g id="g1056" transform="translate(200.9961,165.9102)">
					<path id="path1058" inkscape:connector-curvature="0" fill="#A74997" d="M-29.952-12.761c1.18,0.502,2.482,0.099,2.907-0.901
						c0.427-1-0.186-2.218-1.366-2.72c-1.18-0.502-2.481-0.098-2.908,0.902C-31.744-14.481-31.132-13.264-29.952-12.761"/>
				</g>
				<g id="g1060" transform="translate(201.1719,165.4922)">
					<path id="path1062" inkscape:connector-curvature="0" fill="#A74A98" d="M-30.102-12.404c1.141,0.486,2.399,0.096,2.81-0.872
						c0.413-0.966-0.18-2.143-1.32-2.629c-1.141-0.485-2.4-0.095-2.812,0.871C-31.834-14.067-31.243-12.889-30.102-12.404"/>
				</g>
				<g id="g1064" transform="translate(201.3516,165.0703)">
					<path id="path1066" inkscape:connector-curvature="0" fill="#A84A98" d="M-30.256-12.043c1.102,0.469,2.317,0.093,2.714-0.84
						c0.398-0.934-0.173-2.07-1.275-2.539c-1.101-0.469-2.316-0.092-2.713,0.841C-31.927-13.648-31.357-12.511-30.256-12.043"/>
				</g>
				<g id="g1068" transform="translate(201.5313,164.6523)">
					<path id="path1070" inkscape:connector-curvature="0" fill="#A84A98" d="M-30.41-11.685c1.063,0.452,2.234,0.089,2.617-0.811
						c0.383-0.9-0.167-1.997-1.23-2.449c-1.062-0.452-2.233-0.088-2.616,0.812C-32.022-13.232-31.472-12.137-30.41-11.685"/>
				</g>
				<g id="g1072" transform="translate(201.7109,164.2344)">
					<path id="path1074" inkscape:connector-curvature="0" fill="#A84A98" d="M-30.563-11.327c1.022,0.435,2.15,0.086,2.519-0.781
						c0.37-0.867-0.161-1.922-1.183-2.358c-1.023-0.435-2.152-0.086-2.52,0.78C-32.116-12.818-31.587-11.762-30.563-11.327"/>
				</g>
				<g id="g1076" transform="translate(201.8867,163.8164)">
					<path id="path1078" inkscape:connector-curvature="0" fill="#A94A99" d="M-30.714-10.969c0.984,0.418,2.069,0.082,2.423-0.751
						c0.355-0.833-0.155-1.848-1.139-2.267c-0.983-0.419-2.068-0.082-2.423,0.752C-32.207-12.402-31.697-11.388-30.714-10.969"/>
				</g>
				<g id="g1080" transform="translate(202.0664,163.3984)">
					<path id="path1082" inkscape:connector-curvature="0" fill="#AA4A99" d="M-30.868-10.612c0.945,0.402,1.986,0.079,2.327-0.721
						c0.34-0.8-0.149-1.773-1.093-2.176c-0.945-0.402-1.986-0.079-2.326,0.721C-32.301-11.988-31.812-11.014-30.868-10.612"/>
				</g>
				<g id="g1084" transform="translate(202.2422,162.9766)">
					<path id="path1086" inkscape:connector-curvature="0" fill="#AA4A99" d="M-31.018-10.251c0.905,0.386,1.902,0.076,2.23-0.691
						c0.326-0.766-0.144-1.7-1.048-2.086c-0.905-0.385-1.903-0.076-2.229,0.691C-32.392-11.569-31.923-10.636-31.018-10.251"/>
				</g>
				<g id="g1088" transform="translate(202.4219,162.5586)">
					<path id="path1090" inkscape:connector-curvature="0" fill="#AA4A99" d="M-31.172-9.893c0.866,0.368,1.82,0.072,2.132-0.661
						c0.313-0.734-0.136-1.627-1.002-1.995c-0.865-0.369-1.82-0.073-2.132,0.66S-32.037-10.261-31.172-9.893"/>
				</g>
				<g id="g1092" transform="translate(202.6016,162.1406)">
					<path id="path1094" inkscape:connector-curvature="0" fill="#AA4A99" d="M-31.326-9.535c0.826,0.352,1.738,0.069,2.035-0.631
						c0.298-0.7-0.13-1.552-0.956-1.904c-0.826-0.352-1.737-0.07-2.035,0.63C-32.58-10.74-32.152-9.886-31.326-9.535"/>
				</g>
				<g id="g1096" transform="translate(202.7773,161.7227)">
					<path id="path1098" inkscape:connector-curvature="0" fill="#AA4A99" d="M-31.476-9.177c0.787,0.335,1.655,0.066,1.939-0.6
						c0.284-0.667-0.124-1.479-0.911-1.814c-0.787-0.334-1.654-0.065-1.937,0.602C-32.67-10.324-32.262-9.512-31.476-9.177"/>
				</g>
				<g id="g1100" transform="translate(202.957,161.3047)">
					<path id="path1102" inkscape:connector-curvature="0" fill="#AB4A99" d="M-31.63-8.82c0.747,0.318,1.572,0.063,1.841-0.571
						c0.27-0.634-0.118-1.405-0.866-1.722c-0.747-0.319-1.572-0.063-1.841,0.57C-32.764-9.91-32.376-9.138-31.63-8.82"/>
				</g>
				<g id="g1104" transform="translate(203.1328,160.8828)">
					<path id="path1106" inkscape:connector-curvature="0" fill="#AB4A99" d="M-31.78-8.458c0.708,0.302,1.491,0.059,1.745-0.541
						c0.256-0.6-0.111-1.331-0.819-1.632c-0.709-0.301-1.49-0.059-1.745,0.541C-32.855-9.491-32.487-8.76-31.78-8.458"/>
				</g>
				<g id="g1108" transform="translate(203.3125,160.4648)">
					<path id="path1110" inkscape:connector-curvature="0" fill="#AB4A99" d="M-31.934-8.101c0.669,0.285,1.407,0.057,1.648-0.511
						c0.241-0.566-0.105-1.257-0.774-1.541c-0.669-0.285-1.405-0.056-1.648,0.51C-32.949-9.075-32.603-8.385-31.934-8.101"/>
				</g>
				<g id="g1112" transform="translate(203.4922,160.0469)">
					<path id="path1114" inkscape:connector-curvature="0" fill="#AB4A99" d="M-32.088-7.743c0.63,0.268,1.324,0.053,1.551-0.481
						c0.227-0.533-0.098-1.182-0.728-1.45c-0.63-0.267-1.324-0.052-1.551,0.48C-33.044-8.661-32.717-8.011-32.088-7.743"/>
				</g>
				<g id="g1116" transform="translate(203.6719,159.6289)">
					<path id="path1118" inkscape:connector-curvature="0" fill="#AC4A99" d="M-32.241-7.385c0.59,0.251,1.241,0.05,1.453-0.451
						c0.213-0.5-0.093-1.109-0.683-1.36c-0.59-0.252-1.241-0.048-1.454,0.451C-33.138-8.246-32.831-7.636-32.241-7.385"/>
				</g>
				<g id="g1120" transform="translate(203.8477,159.2109)">
					<path id="path1122" inkscape:connector-curvature="0" fill="#AC4A99" d="M-32.392-7.027c0.551,0.234,1.158,0.046,1.357-0.421
						c0.198-0.467-0.087-1.036-0.637-1.269c-0.551-0.235-1.159-0.047-1.358,0.42C-33.228-7.831-32.943-7.262-32.392-7.027"/>
				</g>
				<g id="g1124" transform="translate(204.0273,158.7891)">
					<path id="path1126" inkscape:connector-curvature="0" fill="#AC4A99" d="M-32.546-6.667c0.512,0.218,1.076,0.043,1.259-0.39
						c0.184-0.434-0.08-0.961-0.591-1.179c-0.511-0.217-1.076-0.042-1.26,0.391S-33.058-6.884-32.546-6.667"/>
				</g>
				<g id="g1128" transform="translate(204.2031,158.3711)">
					<path id="path1130" inkscape:connector-curvature="0" fill="#AC4B9A" d="M-32.696-6.309c0.472,0.201,0.993,0.04,1.163-0.36
						c0.17-0.401-0.075-0.887-0.546-1.089c-0.473-0.2-0.993-0.039-1.163,0.36C-33.412-6.997-33.168-6.51-32.696-6.309"/>
				</g>
				<g id="g1132" transform="translate(204.3828,157.9531)">
					<path id="path1134" inkscape:connector-curvature="0" fill="#AD4B9A" d="M-32.85-5.951c0.432,0.184,0.909,0.036,1.066-0.33
						c0.156-0.366-0.069-0.813-0.501-0.997c-0.433-0.185-0.91-0.037-1.066,0.33C-33.507-6.582-33.283-6.135-32.85-5.951"/>
				</g>
				<g id="g1136" transform="translate(204.5625,157.5352)">
					<path id="path1138" inkscape:connector-curvature="0" fill="#AD4B9A" d="M-33.004-5.593c0.393,0.167,0.827,0.032,0.969-0.301
						c0.142-0.333-0.062-0.739-0.455-0.906c-0.393-0.168-0.827-0.033-0.969,0.3C-33.601-6.167-33.397-5.761-33.004-5.593"/>
				</g>
				<g id="g1140" transform="translate(204.7383,157.1172)">
					<path id="path1142" inkscape:connector-curvature="0" fill="#AD4B9A" d="M-33.155-5.236c0.355,0.15,0.745,0.029,0.872-0.271
						c0.129-0.3-0.055-0.665-0.409-0.816c-0.355-0.151-0.745-0.03-0.873,0.27C-33.691-5.752-33.508-5.387-33.155-5.236"/>
				</g>
				<g id="g1144" transform="translate(204.918,156.6953)">
					<path id="path1146" inkscape:connector-curvature="0" fill="#AD4B9A" d="M-33.308-4.875c0.314,0.134,0.662,0.027,0.775-0.24
						c0.114-0.266-0.05-0.591-0.364-0.725c-0.315-0.134-0.662-0.027-0.776,0.24C-33.786-5.333-33.623-5.009-33.308-4.875"/>
				</g>
				<g id="g1148" transform="translate(205.0938,156.2773)">
					<path id="path1150" inkscape:connector-curvature="0" fill="#AD4B9A" d="M-33.458-4.517c0.276,0.117,0.58,0.023,0.679-0.21
						c0.099-0.234-0.045-0.518-0.318-0.635c-0.277-0.117-0.58-0.023-0.679,0.211C-33.876-4.918-33.733-4.634-33.458-4.517"/>
				</g>
				<g id="g1152" transform="translate(205.2734,155.8594)">
					<path id="path1154" inkscape:connector-curvature="0" fill="#AD4B9A" d="M-33.612-4.159c0.237,0.1,0.496,0.02,0.581-0.18
						c0.085-0.2-0.037-0.444-0.273-0.544c-0.237-0.101-0.497-0.021-0.582,0.18C-33.971-4.503-33.848-4.259-33.612-4.159"/>
				</g>
				<g id="g1156" transform="translate(205.4531,155.4414)">
					<path id="path1158" inkscape:connector-curvature="0" fill="#AD4B9A" d="M-33.766-3.802c0.196,0.084,0.413,0.017,0.484-0.15
						c0.071-0.166-0.03-0.37-0.227-0.453c-0.197-0.084-0.413-0.017-0.484,0.15S-33.963-3.885-33.766-3.802"/>
				</g>
				<g id="g1160" transform="translate(205.6328,155.0234)">
					<path id="path1162" inkscape:connector-curvature="0" fill="#AD4B9A" d="M-33.919-3.444c0.156,0.066,0.33,0.013,0.387-0.12
						c0.057-0.133-0.025-0.296-0.182-0.362c-0.158-0.067-0.331-0.013-0.388,0.12C-34.159-3.674-34.077-3.511-33.919-3.444"/>
				</g>
				<g id="g1164" transform="translate(205.8086,154.6016)">
					<path id="path1166" inkscape:connector-curvature="0" fill="#AD4B9A" d="M-34.07-3.083c0.118,0.051,0.248,0.01,0.291-0.09
						c0.042-0.1-0.019-0.222-0.136-0.272c-0.119-0.05-0.248-0.01-0.291,0.09C-34.249-3.254-34.187-3.133-34.07-3.083"/>
				</g>
				<g id="g1168" transform="translate(205.9883,154.1836)">
					<path id="path1170" inkscape:connector-curvature="0" fill="#AD4B9A" d="M-34.224-2.725c0.078,0.034,0.165,0.007,0.194-0.061
						c0.029-0.066-0.013-0.147-0.091-0.181c-0.078-0.033-0.165-0.007-0.194,0.06C-34.344-2.839-34.303-2.758-34.224-2.725"/>
				</g>
				<g id="g1172" transform="translate(206.1641,153.7656)">
					<path id="path1174" inkscape:connector-curvature="0" fill="#AD4B9A" d="M-34.374-2.367c0.039,0.017,0.082,0.003,0.097-0.03
						c0.014-0.033-0.006-0.074-0.045-0.09c-0.039-0.017-0.083-0.003-0.097,0.03C-34.434-2.425-34.414-2.384-34.374-2.367"/>
				</g>
			</g>
		</g>
	</g>
</g>
</svg>
