<?xml version="1.0" encoding="utf-8"?>
<!-- Generator: Adobe Illustrator 15.1.0, SVG Export Plug-In . SVG Version: 6.00 Build 0)  -->
<!DOCTYPE svg PUBLIC "-//W3C//DTD SVG 1.1//EN" "http://www.w3.org/Graphics/SVG/1.1/DTD/svg11.dtd">
<svg version="1.1"
	 id="svg2" xmlns:svg="http://www.w3.org/2000/svg" xmlns:dc="http://purl.org/dc/elements/1.1/" xmlns:rdf="http://www.w3.org/1999/02/22-rdf-syntax-ns#" xmlns:cc="http://creativecommons.org/ns#" xmlns:inkscape="http://www.inkscape.org/namespaces/inkscape"
	 xmlns="http://www.w3.org/2000/svg" xmlns:xlink="http://www.w3.org/1999/xlink" x="0px" y="0px" width="75px" height="75px"
	 viewBox="0 0 75 75" enable-background="new 0 0 75 75" xml:space="preserve">
<g>
	<g>
		<g>
			<linearGradient id="SVGID_1_" gradientUnits="userSpaceOnUse" x1="34.3628" y1="11.0747" x2="-8.7652" y2="54.2027">
				<stop  offset="0" style="stop-color:#E06106"/>
				<stop  offset="1" style="stop-color:#A13E47"/>
			</linearGradient>
			<path fill="url(#SVGID_1_)" d="M19.224,7.936c-10.093,10.094-10.094,26.46,0,36.552L55.776,7.936
				C45.681-2.157,29.317-2.157,19.224,7.936z"/>
			<linearGradient id="SVGID_2_" gradientUnits="userSpaceOnUse" x1="39.4941" y1="42.4951" x2="80.0807" y2="1.9086">
				<stop  offset="0" style="stop-color:#E06106"/>
				<stop  offset="1" style="stop-color:#B54650"/>
			</linearGradient>
			<path fill="url(#SVGID_2_)" d="M55.776,44.488c10.092-10.092,10.092-26.458,0-36.552L19.224,44.488
				C29.317,54.581,45.681,54.581,55.776,44.488z"/>
		</g>
		<path fill="#FFFFFF" d="M51.494,36.687c-0.102-0.304-0.574-0.021-0.74,0.044c-0.401,0.158-0.806,0.311-1.218,0.441
			c-0.89,0.267-1.776,0.465-2.71,0.407c-1.608-0.102-3.101-1.02-4.457-1.805c4.386-2.291,7.046-7.129,6.628-12.057
			c-0.386-4.553-3.318-8.61-7.521-10.403c-4.824-2.056-10.576-0.792-14.093,3.093c-3.345,3.696-4.147,9.179-2.014,13.678
			c0.838,1.771,2.095,3.331,3.646,4.525c-0.492,0.503-0.909,1.078-1.23,1.702c-0.14,0.271-0.257,0.544-0.359,0.83
			c-0.064,0.183-0.015,0.47,0.253,0.378c1.29-0.449,2.53-1.027,3.925-1.045c1.524-0.022,2.931,0.698,4.227,1.424
			c1.356,0.76,2.672,1.59,4.078,2.259c2.281,1.083,4.867,1.756,7.345,0.952c1.058-0.344,2.019-0.99,2.771-1.808
			c0.388-0.423,0.732-0.896,1.003-1.404c0.115-0.217,0.225-0.44,0.318-0.667C51.399,37.091,51.548,36.845,51.494,36.687
			C51.457,36.574,51.51,36.729,51.494,36.687z M29.83,21.683c0.603-1.327,1.566-2.438,2.791-3.211
			c1.199-0.757,2.58-1.158,3.991-1.158h0.002l0,0c1.057,0,2.085,0.225,3.061,0.667c1.811,0.82,3.19,2.297,3.893,4.156
			c0.698,1.861,0.633,3.881-0.188,5.691c-0.604,1.326-1.568,2.437-2.792,3.21c-1.199,0.758-2.578,1.159-3.991,1.159
			c-1.057,0-2.088-0.225-3.064-0.667c-1.811-0.821-3.191-2.297-3.891-4.158C28.942,25.514,29.009,23.493,29.83,21.683z"/>
	</g>
	<g>
		<g>
			<path fill="#474747" d="M15.036,58.584h1.488l3.556,8.17h-2.032l-0.704-1.73H14.17l-0.681,1.73h-1.985L15.036,58.584z
				 M15.729,60.961L14.735,63.5h1.997L15.729,60.961z"/>
			<path fill="#474747" d="M25.6,60.706c-0.359-0.425-0.878-0.669-1.547-0.669c-1.362,0-2.367,1.108-2.367,2.633
				c0,1.523,1.005,2.631,2.309,2.631c0.727,0,1.315-0.322,1.685-0.876l1.5,1.119c-0.682,0.97-1.835,1.419-2.955,1.419
				c-2.551,0-4.41-1.674-4.41-4.293c0-2.621,1.858-4.295,4.41-4.295c0.911,0,2.066,0.312,2.759,1.201L25.6,60.706z"/>
			<path fill="#474747" d="M27.891,58.584h5.552v1.661h-3.751v1.524h3.544v1.661h-3.544v1.663h3.959v1.66h-5.759V58.584z"/>
			<path fill="#474747" d="M43.651,66.754h-4.952c-2.549,0-4.431-1.558-4.431-4.188c0-2.471,1.939-4.191,4.362-4.191
				c2.424,0,4.363,1.731,4.363,4.191c0,1.153-0.507,2.284-1.627,2.78v0.023h2.285V66.754z M38.63,65.094
				c1.374,0,2.495-1.121,2.495-2.527c0-1.408-1.121-2.529-2.495-2.529c-1.372,0-2.493,1.121-2.493,2.529
				C36.137,63.973,37.258,65.094,38.63,65.094z"/>
			<path fill="#474747" d="M51.117,63.604c0,1.927-1.179,3.358-3.441,3.358c-2.274,0-3.45-1.432-3.45-3.358v-5.021h1.799v4.951
				c0,1.005,0.694,1.766,1.651,1.766c0.948,0,1.64-0.761,1.64-1.766v-4.951h1.802V63.604z"/>
			<path fill="#474747" d="M52.538,58.584h1.8v8.17h-1.8V58.584z"/>
			<path fill="#474747" d="M58.453,58.584h1.488l3.556,8.17h-2.033l-0.703-1.73h-3.174l-0.683,1.73h-1.983L58.453,58.584z
				 M59.145,60.961L58.152,63.5h1.997L59.145,60.961z"/>
		</g>
		<g>
			<path fill="#474747" d="M13.137,70.199c1.061,0,1.266,0.842,1.266,1.291c0,0.192,0,0.425-0.266,0.425h-1.935
				c0,0.657,0.378,1.082,1,1.082c0.385,0,0.61-0.146,0.795-0.285c0.04-0.029,0.066-0.041,0.12-0.041
				c0.106,0,0.192,0.087,0.192,0.191c0,0.073-0.033,0.114-0.073,0.153c-0.1,0.1-0.444,0.37-1.034,0.37
				c-0.881,0-1.432-0.482-1.432-1.597C11.771,70.769,12.275,70.199,13.137,70.199z M13.137,70.584c-0.577,0-0.895,0.371-0.935,0.96
				h1.783C13.985,71.066,13.819,70.584,13.137,70.584z"/>
			<path fill="#474747" d="M15.416,68.793v3.785c0,0.265,0.087,0.378,0.266,0.378c0.106,0,0.199,0.087,0.199,0.198
				c0,0.113-0.092,0.2-0.199,0.2c-0.444,0-0.689-0.266-0.689-0.776v-3.785c0-0.111,0.099-0.211,0.212-0.211
				C15.324,68.582,15.416,68.682,15.416,68.793z"/>
			<path fill="#474747" d="M19.055,70.199c0.59,0,0.915,0.311,1.021,0.457c0.033,0.046,0.045,0.078,0.045,0.125
				c0,0.113-0.085,0.193-0.192,0.193c-0.066,0-0.112-0.027-0.159-0.08c-0.1-0.113-0.279-0.311-0.716-0.311
				c-0.61,0-0.935,0.391-0.935,1.205c0,0.83,0.325,1.213,0.935,1.213c0.384,0,0.616-0.171,0.769-0.285
				c0.046-0.034,0.08-0.046,0.126-0.046c0.106,0,0.192,0.087,0.192,0.191c0,0.062-0.021,0.106-0.086,0.166
				c-0.146,0.12-0.464,0.357-1,0.357c-0.855,0-1.366-0.509-1.366-1.597C17.689,70.702,18.2,70.199,19.055,70.199z"/>
			<path fill="#474747" d="M21.083,70.935c-0.067,0.073-0.113,0.094-0.173,0.094c-0.105,0-0.192-0.087-0.192-0.193
				c0-0.046,0.014-0.08,0.034-0.112c0.186-0.291,0.544-0.523,1.1-0.523c0.769,0,1.193,0.451,1.193,1.126v1.823
				c0,0.112-0.093,0.206-0.206,0.206c-0.113,0-0.206-0.094-0.206-0.206v-0.239c-0.166,0.312-0.55,0.477-0.948,0.477
				c-0.703,0-1.146-0.337-1.146-0.947c0-0.583,0.444-0.934,1.16-0.934h0.935v-0.18c0-0.451-0.298-0.729-0.782-0.729
				C21.5,70.597,21.289,70.702,21.083,70.935z M22.634,72.153v-0.279H21.7c-0.431,0-0.729,0.181-0.729,0.564
				c0,0.346,0.239,0.563,0.755,0.563C22.19,73.002,22.634,72.717,22.634,72.153z"/>
			<path fill="#474747" d="M26.299,71.371v1.771c0,0.119-0.093,0.213-0.211,0.213c-0.12,0-0.212-0.094-0.212-0.213v-1.684
				c0-0.523-0.153-0.882-0.795-0.882c-0.657,0-0.882,0.398-0.882,0.929v1.637c0,0.119-0.093,0.213-0.212,0.213
				c-0.119,0-0.212-0.094-0.212-0.213V70.45c0-0.119,0.093-0.21,0.212-0.21c0.12,0,0.212,0.091,0.212,0.21v0.212
				c0.126-0.251,0.451-0.463,0.882-0.463C26.1,70.199,26.299,70.81,26.299,71.371z"/>
			<path fill="#474747" d="M27.366,70.935c-0.066,0.073-0.113,0.094-0.172,0.094c-0.106,0-0.192-0.087-0.192-0.193
				c0-0.046,0.013-0.08,0.033-0.112c0.186-0.291,0.543-0.523,1.101-0.523c0.768,0,1.192,0.451,1.192,1.126v1.823
				c0,0.112-0.094,0.206-0.206,0.206c-0.113,0-0.205-0.094-0.205-0.206v-0.239c-0.166,0.312-0.551,0.477-0.948,0.477
				c-0.703,0-1.147-0.337-1.147-0.947c0-0.583,0.445-0.934,1.161-0.934h0.934v-0.18c0-0.451-0.298-0.729-0.782-0.729
				C27.785,70.597,27.572,70.702,27.366,70.935z M28.917,72.153v-0.279h-0.934c-0.432,0-0.73,0.181-0.73,0.564
				c0,0.346,0.239,0.563,0.756,0.563C28.473,73.002,28.917,72.717,28.917,72.153z"/>
			<path fill="#474747" d="M30.482,68.793v3.785c0,0.265,0.085,0.378,0.264,0.378c0.106,0,0.199,0.087,0.199,0.198
				c0,0.113-0.093,0.2-0.199,0.2c-0.443,0-0.689-0.266-0.689-0.776v-3.785c0-0.111,0.1-0.211,0.213-0.211
				C30.389,68.582,30.482,68.682,30.482,68.793z"/>
			<path fill="#474747" d="M32.755,71.797c0-1.088,0.503-1.598,1.358-1.598c0.755,0,1.299,0.431,1.299,1.306v2.916
				c0,0.119-0.093,0.212-0.212,0.212c-0.119,0-0.212-0.093-0.212-0.212v-1.465c-0.153,0.213-0.477,0.43-0.901,0.43
				C33.231,73.386,32.755,72.883,32.755,71.797z M34.988,71.505c0-0.631-0.364-0.921-0.875-0.921c-0.61,0-0.934,0.383-0.934,1.213
				c0,0.813,0.331,1.205,0.934,1.205c0.622,0,0.875-0.584,0.875-0.584V71.505z"/>
			<path fill="#474747" d="M36.492,70.45v1.729c0,0.431,0.14,0.802,0.81,0.802c0.668,0,0.807-0.371,0.807-0.802V70.45
				c0-0.119,0.101-0.21,0.22-0.21c0.111,0,0.204,0.091,0.204,0.21v1.729c0,0.631-0.204,1.206-1.231,1.206
				c-1.021,0-1.234-0.575-1.234-1.206V70.45c0-0.119,0.094-0.21,0.213-0.21C36.394,70.24,36.492,70.331,36.492,70.45z"/>
			<path fill="#474747" d="M40.429,70.199c1.061,0,1.265,0.842,1.265,1.291c0,0.192,0,0.425-0.264,0.425h-1.937
				c0,0.657,0.379,1.082,1.002,1.082c0.386,0,0.61-0.146,0.796-0.285c0.038-0.029,0.064-0.041,0.119-0.041
				c0.105,0,0.192,0.087,0.192,0.191c0,0.073-0.034,0.114-0.074,0.153c-0.099,0.1-0.444,0.37-1.033,0.37
				c-0.882,0-1.432-0.482-1.432-1.597C39.063,70.769,39.566,70.199,40.429,70.199z M40.429,70.584c-0.576,0-0.895,0.371-0.936,0.96
				h1.784C41.277,71.066,41.111,70.584,40.429,70.584z"/>
			<path fill="#474747" d="M46.321,71.371v1.771c0,0.119-0.093,0.213-0.212,0.213s-0.212-0.094-0.212-0.213v-1.684
				c0-0.523-0.153-0.882-0.795-0.882c-0.658,0-0.884,0.398-0.884,0.929v1.637c0,0.119-0.092,0.213-0.212,0.213
				c-0.117,0-0.211-0.094-0.211-0.213V70.45c0-0.119,0.094-0.21,0.211-0.21c0.12,0,0.212,0.091,0.212,0.21v0.212
				c0.128-0.251,0.452-0.463,0.884-0.463C46.123,70.199,46.321,70.81,46.321,71.371z"/>
			<path fill="#474747" d="M49.636,71.789c0,1.088-0.53,1.597-1.393,1.597c-0.855,0-1.393-0.509-1.393-1.597
				c0-1.087,0.537-1.59,1.393-1.59C49.105,70.199,49.636,70.702,49.636,71.789z M49.204,71.789c0-0.834-0.351-1.205-0.961-1.205
				c-0.608,0-0.962,0.371-0.962,1.205c0,0.849,0.354,1.213,0.962,1.213C48.854,73.002,49.204,72.638,49.204,71.789z"/>
			<path fill="#474747" d="M50.582,71.008c0,0.695,1.743,0.437,1.743,1.498c0,0.602-0.495,0.875-1.126,0.875
				c-0.544,0-0.96-0.26-1.134-0.478c-0.033-0.047-0.046-0.081-0.046-0.128c0-0.104,0.086-0.191,0.192-0.191
				c0.039,0,0.093,0.015,0.145,0.066c0.206,0.206,0.471,0.326,0.843,0.326c0.378,0,0.702-0.125,0.702-0.471
				c0-0.684-1.743-0.41-1.743-1.498c0-0.55,0.45-0.803,1.014-0.803c0.452,0,0.803,0.152,1.007,0.425
				c0.021,0.026,0.048,0.067,0.048,0.125c0,0.107-0.087,0.192-0.192,0.192c-0.033,0-0.087-0.006-0.139-0.059
				c-0.18-0.175-0.378-0.279-0.724-0.279C50.873,70.609,50.582,70.702,50.582,71.008z"/>
			<path fill="#474747" d="M54.843,70.45v1.729c0,0.431,0.141,0.802,0.811,0.802c0.669,0,0.808-0.371,0.808-0.802V70.45
				c0-0.119,0.1-0.21,0.221-0.21c0.11,0,0.203,0.091,0.203,0.21v1.729c0,0.631-0.203,1.206-1.231,1.206
				c-1.022,0-1.234-0.575-1.234-1.206V70.45c0-0.119,0.095-0.21,0.212-0.21C54.745,70.24,54.843,70.331,54.843,70.45z"/>
			<path fill="#474747" d="M60.141,71.371v1.771c0,0.119-0.093,0.213-0.213,0.213c-0.119,0-0.212-0.094-0.212-0.213v-1.684
				c0-0.523-0.152-0.882-0.795-0.882c-0.656,0-0.883,0.398-0.883,0.929v1.637c0,0.119-0.092,0.213-0.212,0.213
				c-0.118,0-0.212-0.094-0.212-0.213V70.45c0-0.119,0.094-0.21,0.212-0.21c0.12,0,0.212,0.091,0.212,0.21v0.212
				c0.127-0.251,0.452-0.463,0.883-0.463C59.941,70.199,60.141,70.81,60.141,71.371z"/>
			<path fill="#474747" d="M62.035,70.199c1.061,0,1.268,0.842,1.268,1.291c0,0.192,0,0.425-0.267,0.425h-1.934
				c0,0.657,0.377,1.082,0.998,1.082c0.386,0,0.611-0.146,0.797-0.285c0.04-0.029,0.065-0.041,0.119-0.041
				c0.106,0,0.193,0.087,0.193,0.191c0,0.073-0.035,0.114-0.074,0.153c-0.1,0.1-0.445,0.37-1.035,0.37
				c-0.881,0-1.431-0.482-1.431-1.597C60.67,70.769,61.174,70.199,62.035,70.199z M62.035,70.584c-0.576,0-0.895,0.371-0.933,0.96
				h1.78C62.883,71.066,62.718,70.584,62.035,70.584z"/>
		</g>
	</g>
</g>
</svg>
