<?xml version="1.0" encoding="utf-8"?>
<!-- Generator: Adobe Illustrator 15.1.0, SVG Export Plug-In . SVG Version: 6.00 Build 0)  -->
<!DOCTYPE svg PUBLIC "-//W3C//DTD SVG 1.0//EN" "http://www.w3.org/TR/2001/REC-SVG-20010904/DTD/svg10.dtd">
<svg version="1.0" id="Layer_1" xmlns="http://www.w3.org/2000/svg" xmlns:xlink="http://www.w3.org/1999/xlink" x="0px" y="0px"
	 width="110px" height="110px" viewBox="0 0 110 110" enable-background="new 0 0 110 110" xml:space="preserve">
<g>
	<path fill="none" d="M40.617,93.007H38.27v13.517h1.556c3.187,0,3.392-1.685,3.392-7.217
		C43.218,94.793,42.759,93.007,40.617,93.007z"/>
	<path fill="none" d="M84.066,93.595c-0.024-0.433-0.076-0.866-0.127-1.274h-0.053c-0.05,0.408-0.1,0.843-0.125,1.274
		c-0.104,0.895-0.181,1.761-0.357,2.653l-1.072,5.43h3.061l-0.97-5.43C84.244,95.354,84.169,94.488,84.066,93.595z"/>
	<path fill="none" d="M69.1,93.008h-2.652v5.279h2.804c1.173-0.077,2.091-0.844,2.091-2.754C71.342,93.391,70.45,93.035,69.1,93.008
		z"/>
	<polygon fill="#D12238" points="74.532,55.316 80.039,25.427 87.203,25.427 93.395,59.033 87.814,59.033 86.784,51.582 
		80.462,51.582 79.432,59.033 74.609,59.033 74.994,77.524 95.759,76.253 91.211,3.858 68.568,5.1 68.826,11.018 73.609,10.878 	"/>
	<polygon fill="#D12238" points="83.672,32.124 83.573,32.124 81.296,46.555 85.948,46.555 	"/>
	<path fill="#F26F21" d="M70.798,56.336c-1.505,2.066-3.983,3.163-7.202,3.163c-3.862,0-6.663-1.569-7.99-4.503l0.25,19.45
		l-3.184,0.069l-0.019,9.235l22.468-0.098l-0.127-6.128l-3.266,0.2L70.798,56.336z"/>
	<path fill="#F26F21" d="M60.514,25.427v25.365c0,2.475,0.989,3.683,3.082,3.683c2.092,0,3.066-1.208,3.066-3.683V25.427h2.791
		l-0.627-14.409l-13.779,0.402l0.18,14.007H60.514z"/>
	<path fill="#F26F21" d="M72.439,25.427v25.136c0,2.385-0.581,4.317-1.642,5.773l0.931,21.389l3.266-0.2l-0.385-18.491h-0.762
		l0.685-3.717l-0.923-44.438l-4.783,0.14l0.627,14.409H72.439z"/>
	<path fill="#8FAF3E" d="M44.23,24.958c5.398,0,8.188,3.659,8.528,8.243l0.045-21.716l2.244-0.065l-0.08-6.222l-19.58,0.195
		l0.16,26.305C36.209,27.85,38.998,24.958,44.23,24.958z"/>
	<path fill="#8FAF3E" d="M44.23,59.498c-4.93,0-7.694-2.56-8.55-6.074l0.131,21.458l16.861-0.368l0.047-22.366
		C52.259,56.3,49.482,59.498,44.23,59.498z"/>
	<path fill="#8FAF3E" d="M47.021,36.645L47.021,36.645v-2.612c0-2.843-1.305-4.046-2.792-4.046c-2.32,0-3.074,1.203-3.074,3.725
		v17.034c0,2.521,0.753,3.73,3.074,3.73c2.092,0,2.792-1.208,2.792-3.4V47.02h5.708l0.021-10.376L47.021,36.645L47.021,36.645z"/>
	<path fill="#8FAF3E" d="M52.758,33.201c0.024,0.319,0.037,0.643,0.037,0.97v2.473h-0.044L52.729,47.02h0.065v3.872
		c0,0.428-0.031,0.845-0.076,1.256l-0.047,22.366l3.184-0.069l-0.25-19.45c-0.561-1.24-0.863-2.718-0.863-4.433V25.427h0.001h0.483
		l-0.18-14.007l-2.244,0.065L52.758,33.201z"/>
	<polygon fill="#28A4AC" points="35.811,74.883 33.574,74.932 33.55,59.033 29.076,59.033 28.052,51.582 21.717,51.582 
		20.698,59.033 15.112,59.033 21.303,25.427 28.475,25.427 33.541,52.948 33.469,5.411 35.387,5.392 35.363,1.479 13.938,1.737 
		13.833,80.661 35.846,80.729 	"/>
	<polygon fill="#28A4AC" points="24.844,32.124 22.559,46.555 27.214,46.555 24.929,32.124 	"/>
	<path fill="#28A4AC" d="M33.541,52.948l1.12,6.085H33.55l0.024,15.898l2.236-0.049L35.68,53.424
		c-0.195-0.801-0.292-1.651-0.292-2.532V33.57c0-0.644,0.056-1.269,0.16-1.873l-0.16-26.305l-1.917,0.019L33.541,52.948z"/>
	<path fill="#FFFFFF" d="M80.462,51.582h6.322l1.03,7.451h5.58l-6.191-33.606h-7.164l-5.507,29.889l0.077,3.717h4.822L80.462,51.582
		z M83.573,32.124h0.099l2.276,14.431h-4.652L83.573,32.124z"/>
	<polygon fill="#FFFFFF" points="73.848,59.033 74.609,59.033 74.532,55.316 	"/>
	<path fill="#FFFFFF" d="M63.596,59.499c3.219,0,5.697-1.097,7.202-3.163l-1.345-30.909h-2.791v25.365
		c0,2.475-0.975,3.683-3.066,3.683c-2.093,0-3.082-1.208-3.082-3.683V25.427h-5.287l0.379,29.569
		C56.933,57.93,59.733,59.499,63.596,59.499z"/>
	<path fill="#FFFFFF" d="M72.439,50.563V25.427h-2.986l1.345,30.909C71.858,54.88,72.439,52.948,72.439,50.563z"/>
	<path fill="#FFFFFF" d="M54.743,25.427L54.743,25.427l-0.001,25.136c0,1.714,0.303,3.193,0.863,4.433l-0.379-29.569H54.743z"/>
	<path fill="#FFFFFF" d="M44.23,59.498c5.252,0,8.029-3.198,8.489-7.35l0.011-5.128h-5.708v4.056c0,2.192-0.7,3.4-2.792,3.4
		c-2.321,0-3.074-1.209-3.074-3.73V33.712c0-2.522,0.754-3.725,3.074-3.725c1.487,0,2.792,1.203,2.792,4.046v2.611h5.73l0.007-3.443
		c-0.34-4.584-3.13-8.243-8.528-8.243c-5.232,0-8.021,2.892-8.683,6.739l0.133,21.727C36.536,56.938,39.3,59.498,44.23,59.498z"/>
	<path fill="#FFFFFF" d="M52.795,50.892V47.02h-0.065l-0.011,5.128C52.764,51.737,52.795,51.32,52.795,50.892z"/>
	<path fill="#FFFFFF" d="M52.795,36.644v-2.473c0-0.327-0.013-0.65-0.037-0.97l-0.007,3.443H52.795z"/>
	<path fill="#FFFFFF" d="M35.387,33.57v17.322c0,0.881,0.097,1.731,0.292,2.532l-0.133-21.727
		C35.443,32.301,35.387,32.926,35.387,33.57z"/>
	<path fill="#FFFFFF" d="M28.475,25.427h-7.172l-6.191,33.606h5.586l1.019-7.451h6.335l1.024,7.451h4.474l-0.009-6.085
		L28.475,25.427z M22.559,46.555l2.285-14.431h0.085l2.285,14.431H22.559z"/>
	<polygon fill="#FFFFFF" points="33.541,52.948 33.55,59.033 34.661,59.033 	"/>
	<polygon fill="#020202" points="9.227,109.329 9.227,109.33 12.797,109.33 12.797,100.66 18.943,100.66 18.943,97.854 
		12.797,97.854 12.797,93.008 19.35,93.008 19.35,90.203 9.227,90.203 	"/>
	<polygon fill="#020202" points="21.746,109.329 21.746,109.33 31.794,109.33 31.794,106.523 25.316,106.523 25.316,100.633 
		31.283,100.633 31.283,97.827 25.316,97.827 25.316,93.008 31.794,93.008 31.794,90.203 21.746,90.203 	"/>
	<path fill="#020202" d="M42.146,90.203H34.7v19.126v0.001h6.604c0.892,0,1.861-0.053,2.652-0.51
		c2.932-1.709,2.932-6.07,2.932-9.844c0-3.162-0.229-5.279-1.045-6.604C44.747,90.586,43.013,90.203,42.146,90.203z M39.826,106.523
		H38.27V93.007h2.347c2.142,0,2.601,1.786,2.601,6.3C43.218,104.839,43.013,106.523,39.826,106.523z"/>
	<polygon fill="#020202" points="50.076,109.329 50.076,109.33 60.123,109.33 60.123,106.523 53.645,106.523 53.645,100.633 
		59.611,100.633 59.611,97.827 53.645,97.827 53.645,93.008 60.123,93.008 60.123,90.203 50.076,90.203 	"/>
	<path fill="#020202" d="M74.887,102.93c0-1.838-0.639-3.188-2.754-3.469V99.41c2.396-0.333,2.932-2.525,2.932-4.616
		c0-3.521-2.347-4.591-5.432-4.591h-6.758v19.126h3.57v-8.237v-0.001h0.638c1.021,0,2.065-0.024,3.035,0.255
		c1.224,0.358,1.198,1.965,1.224,3.139c0.026,1.273-0.05,3.619,0.385,4.845h3.926v-0.356
		C74.785,108.41,74.887,103.719,74.887,102.93z M69.251,98.287h-2.804h-0.002h0.002v-5.279H69.1
		c1.351,0.027,2.242,0.383,2.242,2.525C71.342,97.443,70.424,98.21,69.251,98.287z"/>
	<path fill="#020202" d="M81.566,90.203l-4.564,19.126h3.825l0.942-4.845h4.184l0.941,4.845h3.826l-4.334-19.126H81.566z
		 M82.332,101.678l1.072-5.43c0.177-0.893,0.254-1.759,0.357-2.653c0.025-0.432,0.075-0.866,0.125-1.274h0.053
		c0.051,0.408,0.103,0.842,0.127,1.274c0.103,0.894,0.178,1.759,0.356,2.653l0.97,5.43H82.332z"/>
	<polygon fill="#020202" points="96.254,90.203 92.684,90.203 92.684,109.329 102.885,109.329 102.885,106.523 96.254,106.523 	"/>
</g>
</svg>
