<?xml version="1.0" encoding="utf-8"?>
<!-- Generator: Adobe Illustrator 15.1.0, SVG Export Plug-In . SVG Version: 6.00 Build 0)  -->
<!DOCTYPE svg PUBLIC "-//W3C//DTD SVG 1.1//EN" "http://www.w3.org/Graphics/SVG/1.1/DTD/svg11.dtd">
<svg version="1.1" id="Layer_1" xmlns="http://www.w3.org/2000/svg" xmlns:xlink="http://www.w3.org/1999/xlink" x="0px" y="0px"
	 width="60.067px" height="60.066px" viewBox="-79.733 -0.036 60.067 60.066" enable-background="new -79.733 -0.036 60.067 60.066"
	 xml:space="preserve">
<g>
	<g>
		<path fill="#79C3C8" d="M-76.332,1.789l40.847-1.112l-0.342,16.094l-14.389,1.455v16.177l14.218,1.457l0.085,15.922l-39.992,0.086
			L-76.332,1.789z"/>
		<path fill="#79C3C8" d="M-23.41,18.31l0.342,16.608l-14.386-0.941l-0.171-15.152L-23.41,18.31z"/>
		<polygon fill="#79C3C8" points="-75.95,54.039 -71.459,54.039 -71.459,55.838 -72.896,55.838 -72.896,57.525 -71.459,57.557 
			-71.459,59.283 -75.936,59.283 		"/>
		<path fill="#79C3C8" d="M-69.318,55.504h0.67v2.021h-0.67V55.504z M-71.229,59.283h4.479v-5.244h-4.491L-71.229,59.283z"/>
		<polygon fill="#79C3C8" points="-66.536,54.039 -64.946,54.039 -63.886,55.854 -63.886,54.039 -62.058,54.039 -62.058,59.283 
			-63.872,59.283 -64.541,58.309 -64.541,59.283 -66.536,59.283 		"/>
		<polygon fill="#79C3C8" points="-61.843,54.039 -57.394,54.039 -57.394,55.838 -59.011,55.838 -59.011,56.285 -57.394,56.285 
			-57.394,59.283 -61.813,59.283 -61.813,57.539 -60.084,57.539 -60.084,57.123 -61.843,57.123 		"/>
		<polygon fill="#79C3C8" points="-57.177,54.039 -52.714,54.039 -52.714,55.838 -53.593,55.838 -53.593,59.283 -56.312,59.283 
			-56.312,55.838 -57.177,55.838 		"/>
		<polygon fill="#79C3C8" points="-52.484,54.039 -48.048,54.039 -48.048,57.064 -50.212,57.064 -48.007,59.283 -52.498,59.283 		
			"/>
		<polygon fill="#79C3C8" points="-47.789,54.039 -45.892,54.039 -45.892,57.094 -45.238,57.094 -45.238,54.039 -43.298,54.039 
			-43.298,59.283 -47.789,59.283 		"/>
		<rect x="-43.082" y="54.039" fill="#79C3C8" width="2.356" height="5.244"/>
		<polygon fill="#79C3C8" points="-40.509,54.039 -36.032,54.039 -36.032,57.094 -38.222,57.094 -36.06,59.283 -40.509,59.283 		"/>
		<rect x="-35.415" y="58.6" fill="#79C3C8" width="0.828" height="0.719"/>
		<polygon fill="#79C3C8" points="-34.501,57.18 -32.708,57.18 -32.708,57.912 -33.069,57.912 -33.069,59.309 -34.14,59.309 
			-34.14,57.924 -34.537,57.924 		"/>
		<polyline fill="#79C3C8" points="-32.552,57.166 -32.12,59.318 -31.205,59.318 -30.761,57.166 -31.47,57.166 -31.638,57.721 
			-31.818,57.166 		"/>
	</g>
	<rect x="-79.733" y="-0.036" fill="none" width="60.067" height="60.066"/>
</g>
</svg>
