<?xml version="1.0" encoding="utf-8"?>
<!-- Generator: Adobe Illustrator 15.1.0, SVG Export Plug-In . SVG Version: 6.00 Build 0)  -->
<!DOCTYPE svg PUBLIC "-//W3C//DTD SVG 1.0//EN" "http://www.w3.org/TR/2001/REC-SVG-20010904/DTD/svg10.dtd">
<svg version="1.0" id="vector" xmlns="http://www.w3.org/2000/svg" xmlns:xlink="http://www.w3.org/1999/xlink" x="0px" y="0px"
	 width="356px" height="356px" viewBox="-123.333 -153 356 356" enable-background="new -123.333 -153 356 356"
	 xml:space="preserve">
<g>
	<g>
		<path fill="#E07630" d="M-101.468,97.262l-2.436-0.622L-104,97.032c-0.581,2.391-1.717,3.554-3.479,3.554
			c-0.65,0-1.216-0.197-1.727-0.602c-0.522-0.415-0.938-0.964-1.237-1.625c-0.445-1.038-0.667-2.309-0.667-3.774
			c0-1.596,0.308-3.026,0.92-4.265c0.574-1.155,1.493-1.72,2.808-1.72c1.642,0,2.717,1.11,3.284,3.381l0.093,0.368l2.528-0.498
			l-0.078-0.393c-0.201-1.014-0.548-1.924-1.037-2.709c-0.501-0.808-1.155-1.443-1.952-1.895c-0.803-0.459-1.73-0.687-2.766-0.687
			c-1.472,0-2.732,0.393-3.74,1.175c-0.999,0.773-1.744,1.806-2.22,3.071c-0.469,1.239-0.705,2.596-0.705,4.04
			c0,1.389,0.227,2.743,0.671,4.033c0.457,1.313,1.173,2.401,2.138,3.241c0.986,0.857,2.224,1.287,3.683,1.287
			c1.622,0,2.941-0.496,3.923-1.479c0.961-0.958,1.634-2.271,1.998-3.904L-101.468,97.262z"/>
		<path fill="#E07630" d="M-96.763,86.419l-5.117,16.39h2.4l1.365-4.555h4.952l1.496,4.555h2.768l-5.146-16.39H-96.763z
			 M-93.811,95.966h-3.549l1.783-5.717L-93.811,95.966z"/>
		<polygon fill="#E07630" points="-79.176,97.985 -85.605,86.419 -88.608,86.419 -88.608,102.809 -86.24,102.809 -86.24,90.32 
			-79.237,102.809 -76.773,102.809 -76.773,86.419 -79.176,86.419 		"/>
		<path fill="#E07630" d="M-71.425,86.419l-5.117,16.39h2.4l1.365-4.555h4.952l1.496,4.555h2.768l-5.149-16.39H-71.425z
			 M-68.473,95.966h-3.549l1.783-5.717L-68.473,95.966z"/>
		<polygon fill="#E07630" points="-60.567,86.419 -63.236,86.419 -63.236,102.809 -53.599,102.809 -53.599,100.271 -60.567,100.271 
					"/>
		<path fill="#E07630" d="M-37.17,87.325c-0.565-0.346-1.168-0.589-1.79-0.72c-0.617-0.124-1.329-0.189-2.11-0.189h-5.136v16.393
			h5.738c2.196,0,3.923-0.901,5.129-2.675c1.086-1.553,1.635-3.429,1.635-5.579c0-2.311-0.636-4.266-1.891-5.799
			C-36.085,88.148-36.615,87.672-37.17,87.325z M-43.539,88.844h2.336c0.831,0,1.529,0.103,2.084,0.306
			c0.529,0.193,1.01,0.563,1.424,1.103c0.835,1.142,1.261,2.594,1.261,4.309c0,1.577-0.341,2.924-1.015,4.003
			c-0.41,0.678-0.894,1.132-1.482,1.386c-0.609,0.263-1.371,0.397-2.272,0.397h-2.336V88.844z"/>
		<polygon fill="#E07630" points="-29.766,95.417 -23.732,95.417 -23.732,93.048 -29.766,93.048 -29.766,88.89 -22.163,88.89 
			-22.163,86.419 -32.434,86.419 -32.434,102.809 -21.968,102.809 -21.968,100.308 -29.766,100.308 		"/>
		<polygon fill="#E07630" points="-15.765,88.921 -11.501,88.921 -11.501,102.809 -8.839,102.809 -8.839,88.921 -4.565,88.921 
			-4.565,86.419 -15.765,86.419 		"/>
		<polygon fill="#E07630" points="-1.204,95.417 4.828,95.417 4.828,93.048 -1.204,93.048 -1.204,88.89 6.399,88.89 6.399,86.419 
			-3.874,86.419 -3.874,102.809 6.593,102.809 6.593,100.308 -1.204,100.308 		"/>
		<polygon fill="#E07630" points="10.328,86.419 7.66,86.419 7.66,102.809 17.296,102.809 17.296,100.271 10.328,100.271 		"/>
		<polygon fill="#E07630" points="34.392,98.366 30.545,86.419 28.228,86.419 27.714,86.419 17.957,86.419 17.957,102.809 
			28.423,102.809 28.423,100.308 20.628,100.308 20.628,95.417 26.658,95.417 26.658,93.048 20.628,93.048 20.628,88.89 
			28.228,88.89 28.228,88.008 33.035,102.809 35.413,102.809 40.74,86.419 38.266,86.419 		"/>
		<rect x="41.092" y="86.419" fill="#E07630" width="2.668" height="16.39"/>
		<path fill="#E07630" d="M53.211,93.238l-2.245-0.523c-0.88-0.25-1.529-0.518-1.927-0.805c-0.323-0.221-0.485-0.666-0.485-1.309
			c0-0.654,0.265-1.147,0.817-1.508c1.226-0.82,2.825-0.806,4.12,0.099c0.642,0.456,1.015,1.025,1.14,1.752l0.073,0.442l2.523-0.721
			l-0.123-0.392c-0.418-1.313-1.137-2.342-2.141-3.046c-1-0.701-2.193-1.054-3.546-1.054c-1.504,0-2.796,0.393-3.853,1.169
			c-1.088,0.808-1.645,1.995-1.645,3.535c0,1.306,0.448,2.372,1.328,3.176c0.646,0.587,1.612,1.041,2.87,1.348l2.509,0.657
			c1.526,0.353,2.263,1.044,2.263,2.11c0,0.742-0.256,1.31-0.783,1.732c-0.545,0.431-1.359,0.648-2.422,0.648
			c-0.651,0-1.261-0.105-1.816-0.32c-0.536-0.202-1.002-0.518-1.383-0.933c-0.38-0.417-0.667-0.954-0.855-1.59l-0.105-0.349
			l-2.489,0.505l0.137,0.424c1.015,3.139,3.192,4.729,6.476,4.729c1.744,0,3.139-0.402,4.15-1.197
			c1.226-0.969,1.85-2.266,1.85-3.854c0-1.385-0.518-2.525-1.528-3.392C55.563,94.071,54.616,93.632,53.211,93.238z"/>
		<rect x="59.02" y="86.419" fill="#E07630" width="2.672" height="16.39"/>
		<path fill="#E07630" d="M73.34,87.379c-1.001-0.798-2.229-1.204-3.656-1.204c-1.446,0-2.681,0.425-3.673,1.266
			c-0.979,0.83-1.707,1.914-2.169,3.214c-0.458,1.285-0.689,2.646-0.689,4.049c0,1.416,0.234,2.769,0.695,4.01
			c0.468,1.271,1.203,2.318,2.191,3.104c1.001,0.801,2.241,1.207,3.682,1.207c1.428,0,2.661-0.437,3.656-1.294
			c0.975-0.846,1.705-1.939,2.172-3.258c0.468-1.289,0.705-2.651,0.705-4.049c0-1.387-0.237-2.722-0.711-3.958
			C75.063,89.199,74.323,88.165,73.34,87.379z M69.721,100.62c-0.867,0-1.565-0.273-2.126-0.842
			c-0.592-0.587-1.025-1.34-1.294-2.231c-0.277-0.913-0.421-1.85-0.421-2.778c0-1.019,0.131-2.028,0.394-2.994
			c0.249-0.93,0.673-1.715,1.26-2.326c0.566-0.593,1.289-0.873,2.221-0.873c1.238,0,2.198,0.62,2.915,1.899
			c0.546,1.024,0.823,2.39,0.823,4.051c0,0.977-0.128,1.946-0.383,2.896c-0.244,0.922-0.661,1.704-1.238,2.326
			C71.317,100.336,70.613,100.62,69.721,100.62z"/>
		<polygon fill="#E07630" points="72.932,83.78 71.768,81.53 66.694,84.654 67.501,86.231 		"/>
		<polygon fill="#E07630" points="87.189,97.985 80.755,86.419 77.757,86.419 77.757,102.809 80.125,102.809 80.125,90.32 
			87.008,102.608 87.126,102.809 89.592,102.809 89.592,86.419 87.189,86.419 		"/>
		<path fill="#E07630" d="M107.344,97.032c-0.582,2.391-1.72,3.554-3.479,3.554c-0.654,0-1.223-0.197-1.728-0.602
			c-0.523-0.418-0.944-0.967-1.237-1.625c-0.445-1.038-0.67-2.309-0.67-3.774c0-1.596,0.312-3.026,0.92-4.265
			c0.572-1.152,1.492-1.72,2.808-1.72c1.646,0,2.719,1.11,3.286,3.381l0.087,0.368l2.53-0.498l-0.073-0.393
			c-0.2-1.014-0.549-1.924-1.039-2.709c-0.495-0.804-1.155-1.443-1.954-1.895c-0.798-0.459-1.727-0.687-2.762-0.687
			c-1.471,0-2.73,0.393-3.741,1.175c-0.997,0.773-1.745,1.806-2.218,3.071c-0.468,1.239-0.704,2.599-0.704,4.04
			c0,1.396,0.224,2.748,0.672,4.033c0.455,1.313,1.172,2.401,2.139,3.241c0.982,0.857,2.22,1.287,3.685,1.287
			c1.614,0,2.936-0.496,3.921-1.479c0.96-0.955,1.634-2.271,2.002-3.904l0.08-0.377l-2.435-0.62L107.344,97.032z"/>
		<path fill="#E07630" d="M120.517,87.379c-1.001-0.798-2.232-1.204-3.659-1.204c-1.443,0-2.678,0.425-3.672,1.266
			c-0.979,0.83-1.709,1.914-2.17,3.214c-0.455,1.285-0.686,2.646-0.686,4.049c0,1.416,0.23,2.769,0.692,4.01
			c0.467,1.271,1.206,2.318,2.194,3.104c0.997,0.801,2.237,1.207,3.684,1.207c1.425,0,2.656-0.437,3.654-1.294
			c0.972-0.846,1.701-1.939,2.172-3.258c0.464-1.289,0.701-2.651,0.701-4.049c0-1.387-0.237-2.722-0.707-3.958
			C122.244,89.199,121.5,88.165,120.517,87.379z M116.901,100.62c-0.866,0-1.564-0.273-2.126-0.842
			c-0.592-0.587-1.028-1.34-1.296-2.231c-0.275-0.913-0.418-1.85-0.418-2.778c0-1.019,0.13-2.028,0.393-2.994
			c0.25-0.93,0.674-1.715,1.26-2.326c0.563-0.593,1.29-0.873,2.219-0.873c1.241,0,2.197,0.62,2.917,1.899
			c0.543,1.024,0.823,2.39,0.823,4.051c0,0.977-0.13,1.946-0.383,2.896c-0.243,0.922-0.661,1.704-1.238,2.326
			C118.497,100.336,117.79,100.62,116.901,100.62z"/>
		<polygon fill="#E07630" points="132.568,98.133 128.441,86.684 128.347,86.419 124.869,86.419 124.869,102.809 127.275,102.809 
			127.275,90.919 131.427,102.547 131.527,102.809 133.35,102.809 137.501,90.792 137.501,102.809 140.173,102.809 140.173,86.419 
			136.756,86.419 		"/>
		<path fill="#E07630" d="M150.94,96.679c0,0.698-0.038,1.282-0.112,1.734c-0.065,0.405-0.244,0.786-0.536,1.153
			c-0.467,0.617-1.25,0.916-2.389,0.916c-1.249,0-2.1-0.336-2.53-0.997c-0.354-0.53-0.536-1.471-0.536-2.807v-10.26h-2.661v10.26
			c0,0.998,0.077,1.878,0.23,2.612c0.162,0.761,0.504,1.473,1.034,2.139c0.953,1.055,2.413,1.59,4.332,1.59
			c1.927,0,3.401-0.636,4.384-1.889c0.471-0.593,0.786-1.259,0.935-1.981c0.145-0.696,0.215-1.503,0.215-2.471v-10.26h-2.369v10.26
			H150.94z"/>
		<polygon fill="#E07630" points="164.936,97.985 158.508,86.419 155.503,86.419 155.503,102.809 157.878,102.809 157.878,90.32 
			164.761,102.608 164.876,102.809 167.341,102.809 167.341,86.419 164.936,86.419 		"/>
		<rect x="169.344" y="86.419" fill="#E07630" width="2.674" height="16.39"/>
		<polygon fill="#E07630" points="183.95,86.419 172.747,86.419 172.747,88.921 177.01,88.921 177.01,102.809 179.673,102.809 
			179.673,88.921 183.95,88.921 		"/>
		<path fill="#E07630" d="M187.984,86.419l-5.119,16.39h2.4l1.372-4.555h4.946l1.499,4.555h2.768l-5.148-16.39H187.984z
			 M190.935,95.966h-3.544l1.777-5.717L190.935,95.966z"/>
		<path fill="#E07630" d="M206.698,93.918c0.543-0.798,0.811-1.715,0.811-2.724c0-1.584-0.593-2.847-1.751-3.754
			c-0.855-0.676-2.067-1.016-3.619-1.016h-6.031v16.39h2.661v-6.74h3.498l2.768,6.74h2.83l-2.992-7.389
			C205.626,95.109,206.244,94.606,206.698,93.918z M198.771,88.89h3.37c0.817,0,1.434,0.141,1.837,0.411
			c0.582,0.41,0.862,1.014,0.862,1.861c0,0.736-0.208,1.316-0.655,1.783c-0.28,0.3-0.582,0.493-0.895,0.586
			c-0.352,0.101-0.801,0.15-1.38,0.15h-3.137V88.89H198.771z"/>
		<rect x="209.104" y="86.419" fill="#E07630" width="2.675" height="16.39"/>
		<path fill="#E07630" d="M220.202,86.419h-2.719l-5.117,16.39h2.399l1.371-4.555h4.944l1.503,4.555h2.768L220.202,86.419z
			 M220.436,95.966h-3.548l1.78-5.717L220.436,95.966z"/>
	</g>
	<g>
		<g>
			<path fill="#E07630" d="M211.206-32.874C199.26-46.427,183.112-53.21,162.756-53.21c-20.374,0-36.517,6.783-48.451,20.336
				c-4.75,5.387-8.545,11.867-11.368,19.438c-2.836,7.568-4.246,14.957-4.246,22.161c0,15.765,5.224,29.603,15.697,41.511
				c11.932,13.559,28.055,20.336,48.365,20.336c20.355,0,36.507-6.777,48.446-20.336c10.463-11.908,15.697-25.747,15.697-41.511
				C226.897-7.097,221.667-20.965,211.206-32.874z M183.062,25.83c-5.272,6.168-12.035,9.243-20.297,9.243
				c-8.257,0-15.004-3.104-20.238-9.313c-3.983-4.729-6.057-10.062-6.287-15.979h53.112
				C189.131,15.824,187.048,21.184,183.062,25.83z"/>
		</g>
		<path fill="#CDEBFE" d="M121.97,0.48H68.577v22.557h19.61v10.858c-0.315,0.405-0.648,0.804-1.023,1.197
			c-2.365,2.484-17.86,9.653-33.825-3.65c-10.788-8.988-8.26-29.625-7.443-31.853c4.906-13.595,11.737-19.483,24.206-19.483
			c6.096,0,13.216,1.018,17.643,4.874c1.813,1.608,1.324,0.922,1.324,0.922l18.27-23.897c0,0-3.043-2.953-4.657-4.205
			c-9.033-7.072-20.062-10.606-33.078-10.606c-19.479,0-34.647,6.585-45.515,19.755C14.513-21.473,9.725-7.187,9.725,9.803
			c0,15.341,4.087,28.541,12.266,39.6c10.814,14.6,26.059,19.354,46.247,20.616c34.792,2.178,54.181-19.42,54.181-19.42
			S121.97,13.135,121.97,0.48z"/>
		<path fill="#9ACAFD" d="M13.721,67.055h-37.812V-49.692h37.812V67.055z"/>
		<path fill="#6FACF6" d="M-15.5,8.64c0,12.146-3.578,23.392-10.738,33.741c-7.157,10.348-16.304,17.523-27.447,21.513
			c-5.904,2.108-11.918,3.161-18.047,3.161h-43.782V-49.692h43.782c10.696,0,20.611,3.051,29.745,9.15
			c8.97,5.93,15.849,13.86,20.64,23.78C-17.451-8.557-15.5-0.084-15.5,8.64z M-51.037,8.648c0-6.116-1.672-11.443-5.017-15.999
			c-4.443-6.025-11.067-9.036-19.87-9.036h-5.142v50.132h5.142c8.845,0,15.468-3.011,19.87-9.037
			C-52.709,20.118-51.037,14.762-51.037,8.648z"/>
	</g>
</g>
</svg>
