<?xml version="1.0" encoding="UTF-8" standalone="no"?>
<!-- Created with Inkscape (http://www.inkscape.org/) -->

<svg
   xmlns:dc="http://purl.org/dc/elements/1.1/"
   xmlns:cc="http://creativecommons.org/ns#"
   xmlns:rdf="http://www.w3.org/1999/02/22-rdf-syntax-ns#"
   xmlns:svg="http://www.w3.org/2000/svg"
   xmlns="http://www.w3.org/2000/svg"
   xmlns:inkscape="http://www.inkscape.org/namespaces/inkscape"
   version="1.1"
   width="152.005"
   height="93.75"
   id="svg2"
   xml:space="preserve"><metadata
     id="metadata8"><rdf:RDF><cc:Work
         rdf:about=""><dc:format>image/svg+xml</dc:format><dc:type
           rdf:resource="http://purl.org/dc/dcmitype/StillImage" /></cc:Work></rdf:RDF></metadata><defs
     id="defs6"><clipPath
       id="clipPath88"><path
         d="m 0,75 121.604,0 0,-75 L 0,0 0,75 z"
         inkscape:connector-curvature="0"
         id="path90" /></clipPath></defs><g
     transform="matrix(1.25,0,0,-1.25,0,93.75)"
     id="g10"><g
       transform="translate(90.0889,2.3691)"
       id="g12"><path
         d="m 0,0 -0.848,33.531 -26.882,0 L -28.189,2.055 0,0 z"
         inkscape:connector-curvature="0"
         id="path14"
         style="fill:#9d9739;fill-opacity:1;fill-rule:nonzero;stroke:none" /></g><g
       transform="translate(75.2354,20.5723)"
       id="g16"><path
         d="m 0,0 9.768,-10.866 -3.702,-1.169 -8.687,8.381 0.26,-9.061 -5.348,0.257 0.518,23.872 3.79,0.08 0.264,-8.889 7.471,9.006 L 7.24,9.41 0,0 z"
         inkscape:connector-curvature="0"
         id="path18"
         style="fill:#ffffff;fill-opacity:1;fill-rule:nonzero;stroke:none" /></g><g
       transform="translate(92.6289,66.7432)"
       id="g20"><path
         d="m 0,0 -0.552,-28.015 26.772,0 1.453,26.959 L 0,0 z"
         inkscape:connector-curvature="0"
         id="path22"
         style="fill:#e23222;fill-opacity:1;fill-rule:nonzero;stroke:none" /></g><g
       transform="translate(112.5518,41.6172)"
       id="g24"><path
         d="m 0,0 -2.404,0.84 -1.516,0.072 -10.176,-0.584 -0.713,4.762 -0.33,5.139 10.246,0.466 0.334,6.006 -1.58,0.271 -8.966,-0.113 -0.129,3.684 L -0.477,19.726 -0.279,9.545 -0.418,3.449 1.343,2.91 0,0 z"
         inkscape:connector-curvature="0"
         id="path26"
         style="fill:#ffffff;fill-opacity:1;fill-rule:nonzero;stroke:none" /></g><g
       transform="translate(101.4326,48.5684)"
       id="g28"><path
         d="M 0,0 -0.224,-2.748 6.096,-2.443 5.954,0.283 0,0 z"
         inkscape:connector-curvature="0"
         id="path30"
         style="fill:#e23222;fill-opacity:1;fill-rule:nonzero;stroke:none" /></g><g
       transform="translate(62.3252,69.7559)"
       id="g32"><path
         d="m 0,0 0.033,-31.027 26.881,0 L 28.025,1.197 0,0 z"
         inkscape:connector-curvature="0"
         id="path34"
         style="fill:#e85925;fill-opacity:1;fill-rule:nonzero;stroke:none" /></g><g
       transform="translate(81.5088,42.7363)"
       id="g36"><path
         d="m 0,0 -3.152,-1.887 -7.287,8.637 -0.27,-7.663 -3.51,0 0.267,11.704 -0.267,12.406 5.446,0.272 L -9.905,13.22 -0.457,22.941 4.395,22.394 -7.204,9.443 0,0 z"
         inkscape:connector-curvature="0"
         id="path38"
         style="fill:#ffffff;fill-opacity:1;fill-rule:nonzero;stroke:none" /></g><g
       transform="translate(32.5713,65.9316)"
       id="g40"><path
         d="m 0,0 0.197,-27.279 26.772,0.076 0.74,27.858 L 0,0 z"
         inkscape:connector-curvature="0"
         id="path42"
         style="fill:#d98f2f;fill-opacity:1;fill-rule:nonzero;stroke:none" /></g><g
       transform="translate(35.6328,42.8945)"
       id="g44"><path
         d="M 0,0 8.899,20.139 15.63,19.875 20.204,-0.812 14.39,-1.266 12.787,7.612 10.259,7.644 8.426,7.644 4.573,-0.186 0,0 z"
         inkscape:connector-curvature="0"
         id="path46"
         style="fill:#ffffff;fill-opacity:1;fill-rule:nonzero;stroke:none" /></g><g
       transform="translate(45.7646,58.542)"
       id="g48"><path
         d="M 0,0 -0.783,-4.417 2.611,-4.558 1.88,0.11 0,0 z"
         inkscape:connector-curvature="0"
         id="path50"
         style="fill:#d98f2f;fill-opacity:1;fill-rule:nonzero;stroke:none" /></g><g
       transform="translate(32.6963,35.9004)"
       id="g52"><path
         d="M 0,0 -0.832,-28.117 26.385,-29.368 26.844,0 0,0 z"
         inkscape:connector-curvature="0"
         id="path54"
         style="fill:#2fb2be;fill-opacity:1;fill-rule:nonzero;stroke:none" /></g><g
       transform="translate(52.085,10.2773)"
       id="g56"><path
         d="m 0,0 -3.572,1.393 -10.36,0.107 -0.449,5.127 0.641,6.302 10.28,-0.757 0.462,5.015 -1.58,0.087 -8.088,0.388 0.048,4.483 L 0.945,20.037 0.449,8.279 0.113,3.279 1.781,2.565 0,0 z"
         inkscape:connector-curvature="0"
         id="path58"
         style="fill:#ffffff;fill-opacity:1;fill-rule:nonzero;stroke:none" /></g><g
       transform="translate(41.3506,16.2305)"
       id="g60"><path
         d="M 0,0 7.094,-0.629 7.108,2.476 0.321,2.574 0,0 z"
         inkscape:connector-curvature="0"
         id="path62"
         style="fill:#2fb2be;fill-opacity:1;fill-rule:nonzero;stroke:none" /></g><g
       transform="translate(92.0791,35.9004)"
       id="g64"><path
         d="M 0,0 0.011,-28.349 27.568,-26.926 26.77,0 0,0 z"
         inkscape:connector-curvature="0"
         id="path66"
         style="fill:#98c243;fill-opacity:1;fill-rule:nonzero;stroke:none" /></g><g
       transform="translate(96.4131,12.916)"
       id="g68"><path
         d="m 0,0 6.563,19.484 6.759,0.273 4.92,-19.965 -4.053,-0.946 -2.41,8.636 L 9.871,7.452 8.045,7.355 5.908,-0.632 0,0 z"
         inkscape:connector-curvature="0"
         id="path70"
         style="fill:#ffffff;fill-opacity:1;fill-rule:nonzero;stroke:none" /></g><g
       transform="translate(105.8877,27.9141)"
       id="g72"><path
         d="M 0,0 -1.279,-4.602 2.355,-4.508 1.339,0.109 0,0 z"
         inkscape:connector-curvature="0"
         id="path74"
         style="fill:#98c243;fill-opacity:1;fill-rule:nonzero;stroke:none" /></g><g
       transform="translate(1.3018,74.1973)"
       id="g76"><path
         d="m 0,0 1.727,-35.469 5.677,-0.041 0,0.041 5.381,0 15.779,0 0.875,34.506 L 0,0 z"
         inkscape:connector-curvature="0"
         id="path78"
         style="fill:#e0388b;fill-opacity:1;fill-rule:nonzero;stroke:none" /></g><g
       transform="translate(3.0283,35.9004)"
       id="g80"><path
         d="M 0,0 1.063,-31.61 25.89,-35.098 26.838,0 0,0 z"
         inkscape:connector-curvature="0"
         id="path82"
         style="fill:#1b8d81;fill-opacity:1;fill-rule:nonzero;stroke:none" /></g><g
       id="g84"><g
         clip-path="url(#clipPath88)"
         id="g86"><g
           transform="translate(6.3271,29.1035)"
           id="g92"><path
             d="M 0,0 0,0.017 C -0.017,0 -0.017,0 0,0"
             inkscape:connector-curvature="0"
             id="path94"
             style="fill:#ffffff;fill-opacity:1;fill-rule:nonzero;stroke:none" /></g><g
           transform="translate(21.4746,54.2676)"
           id="g96"><path
             d="M 0,0 -7.47,0 -7.095,9.73 0.315,9.476 0,0 z m 3.868,14.058 -18.296,-1.173 0.687,-28.756 3.793,0.015 0.899,11.461 13.31,1.508 -0.393,16.945 z"
             inkscape:connector-curvature="0"
             id="path98"
             style="fill:#ffffff;fill-opacity:1;fill-rule:nonzero;stroke:none" /></g><g
           transform="translate(13.6885,18.6465)"
           id="g100"><path
             d="M 0,0 -0.631,8.867 6.817,9.195 7.385,0.822 0,0 z m 10.924,13.326 -12.031,-1.113 -1.055,2.228 -4.041,-2.312 1.164,-2.836 0.982,-24.556 3.975,-0.673 0.782,11.92 c 0.583,-0.035 10.871,0.852 10.871,0.852 l -0.647,16.49 z"
             inkscape:connector-curvature="0"
             id="path102"
             style="fill:#ffffff;fill-opacity:1;fill-rule:nonzero;stroke:none" /></g></g></g></g></svg>