<?xml version="1.0" encoding="utf-8"?>
<!-- Generator: Adobe Illustrator 15.1.0, SVG Export Plug-In . SVG Version: 6.00 Build 0)  -->
<!DOCTYPE svg PUBLIC "-//W3C//DTD SVG 1.1//EN" "http://www.w3.org/Graphics/SVG/1.1/DTD/svg11.dtd">
<svg version="1.1" id="Layer_1" xmlns="http://www.w3.org/2000/svg" xmlns:xlink="http://www.w3.org/1999/xlink" x="0px" y="0px"
	 width="54.108px" height="54.119px" viewBox="0 0 54.108 54.119" enable-background="new 0 0 54.108 54.119" xml:space="preserve">
<g>
	<circle fill="#E6E7E9" cx="27.127" cy="27.596" r="23.707"/>
	<path fill="#D0D2D3" d="M27.06,53.007c-7.255,0-13.986-2.92-18.952-8.218l2.083-1.953c4.419,4.718,10.409,7.315,16.869,7.315
		c12.463,0,22.82-10.131,23.083-22.586l2.854,0.061C52.696,41.623,41.063,53.007,27.06,53.007z"/>
	<path fill="#E52529" d="M50.118,25.843c-0.123-2.317-0.586-4.579-1.374-6.72l-0.09-0.251l2.639-1.084l-1.334,0.501l1.361-0.428
		l0.114,0.309c0.873,2.376,1.396,4.919,1.534,7.521L50.118,25.843z"/>
	<path fill="#E52529" d="M47.911,17.131l-0.16-0.331c-1.008-2.03-2.322-3.915-3.892-5.586l2.078-1.957
		c1.764,1.875,3.236,3.991,4.381,6.292l0.147,0.305L47.911,17.131z"/>
	<path fill="#D0D2D3" d="M5.184,41.021C2.52,36.86,1.112,32.033,1.112,27.062c0-14.309,11.641-25.95,25.948-25.95
		c6.702,0,13.067,2.553,17.915,7.186l-1.969,2.066c-4.316-4.125-9.979-6.396-15.946-6.396c-12.735,0-23.094,10.359-23.094,23.095
		c0,4.424,1.253,8.719,3.622,12.418L5.184,41.021z"/>
	<path fill="#FFFFFF" d="M27.127,49.243c-12.105,0-21.957-9.848-21.957-21.953c0-12.108,9.851-21.959,21.957-21.959
		c12.104,0,21.953,9.852,21.953,21.959C49.08,39.395,39.231,49.243,27.127,49.243z M27.127,7.235
		c-11.058,0-20.052,8.996-20.052,20.055c0,11.055,8.995,20.05,20.052,20.05c11.055,0,20.049-8.995,20.049-20.05
		C47.176,16.231,38.182,7.235,27.127,7.235z"/>
	<circle fill="#2C59A3" cx="27.127" cy="27.289" r="19.021"/>
	<path fill="#FFFFFF" d="M17.238,33.601l-0.739-2.364H11.61l-0.781,2.364H6.745l5.779-15.889h3.012l5.78,15.889H17.238z
		 M14.133,23.74l-1.429,4.238h2.768L14.133,23.74z"/>
	<path fill="#231F20" d="M21.827,33.959h-4.854l-0.737-2.364h-4.37l-0.781,2.364H6.234l6.039-16.602h3.513L21.827,33.959z
		 M17.499,33.246h3.306l-5.517-15.175h-2.511L7.259,33.246h3.313l0.782-2.364h5.407L17.499,33.246z M15.957,28.338h-3.749
		l1.937-5.746L15.957,28.338z M13.199,27.624h1.784l-0.861-2.732L13.199,27.624z"/>
	<path fill="#FFFFFF" d="M23.058,33.601v-3.303l5.755-6.245c0.302-0.313,0.508-0.586,0.627-0.828
		c0.118-0.237,0.178-0.529,0.178-0.868c0-0.436-0.116-0.79-0.355-1.062c-0.24-0.274-0.592-0.411-1.069-0.411l-0.513,0.065
		l-0.482,0.247l-0.346,0.471c-0.089,0.189-0.133,0.446-0.133,0.755h-3.663c0-0.769,0.138-1.461,0.416-2.066
		c0.274-0.605,0.646-1.115,1.115-1.53c0.466-0.411,1.012-0.729,1.629-0.937c0.617-0.208,1.272-0.307,1.974-0.307
		c0.728,0,1.406,0.108,2.032,0.332c0.622,0.227,1.161,0.544,1.616,0.951c0.455,0.407,0.811,0.912,1.06,1.507
		c0.251,0.589,0.378,1.265,0.378,2.002c0,0.422-0.042,0.794-0.122,1.13c-0.082,0.336-0.21,0.653-0.376,0.945
		c-0.171,0.302-0.378,0.595-0.63,0.897c-0.244,0.298-0.522,0.61-0.838,0.937L27.521,30.3h5.755v3.301H23.058L23.058,33.601z"/>
	<path fill="#231F20" d="M33.634,33.959H22.699v-3.797l5.85-6.348c0.275-0.286,0.464-0.535,0.566-0.743
		c0.097-0.191,0.145-0.431,0.145-0.713c0-0.354-0.087-0.625-0.266-0.829c-0.233-0.263-0.636-0.381-1.234-0.233l-0.336,0.171
		l-0.249,0.346c-0.05,0.102-0.102,0.281-0.102,0.609v0.356h-4.376v-0.356c0-0.824,0.15-1.567,0.451-2.213
		c0.292-0.647,0.697-1.202,1.202-1.649c0.506-0.448,1.093-0.787,1.75-1.006c1.302-0.446,2.947-0.434,4.238,0.026
		c0.668,0.245,1.253,0.586,1.737,1.021c0.494,0.443,0.88,0.992,1.152,1.633c0.269,0.631,0.406,1.352,0.406,2.143
		c0,0.45-0.043,0.847-0.131,1.212c-0.088,0.367-0.229,0.717-0.416,1.041c-0.181,0.319-0.399,0.628-0.662,0.949
		c-0.25,0.305-0.533,0.624-0.857,0.958l-3.218,3.412h5.286v4.012H33.634z M23.415,33.246h9.508v-2.588h-6.225l4.358-4.618
		c0.312-0.321,0.584-0.626,0.822-0.917c0.242-0.289,0.436-0.564,0.595-0.849c0.152-0.266,0.266-0.555,0.341-0.854
		c0.075-0.309,0.111-0.653,0.111-1.045c0-0.693-0.118-1.32-0.351-1.865c-0.23-0.546-0.554-1.009-0.969-1.381
		c-0.417-0.369-0.921-0.667-1.5-0.877c-1.143-0.41-2.605-0.415-3.771-0.022c-0.563,0.191-1.069,0.481-1.505,0.863
		c-0.427,0.381-0.773,0.856-1.025,1.411c-0.212,0.459-0.339,0.985-0.372,1.563h2.956l0.15-0.554c0.106-0.237,0.251-0.438,0.436-0.59
		c0.181-0.15,0.39-0.257,0.624-0.319c0.905-0.215,1.534-0.012,1.943,0.455c0.294,0.336,0.445,0.771,0.445,1.297
		c0,0.395-0.073,0.743-0.218,1.03c-0.138,0.276-0.36,0.576-0.688,0.914l-5.655,6.138v2.811H23.415z"/>
	<polygon fill="#FFFFFF" points="45.487,31.508 45.487,33.601 42.004,33.601 42.004,31.508 35.424,31.508 35.424,28.028 
		40.69,17.712 44.702,17.712 39.442,28.028 42.004,28.028 42.004,25.926 45.487,25.926 45.487,28.028 46.673,28.028 46.673,31.508 	
		"/>
	<path fill="#231F20" d="M45.843,33.959h-4.194v-2.092h-6.58l0.041-4.002l5.366-10.508h4.809l-5.261,10.314h1.625V25.57h4.194v2.101
		h1.186v4.196h-1.186V33.959z M42.362,33.246h2.77v-2.092h1.186v-2.771h-1.186v-2.102h-2.77v2.102h-3.5l5.261-10.314H40.91
		L35.785,28.11v3.042h6.579v2.094H42.362z"/>
</g>
</svg>
