<?xml version="1.0" encoding="utf-8"?>
<!-- Generator: Adobe Illustrator 15.1.0, SVG Export Plug-In . SVG Version: 6.00 Build 0)  -->
<!DOCTYPE svg PUBLIC "-//W3C//DTD SVG 1.0//EN" "http://www.w3.org/TR/2001/REC-SVG-20010904/DTD/svg10.dtd">
<svg version="1.0" xmlns="http://www.w3.org/2000/svg" xmlns:xlink="http://www.w3.org/1999/xlink" x="0px" y="0px" width="137.5px"
	 height="137.5px" viewBox="0 0 137.5 137.5" enable-background="new 0 0 137.5 137.5" xml:space="preserve">
<g id="svg2" xmlns:rdf="http://www.w3.org/1999/02/22-rdf-syntax-ns#" xmlns:dc="http://purl.org/dc/elements/1.1/" xmlns:inkscape="http://www.inkscape.org/namespaces/inkscape" xmlns:cc="http://creativecommons.org/ns#" xmlns:svg="http://www.w3.org/2000/svg">
	<g>
		<path fill="none" d="M90.004,79.204c0.015-0.046,0.07-0.39,0.154-0.946h-0.02L90.004,79.204z"/>
		<path fill="none" d="M93.278,56.212L93.278,56.212c0-0.001-0.019,0.013-0.024,0.018C93.261,56.225,93.277,56.212,93.278,56.212z"
			/>
		<polygon fill="none" points="93.855,55.081 93.872,55.068 93.855,55.081 93.828,55.063 		"/>
		<rect x="92.997" y="55.743" fill="none" width="0.001" height="0.636"/>
		<polygon fill="none" points="42.078,53.488 42.302,53.386 42.302,53.385 		"/>
		<polygon fill="none" points="41.677,53.36 39.322,51.418 41.915,53.563 41.916,53.563 41.678,53.365 		"/>
		<polygon fill="none" points="42.592,54.539 42.374,54.651 42.451,55.51 42.374,54.651 		"/>
		<path fill="none" d="M89.995,79.233c0.003-0.009,0.005-0.017,0.009-0.026l-0.001,0.001L89.995,79.233z"/>
		<path fill="none" d="M90.139,78.258h0.02c0.597-3.956,2.712-19.118,3.067-21.67L90.139,78.258z"/>
		<polygon fill="none" points="126.395,114.91 126.325,114.91 122.805,125.541 129.914,125.541 		"/>
		<path fill="none" d="M83.218,116.723c0-1.233-0.409-2.156-1.229-2.771c-0.686-0.501-1.586-0.753-2.702-0.753h-5.777v7.387h5.571
			c1.322,0,2.359-0.388,3.111-1.164C82.875,118.717,83.218,117.815,83.218,116.723z"/>
		<polygon fill="none" points="11.873,114.91 8.352,125.541 15.462,125.541 11.941,114.91 		"/>
		<polygon fill="#849B3B" points="67.847,12.655 68.404,12.503 68.412,12.205 68.412,12.205 50.549,7 50.105,7.104 67.826,12.4 		
			"/>
		<path fill="#76732F" d="M68.404,12.503l0.014-0.004c0,0,0.193,0.057,0.536,0.159l0.022-0.257l0.576-0.175
			c0,0,0.021,0.006,0.034,0.01l17.28-4.688L86.498,7.45l-18.086,4.755L68.404,12.503z"/>
		<polygon fill="#76732F" points="68.412,12.205 68.412,12.205 68.412,12.205 68.404,12.503 68.404,12.503 		"/>
		<path fill="#B3BF35" d="M40.006,26.345c-0.527-6.432,4.816-7.427,4.816-7.427l23.024-6.263l-0.021-0.254l-0.001,0
			c-0.043,0.012-17.934,4.751-23.296,6.226c-5.531,1.521-5.312,5.66-4.703,11.295l2.022,23.579l-0.17-0.141l0,0.005l0.238,0.197
			l0.163-0.074l0.224-0.103C42.03,50.212,40.52,32.612,40.006,26.345z"/>
		<polygon fill="#B3BF35" points="67.826,12.401 67.846,12.655 67.847,12.655 67.826,12.4 67.824,12.401 		"/>
		<path fill="#F58A49" d="M41.907,54.261l0,0.008l0.566-0.281c-0.076-0.063-0.128-0.106-0.128-0.106s-0.015-0.176-0.042-0.496
			l-0.224,0.103l-0.162,0.075l0,0l0,0l-2.593-2.145L27.179,41.404l0.115,0.717L27.291,42.1L41.907,54.261z"/>
		<polygon fill="#F58A49" points="41.916,53.563 42.078,53.488 41.916,53.563 		"/>
		<path fill="#B04A2C" d="M44.401,77.335L42.451,55.51l-0.077-0.858l0.219-0.112l0.338-0.174c-0.188-0.155-0.331-0.273-0.429-0.354
			L41.91,54.3l1.983,22.59L30.564,62.857l-3.252-20.625c0.068,0.519,2.674,20.343,3.283,21.15
			c0.611,0.819,13.869,14.658,13.883,14.673L44.401,77.335L44.401,77.335z"/>
		<path fill="#B04A2C" d="M41.907,54.269L41.91,54.3l0.591-0.289c-0.01-0.008-0.019-0.016-0.028-0.023L41.907,54.269z"/>
		<path fill="#849B3B" d="M63.657,71.959c3.41,2.127,6.308,0.816,7.779,0.021c1.341-0.723,21.273-15.35,21.818-15.75
			c0.006-0.005,0.024-0.019,0.024-0.019l0,0l-0.562-0.299C77.222,67.349,76.849,67.319,72.746,70.232
			c-5.958,4.23-9.076,0.754-10.069,0.18c-0.889-0.518-16.526-13.394-19.747-16.047l-0.338,0.174l-0.218,0.112
			C42.374,54.651,59.721,69.503,63.657,71.959z"/>
		<polygon fill="#849B3B" points="42.931,54.365 42.592,54.539 42.931,54.365 		"/>
		<path fill="#7E9934" d="M89.891,79.574h-0.282c-2.45,2.272-15.565,14.438-18.729,17.387c-3.309,3.084-5.937,1.533-6.95,0.677
			c-0.799-0.677-12.5-12.93-17.395-18.063h-0.608L62.955,97.41c0,0,3.546,4.17,7.445,0.584c3.896-3.585,19.41-18.123,19.41-18.123
			l0.001-0.002h-0.001C89.811,79.869,89.841,79.748,89.891,79.574z"/>
		<path fill="#7E9934" d="M89.608,79.574h0.282c0.028-0.1,0.063-0.213,0.104-0.341l0.008-0.025
			C90,79.211,89.861,79.34,89.608,79.574z"/>
		<path fill="#7E9934" d="M44.415,77.351l0.063,0.705l0-0.001v0.002l0.192,0.201h0.61C44.759,77.712,44.452,77.389,44.415,77.351z"
			/>
		<path fill="#7E9934" d="M45.28,78.258h-0.61l1.257,1.316h0.608C46.041,79.057,45.617,78.611,45.28,78.258z"/>
		<polygon fill="#7E9934" points="44.415,77.351 44.401,77.336 44.401,77.335 44.4,77.336 44.478,78.055 44.479,78.056 		"/>
		<path fill="#923039" d="M93.035,19.475c-5.641-1.666-24.044-7.069-24.058-7.074l-0.001,0l-0.021,0.257
			c3.164,0.937,19.504,5.78,23.935,7.186c5.303,1.683,4.326,7.833,4.326,7.833L93.42,54.802l0.408,0.261l0.027,0.018l3.828-27.89
			C97.684,27.191,98.678,21.141,93.035,19.475z"/>
		<path fill="#923039" d="M68.977,12.401L68.977,12.401L68.977,12.401l0.61-0.166c-0.013-0.003-0.034-0.01-0.034-0.01L68.977,12.401
			l-0.022,0.257c0,0,0.001,0,0.001,0L68.977,12.401z"/>
		<path fill="#F7ED4C" d="M93.828,55.063l-0.409-0.255l-0.091,0.652c-0.005,0.003-0.009,0.007-0.014,0.01l0.432,0.316l0.001-0.004
			l15.705-11.701l0.089-0.563l-0.016-0.019c-0.09,0.106-0.271,0.29-0.674,0.588c-0.665,0.49-14.628,10.722-14.979,10.98
			l-0.017,0.013L93.828,55.063z"/>
		<polygon fill="#F7ED4C" points="93.828,55.063 93.42,54.802 93.419,54.808 		"/>
		<path fill="#DFE22A" d="M90.413,79.339l0.193-0.595l0.066-0.486h-0.515c-0.084,0.557-0.14,0.9-0.154,0.946v0.003l0,0
			c-0.004,0.01-0.006,0.018-0.009,0.026l-0.099,0.341h0.292C90.262,79.507,90.337,79.429,90.413,79.339z"/>
		<path fill="#DFE22A" d="M89.812,79.869c0.001-0.001,0.173-0.107,0.377-0.295h-0.292L89.812,79.869z"/>
		<path fill="#DFE22A" d="M93.233,55.53c-0.177,0.131-0.344,0.254-0.517,0.381l0.562,0.298v0.001l0,0l0,0v0.001l0.001-0.001v0v0l0,0
			l-0.054,0.377c-0.355,2.552-2.471,17.714-3.067,21.67h0.515l3.07-22.445L93.233,55.53z"/>
		<polygon fill="#DFE22A" points="93.278,56.211 93.278,56.211 93.278,56.211 		"/>
		<polygon fill="#DFE22A" points="93.279,56.21 93.279,56.211 93.279,56.211 		"/>
		<path fill="#DFE22A" d="M89.891,79.574c-0.05,0.174-0.08,0.295-0.08,0.295h0.001l0.085-0.295H89.891z"/>
		<path fill="#DFE22A" d="M89.896,79.574l0.099-0.341c-0.042,0.128-0.076,0.241-0.104,0.341H89.896z"/>
		<path fill="#DFE22A" d="M93.743,55.813l0.003-0.026l-0.432-0.316c-0.028,0.021-0.054,0.039-0.081,0.06L93.743,55.813z"/>
		<path fill="#BBBB32" d="M90.798,78.663c-0.086,0.268-0.229,0.493-0.385,0.676l-0.04,0.122c0,0,0.493-0.458,1.297-1.203h-0.442
			L90.798,78.663z"/>
		<path fill="#BBBB32" d="M91.228,78.258h0.442c3.503-3.25,12.91-11.982,13.146-12.245c0.292-0.321,0.672-1.285,0.992-3.156
			c0.323-1.872,3.685-18.806,3.685-18.806l-4.365,21.124L91.228,78.258z"/>
		<path fill="#BBBB32" d="M90.591,78.857l0.016-0.113l-0.193,0.595c0.155-0.183,0.299-0.408,0.385-0.676L90.591,78.857z"/>
		<path fill="#3870B6" d="M42.616,53.956L42.616,53.956l0.4,0.365h0c0,0,12.747,9.998,17.131,13.331
			c4.385,3.333,6.373,4.093,8.537,4.093c2.163,0,23.679-16.021,23.679-16.021l0,0l0.584-0.413l0.129-0.73l0.014,0.009
			c0.035-0.257,3.231-23.414,3.58-25.818c0.35-2.417,0-4.25-0.623-6.042C95.422,20.935,92.266,20,92.266,20l-23.314-7.293
			l-0.013,0.162L68.4,12.666l-0.681,0.18l0.131-0.14v0l-22.923,6.261c0,0-3.802,1.735-4.444,3.821
			c-0.643,2.085,2.104,30.466,2.104,30.466l-0.284,0.131c0,0,0,0,0,0l0.13-0.06L42.616,53.956z"/>
		<polygon fill="#3870B6" points="92.717,55.912 92.717,55.911 92.592,55.845 		"/>
		<polygon fill="#3870B6" points="67.851,12.706 67.851,12.707 67.719,12.846 68.4,12.666 68.404,12.503 67.847,12.655 
			67.851,12.706 		"/>
		<path fill="#3870B6" d="M68.938,12.869l0.013-0.162l-0.001,0l0.004-0.048c-0.343-0.102-0.536-0.159-0.536-0.159l-0.014,0.004
			L68.4,12.666L68.938,12.869z"/>
		<polygon fill="#3870B6" points="68.404,12.503 68.404,12.503 68.4,12.666 		"/>
		<path fill="#3870B6" d="M44.822,18.918c0,0-5.343,0.995-4.816,7.427c0.513,6.267,2.023,23.867,2.296,27.04l0.284-0.131
			c0,0-2.747-28.381-2.104-30.466c0.643-2.086,4.444-3.821,4.444-3.821l22.923-6.261l-0.004-0.051L44.822,18.918z"/>
		<rect x="67.848" y="12.655" fill="#3870B6" width="0" height="0.051"/>
		<path fill="#3870B6" d="M42.616,53.956L42.616,53.956l-0.183-0.629l-0.13,0.06c0.027,0.32,0.042,0.496,0.042,0.496
			s0.053,0.043,0.128,0.106l0.115-0.057L42.616,53.956z"/>
		<path fill="#3870B6" d="M42.616,53.956l-0.114,0.056c0.098,0.081,0.241,0.199,0.429,0.354l0.085-0.044L42.616,53.956z"/>
		<path fill="#3870B6" d="M42.588,53.931l-0.115,0.057c0.009,0.008,0.018,0.015,0.028,0.023l0.114-0.056L42.588,53.931z"/>
		<path fill="#3870B6" d="M92.363,55.724L92.363,55.724L92.363,55.724c0,0-21.516,16.021-23.679,16.021
			c-2.165,0-4.152-0.761-8.537-4.093C55.764,64.318,43.017,54.32,43.017,54.32h0l0,0l-0.086,0.044
			c3.22,2.654,18.857,15.53,19.747,16.047c0.993,0.574,4.111,4.051,10.069-0.18c4.103-2.913,4.476-2.884,19.971-14.321l-0.125-0.066
			L92.363,55.724z"/>
		<rect x="42.973" y="54.295" fill="#3870B6" width="0.001" height="0.096"/>
		<path fill="#3870B6" d="M92.266,20c0,0,3.156,0.935,3.781,2.729c0.623,1.793,0.973,3.625,0.623,6.042
			c-0.349,2.404-3.545,25.561-3.58,25.818l0.33,0.212l3.797-27.124c0,0,0.977-6.15-4.326-7.833
			c-4.431-1.406-20.771-6.25-23.935-7.186l-0.004,0.048L92.266,20z"/>
		<rect x="68.952" y="12.658" fill="#3870B6" width="0.002" height="0.048"/>
		<polygon fill="#3870B6" points="93.09,54.589 93.076,54.581 92.947,55.311 93.022,55.257 93.314,55.47 93.328,55.46 
			93.419,54.808 93.088,54.601 		"/>
		<polygon fill="#3870B6" points="93.088,54.601 93.419,54.808 93.42,54.802 93.09,54.589 		"/>
		<path fill="#3870B6" d="M92.947,55.311l-0.584,0.413l0.229,0.122l0.125,0.066c0.173-0.127,0.34-0.25,0.517-0.381l-0.296-0.164
			L92.947,55.311z"/>
		<polygon fill="#3870B6" points="92.592,55.845 92.363,55.723 92.363,55.724 		"/>
		<path fill="#3870B6" d="M92.947,55.311l-0.01,0.055l0.296,0.164c0.027-0.021,0.053-0.039,0.081-0.06l-0.292-0.213L92.947,55.311z"
			/>
		<polygon fill="#A8CE38" points="86.497,7.45 86.498,7.45 86.498,7.45 69.083,3.574 67.846,3.555 50.549,7 68.412,12.205 		"/>
		<rect x="77.455" y="0.477" fill="#A8CE38" width="0" height="18.701"/>
		<linearGradient id="SVGID_1_" gradientUnits="userSpaceOnUse" x1="68.9766" y1="31.3135" x2="115.3357" y2="31.3135">
			<stop  offset="0" style="stop-color:#EF5656"/>
			<stop  offset="1" style="stop-color:#C8252C"/>
		</linearGradient>
		<path fill="url(#SVGID_1_)" d="M113.865,14.963c-1.082-1.62-2.996-2.123-2.996-2.123L86.867,7.547l-17.279,4.688
			c0.735,0.21,22.154,6.319,23.245,6.655c1.108,0.34,0.683-0.087,3.289,1.922c2.605,2.008,1.836,6.151,1.836,6.151L94.2,54.558
			l-0.345,0.523c0,0,0.012-0.009,0.017-0.012l15.455-11.8l0.198,0.232c0.06-0.07,0.086-0.114,0.086-0.114s2.831-14.562,4.254-21.76
			c0.25-1.266,0.458-2.309,0.598-3C114.789,17.015,114.444,15.831,113.865,14.963z"/>
		<polygon fill="#76732F" points="69.588,12.235 86.867,7.547 69.587,12.235 		"/>
		
			<linearGradient id="SVGID_2_" gradientUnits="userSpaceOnUse" x1="-313.0352" y1="385.6973" x2="-312.0352" y2="385.6973" gradientTransform="matrix(45.6142 0 0 -45.6142 14347.8438 17603.1563)">
			<stop  offset="0" style="stop-color:#EF5656"/>
			<stop  offset="1" style="stop-color:#C8252C"/>
		</linearGradient>
		<polygon fill="url(#SVGID_2_)" points="69.588,12.235 86.867,7.547 69.587,12.235 		"/>
		<path fill="#923039" d="M93.035,19.475c5.643,1.666,4.648,7.716,4.648,7.716l-3.828,27.89l0.345-0.523l3.758-27.594
			c0,0,0.77-4.144-1.836-6.151c-2.606-2.009-2.181-1.582-3.289-1.922c-1.091-0.336-22.51-6.445-23.245-6.655l-0.61,0.166
			C68.991,12.405,87.395,17.809,93.035,19.475z"/>
		
			<linearGradient id="SVGID_3_" gradientUnits="userSpaceOnUse" x1="-313.0352" y1="385.1758" x2="-312.0352" y2="385.1758" gradientTransform="matrix(45.6142 0 0 -45.6142 14347.8438 17603.1563)">
			<stop  offset="0" style="stop-color:#EF5656"/>
			<stop  offset="1" style="stop-color:#C8252C"/>
		</linearGradient>
		<path fill="url(#SVGID_3_)" d="M93.035,19.475c5.643,1.666,4.648,7.716,4.648,7.716l-3.828,27.89l0.345-0.523l3.758-27.594
			c0,0,0.77-4.144-1.836-6.151c-2.606-2.009-2.181-1.582-3.289-1.922c-1.091-0.336-22.51-6.445-23.245-6.655l-0.61,0.166
			C68.991,12.405,87.395,17.809,93.035,19.475z"/>
		<rect x="69.282" y="12.002" fill="#923039" width="0" height="0.632"/>
		
			<linearGradient id="SVGID_4_" gradientUnits="userSpaceOnUse" x1="-313.0352" y1="385.6445" x2="-312.0352" y2="385.6445" gradientTransform="matrix(45.6142 0 0 -45.6142 14347.8438 17603.1563)">
			<stop  offset="0" style="stop-color:#EF5656"/>
			<stop  offset="1" style="stop-color:#C8252C"/>
		</linearGradient>
		<rect x="69.282" y="12.002" fill="url(#SVGID_4_)" width="0" height="0.632"/>
		<path fill="#F7ED4C" d="M109.525,43.5l-0.198-0.232l-15.455,11.8c0.352-0.258,14.314-10.49,14.979-10.98
			C109.255,43.79,109.436,43.606,109.525,43.5z"/>
		
			<linearGradient id="SVGID_5_" gradientUnits="userSpaceOnUse" x1="-313.0352" y1="384.8359" x2="-312.0352" y2="384.8359" gradientTransform="matrix(45.6142 0 0 -45.6142 14347.8438 17603.1563)">
			<stop  offset="0" style="stop-color:#EF5656"/>
			<stop  offset="1" style="stop-color:#C8252C"/>
		</linearGradient>
		<path fill="url(#SVGID_5_)" d="M109.525,43.5l-0.198-0.232l-15.455,11.8c0.352-0.258,14.314-10.49,14.979-10.98
			C109.255,43.79,109.436,43.606,109.525,43.5z"/>
		<path fill="#EEE833" d="M39.322,51.418l2.355,1.942l-2.499-28.138c0,0-0.234-4.014,2.456-5.534
			c2.688-1.52,4.364-1.793,4.364-1.793l21.826-5.495L50.016,7.125l0.09-0.021L50.091,7.1l-21.71,4.364c0,0-5.534,0.234-4.599,6.667
			c0.935,6.431,3.392,23.269,3.392,23.269l0.006,0.005l-0.005-0.035L39.322,51.418z"/>
		<polygon fill="#EEE833" points="67.824,12.401 67.826,12.4 50.105,7.104 50.016,7.125 		"/>
		<path fill="#EEE833" d="M39.826,29.922c-0.609-5.635-0.829-9.775,4.703-11.295c5.362-1.475,23.252-6.214,23.296-6.226l0,0
			l-21.826,5.495c0,0-1.675,0.273-4.364,1.793c-2.69,1.52-2.456,5.534-2.456,5.534l2.499,28.138l0.17,0.141L39.826,29.922z"/>
		<polygon fill="#EEE833" points="67.826,12.4 67.824,12.401 67.824,12.401 		"/>
		<polygon fill="#EEE833" points="27.174,41.37 27.179,41.404 39.322,51.418 		"/>
		<path fill="#D43434" d="M30.686,62.815l13.121,13.898l-1.924-22.4l-0.042,0.02L27.308,42.207l-0.014-0.085l0.018,0.11
			c-0.001-0.007-0.003-0.024-0.003-0.024L30.686,62.815z"/>
		<polygon fill="#D43434" points="41.841,54.333 41.883,54.313 41.88,54.282 41.907,54.269 41.907,54.261 27.291,42.1 
			27.294,42.122 27.308,42.207 		"/>
		<path fill="#D43434" d="M43.894,76.89L41.91,54.3l-0.027,0.014l1.924,22.4L30.686,62.815l-3.377-20.608
			c0,0,0.002,0.018,0.003,0.024l3.252,20.625L43.894,76.89z"/>
		<polygon fill="#D43434" points="41.88,54.282 41.883,54.313 41.91,54.3 41.907,54.269 		"/>
		<path fill="#9BBD3C" d="M90.139,78.258L90.139,78.258l3.087-21.67c0.001-0.009,0.003-0.02,0.004-0.028L90.139,78.258z"/>
		<polygon fill="#9BBD3C" points="90.139,78.258 90.003,79.207 90.003,79.208 90.004,79.207 90.004,79.206 90.004,79.204 
			90.139,78.258 		"/>
		<path fill="#9BBD3C" d="M93.254,56.23c-0.259,0.198-5.974,4.559-14.371,10.786c-8.597,6.373-8.759,6.267-11.873,6.267
			c-2.851,0-6.538-2.692-6.538-2.692L42.374,54.651l0.077,0.858l1.962,21.816l0.144-0.107l1.039,1.039l1.316,1.316l17.913,17.914
			l3.47,0.467l21.212-18.381l0.108-0.094l0.192-1.223l3.462-21.987c0.006-0.037,0.008-0.058,0.009-0.059
			C93.277,56.212,93.261,56.225,93.254,56.23z"/>
		<polygon fill="#9BBD3C" points="42.451,55.51 44.401,77.335 44.413,77.326 		"/>
		<path fill="#9BBD3C" d="M63.657,71.959c-3.936-2.456-21.283-17.308-21.283-17.308l18.099,15.939c0,0,3.687,2.692,6.538,2.692
			c3.114,0,3.276,0.105,11.873-6.267c8.397-6.228,14.112-10.588,14.371-10.786c-0.545,0.4-20.478,15.027-21.818,15.75
			C69.965,72.775,67.067,74.086,63.657,71.959z"/>
		<path fill="#9BBD3C" d="M90.003,79.207l0.136-0.949h-0.331l-0.192,1.223l-0.108,0.094h0.102C89.861,79.34,90,79.211,90.003,79.207
			L90.003,79.207z"/>
		<path fill="#9BBD3C" d="M68.295,97.955l-3.47-0.467L46.913,79.574h-0.378c4.895,5.134,16.595,17.387,17.395,18.063
			c1.013,0.856,3.641,2.407,6.95-0.677c3.164-2.948,16.279-15.114,18.729-17.387h-0.102L68.295,97.955z"/>
		<path fill="#9BBD3C" d="M93.27,56.271l-3.462,21.987h0.331l3.091-21.698C93.248,56.43,93.262,56.327,93.27,56.271z"/>
		<path fill="#9BBD3C" d="M44.557,77.219l-0.144,0.107l0.002,0.024c0.037,0.038,0.344,0.361,0.865,0.907h0.316L44.557,77.219z"/>
		<path fill="#9BBD3C" d="M45.596,78.258H45.28c0.337,0.354,0.761,0.799,1.255,1.316h0.378L45.596,78.258z"/>
		<polygon fill="#9BBD3C" points="44.401,77.335 44.401,77.336 44.415,77.351 44.413,77.326 		"/>
		<path fill="#9BBD3C" d="M93.226,56.588l0.054-0.377l0,0l-0.05,0.349C93.229,56.568,93.227,56.579,93.226,56.588z"/>
		<rect x="90.004" y="79.204" fill="#9BBD3C" width="0" height="0.003"/>
		<path fill="#9BBD3C" d="M93.279,56.211L93.279,56.211c-0.002,0.002-0.004,0.023-0.01,0.06L93.279,56.211z"/>
		<path fill="#9BBD3C" d="M93.229,56.56l0.05-0.349l0,0l-0.01,0.06C93.262,56.327,93.248,56.43,93.229,56.56z"/>
		<path fill="#D6D724" d="M90.992,78.258h-0.11c-0.007,0.05-0.012,0.09-0.015,0.115L90.992,78.258z"/>
		<path fill="#D6D724" d="M93.904,55.902L93.904,55.902c-0.001,0.01-2.762,20.393-3.022,22.356h0.11l3.768-3.445l9.996-9.471
			l4.737-21.291l-0.041,0.03l-0.019,0.118L93.904,55.902z"/>
		<polygon fill="#D6D724" points="93.746,55.786 93.904,55.901 93.904,55.902 93.904,55.902 109.434,44.199 109.452,44.081 
			93.747,55.782 		"/>
		<path fill="#D6D724" d="M93.904,55.902l-0.161-0.089l-3.07,22.445h0.209C91.143,76.295,93.903,55.912,93.904,55.902z"/>
		<path fill="#D6D724" d="M90.867,78.373c0.003-0.025,0.008-0.065,0.015-0.115h-0.209l-0.066,0.486l0.062-0.189L90.867,78.373z"/>
		<polygon fill="#D6D724" points="93.904,55.902 93.904,55.901 93.746,55.786 93.743,55.813 		"/>
		<polygon fill="#D6D724" points="94.76,74.813 90.992,78.258 91.228,78.258 105.128,65.175 109.493,44.051 104.756,65.341 		"/>
		<path fill="#D6D724" d="M90.865,78.385c-0.013,0.098-0.039,0.188-0.067,0.278l0.43-0.405h-0.235l-0.125,0.115
			C90.866,78.375,90.865,78.383,90.865,78.385z"/>
		<path fill="#D6D724" d="M90.798,78.663c0.028-0.09,0.055-0.181,0.067-0.278c0-0.002,0.001-0.01,0.002-0.012l-0.199,0.182
			l-0.062,0.189l-0.016,0.113L90.798,78.663z"/>
		<path d="M10.369,109.919l-8.854,24.34h3.897l1.88-5.435h9.231l1.88,5.435h3.896l-8.853-24.34H10.369z M8.352,125.541l3.521-10.631
			h0.068l3.521,10.631H8.352z"/>
		<polygon points="35.358,125.779 28.384,109.918 24.897,109.918 24.897,134.259 28.588,134.259 28.588,119.082 33.735,130.771 
			36.844,130.771 41.99,119.082 41.99,134.259 45.682,134.259 45.682,109.918 42.194,109.918 		"/>
		<polygon points="50.81,134.259 66.363,134.259 66.363,130.771 54.501,130.771 54.501,123.627 64.621,123.627 64.621,120.345 
			54.501,120.345 54.501,113.404 66.363,113.404 66.363,109.918 50.81,109.918 		"/>
		<path d="M85.439,120.893c0.842-1.208,1.267-2.6,1.267-4.17c0-2.074-0.812-3.807-2.429-5.197c-1.253-1.07-2.904-1.607-4.957-1.607
			h-9.504v24.34h3.692v-10.391h4.718l5.024,10.391h4.377l-5.64-10.801C83.445,122.954,84.596,122.101,85.439,120.893z
			 M73.509,120.586v-7.387h5.777c1.116,0,2.017,0.252,2.702,0.753c0.82,0.614,1.229,1.537,1.229,2.771
			c0,1.093-0.343,1.994-1.026,2.699c-0.752,0.776-1.789,1.164-3.111,1.164H73.509z"/>
		<rect x="90.67" y="109.918" width="3.693" height="24.342"/>
		<path d="M103.592,115.184c0.935-1.184,2.188-1.779,3.76-1.779c1.116,0,2.096,0.338,2.939,1.01c0.844,0.671,1.413,1.51,1.709,2.514
			h3.898c-0.389-2.073-1.334-3.772-2.838-5.094c-1.572-1.414-3.477-2.121-5.709-2.121c-1.777,0-3.385,0.469-4.819,1.402
			c-1.208,0.774-2.144,1.768-2.804,2.975c-0.434,0.799-0.707,1.586-0.82,2.359c-0.16,1.025-0.24,2.905-0.24,5.64
			s0.08,4.614,0.24,5.641c0.113,0.776,0.387,1.561,0.82,2.358c0.66,1.209,1.596,2.2,2.804,2.975
			c1.435,0.936,3.042,1.402,4.819,1.402c2.143,0,3.982-0.61,5.521-1.828c1.538-1.219,2.547-2.947,3.025-5.182H112
			c-1.024,2.212-2.574,3.316-4.648,3.316c-1.572,0-2.825-0.592-3.76-1.777c-0.639-0.82-1.025-1.926-1.164-3.316
			c-0.045-0.363-0.066-1.561-0.066-3.589s0.021-3.225,0.066-3.589C102.566,117.109,102.953,116.004,103.592,115.184z"/>
		<path d="M121.742,128.824h9.232l1.881,5.435h3.895l-8.852-24.34h-3.077l-8.854,24.34h3.897L121.742,128.824z M126.325,114.91
			h0.069l3.52,10.631h-7.109L126.325,114.91z"/>
	</g>
	
		<linearGradient id="SVGID_6_" gradientUnits="userSpaceOnUse" x1="54.1943" y1="25.5181" x2="50.5265" y2="33.3839" gradientTransform="matrix(1.2702 0.1521 0.0828 1.0504 -12.6192 -7.6764)">
		<stop  offset="0.008" style="stop-color:#3870B6"/>
		<stop  offset="0.2371" style="stop-color:#4B7EBC"/>
		<stop  offset="0.4378" style="stop-color:#5686BF"/>
		<stop  offset="1" style="stop-color:#3870B6"/>
	</linearGradient>
	<path fill="url(#SVGID_6_)" d="M40.583,23c0.51-1.591,0.854-1.667,0.963-1.787c0.186-0.205,0.577-0.512,0.577-0.512
		s2.724,1.047,3.796,1.531l24.406,11.024c2.169,0.979,3.206,3.372,2.315,5.343l0,0c-0.89,1.972-3.371,2.775-5.54,1.795
		L42.696,29.371c-2.17-0.979-2.487-3.683-2.316-5.343L40.583,23z"/>
	
		<linearGradient id="SVGID_7_" gradientUnits="userSpaceOnUse" x1="77.9658" y1="13.8994" x2="74.2922" y2="21.7776" gradientTransform="matrix(0.7551 -0.5523 0.5344 0.2502 16.6807 65.4616)">
		<stop  offset="0.008" style="stop-color:#3870B6"/>
		<stop  offset="0.4378" style="stop-color:#5686BF"/>
		<stop  offset="1" style="stop-color:#3870B6"/>
	</linearGradient>
	<path opacity="0.57" fill="url(#SVGID_7_)" d="M71.481,33.482c-0.44-0.959,0.522-2.34,2.147-3.084l18.288-8.385
		c0.767-0.351,2.755-1.19,2.755-1.19s0.878,0.869,1.11,1.375l0,0c0.397,0.611,0.731,1.781,0.731,1.781s-2.125,1.102-3.005,1.505
		l-18.288,8.384C73.596,34.614,71.92,34.441,71.481,33.482L71.481,33.482z"/>
	
		<linearGradient id="SVGID_8_" gradientUnits="userSpaceOnUse" x1="104.4082" y1="16.7588" x2="105.5595" y2="19.6082" gradientTransform="matrix(1.0373 0.0764 0.0944 1.1955 -5.6263 -11.5671)">
		<stop  offset="0" style="stop-color:#CB2F36"/>
		<stop  offset="0.1514" style="stop-color:#CF3C43"/>
		<stop  offset="0.4335" style="stop-color:#D86065"/>
		<stop  offset="0.4779" style="stop-color:#DA666B"/>
		<stop  offset="0.5548" style="stop-color:#D6585E"/>
		<stop  offset="0.7154" style="stop-color:#D04248"/>
		<stop  offset="0.8672" style="stop-color:#CC343B"/>
		<stop  offset="1" style="stop-color:#CB2F36"/>
	</linearGradient>
	<path opacity="0.5" fill="url(#SVGID_8_)" d="M96.919,21.732c-0.21-0.476-1.193-1.36-1.193-1.36s1.987-0.829,2.462-1.039
		l12.097-5.343c0.403-0.178,1.644-0.604,1.644-0.604s1.053,0.515,1.52,1.141l0,0c0.353,0.379,0.733,1.317,0.733,1.317
		s-1.993,0.982-2.537,1.222l-12.098,5.343c-0.519,0.229-1.787,0.765-1.787,0.765S97.206,22.08,96.919,21.732L96.919,21.732z"/>
	
		<linearGradient id="SVGID_9_" gradientUnits="userSpaceOnUse" x1="64.3169" y1="-19.3271" x2="60.6449" y2="-11.4525" gradientTransform="matrix(0.8924 0.2483 0.2188 0.4484 3.0699 16.1856)">
		<stop  offset="0.008" style="stop-color:#3870B6"/>
		<stop  offset="0.4378" style="stop-color:#5686BF"/>
		<stop  offset="1" style="stop-color:#3870B6"/>
	</linearGradient>
	<path opacity="0.57" fill="url(#SVGID_9_)" d="M45.314,18.861c0,0,0.968,0.387,1.672,0.699l18.399,8.136
		c1.635,0.723,2.714,1.868,2.408,2.557l0,0c-0.304,0.69-1.878,0.662-3.512-0.062l-18.4-8.136c-1.374-0.608-3.402-1.63-3.402-1.63
		S43.897,19.248,45.314,18.861z"/>
	<linearGradient id="SVGID_10_" gradientUnits="userSpaceOnUse" x1="33.8613" y1="16.8677" x2="30.4881" y2="24.1015">
		<stop  offset="0.008" style="stop-color:#EEE833"/>
		<stop  offset="0.1151" style="stop-color:#EDE845"/>
		<stop  offset="0.3214" style="stop-color:#ECE864"/>
		<stop  offset="0.4378" style="stop-color:#EBE86F"/>
		<stop  offset="1" style="stop-color:#EEE833"/>
	</linearGradient>
	<path fill="url(#SVGID_10_)" d="M39.435,28.083l-12.989-5.867c-0.614-0.277-1.59-0.81-2.102-2.013
		c-0.49-1.153-0.53-2.96-0.516-3.969c0.023-1.658,0.63-2.182,0.656-2.25c0.034-0.086,0.578-0.75,0.578-0.75s3.516,1.351,4.607,1.843
		l11.283,5.097c0,0-1.569,1.451-1.641,3.576C39.26,25.291,39.398,27.641,39.435,28.083z"/>
	
		<linearGradient id="SVGID_11_" gradientUnits="userSpaceOnUse" x1="43.272" y1="-27.9741" x2="39.3525" y2="-19.5689" gradientTransform="matrix(0.8924 0.2483 0.2188 0.4484 3.0699 16.1856)">
		<stop  offset="0.008" style="stop-color:#EEE833"/>
		<stop  offset="0.1151" style="stop-color:#EDE845"/>
		<stop  offset="0.3214" style="stop-color:#ECE864"/>
		<stop  offset="0.4378" style="stop-color:#EBE86F"/>
		<stop  offset="1" style="stop-color:#EEE833"/>
	</linearGradient>
	<path fill="url(#SVGID_11_)" d="M29.633,14.9L41.168,20c0,0,1.522-1.225,3.146-1.592l-13.577-6.004L28.5,11.516
		c0,0-1.187,0.141-2.047,0.609c-0.688,0.375-1.297,1.031-1.297,1.031L29.633,14.9z"/>
	<linearGradient id="SVGID_12_" gradientUnits="userSpaceOnUse" x1="61.9297" y1="53.8428" x2="73.4053" y2="53.8428">
		<stop  offset="0.008" style="stop-color:#3870B6"/>
		<stop  offset="0.4378" style="stop-color:#5686BF"/>
		<stop  offset="1" style="stop-color:#3870B6"/>
	</linearGradient>
	<path opacity="0.8" fill="url(#SVGID_12_)" d="M73.405,68.329c0,1.004-2.823,3.178-5.072,3.406l0,0
		c-2.334,0-6.404-2.031-6.404-3.406V38.441c0-1.376,1.892-2.491,4.226-2.491h3.024c2.334,0,4.226,1.115,4.226,2.491V68.329z"/>
	<linearGradient id="SVGID_13_" gradientUnits="userSpaceOnUse" x1="62.917" y1="85.3037" x2="72.084" y2="85.3037">
		<stop  offset="0.008" style="stop-color:#9BBD3C"/>
		<stop  offset="0.1647" style="stop-color:#A1BF54"/>
		<stop  offset="0.321" style="stop-color:#A5C065"/>
		<stop  offset="0.4378" style="stop-color:#A7C16B"/>
		<stop  offset="0.6045" style="stop-color:#A6C167"/>
		<stop  offset="0.7656" style="stop-color:#A3C05C"/>
		<stop  offset="0.9238" style="stop-color:#9EBE48"/>
		<stop  offset="1" style="stop-color:#9BBD3C"/>
	</linearGradient>
	<path fill="url(#SVGID_13_)" d="M72.084,94.369c0,1.98-2.052,4.386-4.583,4.386l0,0c-2.531,0-4.583-1.171-4.583-4.386v-17.5
		c0-0.989,0.112-4.75,0.112-4.75s2.064,1.256,4.3,1.164H67.5c2.265,0.107,4.583-1.431,4.583-1.431s0,3.78,0,5.017V94.369z"/>
</g>
<g id="Layer_2">
</g>
</svg>
