<?xml version="1.0" encoding="utf-8"?>
<!-- Generator: Adobe Illustrator 15.1.0, SVG Export Plug-In . SVG Version: 6.00 Build 0)  -->
<!DOCTYPE svg PUBLIC "-//W3C//DTD SVG 1.1//EN" "http://www.w3.org/Graphics/SVG/1.1/DTD/svg11.dtd">
<svg version="1.1" id="Layer_1" xmlns="http://www.w3.org/2000/svg" xmlns:xlink="http://www.w3.org/1999/xlink" x="0px" y="0px"
	 width="408.836px" height="226.133px" viewBox="-101.549 -269.215 408.836 226.133"
	 enable-background="new -101.549 -269.215 408.836 226.133" xml:space="preserve">
<g>
	<g>
		<polygon fill="none" points="141.408,-148.014 154.703,-148.014 148.119,-168.73 		"/>
		<path fill="none" d="M284.813-177.527h-11.277l0.008,15.955h11.275c2.533,0,4.504-0.705,6.006-2.153
			c1.426-1.388,2.158-3.269,2.158-5.753c0-2.561-0.699-4.485-2.131-5.902C289.344-176.837,287.352-177.527,284.813-177.527z"/>
		<path fill="none" d="M241.543-174.782c-0.816-0.973-1.924-1.767-3.236-2.356c-1.336-0.614-2.688-0.909-4.113-0.909
			c-1.449,0-2.852,0.302-4.178,0.909c-1.322,0.59-2.371,1.369-3.248,2.356c-1.176,1.417-1.934,3.19-2.326,5.37
			c-0.406,2.342-0.619,6.559-0.619,12.564c0,3.214,0.043,5.796,0.125,7.708c0.111,1.877,0.266,3.527,0.537,4.875
			c0.268,1.636,0.557,2.561,0.785,3.014c0.295,0.684,0.826,1.459,1.566,2.383c0.826,0.953,1.896,1.752,3.25,2.346
			c1.285,0.583,2.697,0.868,4.107,0.868c3.029,0,5.451-1.061,7.393-3.276c0.777-0.916,1.389-2.002,1.781-3.188
			c0.42-1.219,0.709-2.977,0.887-5.27c0.178-2.464,0.254-5.659,0.254-9.467c0-5.955-0.197-10.188-0.627-12.6
			C243.541-171.607,242.734-173.42,241.543-174.782z"/>
		<polygon fill="#D12238" points="34.533,-176.594 34.338,-176.594 29.912,-148.471 38.969,-148.471 		"/>
		<polygon fill="#D12238" points="49.215,-231.655 5.104,-229.254 5.606,-217.717 14.934,-217.984 16.723,-131.378 27.468,-189.642 
			41.422,-189.642 53.485,-124.153 42.608,-124.153 40.617,-138.676 28.299,-138.676 26.266,-124.153 16.874,-124.153 
			17.619,-88.127 58.084,-90.602 		"/>
		<path fill="#F26F21" d="M-10.587-189.646v49.412c0,4.823,1.916,7.187,5.994,7.187c4.086,0,5.98-2.363,5.98-7.187v-49.412h5.441
			l-1.223-28.071l-26.858,0.784l0.35,27.287H-10.587z"/>
		<path fill="#F26F21" d="M9.442-129.509c-2.93,4.063-7.741,6.258-14.047,6.258c-7.557,0-12.987-3.125-15.561-8.902l0.49,38.024
			l-6.207,0.133l-0.038,18.002l43.784-0.195l-0.245-11.938l-6.362,0.392L9.442-129.509z"/>
		<path fill="#F26F21" d="M15.392-124.153l1.331-7.225l-1.793-86.606l-9.324,0.268l1.223,28.071h5.817v48.99
			c0,4.616-1.158,8.316-3.201,11.146l1.816,41.766l6.361-0.387l-0.746-36.023H15.392z"/>
		<path fill="#8FAF3E" d="M-21.252-216.933l-0.155-12.126l-38.152,0.38l0.263,42.19c2.442-1.178,5.355-1.901,8.896-1.901
			c11.51,0,17.078,8.348,17.078,18.37v4.932l-11.505-0.003v-5.2c0-5.674-2.612-8.067-5.573-8.067c-4.626,0-6.12,2.403-6.12,7.424
			v33.946c0,5.038,1.505,7.443,6.12,7.443c4.176,0,5.573-2.405,5.573-6.774v-8.085h11.505v7.72c0,9.47-5.568,17.152-17.078,17.152
			c-3.341,0-6.131-0.635-8.495-1.688l0.17,27.944l32.852-0.714l0.26-122.818L-21.252-216.933z"/>
		<path fill="#8FAF3E" d="M-20.162-132.15c-1.069-2.396-1.693-5.203-1.693-8.505v-48.99h0.021h0.935l-0.351-27.287l-4.366,0.125
			l-0.26,122.815l6.207-0.134L-20.162-132.15z"/>
		<polygon fill="#28A4AC" points="-80.099,-176.594 -84.556,-148.471 -75.479,-148.471 -79.925,-176.594 		"/>
		<path fill="#28A4AC" d="M-63.137-124.042c-0.042-0.038-0.087-0.069-0.129-0.111h-8.582l-1.989-14.522h-12.336l-1.998,14.522
			h-10.881l12.065-65.485h13.982l4.97,27.029v-8.605c0-4.979,1.588-9.438,4.811-12.576l-0.064-44.851l3.725-0.037l-0.044-7.623
			l-41.736,0.502l-0.205,153.797l42.891,0.122l-0.072-11.395l-4.363,0.092L-63.137-124.042z"/>
		<path fill="#28A4AC" d="M-63.137-124.042l0.046,30.862l4.364-0.096l-0.17-27.944C-60.539-121.952-61.95-122.904-63.137-124.042z"
			/>
		<path fill="#28A4AC" d="M-63.22-183.795c1.104-1.072,2.422-1.973,3.923-2.693l-0.263-42.19l-3.725,0.037L-63.22-183.795z"/>
		<path fill="#FFFFFF" d="M26.266-124.153l2.033-14.522h12.317l1.991,14.522h10.877l-12.063-65.488H27.463l-10.74,58.264l0.15,7.225
			H26.266z M34.338-176.594h0.194l4.434,28.123h-9.06L34.338-176.594z"/>
		<polygon fill="#FFFFFF" points="16.874,-124.153 16.723,-131.378 15.392,-124.153 		"/>
		<path fill="#FFFFFF" d="M1.387-140.233c0,4.823-1.895,7.187-5.98,7.187c-4.078,0-5.994-2.363-5.994-7.187v-49.412h-10.315
			l0.737,57.495c2.573,5.774,8.004,8.899,15.561,8.899c6.306,0,11.111-2.194,14.047-6.251l-2.613-60.14H1.387V-140.233z"/>
		<path fill="#FFFFFF" d="M12.646-140.655v-48.99H6.829l2.613,60.137C11.485-132.339,12.646-136.039,12.646-140.655z"/>
		<path fill="#FFFFFF" d="M-21.836-189.646h-0.021v48.99c0,3.302,0.627,6.108,1.692,8.505l-0.737-57.495H-21.836z"/>
		<path fill="#FFFFFF" d="M-50.406-119.532c11.509,0,17.079-7.683,17.079-17.152v-7.72h-11.505v8.085
			c0,4.369-1.398,6.774-5.574,6.774c-4.614,0-6.119-2.405-6.119-7.443v-33.946c0-5.021,1.493-7.424,6.119-7.424
			c2.961,0,5.574,2.394,5.574,8.067v5.2l11.505,0.003v-4.932c0-10.022-5.57-18.37-17.079-18.37c-3.539,0-6.452,0.724-8.896,1.901
			l0.401,65.269C-56.533-120.167-53.746-119.532-50.406-119.532z"/>
		<path fill="#FFFFFF" d="M-63.22-183.795c-3.223,3.139-4.811,7.602-4.811,12.576v8.609l4.883,26.542L-63.22-183.795z"/>
		<path fill="#FFFFFF" d="M-63.266-124.153c0.042,0.042,0.087,0.073,0.129,0.111v-0.111H-63.266z"/>
		<path fill="#FFFFFF" d="M-63.152-136.067l2.19,11.914h-2.176v0.111c1.188,1.138,2.596,2.09,4.237,2.817l-0.401-65.267
			c-1.502,0.724-2.821,1.617-3.923,2.693L-63.152-136.067z"/>
		<path fill="#FFFFFF" d="M-68.031-136.685v-25.925L-73-189.639h-13.986l-12.065,65.485h10.881l1.998-14.522h12.336l1.989,14.522
			h8.582C-66.458-127.285-68.031-131.725-68.031-136.685z M-84.556-148.471l4.453-28.123h0.174l4.45,28.123H-84.556z"/>
		<path fill="#FFFFFF" d="M-63.152-136.067l-4.883-26.542v25.921c0,4.964,1.577,9.396,4.769,12.528h0.129L-63.152-136.067z"/>
		<polygon fill="#FFFFFF" points="-60.961,-124.153 -63.152,-136.067 -63.137,-124.153 		"/>
		<polygon fill="#020202" points="94.703,-153.169 79.059,-189.128 67.91,-189.128 67.91,-124.552 79.598,-124.552 79.598,-160.168 
			90.582,-135.669 98.848,-135.669 109.453,-160.006 109.453,-124.552 121.143,-124.552 121.143,-189.128 110.004,-189.128 		"/>
		<path fill="#020202" d="M143.455-189.128l-21.936,64.576h12.41l3.885-12.336h20.307l3.863,12.336h12.426l-21.951-64.576H143.455z
			 M141.408-148.014l6.711-20.717l6.574,20.717H141.408z"/>
		<polygon fill="#020202" points="190.639,-164.294 179.676,-189.128 166.891,-189.128 184.797,-151.027 184.797,-124.552 
			194.521,-124.552 194.521,-173.085 		"/>
		<polygon fill="#020202" points="214.406,-189.128 201.605,-189.128 197.063,-178.838 197.063,-152.26 		"/>
		<polygon fill="#020202" points="194.521,-124.552 196.482,-124.552 196.482,-151.027 197.063,-152.26 197.063,-178.838 
			194.521,-173.085 		"/>
		<path fill="#020202" d="M254.377-175.791c-0.867-2.427-2.256-4.735-4.141-6.859c-4.34-4.644-9.73-6.991-16.051-6.991
			c-6.316,0-11.693,2.348-16.012,7.015c-1.496,1.654-2.641,3.349-3.424,5.045c-0.789,1.706-1.367,3.561-1.754,5.54
			c-0.307,1.861-0.525,3.9-0.629,6.23c-0.1,2.227-0.143,5.212-0.143,8.961c0,4.878,0.084,8.687,0.27,11.269
			c0.195,2.755,0.691,5.318,1.539,7.703c0.846,2.396,2.25,4.67,4.141,6.841c4.332,4.64,9.695,6.984,16.012,6.984
			c6.32,0,11.711-2.345,16.1-7.051c1.836-2.095,3.225-4.395,4.053-6.848c0.803-2.408,1.34-4.993,1.5-7.667
			c0.182-2.602,0.258-6.387,0.258-11.243c0-4.878-0.078-8.657-0.258-11.251C255.678-170.871,255.15-173.428,254.377-175.791z
			 M244.246-147.385c-0.17,2.29-0.465,4.048-0.883,5.267c-0.395,1.186-1.008,2.274-1.783,3.192
			c-1.943,2.215-4.363,3.278-7.395,3.278c-1.408,0-2.818-0.288-4.107-0.87c-1.348-0.593-2.422-1.39-3.246-2.347
			c-0.736-0.919-1.271-1.694-1.566-2.382c-0.232-0.458-0.518-1.383-0.783-3.019c-0.27-1.348-0.424-2.998-0.535-4.875
			c-0.086-1.912-0.129-4.494-0.129-7.708c0-6.006,0.217-10.223,0.621-12.564c0.395-2.18,1.152-3.953,2.322-5.37
			c0.879-0.987,1.932-1.767,3.25-2.356c1.322-0.607,2.725-0.909,4.174-0.909c1.428,0,2.777,0.295,4.119,0.909
			c1.314,0.59,2.422,1.384,3.238,2.356c1.189,1.362,1.994,3.175,2.334,5.333c0.428,2.407,0.627,6.64,0.627,12.599
			C244.508-153.044,244.432-149.852,244.246-147.385z"/>
		<path fill="#020202" d="M293.926-152.35c2.852-1.185,5.279-3.094,7.186-5.681c2.297-3.076,3.473-6.973,3.473-11.537
			c0-3.752-0.799-7.158-2.365-10.098c-1.596-2.962-3.881-5.306-6.834-6.988c-2.875-1.647-6.211-2.475-9.979-2.475h-23.564v64.576
			h11.688v-25.81h8.346l11.996,25.81h13.416L293.926-152.35z M290.824-163.726c-1.496,1.448-3.473,2.15-6.006,2.15h-11.275
			l-0.008-15.956h11.277c2.539,0,4.531,0.694,6.045,2.142c1.426,1.42,2.129,3.339,2.129,5.902
			C292.982-166.997,292.25-165.113,290.824-163.726z"/>
	</g>
	<rect x="-101.521" y="-269.215" fill="none" width="408.779" height="226.133"/>
</g>
</svg>
