<?xml version="1.0" encoding="utf-8"?>
<!-- Generator: Adobe Illustrator 15.1.0, SVG Export Plug-In . SVG Version: 6.00 Build 0)  -->
<!DOCTYPE svg PUBLIC "-//W3C//DTD SVG 1.1//EN" "http://www.w3.org/Graphics/SVG/1.1/DTD/svg11.dtd">
<svg version="1.1" id="Layer_1" xmlns="http://www.w3.org/2000/svg" xmlns:xlink="http://www.w3.org/1999/xlink" x="0px" y="0px"
	 width="41.176px" height="40.151px" viewBox="241.935 132.227 41.176 40.151"
	 enable-background="new 241.935 132.227 41.176 40.151" xml:space="preserve">
<g>
	<g>
		<g>
			<path fill="#231F20" d="M246.587,163.785l-0.748,0.413c-0.142-0.147-0.281-0.249-0.417-0.308
				c-0.138-0.056-0.299-0.085-0.483-0.085c-0.336,0-0.608,0.1-0.816,0.3c-0.207,0.202-0.312,0.456-0.312,0.771
				c0,0.306,0.101,0.553,0.301,0.746c0.199,0.193,0.463,0.29,0.789,0.29c0.401,0,0.714-0.138,0.939-0.412l0.708,0.486
				c-0.386,0.499-0.926,0.749-1.627,0.749c-0.63,0-1.124-0.187-1.481-0.56c-0.355-0.373-0.534-0.81-0.534-1.312
				c0-0.345,0.086-0.664,0.26-0.957c0.172-0.292,0.416-0.521,0.727-0.688c0.311-0.168,0.658-0.251,1.042-0.251
				c0.357,0,0.675,0.07,0.958,0.212C246.176,163.321,246.407,163.523,246.587,163.785z"/>
		</g>
		<g>
			<path fill="#231F20" d="M250.083,163.061h0.898v3.584h-0.898v-0.38c-0.176,0.168-0.352,0.288-0.529,0.362
				c-0.174,0.072-0.367,0.109-0.573,0.109c-0.463,0-0.864-0.18-1.2-0.539c-0.338-0.359-0.506-0.805-0.506-1.339
				c0-0.553,0.161-1.006,0.488-1.36c0.326-0.354,0.723-0.531,1.191-0.531c0.213,0,0.415,0.041,0.604,0.123
				c0.188,0.082,0.362,0.204,0.523,0.365L250.083,163.061L250.083,163.061z M249.137,163.798c-0.277,0-0.508,0.098-0.691,0.294
				c-0.186,0.197-0.275,0.449-0.275,0.757c0,0.31,0.092,0.562,0.281,0.764c0.186,0.201,0.416,0.299,0.689,0.299
				c0.283,0,0.517-0.097,0.702-0.295c0.186-0.196,0.28-0.453,0.28-0.773c0-0.309-0.094-0.564-0.28-0.756
				C249.657,163.895,249.422,163.798,249.137,163.798z"/>
		</g>
		<g>
			<path fill="#231F20" d="M251.93,163.061h0.9v0.367c0.204-0.173,0.388-0.292,0.554-0.358c0.164-0.067,0.334-0.101,0.508-0.101
				c0.356,0,0.658,0.124,0.905,0.371c0.209,0.21,0.314,0.523,0.314,0.935v2.37h-0.89v-1.57c0-0.428-0.019-0.71-0.058-0.852
				c-0.036-0.142-0.105-0.248-0.2-0.32s-0.211-0.112-0.354-0.112c-0.182,0-0.337,0.062-0.467,0.184
				c-0.131,0.121-0.222,0.291-0.272,0.504c-0.025,0.114-0.039,0.356-0.039,0.729v1.438h-0.9V163.061L251.93,163.061z"/>
		</g>
		<g>
			<path fill="#231F20" d="M258.663,163.061h0.898v3.584h-0.898v-0.38c-0.177,0.168-0.353,0.288-0.528,0.362
				c-0.175,0.072-0.368,0.109-0.573,0.109c-0.466,0-0.863-0.18-1.203-0.539c-0.336-0.359-0.508-0.805-0.508-1.339
				c0-0.553,0.165-1.006,0.491-1.36c0.328-0.354,0.724-0.531,1.192-0.531c0.216,0,0.416,0.041,0.605,0.123
				c0.187,0.082,0.362,0.204,0.523,0.365L258.663,163.061L258.663,163.061z M257.717,163.798c-0.278,0-0.509,0.098-0.694,0.294
				c-0.185,0.197-0.276,0.449-0.276,0.757c0,0.31,0.096,0.562,0.281,0.764c0.188,0.201,0.418,0.299,0.692,0.299
				c0.282,0,0.516-0.097,0.701-0.295c0.186-0.196,0.28-0.453,0.28-0.773c0-0.309-0.095-0.564-0.28-0.756
				C258.237,163.895,258.002,163.798,257.717,163.798z"/>
		</g>
		<g>
			<path fill="#231F20" d="M260.412,161.677h0.9v4.967h-0.9V161.677z"/>
		</g>
		<g>
			<path fill="#231F20" d="M267.603,163.785l-0.748,0.413c-0.142-0.147-0.281-0.249-0.417-0.308
				c-0.138-0.056-0.299-0.085-0.483-0.085c-0.338,0-0.608,0.1-0.815,0.3c-0.209,0.202-0.313,0.456-0.313,0.771
				c0,0.306,0.099,0.553,0.3,0.746c0.2,0.193,0.461,0.29,0.787,0.29c0.403,0,0.716-0.138,0.94-0.412l0.707,0.486
				c-0.383,0.499-0.924,0.749-1.626,0.749c-0.627,0-1.123-0.187-1.479-0.56c-0.357-0.373-0.536-0.81-0.536-1.312
				c0-0.345,0.087-0.664,0.26-0.957c0.173-0.292,0.416-0.521,0.725-0.688c0.314-0.168,0.661-0.251,1.042-0.251
				c0.356,0,0.675,0.07,0.959,0.212C267.19,163.321,267.422,163.523,267.603,163.785z"/>
		</g>
		<g>
			<path fill="#231F20" d="M268.803,161.586c0.159,0,0.293,0.056,0.406,0.17c0.114,0.115,0.171,0.254,0.171,0.416
				c0,0.162-0.056,0.297-0.171,0.41c-0.109,0.113-0.245,0.17-0.398,0.17c-0.159,0-0.295-0.058-0.409-0.173
				c-0.113-0.115-0.17-0.254-0.17-0.421c0-0.156,0.056-0.292,0.168-0.403C268.511,161.644,268.646,161.586,268.803,161.586z
				 M268.354,163.061h0.9v3.584h-0.9V163.061z"/>
		</g>
		<g>
			<path fill="#231F20" d="M270.111,163.061h0.898v0.367c0.205-0.173,0.389-0.292,0.553-0.358c0.167-0.067,0.336-0.101,0.508-0.101
				c0.354,0,0.657,0.124,0.904,0.371c0.208,0.21,0.313,0.523,0.313,0.935v2.37h-0.889v-1.57c0-0.428-0.02-0.71-0.059-0.852
				c-0.037-0.142-0.103-0.248-0.2-0.32c-0.095-0.073-0.212-0.112-0.354-0.112c-0.181,0-0.338,0.062-0.469,0.184
				c-0.13,0.121-0.218,0.291-0.271,0.504c-0.026,0.114-0.039,0.356-0.039,0.729v1.438h-0.898L270.111,163.061L270.111,163.061z"/>
		</g>
		<g>
			<path fill="#231F20" d="M277.705,163.785l-0.75,0.413c-0.139-0.147-0.28-0.249-0.416-0.308c-0.138-0.056-0.298-0.085-0.483-0.085
				c-0.337,0-0.608,0.1-0.816,0.3c-0.207,0.202-0.311,0.456-0.311,0.771c0,0.306,0.101,0.553,0.3,0.746
				c0.198,0.193,0.461,0.29,0.787,0.29c0.404,0,0.716-0.138,0.939-0.412l0.709,0.486c-0.385,0.499-0.925,0.749-1.626,0.749
				c-0.628,0-1.123-0.187-1.481-0.56c-0.356-0.373-0.534-0.81-0.534-1.312c0-0.345,0.086-0.664,0.259-0.957
				c0.174-0.292,0.416-0.521,0.728-0.688c0.31-0.168,0.659-0.251,1.041-0.251c0.356,0,0.676,0.07,0.959,0.212
				S277.526,163.523,277.705,163.785z"/>
		</g>
		<g>
			<path fill="#231F20" d="M280.239,162.968c0.337,0,0.656,0.085,0.953,0.254c0.297,0.167,0.53,0.396,0.697,0.687
				c0.168,0.291,0.251,0.603,0.251,0.94c0,0.335-0.084,0.653-0.251,0.946c-0.169,0.295-0.399,0.526-0.688,0.691
				c-0.292,0.167-0.61,0.249-0.958,0.249c-0.513,0-0.953-0.184-1.315-0.549c-0.365-0.366-0.546-0.809-0.546-1.332
				c0-0.559,0.205-1.026,0.617-1.398C279.357,163.129,279.772,162.968,280.239,162.968z M280.253,163.814
				c-0.279,0-0.511,0.097-0.696,0.292c-0.188,0.194-0.28,0.441-0.28,0.746c0,0.313,0.093,0.564,0.276,0.757
				c0.185,0.194,0.416,0.291,0.697,0.291c0.283,0,0.516-0.099,0.703-0.293c0.188-0.195,0.28-0.447,0.28-0.755
				c0-0.306-0.09-0.555-0.274-0.748C280.774,163.911,280.54,163.814,280.253,163.814z"/>
		</g>
		<g>
			<path fill="#6D6E70" d="M245.769,169.196l-0.211,0.161c-0.117-0.153-0.253-0.266-0.417-0.345
				c-0.162-0.078-0.339-0.116-0.533-0.116c-0.213,0-0.413,0.051-0.592,0.153c-0.18,0.103-0.32,0.239-0.421,0.411
				c-0.098,0.172-0.148,0.365-0.148,0.58c0,0.326,0.111,0.597,0.334,0.814c0.221,0.217,0.503,0.325,0.843,0.325
				c0.374,0,0.687-0.146,0.936-0.438l0.211,0.159c-0.133,0.168-0.299,0.301-0.497,0.395c-0.201,0.091-0.421,0.136-0.665,0.136
				c-0.467,0-0.835-0.154-1.104-0.465c-0.226-0.264-0.339-0.579-0.339-0.948c0-0.391,0.138-0.72,0.41-0.987
				c0.274-0.265,0.616-0.397,1.029-0.397c0.248,0,0.472,0.05,0.672,0.148C245.477,168.878,245.642,169.018,245.769,169.196z"/>
		</g>
		<g>
			<path fill="#6D6E70" d="M247.484,168.701l1.243,2.662h-0.286l-0.42-0.875h-1.148l-0.416,0.875h-0.297l1.262-2.662H247.484z
				 M247.45,169.267l-0.457,0.965h0.911L247.45,169.267z"/>
		</g>
		<g>
			<path fill="#6D6E70" d="M249.234,171.364v-2.663h0.056l1.775,2.042v-2.042h0.262v2.663h-0.059l-1.759-2.018v2.018H249.234z"/>
		</g>
		<g>
			<path fill="#6D6E70" d="M253.157,168.701l1.241,2.662h-0.287l-0.418-0.875h-1.147l-0.417,0.875h-0.295l1.259-2.662H253.157z
				 M253.124,169.267l-0.456,0.965h0.91L253.124,169.267z"/>
		</g>
		<g>
			<path fill="#6D6E70" d="M254.904,168.701h0.267v2.406h1.025v0.256h-1.292V168.701z"/>
		</g>
		<g>
			<path fill="#6D6E70" d="M259.33,168.701v0.252h-0.944l-0.133,0.727c0.115-0.033,0.219-0.052,0.313-0.052
				c0.243,0,0.442,0.081,0.6,0.244c0.157,0.164,0.235,0.371,0.235,0.624c0,0.175-0.039,0.336-0.12,0.482
				c-0.082,0.145-0.191,0.256-0.329,0.334c-0.137,0.079-0.298,0.117-0.478,0.117c-0.216,0-0.398-0.065-0.547-0.198
				c-0.149-0.131-0.239-0.302-0.267-0.512h0.274c0.02,0.102,0.056,0.186,0.103,0.249c0.05,0.063,0.115,0.115,0.196,0.156
				c0.083,0.039,0.167,0.058,0.256,0.058c0.175,0,0.325-0.065,0.451-0.198s0.189-0.299,0.189-0.499c0-0.178-0.056-0.325-0.17-0.437
				c-0.115-0.113-0.265-0.17-0.455-0.17c-0.16,0-0.349,0.05-0.572,0.145l0.246-1.324h1.153V168.701z"/>
		</g>
		<g>
			<path fill="#6D6E70" d="M261.061,168.701h0.265v2.662h-0.265V168.701z"/>
		</g>
		<g>
			<path fill="#6D6E70" d="M263.163,168.701h0.532c0.295,0,0.495,0.01,0.601,0.035c0.157,0.035,0.286,0.115,0.385,0.234
				c0.1,0.119,0.148,0.267,0.148,0.439c0,0.144-0.033,0.273-0.102,0.382c-0.069,0.11-0.167,0.193-0.292,0.25
				c-0.127,0.056-0.302,0.085-0.527,0.086l0.958,1.236h-0.328l-0.959-1.236h-0.15v1.236h-0.267L263.163,168.701L263.163,168.701z
				 M263.43,168.96v0.905l0.459,0.006c0.178,0,0.309-0.018,0.395-0.052c0.085-0.036,0.152-0.089,0.2-0.163
				c0.048-0.074,0.071-0.158,0.071-0.249c0-0.088-0.023-0.17-0.071-0.245c-0.049-0.072-0.113-0.124-0.192-0.155
				c-0.078-0.032-0.207-0.048-0.393-0.048L263.43,168.96L263.43,168.96z"/>
		</g>
		<g>
			<path fill="#6D6E70" d="M266.76,168.633c0.405,0,0.742,0.134,1.015,0.402c0.271,0.27,0.407,0.602,0.407,0.995
				c0,0.391-0.135,0.722-0.407,0.994c-0.271,0.272-0.601,0.407-0.992,0.407c-0.395,0-0.729-0.135-1-0.405
				c-0.271-0.271-0.408-0.598-0.408-0.982c0-0.256,0.061-0.493,0.186-0.712c0.124-0.217,0.293-0.389,0.507-0.512
				C266.282,168.697,266.514,168.633,266.76,168.633z M266.773,168.892c-0.198,0-0.384,0.052-0.559,0.153
				c-0.179,0.103-0.317,0.243-0.414,0.416c-0.101,0.175-0.151,0.369-0.151,0.582c0,0.319,0.11,0.585,0.329,0.803
				c0.22,0.218,0.486,0.327,0.794,0.327c0.207,0,0.397-0.05,0.575-0.15c0.177-0.101,0.313-0.237,0.412-0.41
				c0.099-0.175,0.148-0.368,0.148-0.582c0-0.212-0.049-0.403-0.148-0.573c-0.099-0.171-0.238-0.31-0.417-0.413
				C267.165,168.943,266.975,168.892,266.773,168.892z"/>
		</g>
		<g>
			<path fill="#6D6E70" d="M268.534,170.869l0.226-0.137c0.16,0.294,0.346,0.44,0.552,0.44c0.091,0,0.174-0.021,0.252-0.064
				c0.079-0.041,0.138-0.095,0.18-0.168c0.041-0.067,0.06-0.143,0.06-0.221c0-0.089-0.03-0.177-0.09-0.264
				c-0.083-0.119-0.238-0.26-0.456-0.426c-0.223-0.17-0.361-0.29-0.416-0.364c-0.095-0.126-0.142-0.262-0.142-0.408
				c0-0.115,0.028-0.222,0.083-0.317c0.057-0.095,0.135-0.17,0.236-0.224c0.1-0.057,0.21-0.084,0.329-0.084
				c0.125,0,0.244,0.03,0.352,0.094c0.11,0.06,0.225,0.175,0.348,0.341l-0.218,0.167c-0.1-0.132-0.185-0.221-0.255-0.261
				c-0.072-0.044-0.148-0.065-0.231-0.065c-0.108,0-0.195,0.034-0.263,0.099c-0.067,0.065-0.103,0.145-0.103,0.241
				c0,0.058,0.013,0.113,0.035,0.17c0.024,0.053,0.069,0.113,0.132,0.176c0.037,0.034,0.15,0.121,0.345,0.265
				c0.232,0.171,0.39,0.321,0.476,0.455c0.084,0.132,0.127,0.267,0.127,0.401c0,0.193-0.075,0.36-0.219,0.504
				c-0.148,0.142-0.325,0.212-0.537,0.212c-0.163,0-0.307-0.043-0.439-0.13C268.768,171.215,268.646,171.071,268.534,170.869z"/>
		</g>
		<g>
			<path fill="#6D6E70" d="M271.839,168.701l1.241,2.662h-0.287l-0.418-0.875h-1.148l-0.416,0.875h-0.297l1.259-2.662H271.839z
				 M271.804,169.267l-0.455,0.965h0.911L271.804,169.267z"/>
		</g>
		<g>
			<path fill="#6D6E70" d="M273.6,168.701h0.532c0.296,0,0.495,0.01,0.602,0.035c0.157,0.035,0.286,0.115,0.385,0.234
				c0.098,0.119,0.149,0.267,0.149,0.439c0,0.144-0.036,0.273-0.103,0.382c-0.067,0.11-0.166,0.193-0.292,0.25
				c-0.127,0.056-0.302,0.085-0.524,0.086l0.958,1.236h-0.328l-0.961-1.236h-0.15v1.236H273.6V168.701L273.6,168.701z
				 M273.867,168.96v0.905l0.46,0.006c0.177,0,0.309-0.018,0.395-0.052c0.084-0.036,0.151-0.089,0.2-0.163
				c0.048-0.074,0.07-0.158,0.07-0.249c0-0.088-0.022-0.17-0.072-0.245c-0.048-0.072-0.111-0.124-0.189-0.155
				c-0.079-0.032-0.209-0.048-0.392-0.048L273.867,168.96L273.867,168.96z"/>
		</g>
		<g>
			<path fill="#6D6E70" d="M275.891,168.701h0.269v2.662h-0.269V168.701z"/>
		</g>
		<g>
			<path fill="#6D6E70" d="M278.129,168.633c0.405,0,0.741,0.134,1.014,0.402c0.272,0.27,0.408,0.602,0.408,0.995
				c0,0.391-0.136,0.722-0.407,0.994c-0.272,0.272-0.603,0.407-0.993,0.407c-0.397,0-0.729-0.135-1-0.405
				c-0.272-0.271-0.407-0.598-0.407-0.982c0-0.256,0.06-0.493,0.184-0.712c0.124-0.217,0.292-0.389,0.506-0.512
				C277.65,168.695,277.882,168.633,278.129,168.633z M278.144,168.892c-0.198,0-0.386,0.052-0.563,0.153
				c-0.177,0.103-0.314,0.243-0.414,0.416c-0.099,0.175-0.15,0.369-0.15,0.582c0,0.319,0.111,0.585,0.331,0.803
				c0.219,0.218,0.485,0.327,0.796,0.327c0.205,0,0.396-0.05,0.573-0.15c0.175-0.101,0.313-0.237,0.41-0.41
				c0.099-0.175,0.148-0.368,0.148-0.582c0-0.212-0.05-0.403-0.148-0.573c-0.098-0.171-0.237-0.31-0.416-0.413
				C278.533,168.943,278.344,168.892,278.144,168.892z"/>
		</g>
	</g>
	<g>
		<g>
			<g>
				<path fill="#979797" d="M262.521,136.176c-5.543,0-10.038,4.491-10.038,10.037c0,5.544,4.495,10.036,10.038,10.036
					c5.542,0,10.036-4.492,10.036-10.036C272.557,140.667,268.061,136.176,262.521,136.176z M266.373,151.587
					c-0.948,1.285-2.259,1.924-3.941,1.924c-1.342,0-2.437-0.361-3.286-1.082c-0.849-0.724-1.352-1.69-1.517-2.907l2.776-0.29
					c0.081,0.629,0.315,1.128,0.707,1.493c0.389,0.368,0.84,0.551,1.349,0.551c0.583,0,1.076-0.235,1.478-0.707
					c0.405-0.474,0.608-1.189,0.608-2.142c0-0.891-0.2-1.562-0.604-2.011c-0.399-0.444-0.919-0.669-1.562-0.669
					c-0.799,0-1.517,0.356-2.152,1.064l-2.262-0.33l1.428-7.573h7.373v2.611h-5.257l-0.438,2.473
					c0.624-0.313,1.258-0.468,1.906-0.468c1.236,0,2.288,0.449,3.147,1.351c0.86,0.898,1.289,2.068,1.289,3.501
					C267.412,149.578,267.063,150.646,266.373,151.587z"/>
			</g>
		</g>
		<g>
			<path fill="#46B449" d="M261.51,159.25c-0.019,0-0.039,0-0.06-0.003c-6.295-0.496-11.329-5.414-11.965-11.691
				c-0.042-0.411,0.254-0.777,0.666-0.818c0.402-0.038,0.778,0.254,0.819,0.667c0.565,5.559,5.025,9.914,10.598,10.354
				c0.413,0.031,0.718,0.392,0.687,0.804C262.222,158.953,261.896,159.25,261.51,159.25z"/>
		</g>
		<g>
			<path fill="#C3282B" d="M263.745,159.223c-0.379,0-0.702-0.288-0.743-0.671c-0.04-0.412,0.256-0.777,0.667-0.818
				c5.93-0.6,10.399-5.552,10.399-11.518c0-5.934-4.445-10.884-10.336-11.513c-0.411-0.043-0.705-0.412-0.663-0.822
				c0.043-0.41,0.422-0.703,0.821-0.663c6.656,0.71,11.672,6.299,11.672,13c0,6.737-5.048,12.327-11.741,13.004
				C263.795,159.221,263.77,159.223,263.745,159.223z"/>
		</g>
		<g>
			<path fill="#3A4FA1" d="M250.244,145.536c-0.027,0-0.058-0.001-0.088-0.005c-0.407-0.047-0.703-0.417-0.656-0.828
				c0.716-6.198,5.75-11.045,11.979-11.521c0.397-0.064,0.768,0.276,0.802,0.687c0.03,0.413-0.276,0.771-0.688,0.803
				c-5.516,0.423-9.975,4.714-10.609,10.207C250.942,145.255,250.617,145.536,250.244,145.536z"/>
		</g>
	</g>
</g>
</svg>
