<?xml version="1.0" encoding="utf-8"?>
<!-- Generator: Adobe Illustrator 15.1.0, SVG Export Plug-In . SVG Version: 6.00 Build 0)  -->
<!DOCTYPE svg PUBLIC "-//W3C//DTD SVG 1.1//EN" "http://www.w3.org/Graphics/SVG/1.1/DTD/svg11.dtd">
<svg version="1.1" id="Capa_1" xmlns="http://www.w3.org/2000/svg" xmlns:xlink="http://www.w3.org/1999/xlink" x="0px" y="0px"
	 width="225.18px" height="225.179px" viewBox="-272.24 0.95 225.18 225.179" enable-background="new -272.24 0.95 225.18 225.179"
	 xml:space="preserve">
<rect x="-751.267" y="10.106" fill="none" width="408.778" height="226.134"/>
<g>
	<g>
		<g>
			<defs>
				<rect id="SVGID_1_" x="-262.58" y="0.473" width="205.859" height="226.133"/>
			</defs>
			<clipPath id="SVGID_2_">
				<use xlink:href="#SVGID_1_"  overflow="visible"/>
			</clipPath>
			<g clip-path="url(#SVGID_2_)">
				<g>
					<g>
						<defs>
							<path id="SVGID_3_" d="M-93.9,79.294c-3.729,0-11.959,0.989-11.963,11.533c-0.008,8.846,9.07,10.538,18.176,13.643
								c2.744,0.936,5.48,1.915,7.992,3.207l-7.643-18.422l2.352-5.647c-1.633-2.838-4.434-4.313-8.893-4.313
								C-93.885,79.294-93.89,79.294-93.9,79.294"/>
						</defs>
						<clipPath id="SVGID_4_">
							<use xlink:href="#SVGID_3_"  overflow="visible"/>
						</clipPath>
						
							<radialGradient id="SVGID_5_" cx="-504.5056" cy="23.5356" r="0.8532" gradientTransform="matrix(116.4818 -48.2066 -48.2066 -116.4818 59715.5313 -21464.9766)" gradientUnits="userSpaceOnUse">
							<stop  offset="0" style="stop-color:#4694D0"/>
							<stop  offset="1" style="stop-color:#1E295B"/>
						</radialGradient>
						<polygon clip-path="url(#SVGID_4_)" fill="url(#SVGID_5_)" points="-102.042,116.925 -69.667,103.526 -83.523,70.046 
							-115.898,83.445 						"/>
					</g>
					<g>
						<g>
							<defs>
								<polygon id="SVGID_6_" points="-230.819,89.219 -245.683,125.069 -223.51,134.274 -223.479,57.87 -243.778,57.864 								
									"/>
							</defs>
							<clipPath id="SVGID_7_">
								<use xlink:href="#SVGID_6_"  overflow="visible"/>
							</clipPath>
							
								<radialGradient id="SVGID_8_" cx="-504.5037" cy="23.5244" r="0.854" gradientTransform="matrix(116.43 -48.1852 -48.1852 -116.43 59688.0508 -21456.3223)" gradientUnits="userSpaceOnUse">
								<stop  offset="0" style="stop-color:#4694D0"/>
								<stop  offset="1" style="stop-color:#1E295B"/>
							</radialGradient>
							<polygon clip-path="url(#SVGID_7_)" fill="url(#SVGID_8_)" points="-242.436,142.12 -196.481,123.101 -226.726,50.018 
								-272.682,69.037 							"/>
						</g>
						<g>
							<g>
								<defs>
									<path id="SVGID_9_" d="M-172.356,110.641c0.005-18.867,3.593-40.668,26.341-40.662
										c22.597,0.007,24.648,20.143,24.646,36.303l-0.006,4.789l-38.856-0.012c-0.003,11.529-0.006,28.977,14.19,28.977
										c11.03,0.002,12.543-11.809,12.543-17.442l11.576,0.006c0,8.024-4.683,26.724-24.806,26.716
										C-164.782,149.315-172.367,136.517-172.356,110.641 M-191.699,83.202c3.314-7.173,7.727-13.233,15.996-13.233
										c2.351,0.005,3.993,0.298,5.118,0.855l-0.002,11.529c-1.123-0.128-2.509-0.554-6.212-0.559
										c-5.799,0-15.164,5.346-15.165,17.857l-0.021,47.696l-11.575-0.003l0.025-75.407l11.576,0.003l-0.003,11.262H-191.699z
										 M-209.785,38.486l-20.329,8.403l43.558,0.015v10.98l-24.788-0.009l-0.021,81.424l1.56,0.644l14.837,35.879l35.865-14.857
										l35.896,14.877l12.862-31.053c-8.354-6.114-8.485-16.836-8.485-22.188l11.576,0.007c0,6.021,1.063,11.668,5.022,14.827
										l20.973-8.679c0.027-0.386,0.044-0.791,0.044-1.222c0.002-10.11-9.095-12.244-18.054-15.34
										c-8.957-3.085-18.188-5.765-18.186-21.37c0.002-14.072,10.752-20.83,23.582-20.83c5.819,0.005,10.121,1.129,13.317,2.938
										l8.109-19.541l-35.865-14.878L-123.159,2.63l-35.889,14.841l-35.875-14.867L-209.785,38.486z"/>
								</defs>
								<clipPath id="SVGID_10_">
									<use xlink:href="#SVGID_9_"  overflow="visible"/>
								</clipPath>
								
									<radialGradient id="SVGID_11_" cx="-504.5051" cy="23.5347" r="0.8537" gradientTransform="matrix(116.5598 -48.2384 -48.2384 -116.5598 59755.3555 -21479.2051)" gradientUnits="userSpaceOnUse">
									<stop  offset="0" style="stop-color:#4694D0"/>
									<stop  offset="1" style="stop-color:#1E295B"/>
								</radialGradient>
								<polygon clip-path="url(#SVGID_10_)" fill="url(#SVGID_11_)" points="-207.059,231.549 -11.237,150.508 -95.503,-53.105 
									-291.324,27.936 								"/>
							</g>
							<g>
								<g>
									<defs>
										<path id="SVGID_12_" d="M-159.802,98.962v2.82l26.311,0.009l0.002-4.087c0-8.439-2.609-18.423-12.812-18.428
											C-158.419,79.271-159.802,94.473-159.802,98.962"/>
									</defs>
									<clipPath id="SVGID_13_">
										<use xlink:href="#SVGID_12_"  overflow="visible"/>
									</clipPath>
									
										<radialGradient id="SVGID_14_" cx="-504.4993" cy="23.5332" r="0.855" gradientTransform="matrix(116.6305 -48.268 -48.268 -116.6305 59790.8125 -21492.1777)" gradientUnits="userSpaceOnUse">
										<stop  offset="0" style="stop-color:#4694D0"/>
										<stop  offset="1" style="stop-color:#1E295B"/>
									</radialGradient>
									<polygon clip-path="url(#SVGID_13_)" fill="url(#SVGID_14_)" points="-155.953,111.088 -125.532,98.497 -137.337,69.973 
										-167.758,82.563 									"/>
								</g>
								<g>
									<g>
										<defs>
											<rect id="SVGID_15_" x="-516.126" y="-147.226" width="718.279" height="507.876"/>
										</defs>
										<defs>
											<rect id="SVGID_16_" x="-516.126" y="-147.226" width="718.279" height="507.876"/>
										</defs>
										<defs>
											<rect id="SVGID_17_" x="-516.126" y="-147.226" width="718.279" height="507.876"/>
										</defs>
										<defs>
											<rect id="SVGID_18_" x="-516.126" y="-147.226" width="718.279" height="507.876"/>
										</defs>
										<defs>
											<rect id="SVGID_19_" x="-516.126" y="-147.226" width="718.279" height="507.876"/>
										</defs>
										<defs>
											<rect id="SVGID_20_" x="-516.126" y="-147.226" width="718.279" height="507.876"/>
										</defs>
										<defs>
											<rect id="SVGID_21_" x="-516.126" y="-147.226" width="718.279" height="507.876"/>
										</defs>
										<defs>
											<rect id="SVGID_22_" x="-516.126" y="-147.226" width="718.279" height="507.876"/>
										</defs>
										<defs>
											<rect id="SVGID_23_" x="-516.126" y="-147.226" width="718.279" height="507.876"/>
										</defs>
										<defs>
											<rect id="SVGID_24_" x="-516.126" y="-147.226" width="718.279" height="507.876"/>
										</defs>
										<defs>
											<rect id="SVGID_25_" x="-516.126" y="-147.226" width="718.279" height="507.876"/>
										</defs>
										<defs>
											<rect id="SVGID_26_" x="-516.126" y="-147.226" width="718.279" height="507.876"/>
										</defs>
										<defs>
											<rect id="SVGID_27_" x="-516.126" y="-147.226" width="718.279" height="507.876"/>
										</defs>
										<defs>
											<rect id="SVGID_28_" x="-516.126" y="-147.226" width="718.279" height="507.876"/>
										</defs>
										<defs>
											<rect id="SVGID_29_" x="-516.126" y="-147.226" width="718.279" height="507.876"/>
										</defs>
										<defs>
											<rect id="SVGID_30_" x="-516.126" y="-147.226" width="718.279" height="507.876"/>
										</defs>
										<clipPath id="SVGID_31_">
											<use xlink:href="#SVGID_15_"  overflow="visible"/>
										</clipPath>
										<clipPath id="SVGID_32_" clip-path="url(#SVGID_31_)">
											<use xlink:href="#SVGID_16_"  overflow="visible"/>
										</clipPath>
										<clipPath id="SVGID_33_" clip-path="url(#SVGID_32_)">
											<use xlink:href="#SVGID_17_"  overflow="visible"/>
										</clipPath>
										<clipPath id="SVGID_34_" clip-path="url(#SVGID_33_)">
											<use xlink:href="#SVGID_18_"  overflow="visible"/>
										</clipPath>
										<clipPath id="SVGID_35_" clip-path="url(#SVGID_34_)">
											<use xlink:href="#SVGID_19_"  overflow="visible"/>
										</clipPath>
										<clipPath id="SVGID_36_" clip-path="url(#SVGID_35_)">
											<use xlink:href="#SVGID_20_"  overflow="visible"/>
										</clipPath>
										<clipPath id="SVGID_37_" clip-path="url(#SVGID_36_)">
											<use xlink:href="#SVGID_21_"  overflow="visible"/>
										</clipPath>
										<clipPath id="SVGID_38_" clip-path="url(#SVGID_37_)">
											<use xlink:href="#SVGID_22_"  overflow="visible"/>
										</clipPath>
										<clipPath id="SVGID_39_" clip-path="url(#SVGID_38_)">
											<use xlink:href="#SVGID_23_"  overflow="visible"/>
										</clipPath>
										<clipPath id="SVGID_40_" clip-path="url(#SVGID_39_)">
											<use xlink:href="#SVGID_24_"  overflow="visible"/>
										</clipPath>
										<clipPath id="SVGID_41_" clip-path="url(#SVGID_40_)">
											<use xlink:href="#SVGID_25_"  overflow="visible"/>
										</clipPath>
										<clipPath id="SVGID_42_" clip-path="url(#SVGID_41_)">
											<use xlink:href="#SVGID_26_"  overflow="visible"/>
										</clipPath>
										<clipPath id="SVGID_43_" clip-path="url(#SVGID_42_)">
											<use xlink:href="#SVGID_27_"  overflow="visible"/>
										</clipPath>
										<clipPath id="SVGID_44_" clip-path="url(#SVGID_43_)">
											<use xlink:href="#SVGID_28_"  overflow="visible"/>
										</clipPath>
										<clipPath id="SVGID_45_" clip-path="url(#SVGID_44_)">
											<use xlink:href="#SVGID_29_"  overflow="visible"/>
										</clipPath>
										<clipPath id="SVGID_46_" clip-path="url(#SVGID_45_)">
											<use xlink:href="#SVGID_30_"  overflow="visible"/>
										</clipPath>
										<path clip-path="url(#SVGID_46_)" fill="#120B15" d="M-244.095,215.63c-0.524,4.252-2.317,8.806-7.593,8.806
											c-6.715-0.002-8.243-6.792-8.243-13.036c0.001-6.242,1.533-13.023,8.25-13.023c5.449,0.008,6.995,4.554,7.182,7.633
											h-0.718c-0.22-3.896-2.168-6.993-6.434-6.996c-5.993,0-7.555,5.998-7.558,12.388c0,6.398,1.556,12.396,7.549,12.396
											c5.419,0.004,6.542-5.535,6.836-8.166L-244.095,215.63L-244.095,215.63z"/>
										<path clip-path="url(#SVGID_46_)" fill="#120B15" d="M-237.745,214.368c1.231-0.25,2.783-0.558,3.784-0.91
											c1.063-0.354,1.449-0.985,1.449-3.084c0-1.578-0.167-2.277-0.716-3c-0.612-0.803-1.805-1.365-3.146-1.365
											c-4.29,0-4.371,3.461-4.371,4.834h-0.717v-0.605c0-2.39,1.478-4.859,5.088-4.859c2.461,0,4.593,1.382,4.593,4.378
											l-0.005,11.968c0,1.376,0.465,1.697,1.088,1.657c0.172,0,0.465-0.039,0.713-0.081v0.646
											c-0.39,0.068-0.64,0.068-0.872,0.068c-0.93,0-1.659-0.354-1.659-2.372v-0.698h-0.067c-0.827,2.111-2.53,3.496-4.879,3.496
											c-3.034,0-4.731-2.019-4.729-5.188C-242.192,216.358-240.458,214.909-237.745,214.368 M-232.511,213.202
											c-0.572,0.676-1.734,1.069-4.876,1.67c-2.963,0.562-4.075,1.981-4.075,4.438c-0.001,3.07,1.803,4.489,4.105,4.489
											c1.954,0.003,4.84-1.633,4.845-6.452L-232.511,213.202L-232.511,213.202z"/>
										<path clip-path="url(#SVGID_46_)" fill="#120B15" d="M-228.013,205.806h0.716l-0.003,3.273h0.071
											c0.315-1.619,2.104-3.703,4.78-3.703c3.567,0,4.785,2.334,4.785,5.535l-0.002,13.104l-0.716-0.003l0.002-13.021
											c0-4.024-1.843-4.979-4.069-4.979c-1.596,0-4.852,1.191-4.852,6.376l-0.002,11.624h-0.717L-228.013,205.806z"/>
										<path clip-path="url(#SVGID_46_)" fill="#120B15" d="M-210.323,214.378c1.215-0.248,2.783-0.561,3.801-0.911
											c1.047-0.358,1.438-0.986,1.438-3.085c0-1.582-0.164-2.276-0.73-3c-0.603-0.801-1.799-1.362-3.146-1.362
											c-4.286-0.005-4.354,3.451-4.354,4.828h-0.729v-0.608c0-2.387,1.482-4.863,5.084-4.854c2.465,0,4.603,1.381,4.603,4.373
											l-0.006,11.971c0,1.373,0.474,1.7,1.089,1.661c0.171,0,0.458-0.043,0.715-0.085v0.648
											c-0.387,0.066-0.649,0.066-0.866,0.066c-0.938,0-1.659-0.354-1.659-2.374v-0.698h-0.071
											c-0.831,2.114-2.529,3.502-4.87,3.502c-3.035-0.006-4.74-2.02-4.735-5.199
											C-214.762,216.36-213.031,214.919-210.323,214.378 M-205.084,213.214c-0.573,0.667-1.731,1.063-4.881,1.666
											c-2.951,0.559-4.081,1.979-4.081,4.438c-0.007,3.074,1.798,4.49,4.11,4.49c1.954,0,4.849-1.637,4.852-6.452V213.214z"/>
										<rect x="-200.443" y="198.813" clip-path="url(#SVGID_46_)" fill="#120B15" width="0.709" height="25.209"/>
										<polygon clip-path="url(#SVGID_46_)" fill="#120B15" points="-187.818,224.025 -191.004,224.025 -190.995,201.563 
											-197.456,201.563 -197.456,198.817 -181.31,198.817 -181.31,201.571 -187.812,201.563 										"/>
										<path clip-path="url(#SVGID_46_)" fill="#120B15" d="M-181.704,205.098h3.042l-0.002,2.834h0.064
											c0.868-1.802,2.028-3.306,4.199-3.306c0.609,0,1.051,0.052,1.322,0.209l-0.003,2.882c-0.27-0.034-0.638-0.147-1.619-0.147
											c-1.508,0-3.964,1.353-3.964,4.496l-0.002,11.963h-3.042L-181.704,205.098z"/>
										<path clip-path="url(#SVGID_46_)" fill="#120B15" d="M-168.485,214.931c0,2.895-0.002,7.259,3.72,7.259
											c2.895,0,3.291-2.959,3.291-4.36h3.03c0,2.013-1.229,6.707-6.506,6.701c-4.729,0-6.709-3.215-6.706-9.709
											c0-4.744,0.951-10.193,6.9-10.188c5.918,0,6.46,5.042,6.46,9.086v1.219L-168.485,214.931z M-161.474,212.595v-1.031
											c0-2.111-0.682-4.619-3.365-4.625c-3.172,0-3.536,3.823-3.536,4.943v0.713H-161.474L-161.474,212.595z"/>
										<path clip-path="url(#SVGID_46_)" fill="#120B15" d="M-146.669,210.661c0-2.401-0.644-3.717-2.855-3.717
											c-0.961,0-3.143,0.243-3.143,2.899c0,2.228,2.397,2.649,4.77,3.417c2.354,0.788,4.736,1.597,4.736,5.342
											c-0.002,3.979-2.635,5.934-6.26,5.934c-6.565,0-6.646-4.771-6.646-6.707h3.047c0,2.291,0.64,4.362,3.599,4.362
											c0.979,0,3.229-0.448,3.231-3.132c0-2.545-2.393-3.08-4.731-3.852c-2.355-0.773-4.773-1.45-4.773-5.364
											c0.002-3.521,2.822-5.212,6.172-5.212c5.644,0.006,5.854,3.798,5.896,6.029H-146.669L-146.669,210.661z"/>
										<path clip-path="url(#SVGID_46_)" fill="#120B15" d="M-140.15,198.827h6.979c3.317,0.006,6.496,1.451,6.496,6.601
											c-0.003,3.75-2.037,5.944-5.181,6.294v0.063c4.078,0.422,4.926,2.715,4.996,7.004c0.063,3.724,0.104,4.123,0.605,5.254
											h-0.718c-0.399-0.814-0.479-1.131-0.61-5.332c-0.195-5.442-1.554-6.563-6.615-6.564h-5.248l-0.002,11.895h-0.711
											L-140.15,198.827z M-139.445,211.501h4.959c4.994,0.006,7.082-2.323,7.088-6.073c0-3.909-1.926-5.951-5.858-5.954h-6.185
											L-139.445,211.501z"/>
										<path clip-path="url(#SVGID_46_)" fill="#120B15" d="M-123.54,214.948c0-6.058,1.912-9.543,6.045-9.535
											c3.354,0,5.979,2.078,5.979,9.535c-0.004,7.439-2.631,9.528-5.989,9.528C-121.706,224.474-123.54,220.909-123.54,214.948
											 M-117.505,223.835c3.717,0,5.271-2.994,5.272-8.889c0-5.908-1.549-8.904-5.264-8.904c-3.002,0-5.316,2.084-5.316,8.904
											C-122.82,221.708-120.474,223.835-117.505,223.835"/>
										<path clip-path="url(#SVGID_46_)" fill="#120B15" d="M-109.273,218.896v-0.567h0.729v0.664
											c-0.002,2.563,0.93,4.847,4.399,4.847c3.215,0.003,4.383-2.366,4.386-4.345c0-5.869-9.158-3.256-9.158-9.707
											c0-1.189,0.668-2.436,1.17-2.965c1.004-1.065,2.207-1.41,3.606-1.41c3.646,0,4.634,2.664,4.634,4.934v0.496h-0.73v-0.598
											c0-2.469-1.115-4.193-3.93-4.193c-2.519,0-4.019,1.615-4.019,3.88c0,5.604,9.144,3.146,9.144,9.522
											c-0.002,2.648-1.736,5.025-5.023,5.025C-107.523,224.477-109.277,222.595-109.273,218.896"/>
										<path clip-path="url(#SVGID_46_)" fill="#120B15" d="M-92.65,214.409c1.223-0.246,2.787-0.556,3.801-0.904
											c1.05-0.359,1.435-0.986,1.435-3.086c0-1.586-0.179-2.281-0.717-3c-0.613-0.807-1.813-1.367-3.14-1.367
											c-4.311,0-4.379,3.457-4.379,4.83h-0.729v-0.605c0-2.393,1.5-4.854,5.108-4.854c2.447,0,4.586,1.382,4.586,4.371
											l-0.004,11.973c0,1.374,0.465,1.698,1.08,1.658c0.182,0,0.467-0.038,0.732-0.084v0.646
											c-0.402,0.067-0.652,0.067-0.877,0.067c-0.937,0-1.666-0.349-1.666-2.372v-0.697h-0.064
											c-0.838,2.112-2.535,3.499-4.877,3.499c-3.035-0.005-4.73-2.02-4.729-5.192C-97.089,216.397-95.357,214.948-92.65,214.409
											 M-87.415,213.245c-0.564,0.676-1.734,1.067-4.877,1.668c-2.961,0.56-4.088,1.978-4.088,4.438
											c-0.005,3.073,1.823,4.489,4.12,4.489c1.955,0,4.841-1.633,4.845-6.452V213.245L-87.415,213.245z"/>
										<path clip-path="url(#SVGID_46_)" fill="#120B15" d="M-82.925,205.85h0.717l-0.002,3.272h0.069
											c0.33-1.619,2.103-3.7,4.775-3.7h0.721v0.638h-0.721c-1.592,0-4.846,1.189-4.846,6.372l-0.002,11.623h-0.718
											L-82.925,205.85z"/>
										<path clip-path="url(#SVGID_46_)" fill="#120B15" d="M-74.769,198.849h0.73v3.457h-0.73V198.849z M-74.769,205.85h0.73
											l-0.006,18.205h-0.73L-74.769,205.85z"/>
										<path clip-path="url(#SVGID_46_)" fill="#120B15" d="M-70.708,214.958c0-6.058,1.912-9.53,6.045-9.53
											c3.34,0,5.979,2.081,5.979,9.537c0,7.438-2.645,9.524-5.987,9.524C-68.876,224.491-70.716,220.926-70.708,214.958
											 M-64.673,223.848c3.707,0,5.254-2.989,5.26-8.883c0-5.911-1.543-8.905-5.25-8.905c-3.023,0-5.34,2.087-5.34,8.898
											C-70.005,221.727-67.659,223.848-64.673,223.848"/>
									</g>
								</g>
							</g>
						</g>
					</g>
				</g>
			</g>
		</g>
	</g>
	<rect x="-271.74" y="1.45" fill="none" width="224.18" height="224.179"/>
</g>
</svg>
