<?xml version="1.0" encoding="utf-8"?>
<!-- Generator: Adobe Illustrator 15.1.0, SVG Export Plug-In . SVG Version: 6.00 Build 0)  -->
<!DOCTYPE svg PUBLIC "-//W3C//DTD SVG 1.1//EN" "http://www.w3.org/Graphics/SVG/1.1/DTD/svg11.dtd">
<svg version="1.1" id="Layer_1" xmlns="http://www.w3.org/2000/svg" xmlns:xlink="http://www.w3.org/1999/xlink" x="0px" y="0px"
	 width="235.889px" height="235.877px" viewBox="0 0 235.889 235.877" enable-background="new 0 0 235.889 235.877"
	 xml:space="preserve">
<g>
	<g>
		<path fill-rule="evenodd" clip-rule="evenodd" fill="#9F388D" d="M166.179,83.434l0.02,0.004L117.941,0L96.943,36.995
			l-38.058-21.56l0.062,43.557c-14.33,0-28.662,0-42.994,0l21.804,37.4l48.159-27.659c0,0,7.63-3.706,8.406-4.042
			c5.743-2.485,11.998-4.112,18.619-4.699C135.341,58.009,154.75,67.531,166.179,83.434z"/>
	</g>
	<g>
		<path fill-rule="evenodd" clip-rule="evenodd" fill="#E52330" d="M152.456,165.763l-0.004,0.019l83.438-48.256l-36.996-20.998
			l21.561-38.058l-43.559,0.062c0-14.33,0-28.662,0-42.994l-37.398,21.804L167.155,85.5c0,0,3.707,7.63,4.043,8.406
			c2.484,5.743,4.111,11.998,4.697,18.619C177.879,134.924,168.358,154.332,152.456,165.763z"/>
	</g>
	<g>
		<path fill-rule="evenodd" clip-rule="evenodd" fill="#F49925" d="M69.84,152.444l-0.019-0.004l48.255,83.437l20.997-36.995
			l38.059,21.56l-0.063-43.558c14.33,0,28.662,0,42.994,0l-21.803-37.398l-48.16,27.658c0,0-7.629,3.707-8.406,4.043
			c-5.742,2.484-11.998,4.111-18.619,4.697C100.679,177.868,81.271,168.347,69.84,152.444z"/>
	</g>
	<g>
		<path fill-rule="evenodd" clip-rule="evenodd" fill="#FCD626" d="M83.433,70.317l0.004-0.019L0,118.555l36.995,20.998
			l-21.56,38.057l43.558-0.061c0,14.33,0,28.662,0,42.994l37.399-21.805L68.734,150.58c0,0-3.708-7.631-4.043-8.406
			c-2.484-5.744-4.111-11.998-4.697-18.619C58.009,101.156,67.531,81.748,83.433,70.317z"/>
	</g>
</g>
</svg>
