<?xml version="1.0" encoding="utf-8"?>
<!-- Generator: Adobe Illustrator 15.1.0, SVG Export Plug-In . SVG Version: 6.00 Build 0)  -->
<!DOCTYPE svg PUBLIC "-//W3C//DTD SVG 1.1//EN" "http://www.w3.org/Graphics/SVG/1.1/DTD/svg11.dtd">
<svg version="1.1" id="Layer_1" xmlns="http://www.w3.org/2000/svg" xmlns:xlink="http://www.w3.org/1999/xlink" x="0px" y="0px"
	 width="33.72px" height="17.443px" viewBox="0 0 33.72 17.443" enable-background="new 0 0 33.72 17.443" xml:space="preserve">
<g>
	<g>
		<path fill="#E3E4E4" d="M22.529,9.334c0,0.929-0.754,1.683-1.684,1.683h-7.634c-0.93,0-1.685-0.754-1.685-1.683v-7.45
			c0-0.928,0.752-1.682,1.685-1.682h7.634c0.928,0,1.684,0.753,1.684,1.682V9.334z"/>
		<polygon fill="#FEEB3E" stroke="#231F20" stroke-width="0.0139" stroke-miterlimit="10" points="17.321,2.219 17.263,2.681 
			16.859,2.898 17.321,2.992 17.566,3.42 17.623,2.91 18.014,2.681 17.541,2.623 		"/>
		<polygon fill="#FEEB3E" stroke="#231F20" stroke-width="0.0139" stroke-miterlimit="10" points="16.816,3.006 16.758,3.468 
			16.355,3.687 16.816,3.78 17.061,4.207 17.117,3.699 17.508,3.468 17.037,3.409 		"/>
		<polygon fill="#FEEB3E" stroke="#231F20" stroke-width="0.0139" stroke-miterlimit="10" points="18.115,2.771 18.058,3.233 
			17.654,3.453 18.115,3.544 18.36,3.972 18.414,3.464 18.808,3.233 18.334,3.175 		"/>
		<polygon fill="#FEEB3E" stroke="#231F20" stroke-width="0.0139" stroke-miterlimit="10" points="18.902,3.325 18.843,3.788 
			18.441,4.006 18.902,4.099 19.146,4.527 19.202,4.018 19.596,3.788 19.121,3.729 		"/>
		<polygon fill="#FEEB3E" stroke="#231F20" stroke-width="0.0139" stroke-miterlimit="10" points="17.597,3.575 17.539,4.036 
			17.136,4.255 17.597,4.348 17.842,4.774 17.898,4.267 18.289,4.036 17.817,3.979 		"/>
		<polygon fill="#FEEB3E" stroke="#231F20" stroke-width="0.0139" stroke-miterlimit="10" points="17.059,4.366 17,4.828 
			16.596,5.048 17.059,5.14 17.302,5.567 17.36,5.06 17.751,4.828 17.279,4.771 		"/>
		<polygon fill="#FEEB3E" stroke="#231F20" stroke-width="0.0139" stroke-miterlimit="10" points="18.357,4.132 18.3,4.594 
			17.896,4.813 18.357,4.906 18.601,5.333 18.656,4.825 19.049,4.594 18.576,4.536 		"/>
		<polygon fill="#FEEB3E" stroke="#231F20" stroke-width="0.0139" stroke-miterlimit="10" points="17.86,4.935 17.802,5.397 
			17.397,5.616 17.86,5.708 18.103,6.135 18.159,5.627 18.552,5.397 18.078,5.339 		"/>
		<polygon fill="#FEEB3E" stroke="#231F20" stroke-width="0.0139" stroke-miterlimit="10" points="16.284,3.815 16.227,4.278 
			15.822,4.497 16.284,4.589 16.529,5.017 16.586,4.508 16.977,4.278 16.505,4.22 		"/>
		
			<linearGradient id="SVGID_1_" gradientUnits="userSpaceOnUse" x1="-154.0947" y1="-142.7065" x2="-150.2822" y2="-142.7065" gradientTransform="matrix(1 0 0 1 166.0151 147.3994)">
			<stop  offset="0" style="stop-color:#118241"/>
			<stop  offset="0.0916" style="stop-color:#278545"/>
			<stop  offset="0.2542" style="stop-color:#4A8E54"/>
			<stop  offset="0.4686" style="stop-color:#6F9D72"/>
			<stop  offset="0.7269" style="stop-color:#A2B9A1"/>
			<stop  offset="1" style="stop-color:#E2E3E3"/>
		</linearGradient>
		<path fill="url(#SVGID_1_)" d="M11.92,4.366v0.905c1.026,0.448,3.813-0.304,3.813-0.304l-0.271-0.995
			C14.148,4.416,11.92,4.366,11.92,4.366z"/>
		
			<linearGradient id="SVGID_2_" gradientUnits="userSpaceOnUse" x1="-375.3696" y1="-139.8921" x2="-372.793" y2="-139.8921" gradientTransform="matrix(-0.9988 0.0486 0.0486 0.9988 -345.8679 161.3669)">
			<stop  offset="0" style="stop-color:#118241"/>
			<stop  offset="0.0916" style="stop-color:#278545"/>
			<stop  offset="0.2542" style="stop-color:#4A8E54"/>
			<stop  offset="0.4686" style="stop-color:#6F9D72"/>
			<stop  offset="0.7269" style="stop-color:#A2B9A1"/>
			<stop  offset="1" style="stop-color:#E2E3E3"/>
		</linearGradient>
		<path fill="url(#SVGID_2_)" d="M22.22,2.748l0.043,0.902c-1,0.5-2.553,0.525-2.553,0.525l0.286-0.939
			C21.465,2.879,22.22,2.748,22.22,2.748z"/>
		<path fill="#0576B9" d="M17.405,10.683h-3.903c-0.874,0-1.581-0.708-1.581-1.579V5.009c2.016-0.007,3.765-0.205,3.765-0.205
			L17.405,10.683z"/>
		<path fill="#0576B9" d="M14.479,0.535h-0.979c-0.874,0-1.581,0.708-1.581,1.58V4.5c1.831,0.114,3.634-0.185,3.634-0.185
			C15.375,3.598,14.479,0.535,14.479,0.535z"/>
		<path fill="#0576B9" d="M17.893,10.683h2.771c0.873,0,1.581-0.708,1.581-1.579V3.42c-0.93,0.288-2.49,0.632-2.49,0.632
			L17.893,10.683z"/>
		<path fill="#0576B9" d="M22.245,2.72V2.114c0-0.872-0.709-1.58-1.581-1.58l-0.732,2.964C21.087,3.244,22.245,2.72,22.245,2.72z"/>
	</g>
	<g>
		<path fill="#231F20" d="M0.397,15.036l-0.005-2.402l0.488-0.001l0.003,1.994l1.219-0.004v0.408L0.397,15.036z"/>
		<path fill="#231F20" d="M4.638,15.023l-0.532,0.002l-0.213-0.548l-0.97,0.002l-0.197,0.552H2.204l0.94-2.428h0.515L4.638,15.023z
			 M3.735,14.07l-0.339-0.9l-0.324,0.9H3.735z"/>
		<path fill="#231F20" d="M4.896,15.023L4.89,12.601l0.787-0.003c0.301,0,0.491,0.012,0.583,0.035
			c0.139,0.036,0.255,0.116,0.348,0.238c0.095,0.12,0.142,0.276,0.142,0.471c0,0.148-0.027,0.272-0.081,0.376
			c-0.054,0.102-0.121,0.181-0.205,0.238s-0.167,0.096-0.254,0.115c-0.115,0.022-0.285,0.036-0.509,0.036H5.382l0.004,0.913
			L4.896,15.023z M5.38,13.008l0.002,0.689l0.268-0.001c0.191,0,0.322-0.013,0.387-0.038c0.065-0.026,0.115-0.064,0.151-0.12
			c0.038-0.055,0.057-0.118,0.057-0.188c-0.002-0.09-0.028-0.162-0.079-0.219c-0.052-0.056-0.115-0.094-0.196-0.107
			c-0.057-0.011-0.175-0.018-0.352-0.018L5.38,13.008L5.38,13.008z"/>
		<path fill="#231F20" d="M9.09,15.016H8.557l-0.214-0.551l-0.968,0.002l-0.2,0.552H6.658l0.938-2.426l0.518-0.001L9.09,15.016z
			 M8.186,14.057L7.85,13.161L7.526,14.06L8.186,14.057z"/>
		<path fill="#231F20" d="M10.898,14.119l0.473,0.15c-0.07,0.264-0.191,0.46-0.36,0.59c-0.169,0.126-0.384,0.193-0.643,0.193
			c-0.32,0.002-0.588-0.109-0.792-0.326c-0.21-0.22-0.312-0.521-0.314-0.902c0-0.403,0.103-0.716,0.31-0.94
			c0.208-0.224,0.481-0.334,0.821-0.336c0.297-0.002,0.539,0.086,0.722,0.26c0.112,0.104,0.195,0.251,0.252,0.445l-0.485,0.119
			c-0.03-0.127-0.089-0.226-0.182-0.298c-0.09-0.072-0.202-0.108-0.332-0.108c-0.178,0-0.326,0.064-0.436,0.195
			c-0.112,0.129-0.167,0.34-0.167,0.627c0.003,0.305,0.056,0.523,0.169,0.654c0.107,0.129,0.253,0.194,0.428,0.193
			c0.131,0,0.242-0.042,0.335-0.123C10.791,14.426,10.858,14.296,10.898,14.119z"/>
		<path fill="#231F20" d="M11.797,15.007l-0.007-2.422l0.487-0.004l0.003,0.955l0.96-0.002l-0.003-0.955h0.49l0.004,2.425
			l-0.488,0.001l-0.003-1.061h-0.959l0.004,1.063H11.797z"/>
		<path fill="#231F20" d="M14.138,13.802c0-0.244,0.035-0.452,0.109-0.618c0.055-0.124,0.13-0.236,0.223-0.335
			c0.095-0.098,0.199-0.171,0.314-0.217c0.149-0.067,0.323-0.099,0.52-0.099c0.357,0,0.643,0.108,0.859,0.328
			c0.215,0.222,0.321,0.53,0.323,0.924c0,0.394-0.104,0.697-0.316,0.919c-0.212,0.226-0.498,0.334-0.852,0.335
			c-0.36,0.001-0.647-0.107-0.861-0.327C14.246,14.493,14.141,14.191,14.138,13.802z M14.642,13.786
			c0.002,0.275,0.066,0.482,0.192,0.623c0.129,0.144,0.289,0.212,0.485,0.212c0.194,0,0.352-0.072,0.48-0.212
			c0.123-0.141,0.184-0.352,0.184-0.631s-0.061-0.486-0.183-0.622c-0.125-0.136-0.285-0.206-0.488-0.204
			c-0.199,0-0.361,0.07-0.486,0.209C14.704,13.297,14.642,13.508,14.642,13.786z"/>
		<path fill="#231F20" d="M19.364,14.098l0.474,0.148c-0.071,0.265-0.191,0.462-0.362,0.591c-0.168,0.128-0.382,0.193-0.639,0.193
			c-0.327,0-0.59-0.109-0.798-0.328c-0.208-0.22-0.311-0.519-0.312-0.9c-0.001-0.404,0.102-0.717,0.309-0.94
			c0.208-0.225,0.48-0.337,0.823-0.338c0.295,0,0.536,0.088,0.72,0.262c0.111,0.104,0.193,0.253,0.25,0.446l-0.483,0.116
			c-0.029-0.124-0.089-0.223-0.181-0.297c-0.091-0.071-0.201-0.109-0.332-0.109c-0.182,0.004-0.326,0.066-0.436,0.196
			c-0.111,0.13-0.167,0.34-0.167,0.628c0,0.306,0.058,0.522,0.168,0.655c0.111,0.129,0.253,0.193,0.428,0.193
			c0.131,0,0.242-0.042,0.335-0.124C19.257,14.405,19.323,14.274,19.364,14.098z"/>
		<path fill="#231F20" d="M22.448,14.981h-0.533l-0.213-0.551l-0.968,0.004l-0.198,0.549l-0.518,0.002l0.936-2.426l0.519-0.001
			L22.448,14.981z M21.545,14.024l-0.337-0.898l-0.325,0.899L21.545,14.024z"/>
		<path fill="#231F20" d="M22.712,14.979l-0.008-2.425h0.474l0.997,1.614l-0.004-1.617l0.454-0.001l0.006,2.424l-0.489,0.001
			l-0.981-1.579l0.003,1.583H22.712z"/>
		<path fill="#231F20" d="M27.339,14.967l-0.531,0.003l-0.215-0.552l-0.966,0.005l-0.201,0.551h-0.519l0.938-2.427l0.518-0.002
			L27.339,14.967z M26.437,14.01l-0.338-0.896l-0.325,0.898L26.437,14.01z"/>
		<path fill="#231F20" d="M27.611,14.967l-0.006-2.404h0.489l0.006,1.995l1.216-0.004l0.001,0.409L27.611,14.967z"/>
		<path fill="#231F20" d="M31.632,14.958h-0.466l-0.004-1.75c-0.169,0.159-0.367,0.276-0.598,0.353l-0.001-0.42
			c0.12-0.04,0.251-0.116,0.393-0.229c0.142-0.11,0.238-0.24,0.292-0.388h0.378L31.632,14.958z"/>
		<path fill="#231F20" d="M33.328,14.955h-0.462l-0.006-1.751c-0.171,0.158-0.369,0.276-0.601,0.353v-0.42
			c0.121-0.04,0.254-0.116,0.396-0.23c0.141-0.106,0.238-0.236,0.29-0.386h0.378L33.328,14.955z"/>
		<path fill="#231F20" d="M6.956,17.221l-0.005-1.23h0.846v0.206L7.2,16.201v0.288l0.513-0.002l0.004,0.21H7.2l0.002,0.522
			L6.956,17.221z"/>
		<path fill="#231F20" d="M7.953,16.611c-0.001-0.124,0.018-0.23,0.054-0.317c0.029-0.061,0.066-0.118,0.115-0.168
			c0.049-0.051,0.101-0.089,0.162-0.111c0.073-0.034,0.161-0.051,0.263-0.051c0.182,0,0.328,0.057,0.438,0.169
			c0.107,0.112,0.162,0.269,0.162,0.469s-0.051,0.355-0.161,0.466C8.88,17.181,8.734,17.24,8.555,17.24
			c-0.184,0-0.33-0.055-0.439-0.167C8.007,16.96,7.953,16.805,7.953,16.611z M8.209,16.603c0.001,0.139,0.032,0.244,0.1,0.314
			c0.062,0.072,0.145,0.11,0.245,0.107c0.099,0,0.181-0.035,0.243-0.107c0.062-0.07,0.093-0.177,0.093-0.322
			c0-0.142-0.029-0.244-0.091-0.314c-0.061-0.071-0.146-0.103-0.25-0.103c-0.102,0.002-0.184,0.034-0.248,0.106
			C8.238,16.355,8.209,16.46,8.209,16.603z"/>
		<path fill="#231F20" d="M9.345,17.217l-0.003-1.233h0.522c0.133-0.001,0.227,0.009,0.286,0.031
			c0.06,0.021,0.109,0.062,0.147,0.116c0.032,0.06,0.052,0.122,0.052,0.197c0,0.091-0.025,0.167-0.082,0.229
			c-0.055,0.059-0.132,0.098-0.244,0.112c0.057,0.031,0.101,0.067,0.137,0.104c0.035,0.038,0.083,0.104,0.142,0.202l0.151,0.238
			h-0.297l-0.183-0.268c-0.06-0.095-0.106-0.156-0.132-0.181c-0.022-0.024-0.048-0.042-0.075-0.052
			C9.742,16.706,9.699,16.7,9.641,16.7H9.592v0.516L9.345,17.217L9.345,17.217z M9.593,16.504h0.184
			c0.118,0,0.192-0.007,0.223-0.018c0.028-0.01,0.053-0.026,0.069-0.052c0.016-0.024,0.023-0.056,0.023-0.094
			c0-0.041-0.012-0.074-0.031-0.099c-0.021-0.026-0.056-0.042-0.095-0.048c-0.021-0.002-0.083-0.002-0.183-0.002H9.591L9.593,16.504
			L9.593,16.504z"/>
		<path fill="#231F20" d="M10.583,17.213l-0.005-1.232l0.373-0.001l0.226,0.839l0.22-0.839h0.372l0.005,1.231h-0.233l-0.001-0.971
			l-0.241,0.971l-0.241,0.002l-0.245-0.971l0.002,0.971H10.583z"/>
		<path fill="#231F20" d="M11.968,16.601c0-0.128,0.021-0.231,0.057-0.318c0.026-0.062,0.064-0.118,0.115-0.168
			c0.048-0.052,0.1-0.088,0.156-0.111c0.079-0.032,0.166-0.049,0.268-0.049c0.182,0,0.326,0.056,0.435,0.168
			c0.109,0.112,0.164,0.268,0.167,0.469c0,0.197-0.056,0.354-0.162,0.466c-0.11,0.114-0.255,0.173-0.434,0.173
			c-0.183,0-0.331-0.057-0.437-0.167C12.023,16.95,11.968,16.794,11.968,16.601z M12.226,16.592c0,0.141,0.033,0.244,0.099,0.314
			c0.063,0.072,0.146,0.11,0.244,0.11c0.101-0.002,0.183-0.04,0.247-0.11c0.061-0.071,0.093-0.178,0.093-0.321
			c0-0.141-0.033-0.246-0.093-0.314c-0.063-0.068-0.145-0.104-0.249-0.104c-0.103,0-0.184,0.036-0.247,0.104
			C12.256,16.342,12.225,16.451,12.226,16.592z"/>
		<path fill="#231F20" d="M13.295,16.805l0.244-0.025c0.016,0.084,0.045,0.144,0.089,0.179c0.042,0.039,0.104,0.061,0.182,0.059
			c0.078-0.002,0.142-0.017,0.18-0.05c0.041-0.034,0.061-0.076,0.061-0.122c0-0.026-0.01-0.056-0.025-0.072
			c-0.018-0.021-0.048-0.04-0.09-0.057c-0.029-0.008-0.094-0.027-0.201-0.052c-0.132-0.032-0.225-0.073-0.278-0.121
			c-0.075-0.066-0.115-0.148-0.115-0.247c0-0.062,0.018-0.122,0.055-0.176c0.034-0.058,0.086-0.099,0.151-0.126
			c0.066-0.029,0.146-0.042,0.244-0.044c0.154,0,0.269,0.033,0.348,0.101c0.079,0.067,0.118,0.158,0.125,0.271l-0.25,0.012
			c-0.012-0.063-0.033-0.108-0.069-0.138c-0.034-0.029-0.089-0.042-0.157-0.042c-0.073,0-0.131,0.015-0.171,0.046
			c-0.027,0.018-0.037,0.044-0.037,0.076c0,0.028,0.01,0.054,0.035,0.076c0.031,0.025,0.109,0.052,0.231,0.08
			c0.118,0.027,0.209,0.06,0.266,0.088c0.057,0.032,0.103,0.072,0.136,0.126c0.033,0.051,0.052,0.116,0.052,0.194
			c0,0.071-0.021,0.136-0.061,0.2c-0.039,0.062-0.096,0.105-0.166,0.138c-0.071,0.028-0.16,0.046-0.266,0.046
			c-0.156,0-0.276-0.035-0.358-0.109C13.363,17.047,13.315,16.941,13.295,16.805z"/>
		<path fill="#231F20" d="M15.621,17.2h-0.271l-0.11-0.278l-0.492,0.002l-0.102,0.278h-0.263l0.476-1.23l0.264-0.001L15.621,17.2z
			 M15.162,16.713l-0.173-0.457l-0.165,0.457H15.162z"/>
		<path fill="#231F20" d="M16.139,16.87v-0.235l0.462-0.002l0,0.235L16.139,16.87z"/>
		<path fill="#231F20" d="M18.265,17.194h-0.268l-0.109-0.279l-0.493,0.002l-0.101,0.28h-0.264l0.478-1.233h0.265L18.265,17.194z
			 M17.81,16.708l-0.175-0.456l-0.165,0.456H17.81z"/>
		<path fill="#231F20" d="M18.397,17.194l-0.004-1.232l0.526-0.002c0.132,0,0.227,0.012,0.286,0.033
			c0.06,0.022,0.109,0.061,0.143,0.116c0.036,0.059,0.054,0.124,0.054,0.194c0,0.092-0.027,0.17-0.08,0.23
			c-0.055,0.062-0.137,0.098-0.243,0.113c0.055,0.032,0.099,0.066,0.134,0.102c0.036,0.038,0.083,0.106,0.142,0.202l0.151,0.239
			h-0.298l-0.181-0.27c-0.064-0.095-0.106-0.153-0.132-0.178c-0.023-0.027-0.052-0.045-0.076-0.052
			c-0.025-0.01-0.065-0.016-0.125-0.016h-0.05l0.002,0.517L18.397,17.194z M18.646,16.481l0.183-0.002
			c0.12,0,0.193-0.006,0.224-0.016c0.029-0.01,0.053-0.026,0.069-0.053c0.017-0.023,0.023-0.056,0.023-0.09
			c0-0.042-0.012-0.074-0.029-0.101c-0.024-0.023-0.056-0.041-0.098-0.049c-0.019-0.002-0.079-0.002-0.181-0.002h-0.196
			L18.646,16.481z"/>
		<path fill="#231F20" d="M20.214,16.737v-0.21h0.537v0.49c-0.052,0.05-0.127,0.093-0.224,0.134c-0.102,0.039-0.2,0.059-0.303,0.059
			c-0.128,0-0.242-0.026-0.336-0.078c-0.096-0.055-0.169-0.134-0.218-0.234c-0.047-0.1-0.074-0.21-0.074-0.328
			c0-0.128,0.028-0.244,0.081-0.343c0.056-0.101,0.133-0.177,0.236-0.229c0.079-0.04,0.177-0.063,0.294-0.063
			c0.153,0,0.273,0.031,0.36,0.097c0.086,0.063,0.142,0.151,0.165,0.266l-0.247,0.045c-0.018-0.059-0.047-0.106-0.099-0.141
			c-0.048-0.036-0.105-0.052-0.179-0.052c-0.107,0-0.196,0.033-0.259,0.101c-0.065,0.069-0.099,0.173-0.099,0.308
			c0,0.146,0.035,0.256,0.101,0.328c0.064,0.071,0.15,0.109,0.257,0.109c0.052,0,0.103-0.01,0.156-0.031
			c0.053-0.021,0.098-0.047,0.135-0.076l-0.001-0.156L20.214,16.737z"/>
		<path fill="#231F20" d="M20.98,17.187l-0.003-1.23l0.914-0.002v0.208l-0.664,0.002l0.001,0.269l0.619-0.001v0.209h-0.619
			l0.002,0.336l0.688-0.002v0.208L20.98,17.187z"/>
		<path fill="#231F20" d="M22.131,17.185l-0.004-1.232h0.244l0.506,0.818l-0.001-0.82l0.229-0.002l0.003,1.232h-0.25l-0.5-0.802
			l0.001,0.802L22.131,17.185z"/>
		<path fill="#231F20" d="M23.649,17.181l-0.002-1.024l-0.366,0.002v-0.21h0.979l0.002,0.208h-0.365l0.003,1.022L23.649,17.181z"/>
		<path fill="#231F20" d="M24.417,17.177l-0.004-1.23l0.25-0.002l0.003,1.232H24.417z"/>
		<path fill="#231F20" d="M24.904,17.177l-0.002-1.233h0.241l0.507,0.821l-0.001-0.821h0.231l0.002,1.229h-0.25l-0.5-0.802
			l0.003,0.806H24.904z"/>
		<path fill="#231F20" d="M27.259,17.171h-0.272l-0.108-0.278l-0.492,0.002l-0.102,0.278h-0.264l0.481-1.231h0.259L27.259,17.171z
			 M26.796,16.685l-0.17-0.458l-0.163,0.458H26.796z"/>
	</g>
</g>
</svg>
