<?xml version="1.0" encoding="utf-8"?>
<!-- Generator: Adobe Illustrator 15.1.0, SVG Export Plug-In . SVG Version: 6.00 Build 0)  -->
<!DOCTYPE svg PUBLIC "-//W3C//DTD SVG 1.1//EN" "http://www.w3.org/Graphics/SVG/1.1/DTD/svg11.dtd">
<svg version="1.1" id="Layer_1" xmlns="http://www.w3.org/2000/svg" xmlns:xlink="http://www.w3.org/1999/xlink" x="0px" y="0px"
	 width="5057.082px" height="2183.071px" viewBox="0 0 5057.082 2183.071" enable-background="new 0 0 5057.082 2183.071"
	 xml:space="preserve">
<g>
	<g>
		<polygon fill="#010101" points="4601.899,492.132 4086.377,1312.905 3998.738,492.132 3871.395,492.132 3673.177,492.132 
			2826.363,492.132 2538.646,785.751 3095.933,785.751 2838.87,1711.175 3155.372,1711.175 3410.711,785.751 3709.392,785.751 
			3823.701,1712.24 4136.314,1712.24 4959.831,492.132 		"/>
		<polygon fill="#43C1F0" points="1892.151,1079.004 1641.729,502.173 2082.417,502.173 2215.402,842.399 2974.382,41.982 
			3451.329,41.982 2431.579,1103.187 2697.542,1711.125 2255.13,1711.125 2110.037,1338.077 1351.941,2141.088 873.248,2141.088 		
			"/>
		<path fill="#010101" d="M234.748,791.396L97.251,491.937h884.817c118.487,0,216.068,14.541,292.735,43.565
			c76.674,29.053,138.25,66.826,184.726,113.266c88.269,88.304,132.435,207.375,132.435,357.229
			c0,91.788-16.866,178.343-50.532,259.642c-33.71,81.33-83.648,155.086-149.865,221.321
			c-73.191,73.184-162.654,128.937-268.367,167.278c-105.721,38.322-229.437,57.509-371.162,57.509H260.629l210.072-782.142h339.979
			l-130.088,482.43h111.521c70.845,0,136.49-10.465,196.907-31.375c60.395-20.91,110.927-51.697,151.611-92.37
			c32.507-32.508,58.077-70.834,76.674-114.989c18.567-44.156,27.88-90.629,27.88-139.435c0-37.149-5.221-69.396-15.678-96.697
			c-10.457-27.286-25.57-50.807-45.304-70.58c-23.26-23.228-54.029-41.527-92.374-54.892
			c-38.322-13.347-87.109-20.038-146.36-20.038l-97.603,0.051L234.748,791.396z"/>
	</g>
	<rect fill="none" width="5057.082" height="2183.071"/>
</g>
</svg>
