<?xml version="1.0" encoding="utf-8"?>
<!-- Generator: Adobe Illustrator 15.1.0, SVG Export Plug-In . SVG Version: 6.00 Build 0)  -->
<!DOCTYPE svg PUBLIC "-//W3C//DTD SVG 1.1//EN" "http://www.w3.org/Graphics/SVG/1.1/DTD/svg11.dtd">
<svg version="1.1" id="Layer_1" xmlns="http://www.w3.org/2000/svg" xmlns:xlink="http://www.w3.org/1999/xlink" x="0px" y="0px"
	 width="507.604px" height="334.701px" viewBox="-0.001 15.409 507.604 334.701"
	 enable-background="new -0.001 15.409 507.604 334.701" xml:space="preserve">
<g>
	<g>
		<g>
			<path fill="#231F20" d="M412.4,182.755c0,87.598-71,158.605-158.608,158.605c-87.586,0-158.592-71.007-158.592-158.605
				c0-87.593,71.006-158.597,158.592-158.597C341.4,24.159,412.4,95.162,412.4,182.755z"/>
		</g>
	</g>
	
		<linearGradient id="SVGID_1_" gradientUnits="userSpaceOnUse" x1="244.6963" y1="208.8438" x2="276.6127" y2="208.8438" gradientTransform="matrix(0.989 -0.148 0.148 0.989 -85.4516 -48.9705)">
		<stop  offset="0" style="stop-color:#000000"/>
		<stop  offset="0.01" style="stop-color:#00090A"/>
		<stop  offset="0.0552" style="stop-color:#002C33"/>
		<stop  offset="0.1061" style="stop-color:#004D59"/>
		<stop  offset="0.1614" style="stop-color:#006879"/>
		<stop  offset="0.2226" style="stop-color:#008095"/>
		<stop  offset="0.2916" style="stop-color:#0093AB"/>
		<stop  offset="0.3722" style="stop-color:#00A1BC"/>
		<stop  offset="0.472" style="stop-color:#00ACC7"/>
		<stop  offset="0.6118" style="stop-color:#00B1CE"/>
		<stop  offset="1" style="stop-color:#00B3D0"/>
	</linearGradient>
	<path fill="url(#SVGID_1_)" d="M229.35,132.207l114.999-57.35c-29.934-25.175-70.129-37.89-111.849-31.65
		c-19.73,2.955-37.866,9.858-53.777,19.757l19.193,128.247C194.171,166.165,207.591,142.524,229.35,132.207z"/>
	
		<linearGradient id="SVGID_2_" gradientUnits="userSpaceOnUse" x1="216.144" y1="310.4707" x2="225.8318" y2="279.5471" gradientTransform="matrix(0.989 -0.148 0.148 0.989 -85.4516 -48.9705)">
		<stop  offset="0" style="stop-color:#000000"/>
		<stop  offset="0.0418" style="stop-color:#01141C"/>
		<stop  offset="0.0997" style="stop-color:#022A3B"/>
		<stop  offset="0.1653" style="stop-color:#043E57"/>
		<stop  offset="0.2394" style="stop-color:#044D6D"/>
		<stop  offset="0.326" style="stop-color:#05597E"/>
		<stop  offset="0.433" style="stop-color:#066289"/>
		<stop  offset="0.5832" style="stop-color:#066790"/>
		<stop  offset="1" style="stop-color:#066892"/>
	</linearGradient>
	<path fill="url(#SVGID_2_)" d="M197.916,191.211L178.723,62.964c-46.332,28.9-73.625,83.415-65.027,140.848
		c0.655,4.437,1.519,8.784,2.584,13.045l126.742,21.191C220.199,233.751,201.543,215.476,197.916,191.211z"/>
	
		<linearGradient id="SVGID_3_" gradientUnits="userSpaceOnUse" x1="304.1123" y1="369.0732" x2="281.2727" y2="352.6135" gradientTransform="matrix(0.989 -0.148 0.148 0.989 -85.4516 -48.9705)">
		<stop  offset="0" style="stop-color:#000000"/>
		<stop  offset="0.0418" style="stop-color:#01141C"/>
		<stop  offset="0.0997" style="stop-color:#022A3B"/>
		<stop  offset="0.1653" style="stop-color:#043E57"/>
		<stop  offset="0.2394" style="stop-color:#044D6D"/>
		<stop  offset="0.326" style="stop-color:#05597E"/>
		<stop  offset="0.433" style="stop-color:#066289"/>
		<stop  offset="0.5832" style="stop-color:#066790"/>
		<stop  offset="1" style="stop-color:#066892"/>
	</linearGradient>
	<path fill="url(#SVGID_3_)" d="M261.702,238.388c-6.396,0.956-12.693,0.797-18.68-0.34L116.28,216.856
		c14.772,59.925,66.737,102.704,127.015,106.974l59.841-115.007C295.124,224.18,280.131,235.628,261.702,238.388z"/>
	
		<linearGradient id="SVGID_4_" gradientUnits="userSpaceOnUse" x1="388.0664" y1="304.2441" x2="360.9727" y2="323.373" gradientTransform="matrix(0.989 -0.148 0.148 0.989 -85.4516 -48.9705)">
		<stop  offset="0" style="stop-color:#000000"/>
		<stop  offset="0.01" style="stop-color:#00090A"/>
		<stop  offset="0.0552" style="stop-color:#002C33"/>
		<stop  offset="0.1061" style="stop-color:#004D59"/>
		<stop  offset="0.1614" style="stop-color:#006879"/>
		<stop  offset="0.2226" style="stop-color:#008095"/>
		<stop  offset="0.2916" style="stop-color:#0093AB"/>
		<stop  offset="0.3722" style="stop-color:#00A1BC"/>
		<stop  offset="0.472" style="stop-color:#00ACC7"/>
		<stop  offset="0.6118" style="stop-color:#00B1CE"/>
		<stop  offset="1" style="stop-color:#00B3D0"/>
	</linearGradient>
	<path fill="url(#SVGID_4_)" d="M308.855,174.609c1.822,12.193-0.42,24.063-5.719,34.214L243.295,323.83
		c10.144,0.719,20.513,0.345,31.01-1.218c51.153-7.654,91.779-41.881,109.977-86.561l-90.435-91.997
		C301.628,152.155,307.066,162.666,308.855,174.609z"/>
	
		<linearGradient id="SVGID_5_" gradientUnits="userSpaceOnUse" x1="350.6846" y1="204.3955" x2="362.1256" y2="237.3294" gradientTransform="matrix(0.989 -0.148 0.148 0.989 -85.4516 -48.9705)">
		<stop  offset="0" style="stop-color:#000000"/>
		<stop  offset="0.0418" style="stop-color:#01141C"/>
		<stop  offset="0.0997" style="stop-color:#022A3B"/>
		<stop  offset="0.1653" style="stop-color:#043E57"/>
		<stop  offset="0.2394" style="stop-color:#044D6D"/>
		<stop  offset="0.326" style="stop-color:#05597E"/>
		<stop  offset="0.433" style="stop-color:#066289"/>
		<stop  offset="0.5832" style="stop-color:#066790"/>
		<stop  offset="1" style="stop-color:#066892"/>
	</linearGradient>
	<path fill="url(#SVGID_5_)" d="M344.349,74.857l-114.999,57.35c4.867-2.291,10.138-3.923,15.753-4.757
		c18.444-2.761,36.126,3.778,48.292,16.141l0,0l0.104,0.095c0.109,0.135,0.236,0.252,0.35,0.369l90.435,91.997
		c9.231-22.684,12.691-48.069,8.807-74.04C387.793,126.586,369.76,96.229,344.349,74.857z"/>
	<path fill="#231F20" d="M494.333,227.748c0,5.798-4.738,10.532-10.532,10.532H23.796c-5.789,0-10.528-4.734-10.528-10.532V137.77
		c0-5.792,4.739-10.528,10.528-10.528h460.004c5.794,0,10.532,4.736,10.532,10.528V227.748z"/>
	<g>
		<path fill="#FFFFFF" d="M50.395,218.584H33.106v-71.942h17.289V218.584z"/>
		<path fill="#FFFFFF" d="M129.566,218.584h-17.512l-34.81-49.882v49.882H61.833v-71.942h17.518l34.809,49.104v-49.104h15.406
			V218.584z"/>
		<path fill="#FFFFFF" d="M196.566,217.253c-8.133,1.623-15.893,2.437-23.28,2.437c-2.958,0-5.749-0.128-8.372-0.385
			c-2.619-0.26-5.539-0.813-8.756-1.664c-3.214-0.85-5.948-1.995-8.203-3.438c-2.257-1.44-4.157-3.472-5.708-6.098
			c-1.553-2.622-2.326-5.707-2.326-9.254v-31.591c0-14.485,11.118-21.724,33.365-21.724c5.464,0,13.077,0.809,22.836,2.436v12.969
			c-8.796-2.069-16.334-3.106-22.615-3.106c-2.511,0-4.567,0.076-6.152,0.223c-1.59,0.15-3.253,0.519-4.989,1.109
			c-1.735,0.59-3.029,1.535-3.88,2.827c-0.85,1.293-1.275,2.978-1.275,5.044v30.597c0,6.501,5.949,9.751,17.846,9.751
			c5.247,0,12.417-1.068,21.51-3.214V217.253z"/>
		<path fill="#FFFFFF" d="M275.315,218.584h-17.52l-6.43-18.957h-26.272l-6.32,18.957h-17.07l26.604-71.942h21.06L275.315,218.584z
			 M247.596,188.099l-9.089-27.048h-0.444l-9.086,27.048H247.596z"/>
		<path fill="#FFFFFF" d="M352.596,218.584h-17.513l-6.43-18.957h-26.269l-6.321,18.957h-17.069l26.604-71.942h21.062
			L352.596,218.584z M324.884,188.099l-9.089-27.048h-0.441l-9.093,27.048H324.884z"/>
	</g>
	<g>
		<path fill="#00B3D0" d="M415.731,158.846h-22.082v59.7h-17.311v-59.7h-22.195v-12.317h61.588V158.846z"/>
		<path fill="#00B3D0" d="M481.757,146.528l-26.632,72.018h-21.197l-25.854-72.018h17.531l19.312,57.594h0.443l19.309-57.594
			H481.757z"/>
	</g>
</g>
</svg>
