<?xml version="1.0" encoding="utf-8"?>
<!-- Generator: Adobe Illustrator 15.1.0, SVG Export Plug-In . SVG Version: 6.00 Build 0)  -->
<!DOCTYPE svg PUBLIC "-//W3C//DTD SVG 1.1//EN" "http://www.w3.org/Graphics/SVG/1.1/DTD/svg11.dtd">
<svg version="1.1" id="Capa_1" xmlns="http://www.w3.org/2000/svg" xmlns:xlink="http://www.w3.org/1999/xlink" x="0px" y="0px"
	 width="408.779px" height="226.133px" viewBox="-751.295 10.106 408.779 226.133"
	 enable-background="new -751.295 10.106 408.779 226.133" xml:space="preserve">
<g>
	<rect x="-672.358" y="88.867" fill="#AC9C8E" width="39.154" height="68.566"/>
	<rect x="-711.686" y="157.444" fill="#FFD44F" width="39.14" height="39.196"/>
	<rect x="-672.557" y="157.495" fill="#DCD6CA" width="39.354" height="39.242"/>
	<polygon fill="#FF5800" points="-750.876,88.816 -750.876,157.491 -711.654,196.344 -711.654,88.816 	"/>
	<polygon fill="#00C4D8" points="-711.686,49.607 -672.555,49.655 -672.555,89.025 	"/>
	<polygon fill="#FFA02B" points="-750.878,157.505 -711.686,196.661 -711.686,157.505 	"/>
	<path fill="#231F20" d="M-588.169,96.228c-3.569-1.401-5.529-2.031-9.168-2.031c-3.921,0-8.538,1.401-8.538,6.508
		c0,9.38,20.994,7.211,20.994,23.308c0,10.425-8.048,14.553-17.847,14.553c-3.429,0-6.786-0.98-10.005-2.027l0.698-6.513
		c2.381,0.986,6.579,2.384,10.147,2.384c3.989,0,9.586-2.241,9.586-7.979c0-10.917-20.993-7.906-20.993-23.095
		c0-8.676,6.857-13.293,15.677-13.293c3.217,0,7.066,0.557,10.427,1.746L-588.169,96.228z"/>
	<polygon fill="#231F20" points="-575.008,88.881 -547.646,88.881 -547.646,95.041 -568.012,95.041 -568.012,109.312 
		-549.467,109.312 -549.467,115.47 -568.012,115.47 -568.012,131.567 -547.646,131.567 -547.646,137.725 -575.008,137.725 	"/>
	<path fill="#231F20" d="M-536.517,88.881h9.52l21.552,39.326h0.141V88.881h6.999v48.845h-8.959l-22.114-40.169h-0.141v40.169
		h-6.998V88.881z M-529.308,84.963c0.42-3.011,1.821-7.837,6.579-7.837c3.638,0,7.836,3.288,10.776,3.215
		c2.099,0.141,3.008-1.605,3.219-3.215h3.22c-0.421,3.007-1.821,7.837-6.582,7.837c-3.636,0-7.836-3.288-10.775-3.221
		c-2.1-0.141-3.008,1.609-3.22,3.221H-529.308z"/>
	<path fill="#231F20" d="M-470.453,88.881h7.349l20.644,48.845h-7.628l-4.967-12.317h-23.933l-4.97,12.317h-7.347L-470.453,88.881z
		 M-467.023,95.458l-9.727,24.213h19.455L-467.023,95.458z"/>
	<polygon fill="#231F20" points="-435.453,88.881 -428.455,88.881 -428.455,131.567 -408.024,131.567 -408.024,137.725 
		-435.453,137.725 	"/>
	<path fill="#231F20" d="M-342.934,117.503c0,13.715-6.928,21.063-18.966,21.063c-12.037,0-18.963-7.348-18.963-21.063V88.881h6.998
		v27.712c0,9.378,2.938,15.816,11.965,15.816c9.029,0,11.969-6.438,11.969-15.816V88.881h6.998V117.503L-342.934,117.503z"/>
	<polygon fill="#231F20" points="-612.342,148.096 -601.696,148.096 -601.696,150.493 -609.62,150.493 -609.62,156.048 
		-602.402,156.048 -602.402,158.444 -609.62,158.444 -609.62,164.707 -601.696,164.707 -601.696,167.104 -612.342,167.104 	"/>
	<polygon fill="#231F20" points="-597.371,148.096 -594.648,148.096 -594.648,164.707 -586.697,164.707 -586.697,167.104 
		-597.371,167.104 	"/>
	<path fill="#231F20" d="M-563.043,151.226c-1.198-0.707-2.532-1.063-3.92-1.063c-4.386,0-7.3,3.16-7.3,7.436
		c0,4.466,3.214,7.435,7.164,7.435c1.359,0,3.186-0.355,4.139-0.928l0.164,2.645c-1.443,0.597-3.212,0.68-4.331,0.68
		c-6.017,0-10.022-3.868-10.022-9.913c0-5.854,4.249-9.748,10.051-9.748c1.469,0,2.912,0.219,4.275,0.817L-563.043,151.226z"/>
	<path fill="#231F20" d="M-553.522,148.096h2.86l8.034,19.008h-2.97l-1.932-4.793h-9.313l-1.933,4.793h-2.859L-553.522,148.096z
		 M-552.188,150.656l-3.786,9.422h7.569L-552.188,150.656z"/>
	<polygon fill="#231F20" points="-539.918,148.096 -536.213,148.096 -527.825,163.399 -527.771,163.399 -527.771,148.096 
		-525.048,148.096 -525.048,167.104 -528.535,167.104 -537.138,151.472 -537.195,151.472 -537.195,167.104 -539.918,167.104 	"/>
	<path fill="#231F20" d="M-514.22,148.096h2.859l8.032,19.008h-2.967l-1.935-4.793h-9.313l-1.934,4.793h-2.86L-514.22,148.096z
		 M-512.886,150.656l-3.786,9.422h7.572L-512.886,150.656z"/>
	<polygon fill="#231F20" points="-500.614,148.096 -497.891,148.096 -497.891,164.707 -489.939,164.707 -489.939,167.104 
		-500.614,167.104 	"/>
	<path fill="#231F20" d="M-479.576,148.096h5.611c5.636,0,10.129,3.485,10.129,9.339c0,6.373-3.867,9.668-10.129,9.668h-5.611
		V148.096z M-476.851,164.707h2.859c4.682,0,7.271-2.261,7.271-7.163c0-4.438-3.024-7.052-6.945-7.052h-3.186V164.707
		L-476.851,164.707z"/>
	<polygon fill="#231F20" points="-459.628,148.096 -448.978,148.096 -448.978,150.493 -456.901,150.493 -456.901,156.048 
		-449.687,156.048 -449.687,158.444 -456.901,158.444 -456.901,164.707 -448.978,164.707 -448.978,167.104 -459.628,167.104 	"/>
	<polygon fill="#231F20" points="-433.278,150.493 -439.188,150.493 -439.188,148.096 -424.646,148.096 -424.646,150.493 
		-430.553,150.493 -430.553,167.104 -433.278,167.104 	"/>
	<path fill="#231F20" d="M-422.093,148.096h5.607c5.64,0,10.132,3.485,10.132,9.339c0,6.373-3.866,9.668-10.132,9.668h-5.607
		V148.096z M-419.37,164.707h2.86c4.684,0,7.269-2.261,7.269-7.163c0-4.438-3.021-7.052-6.944-7.052h-3.185V164.707z"/>
	<path fill="#231F20" d="M-396.263,148.096h2.86l8.036,19.008h-2.972l-1.933-4.793h-9.313l-1.935,4.793h-2.858L-396.263,148.096z
		 M-394.929,150.656l-3.782,9.422h7.568L-394.929,150.656z"/>
	<path fill="#231F20" d="M-612.643,177.258h5.612c5.635,0,10.129,3.485,10.129,9.34c0,6.371-3.868,9.668-10.129,9.668h-5.612
		V177.258z M-609.918,193.869h2.859c4.684,0,7.271-2.26,7.271-7.162c0-4.439-3.024-7.053-6.944-7.053h-3.186V193.869
		L-609.918,193.869z"/>
	<polygon fill="#231F20" points="-592.691,177.258 -582.043,177.258 -582.043,179.654 -589.969,179.654 -589.969,185.209 
		-582.752,185.209 -582.752,187.606 -589.969,187.606 -589.969,193.869 -582.043,193.869 -582.043,196.266 -592.691,196.266 	"/>
	<polygon fill="#231F20" points="-570.153,177.258 -567.43,177.258 -567.43,193.869 -559.479,193.869 -559.479,196.266 
		-570.153,196.266 	"/>
	<path fill="#231F20" d="M-550.5,177.258h2.859l8.033,19.009h-2.967l-1.936-4.792h-9.312l-1.935,4.792h-2.859L-550.5,177.258z
		 M-549.167,179.816l-3.785,9.422h7.571L-549.167,179.816z"/>
	<path fill="#231F20" d="M-514.514,188.395c0,5.337-2.698,8.196-7.381,8.196s-7.379-2.859-7.379-8.196v-11.138h2.723v10.782
		c0,3.65,1.142,6.156,4.656,6.156c3.515,0,4.657-2.506,4.657-6.156v-10.782h2.724V188.395L-514.514,188.395z"/>
	<polygon fill="#231F20" points="-509.678,177.258 -505.976,177.258 -497.588,192.561 -497.532,192.561 -497.532,177.258 
		-494.808,177.258 -494.808,196.266 -498.294,196.266 -506.899,180.635 -506.956,180.635 -506.956,196.266 -509.678,196.266 	"/>
	<path fill="#231F20" d="M-476.874,180.389c-1.198-0.708-2.532-1.063-3.92-1.063c-4.384,0-7.3,3.158-7.3,7.435
		c0,4.465,3.213,7.436,7.163,7.436c1.361,0,3.188-0.356,4.141-0.928l0.164,2.645c-1.445,0.596-3.214,0.679-4.333,0.679
		c-6.019,0-10.02-3.868-10.02-9.913c0-5.854,4.248-9.747,10.047-9.747c1.472,0,2.914,0.218,4.275,0.815L-476.874,180.389z"/>
	<path fill="#231F20" d="M-458.583,188.395c0,5.337-2.695,8.196-7.381,8.196c-4.683,0-7.378-2.859-7.378-8.196v-11.138h2.722v10.782
		c0,3.65,1.142,6.156,4.656,6.156c3.515,0,4.659-2.506,4.659-6.156v-10.782h2.722V188.395z"/>
	<polygon fill="#231F20" points="-448.407,188.313 -455.842,177.258 -452.657,177.258 -446.996,185.782 -441.466,177.258 
		-438.28,177.258 -445.685,188.313 -445.685,196.266 -448.407,196.266 	"/>
	<path fill="#231F20" d="M-427.395,176.93c5.772,0,9.146,4.193,9.146,9.831c0,5.772-3.349,9.83-9.146,9.83
		c-5.802,0-9.149-4.058-9.149-9.83C-436.544,181.124-433.169,176.93-427.395,176.93 M-427.395,194.196
		c4.382,0,6.261-3.647,6.261-7.435c0-3.868-2.068-7.463-6.261-7.436c-4.194-0.027-6.265,3.566-6.265,7.436
		C-433.66,190.549-431.779,194.196-427.395,194.196"/>
</g>
<rect x="-751.295" y="10.106" fill="none" width="408.779" height="226.133"/>
</svg>
