<?xml version="1.0" encoding="utf-8"?>
<!-- Generator: Adobe Illustrator 15.1.0, SVG Export Plug-In . SVG Version: 6.00 Build 0)  -->
<!DOCTYPE svg PUBLIC "-//W3C//DTD SVG 1.1//EN" "http://www.w3.org/Graphics/SVG/1.1/DTD/svg11.dtd">
<svg version="1.1" id="Layer_1" xmlns="http://www.w3.org/2000/svg" xmlns:xlink="http://www.w3.org/1999/xlink" x="0px" y="0px"
	 width="76.404px" height="47.136px" viewBox="0 0 76.404 47.136" enable-background="new 0 0 76.404 47.136" xml:space="preserve">
<g>
	<g>
		<g>
			<path fill="#231F20" d="M1.011,5.219V0.701H3.34c0.426,0,0.765,0.042,0.987,0.113c0.229,0.071,0.414,0.212,0.551,0.417
				c0.144,0.193,0.211,0.435,0.211,0.73c0,0.247-0.047,0.464-0.158,0.646C4.829,2.791,4.683,2.943,4.488,3.046
				C4.374,3.123,4.21,3.184,4.001,3.223c0.162,0.063,0.292,0.117,0.36,0.164c0.05,0.045,0.126,0.123,0.229,0.245
				C4.692,3.751,4.748,3.843,4.784,3.91l0.675,1.307H3.887l-0.75-1.375C3.044,3.659,2.961,3.546,2.892,3.488
				C2.784,3.422,2.676,3.387,2.546,3.387H2.418v1.829L1.011,5.219L1.011,5.219z M2.414,2.534h0.594c0.064,0,0.187-0.016,0.375-0.062
				C3.475,2.455,3.544,2.41,3.609,2.331C3.659,2.26,3.69,2.17,3.69,2.074c0-0.148-0.047-0.263-0.139-0.339
				C3.455,1.659,3.291,1.616,3.036,1.616H2.421L2.414,2.534L2.414,2.534z"/>
			<path fill="#231F20" d="M8.683,4.479H7.098l-0.222,0.74H5.449l1.7-4.518h1.522l1.697,4.518H8.914L8.683,4.479z M8.397,3.495
				l-0.503-1.62l-0.5,1.62H8.397z"/>
			<path fill="#231F20" d="M10.833,0.701h2.071c0.413,0,0.743,0.061,0.991,0.171c0.252,0.107,0.464,0.267,0.624,0.479
				c0.167,0.207,0.287,0.444,0.36,0.722c0.074,0.274,0.106,0.563,0.106,0.869c0,0.49-0.048,0.864-0.162,1.13
				c-0.105,0.267-0.258,0.487-0.459,0.669c-0.19,0.177-0.408,0.295-0.623,0.358c-0.307,0.079-0.583,0.119-0.836,0.119h-2.071V0.701z
				 M12.229,1.724v2.468h0.344c0.291,0,0.497-0.029,0.609-0.094c0.13-0.069,0.231-0.177,0.3-0.336c0.065-0.164,0.1-0.421,0.1-0.787
				c0-0.473-0.075-0.807-0.234-0.981c-0.149-0.175-0.405-0.267-0.771-0.267L12.229,1.724L12.229,1.724z"/>
			<path fill="#231F20" d="M15.777,0.701h1.405v4.518h-1.405V0.701z"/>
			<path fill="#231F20" d="M18.005,2.966c0-0.738,0.209-1.312,0.607-1.727c0.413-0.41,0.989-0.614,1.729-0.614
				c0.745,0,1.328,0.197,1.729,0.605c0.413,0.408,0.607,0.972,0.607,1.699c0,0.526-0.081,0.964-0.259,1.296
				c-0.182,0.338-0.436,0.607-0.772,0.793c-0.332,0.186-0.749,0.278-1.259,0.278c-0.509,0-0.935-0.079-1.26-0.24
				c-0.327-0.162-0.607-0.421-0.809-0.774C18.106,3.939,18.005,3.492,18.005,2.966z M19.396,2.973c0,0.456,0.087,0.783,0.262,0.982
				c0.166,0.199,0.396,0.302,0.683,0.302c0.306,0,0.53-0.103,0.7-0.298c0.162-0.195,0.249-0.544,0.249-1.05
				c0-0.425-0.086-0.738-0.266-0.928c-0.167-0.203-0.399-0.297-0.695-0.297c-0.278,0-0.509,0.098-0.675,0.297
				C19.483,2.186,19.396,2.513,19.396,2.973z"/>
			<path fill="#231F20" d="M25.085,0.701h1.549l0.907,1.527l0.913-1.527h1.543l-1.756,2.628v1.89H26.84v-1.89L25.085,0.701z"/>
			<path fill="#231F20" d="M32.234,0.701h4.251v1.115h-1.431v3.403H33.66V1.816h-1.425V0.701L32.234,0.701z"/>
			<path fill="#231F20" d="M37.115,0.701h3.726v0.964h-2.338v0.719h2.182v0.922h-2.182v0.887h2.417v1.022h-3.805V0.701z"/>
			<path fill="#231F20" d="M41.668,0.701h1.395v3.408h2.186v1.11h-3.581V0.701z"/>
			<path fill="#231F20" d="M45.874,0.701h3.748v0.964h-2.344v0.719h2.169v0.922h-2.169v0.887h2.405v1.022h-3.808V0.701L45.874,0.701
				z"/>
			<path fill="#231F20" d="M49.996,0.701h1.448l1.018,3.253l1.009-3.253h1.414l-1.681,4.518H51.7L49.996,0.701z"/>
			<path fill="#231F20" d="M55.401,0.701h1.392v4.518h-1.392V0.701z"/>
			<path fill="#231F20" d="M57.553,3.73l1.334-0.087c0.03,0.22,0.08,0.384,0.176,0.496c0.139,0.186,0.348,0.271,0.609,0.271
				c0.207,0,0.351-0.047,0.462-0.139c0.105-0.097,0.167-0.205,0.167-0.321c0-0.122-0.061-0.229-0.158-0.323
				c-0.101-0.088-0.34-0.175-0.719-0.265C58.82,3.23,58.376,3.043,58.12,2.816c-0.255-0.229-0.398-0.513-0.398-0.866
				c0-0.235,0.075-0.453,0.212-0.659c0.126-0.209,0.327-0.368,0.599-0.492c0.273-0.116,0.646-0.176,1.114-0.176
				c0.578,0,1.022,0.112,1.318,0.327c0.306,0.212,0.484,0.548,0.549,1.022l-1.325,0.078c-0.033-0.206-0.11-0.35-0.221-0.446
				c-0.115-0.09-0.266-0.135-0.46-0.135c-0.164,0-0.287,0.028-0.372,0.099c-0.083,0.067-0.122,0.152-0.122,0.249
				c0,0.074,0.039,0.139,0.108,0.193c0.051,0.061,0.221,0.117,0.463,0.172c0.611,0.13,1.043,0.259,1.317,0.394
				c0.257,0.141,0.454,0.306,0.567,0.507c0.126,0.198,0.182,0.422,0.182,0.667c0,0.293-0.079,0.558-0.233,0.8
				c-0.162,0.247-0.391,0.428-0.678,0.558c-0.287,0.125-0.65,0.187-1.087,0.187c-0.769,0-1.298-0.146-1.601-0.442
				C57.764,4.56,57.591,4.183,57.553,3.73z"/>
			<path fill="#231F20" d="M62.414,0.701h1.396v4.518h-1.396V0.701z"/>
			<path fill="#231F20" d="M64.642,2.966c0-0.738,0.204-1.312,0.612-1.727c0.411-0.41,0.985-0.614,1.716-0.614
				c0.755,0,1.335,0.197,1.735,0.605c0.415,0.408,0.614,0.972,0.614,1.699c0,0.526-0.092,0.964-0.267,1.296
				c-0.184,0.338-0.435,0.607-0.775,0.793c-0.329,0.186-0.756,0.278-1.255,0.278c-0.511,0-0.933-0.079-1.262-0.24
				c-0.332-0.162-0.607-0.421-0.81-0.774C64.74,3.939,64.642,3.492,64.642,2.966z M66.037,2.973c0,0.456,0.086,0.783,0.253,0.982
				c0.164,0.199,0.394,0.302,0.695,0.302c0.297,0,0.527-0.103,0.697-0.298c0.165-0.195,0.24-0.544,0.24-1.05
				c0-0.425-0.087-0.738-0.249-0.928c-0.173-0.203-0.411-0.297-0.704-0.297c-0.28,0-0.512,0.098-0.676,0.297
				C66.123,2.186,66.037,2.513,66.037,2.973z"/>
			<path fill="#231F20" d="M70.078,0.701h1.307l1.704,2.5v-2.5h1.32v4.518h-1.32l-1.7-2.475v2.475h-1.312V0.701L70.078,0.701z"/>
			<path fill="#231F20" d="M22.337,11.249V6.735h2.328c0.43,0,0.762,0.03,0.988,0.105c0.229,0.079,0.417,0.212,0.554,0.409
				c0.139,0.205,0.208,0.444,0.208,0.736c0,0.25-0.049,0.466-0.152,0.648c-0.112,0.184-0.255,0.327-0.449,0.442
				c-0.114,0.071-0.283,0.131-0.493,0.182c0.175,0.054,0.289,0.107,0.364,0.163c0.054,0.041,0.129,0.12,0.233,0.236
				c0.099,0.118,0.159,0.218,0.195,0.284l0.676,1.308h-1.581l-0.746-1.384c-0.094-0.174-0.172-0.296-0.249-0.345
				c-0.103-0.069-0.22-0.103-0.339-0.103h-0.13v1.832L22.337,11.249L22.337,11.249z M23.738,8.562h0.594
				c0.067,0,0.184-0.022,0.372-0.056c0.087-0.023,0.163-0.07,0.226-0.146c0.053-0.073,0.088-0.163,0.088-0.26
				c0-0.146-0.049-0.256-0.139-0.334c-0.096-0.081-0.266-0.121-0.518-0.121h-0.616L23.738,8.562L23.738,8.562z"/>
			<path fill="#231F20" d="M27.283,6.737h1.401v4.514h-1.401V6.737z"/>
			<path fill="#231F20" d="M29.514,8.996c0-0.738,0.206-1.32,0.612-1.729c0.417-0.406,0.984-0.616,1.714-0.616
				c0.759,0,1.334,0.208,1.743,0.61c0.405,0.403,0.607,0.971,0.607,1.696c0,0.526-0.081,0.962-0.256,1.294
				c-0.188,0.34-0.437,0.605-0.775,0.793c-0.334,0.184-0.761,0.274-1.262,0.274c-0.507,0-0.926-0.072-1.26-0.235
				c-0.329-0.165-0.607-0.422-0.814-0.774C29.619,9.963,29.514,9.521,29.514,8.996z M30.907,9.001c0,0.455,0.085,0.785,0.254,0.973
				c0.173,0.213,0.401,0.307,0.695,0.307c0.298,0,0.535-0.094,0.699-0.288c0.163-0.199,0.244-0.548,0.244-1.057
				c0-0.423-0.087-0.733-0.25-0.933c-0.179-0.194-0.415-0.292-0.702-0.292c-0.28,0-0.509,0.098-0.682,0.296
				C30.992,8.207,30.907,8.539,30.907,9.001z"/>
			<path fill="#231F20" d="M36.821,6.737h1.401v2.452c0,0.518-0.045,0.901-0.139,1.172c-0.094,0.269-0.276,0.502-0.548,0.687
				c-0.278,0.184-0.629,0.273-1.068,0.273c-0.453,0-0.806-0.049-1.056-0.182c-0.258-0.124-0.449-0.298-0.588-0.536
				c-0.139-0.24-0.217-0.531-0.238-0.88l1.344-0.182c0,0.197,0.006,0.347,0.047,0.433c0.036,0.109,0.085,0.184,0.163,0.242
				c0.048,0.036,0.133,0.056,0.231,0.056c0.155,0,0.274-0.056,0.341-0.166c0.069-0.124,0.11-0.323,0.11-0.587V6.737L36.821,6.737z"
				/>
			<path fill="#231F20" d="M41.765,10.504h-1.581l-0.227,0.745h-1.421l1.695-4.514h1.522l1.697,4.514h-1.455L41.765,10.504z
				 M41.476,9.529l-0.5-1.627l-0.486,1.627H41.476z"/>
			<path fill="#231F20" d="M43.906,6.737h1.307l1.703,2.492V6.737h1.312v4.514h-1.312l-1.694-2.485v2.485h-1.315V6.737L43.906,6.737
				z"/>
			<path fill="#231F20" d="M51.866,10.504h-1.579l-0.218,0.745h-1.433l1.697-4.514h1.527l1.704,4.514h-1.464L51.866,10.504z
				 M51.579,9.529l-0.494-1.627L50.59,9.529H51.579z"/>
		</g>
	</g>
	<path fill="#FFFFFF" d="M70.719,21.662c0,0-48.042-20.086-68.274,24.85l60.667-12.431L70.719,21.662z"/>
	<path fill="#30BCE4" d="M2.443,46.512c0,0,37.899-3.818,63.108,0l5.165-24.85c0,0-6.631,1.035-15.832,3.051
		c-3.515,0.769-6.954,3.45-10.982,4.506c-4.032,1.044-8.689,0.46-12.788,1.784C18.728,34.989,7.088,40.198,2.443,46.512z"/>
	
		<radialGradient id="SVGID_1_" cx="-99.9209" cy="-126.8496" r="10.3964" fx="-102.5405" fy="-128.7328" gradientTransform="matrix(1 0 0 1 166.0151 147.3994)" gradientUnits="userSpaceOnUse">
		<stop  offset="0.1828" style="stop-color:#FFFFFF"/>
		<stop  offset="0.6667" style="stop-color:#EDE425"/>
		<stop  offset="0.9086" style="stop-color:#E57D35"/>
	</radialGradient>
	<circle fill="url(#SVGID_1_)" cx="66.094" cy="20.55" r="9.299"/>
	<path fill="#E83B36" d="M57.961,22.573c-0.076-0.233-0.16-0.431-0.271-0.588l0,0c-2.235-4.248-9.427-7.353-17.956-7.353
		c-10.322,0-18.686,4.542-18.686,10.142c0,5.595,8.361,10.135,18.686,10.135c2.871,0,5.586-0.353,8.022-0.982
		c0.15,0.315,0.237,0.646,0.237,0.982c0,2.307-3.585,4.182-7.999,4.182c-3.337,0-6.194-1.068-7.395-2.588H21.278
		c1.406,4.843,9.129,8.547,18.45,8.547c10.314,0,18.674-4.536,18.674-10.141c0-1.395,0.154-5.247,0.154-7.463
		C58.565,25.346,58.252,23.283,57.961,22.573z M39.995,20.56c4.417,0,7.999,1.87,7.999,4.181c0,1.105-0.838,2.116-2.187,2.864
		c-2.424,0.781-4.607,1.317-5.816,1.317c-0.254,0-0.513-0.019-0.77-0.027c-0.08-0.004-0.161-0.014-0.248-0.016
		c-0.167-0.014-0.334-0.023-0.498-0.045c-0.101-0.004-0.192-0.021-0.291-0.029c-0.144-0.022-0.296-0.041-0.435-0.063
		c-0.098-0.012-0.194-0.027-0.297-0.047c-0.126-0.021-0.263-0.047-0.4-0.075c-0.092-0.02-0.192-0.045-0.284-0.058
		c-0.133-0.036-0.251-0.066-0.386-0.101c-0.092-0.019-0.188-0.047-0.275-0.072c-0.13-0.038-0.24-0.078-0.364-0.116
		c-0.083-0.029-0.175-0.051-0.258-0.087c-0.181-0.063-0.366-0.135-0.535-0.209c-0.105-0.047-0.197-0.09-0.308-0.134
		c-0.066-0.048-0.152-0.077-0.225-0.113c-0.111-0.049-0.193-0.105-0.291-0.154c-0.058-0.043-0.134-0.072-0.194-0.11
		c-0.083-0.059-0.184-0.124-0.265-0.179c-0.054-0.039-0.114-0.079-0.164-0.118c-0.09-0.058-0.173-0.127-0.251-0.195
		c-0.047-0.032-0.09-0.066-0.13-0.105c-0.077-0.07-0.165-0.141-0.233-0.218c-0.03-0.032-0.054-0.06-0.083-0.092
		c-0.267-0.293-0.49-0.603-0.623-0.926l0,0c-0.119-0.291-0.19-0.588-0.19-0.896C32.001,22.429,35.582,20.56,39.995,20.56z"/>
</g>
</svg>
