<?xml version="1.0" encoding="utf-8"?>
<!-- Generator: Adobe Illustrator 15.1.0, SVG Export Plug-In . SVG Version: 6.00 Build 0)  -->
<!DOCTYPE svg PUBLIC "-//W3C//DTD SVG 1.1//EN" "http://www.w3.org/Graphics/SVG/1.1/DTD/svg11.dtd">
<svg version="1.1" id="Layer_1" xmlns="http://www.w3.org/2000/svg" xmlns:xlink="http://www.w3.org/1999/xlink" x="0px" y="0px"
	 width="135.833px" height="93.975px" viewBox="11.919 145.666 135.833 93.975"
	 enable-background="new 11.919 145.666 135.833 93.975" xml:space="preserve">
<rect x="0.258" y="0.657" fill="none" width="150" height="83"/>
<g>
	<g>
		<g>
			<path fill="#061839" d="M140.629,175.395c-0.352-0.508-0.748-0.989-1.193-1.436c-2.163-2.171-5.632-4.407-8.818-4.133
				c-0.913,0.078-2.426,0.477-2.055-1.059c0.051-0.209,0.097-0.418,0.135-0.631c0.922-5.274-2.69-10.177-6.878-12.936
				c-1.247-0.822-2.595-1.434-3.923-2.106c-2.041-1.033-4.173-2.134-4.203-2.15c-0.271-0.138-0.56-0.226-0.853-0.261
				c-0.099-0.012-0.198-0.018-0.297-0.018c-0.309,0-0.618,0.057-0.912,0.172c-0.669,0.262-1.195,0.801-1.44,1.477l-7.209,19.867
				c-0.007-0.002-0.014-0.004-0.021-0.006c-0.032-0.466-0.116-0.924-0.269-1.369c-0.978-2.871-4.278-5.98-7.378-6.219
				c-1.25-0.095-2.524,0.08-3.704,0.499c-0.063,0.022-0.127,0.046-0.189,0.07c-0.049,0.019-0.099,0.035-0.148,0.054
				c-0.144,0.047-0.82-0.721-0.943-0.82c-0.652-0.52-1.402-0.605-2.206-0.559c-0.065,0.004-0.511,0.082-0.53,0.127
				c1.688-3.979,2.965-6.951,2.991-7.012c0.466-1.072,0.099-1.909-0.675-2.694c-0.912-0.926-1.729-1.942-2.647-2.86
				c-0.044-0.043-0.091-0.084-0.14-0.125c-0.014-0.012-0.025-0.025-0.039-0.036c-0.069-0.058-0.143-0.11-0.217-0.159
				c-0.021-0.015-0.043-0.025-0.064-0.039c-0.055-0.033-0.111-0.066-0.168-0.096c-0.029-0.016-0.061-0.028-0.09-0.041
				c-0.052-0.025-0.104-0.048-0.156-0.068c-0.033-0.013-0.065-0.023-0.099-0.035c-0.054-0.018-0.107-0.033-0.162-0.048
				c-0.033-0.009-0.065-0.017-0.099-0.024c-0.059-0.014-0.118-0.024-0.179-0.032c-0.029-0.005,0.021,0.015-0.008,0.011
				c-0.089-0.01-0.192,0.009-0.192,0.009v-0.024c-0.424,0-0.288-0.006-0.393,0.008l-2.9,0.356c-0.842,0.106-1.593,0.631-1.961,1.397
				c-0.025,0.053-0.914,1.882-2.206,4.596c-0.009,0.02-0.022,0.037-0.032,0.056c-0.092,0.194-0.188,0.393-0.285,0.596
				c-0.029,0.062-0.061,0.124-0.09,0.187c-0.066,0.137-0.131,0.274-0.198,0.414c-0.065,0.141-0.134,0.281-0.202,0.424
				c-0.049,0.104-0.099,0.208-0.148,0.313c-0.086,0.181-0.173,0.365-0.262,0.551c-0.037,0.077-0.074,0.156-0.111,0.235
				c-0.09,0.189-0.18,0.38-0.272,0.574c-0.036,0.078-0.074,0.156-0.111,0.236c-0.103,0.217-0.208,0.439-0.313,0.662
				c-0.029,0.063-0.061,0.127-0.09,0.189c-0.107,0.229-0.217,0.458-0.326,0.689c-0.033,0.069-0.065,0.138-0.098,0.207
				c-0.117,0.249-0.236,0.501-0.356,0.755c-0.018,0.037-0.036,0.075-0.054,0.112c-0.13,0.275-0.26,0.552-0.391,0.83
				c-0.011,0.021-0.021,0.044-0.032,0.066c-0.139,0.294-0.278,0.59-0.417,0.887c-0.004,0.008-0.008,0.018-0.011,0.025
				c-0.288,0.61-0.576,1.227-0.865,1.843c-0.005,0.011-0.011,0.022-0.016,0.034c-0.583,1.243-1.164,2.487-1.726,3.703
				c-0.139,0.298-0.276,0.594-0.412,0.888c-0.003,0.007-0.007,0.015-0.009,0.019c-0.41,0.888-0.804,1.748-1.179,2.567
				c-0.004,0.009-0.009,0.02-0.012,0.029c-0.12,0.263-0.239,0.522-0.354,0.778c-0.003,0.007-0.007,0.015-0.01,0.021
				c-0.023-0.019-0.047-0.037-0.069-0.056c-0.089-0.073-0.178-0.144-0.27-0.212c-0.016-0.012-0.029-0.025-0.043-0.036
				c-0.047-0.063-0.096-0.126-0.145-0.188c-0.037-0.046-0.07-0.095-0.109-0.141c-0.018-0.022-0.039-0.04-0.057-0.063
				c-0.122-0.145-0.249-0.282-0.381-0.413c-0.016-0.015-0.031-0.031-0.047-0.047c-0.151-0.146-0.311-0.283-0.475-0.411
				c-0.01-0.009-0.02-0.017-0.03-0.024c-0.172-0.134-0.352-0.258-0.536-0.371c-0.005-0.004-0.011-0.008-0.016-0.011
				c-3.057-2.115-7.31-0.576-10.023,1.382c-0.069,0.051-0.139,0.103-0.208,0.152c-0.058,0.043-0.116,0.086-0.176,0.129
				c-0.071,0.055-0.144,0.109-0.217,0.163c-0.057,0.043-0.114,0.087-0.172,0.131c-0.08,0.061-0.162,0.121-0.243,0.185
				c-0.026,0.02-0.05,0.039-0.076,0.059c-0.169-0.153-0.344-0.299-0.527-0.434c-0.004-0.005-0.01-0.011-0.014-0.018
				c-0.07-0.094-0.141-0.185-0.215-0.274c-0.007-0.009-0.015-0.017-0.021-0.024c-1.449-1.668-3.083-2.209-5.207-2.209
				c-0.035,0-0.073,0-0.111,0c-0.605-2.029-1.961-3.021-3.277-4.559c-0.789-0.922-1.646-1.823-2.607-2.568
				c-0.053-0.041-0.106-0.082-0.159-0.121c-0.174-0.127-0.349-0.25-0.531-0.363c-1.242-0.771-3.605-2.057-5.487-3.06
				c-0.011-0.007-0.023-0.011-0.034-0.019c-0.692-0.368-1.314-0.696-1.792-0.946c-0.097-0.051-0.19-0.101-0.274-0.144
				c-0.376-0.197-0.617-0.322-0.663-0.346c-0.36-0.188-0.755-0.282-1.153-0.282c-0.277,0-0.553,0.046-0.82,0.14
				c-0.65,0.225-1.178,0.707-1.461,1.334l-15.018,33.264c-0.221,0.49-0.279,1.038-0.165,1.563l1.487,6.813
				c0.027,0.124,0.064,0.244,0.11,0.362c0.017,0.043,0.039,0.084,0.058,0.126c0.032,0.071,0.064,0.143,0.103,0.211
				c0.028,0.047,0.058,0.09,0.086,0.135c0.039,0.06,0.078,0.119,0.123,0.174c0.033,0.044,0.071,0.084,0.109,0.126
				c0.029,0.034,0.055,0.069,0.086,0.101c0.262,0.262,0.524,0.524,0.786,0.787c0.501,0.502,1.092,0.903,1.605,1.393
				c0.668,0.64,1.392,1.357,2.384,1.34c0.867-0.016,1.718-0.686,2.069-1.47l7.129-15.839l3.357,10.728
				c-0.015,0.004-0.03,0.005-0.045,0.009c-0.195,0.051-0.383,0.111-0.561,0.182c-0.928,0.37-1.547,1.256-1.576,2.254
				c-0.028,0.999,0.54,1.918,1.444,2.34c1.2,0.559,3.422,3.935,3.584,8.671c0.017,0.485,0.173,0.938,0.429,1.317
				c0.01,0.014,0.021,0.027,0.032,0.04c0.034,0.049,0.069,0.098,0.106,0.144c0.018,0.022,0.037,0.04,0.055,0.062
				c0.033,0.037,0.065,0.073,0.099,0.11c0.004,0.003,0.007,0.007,0.011,0.011l1.395,1.396c0.017,0.017,0.036,0.031,0.053,0.049
				c0.037,0.034,0.074,0.068,0.113,0.101c0.025,0.021,0.051,0.041,0.076,0.06c0.011,0.009,0.021,0.016,0.033,0.024l6.741,14.351
				l66.759-3.649l4.61-8.784c0.284,0.11,0.591,0.172,0.91,0.172c1.108,0,2.085-0.722,2.4-1.784
				c0.036-0.13,3.551-11.976,6.874-23.093c0.723,0.465,1.568,0.712,2.498,0.712c0.499,0,1.017-0.073,1.542-0.22
				C142.134,193.294,145.188,181.982,140.629,175.395z"/>
			<g>
				<g>
					<path fill="#19233C" d="M135.96,177.354c-1.321,0-2.521,0.753-3.369,1.801c0-0.002,0-0.002-0.003-0.003
						c-0.266,0.308-0.368,0.247-0.288-0.042c0.467-1.677,0.764-2.779,1.076-3.729l-1.395-1.396l-1.879,3.108l0.099,0.261
						l-0.67,0.418c-0.437,0.957-0.702,2.128-2.024,3.361l-0.376-1.241l-1.666,1.122c-0.458-2.263-2.043-3.66-4.306-3.66
						c-1.859,0-4.999,0.283-7.63,5.31c-2.632,5.027-1.665,10.759,3.007,10.759c3.951,0,7.154-2.953,8.536-7.736
						c0.002,0,0.004-0.002,0.005-0.002c0.109-0.387,0.396-0.756,0.793-1.099c0-0.001,0-0.003,0.002-0.005
						c0.532-0.446,1.035-0.938,1.508-1.461v0.001c0.216-0.245,0.434-0.126,0.321,0.222c-2.495,7.602-8.969,27.298-8.969,27.298
						l0.965,3.278l-0.355,2.138l1.395,1.397c0,0,4.139-13.965,7.726-25.937c0.295-0.981,1.621-4.767,1.903-5.712
						c0.043-0.144,0.082-0.275,0.124-0.417c0.154-0.469,0.354-0.941,0.594-1.405c1.53-2.939,3.07-3.105,3.971-3.105
						c1.576,0,2.337,1.676,1.71,4.119c-0.528,2.045-1.486,3.556-2.598,4.468c-0.436,0.356-0.858,0.423-1.158-0.315
						c-0.575-1.41-3.563-0.023-2.781,2.199c0.604,1.723,1.76,2.187,3.149,1.798c3.316-0.924,5.861-4.118,6.819-8.749
						C141.061,180.221,139.202,177.354,135.96,177.354z M121.13,187.243c-0.964,1.905-2.374,3.03-3.922,3.03
						c-2.269,0-2.453-3.352-0.925-6.291c0.068-0.129,0.134-0.248,0.201-0.365c0.121-0.192,0.303-0.199,0.315,0.012
						c0.031,1.194,0.561,3.121,3.635,3.121c0.104,0,0.205-0.01,0.31-0.015c-0.003,0.005-0.005,0.013-0.008,0.015
						C121.149,186.715,121.312,186.886,121.13,187.243z M121.533,183.926c-0.76,0.068-1.478-0.002-2.131-0.229
						c-1.727-0.599-1.104-2.235-0.553-2.545c0.545-0.243,1.03-0.275,1.406-0.275c1.188,0,1.912,0.953,1.925,2.469
						C122.176,183.621,121.929,183.89,121.533,183.926z"/>
					<path fill="#19233C" d="M99.048,187.721c-0.001-0.002-0.002-0.005-0.003-0.008c2.176-2.753,4.291-6.319,5.954-10.359
						l-1.396-1.396l-0.988,1.757l-0.38,0.057c-1.267,2.982-2.788,5.433-4.331,7.318c-0.266,0.301-0.598,0.418-0.841-0.122
						l-2.086-4.62c-0.196-0.436-0.032-0.656,0.145-0.809c0.442-0.352,0.905-0.718,1.408-1.105c6.976-5.367,3.712-10.617-2.155-7.838
						c-3.267,1.548-4.15,5.059-3.235,8.525c0,0-0.001,0.001-0.002,0.001c0.15,0.651,0.04,0.989-0.203,1.194c0,0,0,0.002,0,0.003
						c-3.643,3.084-5.769,5.661-5.769,8.673c0,4.246,4.968,5.492,8.1,3.938c0.582-0.291,1.19-0.691,1.814-1.17
						c0,0.002,0.002,0.006,0.005,0.008c0.292-0.233,0.612-0.236,0.796,0.252l0.784,2.113l-0.627,0.672l1.396,1.396l5.1,0.886
						l-3.615-8.009C98.695,188.589,98.627,188.264,99.048,187.721z M93.998,188.67c-2.539,1.555-4.492,1.13-4.492-1.555
						c0-1.56,0.662-2.924,2.236-4.576c0.264-0.268,0.519-0.248,0.617,0.019l1.986,5.337C94.428,188.121,94.3,188.482,93.998,188.67z
						 M94.418,177.523c-0.379,0.294-0.568,0.125-0.647-0.102c-0.61-2.291,0.033-4.412,1.992-5.297
						c2.735-1.238,3.008,2.063-0.268,4.572c-0.367,0.28-0.725,0.556-1.075,0.826H94.418z"/>
					<path fill="#19233C" d="M39.637,184.211l-0.004-0.005c12.249-4.843,9.33-12.423,5.678-14.698
						c-2.158-1.345-8.081-4.417-8.081-4.417l-15.019,33.266l0.851,3.893l-0.618,1.524l1.256,1.395l8.449-18.777h0.001
						c0.16-0.359,0.392-0.554,0.853-0.305c6.54,4.156,9.003,13.791,9.755,20.475c0.031,0.273-0.209,0.283-0.365,0.158l-0.006,0.006
						c-0.815-0.585-1.227-0.621-1.949-0.335c1.193,0.557,2.261,2.069,3.02,4.22l-0.248,5.239l1.395,1.395
						c2.374-15.237-0.482-26.531-5.167-32.294C39.177,184.619,39.393,184.306,39.637,184.211z M35.249,180.801
						c-0.432-0.037-0.454-0.285-0.354-0.506l4.084-9.074c0.139-0.307,0.284-0.348,0.484-0.258c0.559,0.256,1.739,0.807,2.284,1.103
						C45.787,174.27,43.263,181.078,35.249,180.801z"/>
					<path fill="#19233C" d="M80.57,180.373l10.989-11.334l-1.397-1.396l-3.186,2.502l-0.506,0.122c0,0-0.975,1.226-6.326,6.255
						c-0.244,0.224-0.53,0.119-0.416-0.17c3.359-8.354,8.555-20.396,8.555-20.396l-1.396-1.396l-3.833,3.322l1.327,0.612
						c-2.193,4.593-7.323,15.381-10.198,21.798c-1.09,2.436-2.313,4.351-3.577,5.827H68.6l-3.198,3.782
						c-0.76,0.254-1.484,0.372-2.148,0.372c-2.269,0-2.453-3.352-0.924-6.291c1.529-2.939,3.067-3.105,3.972-3.105
						c0.618,0,1.165,0.225,1.442,0.721c0.309,0.549-0.185,1.781-0.856,1.358c-0.668-0.423-1.655,0.635-1.021,1.833
						c0.76,1.434,4.386,1.318,5.04-2.142c0.568-2.988-1.27-5.294-3.701-5.294c-0.181,0-0.375,0.006-0.577,0.013
						c-0.028,0.003-0.056,0.003-0.083,0.006c-0.124,0.006-0.255,0.017-0.389,0.03c-2.71,0.249-3.958,1.523-6.915,3.75
						c-0.043,0.032-0.086,0.061-0.13,0.094l-0.247-1.137l-1.222,1.035c-0.425-2.337-2.021-3.791-4.324-3.791
						c-1.858,0-5,0.283-7.63,5.31c-2.633,5.027-1.666,10.759,3.005,10.759c4.155,0,7.48-3.265,8.734-8.49c0.003,0,0.006,0,0.007,0
						c0.08-0.323,0.209-0.502,0.358-0.629h-0.001c0.613-0.518,1.156-1.058,1.585-1.562l0,0.002c0.061-0.072,0.187-0.06,0.131,0.05
						h0.002c-2.549,4.994-1.56,10.629,3.072,10.629c2.207,0,5.245-1.26,8.001-5.061l0.002,0.002
						c0.148-0.205,0.362-0.124,0.226,0.152l-6.053,12.295l-0.833-0.599l-1.719,1.548l1.397,1.396l5.34-0.687l7.924-18.285
						c0.196-0.448,0.411-0.397,0.529,0l2.974,10.119l-0.78,0.701l1.396,1.396l4.192-0.342l-4.786-14.637
						C80.271,181.047,80.354,180.603,80.57,180.373z M53.428,186.951c-0.966,2.082-2.435,3.322-4.062,3.322
						c-2.269,0-2.452-3.352-0.924-6.291c0.093-0.178,0.183-0.341,0.274-0.497c0.104-0.177,0.241-0.113,0.239,0.063l0.002-0.002
						c0.011,1.185,0.487,3.203,3.637,3.203c0.217,0,0.441-0.025,0.666-0.061l-0.001,0.006
						C53.425,186.666,53.516,186.744,53.428,186.951z M54.097,183.766c-0.983,0.207-1.837,0.174-2.537-0.068
						c-1.726-0.599-1.104-2.235-0.552-2.545c0.547-0.243,1.031-0.275,1.407-0.275c1.212,0,1.939,0.998,1.921,2.572
						C54.332,183.65,54.223,183.73,54.097,183.766z"/>
					<path fill="#19233C" d="M121.971,159.326c-2.283-1.117-6.636-3.366-6.636-3.366l-12.896,35.544l0.945,2.145l0.122,2.043
						l1.396,1.396l7.127-19.814C128.698,175.457,129.129,162.836,121.971,159.326z M114.629,172.789
						c-0.618,0.045-0.836-0.412-0.668-0.882l3.529-9.81c0.101-0.283,0.421-0.449,0.821-0.227c0.593,0.331,1.456,0.822,1.884,1.109
						C123.117,164.945,122.173,172.18,114.629,172.789z"/>
				</g>
				<g>
					<path fill="#D23243" d="M38.24,182.816l-0.005-0.006c12.25-4.844,9.333-12.424,5.68-14.699
						c-2.158-1.344-8.081-4.415-8.081-4.415L20.815,196.96l0.772,3.537l-0.697,1.879l1.387,1.397l0.008-0.08l0.017,0.08
						l8.451-18.779h0.001c0.16-0.359,0.391-0.554,0.853-0.305c6.539,4.156,9.004,13.79,9.754,20.476
						c0.031,0.273-0.208,0.282-0.365,0.157l-0.007,0.008c-0.814-0.587-1.226-0.623-1.948-0.337c1.194,0.557,2.261,2.069,3.02,4.219
						l-0.247,5.239l1.396,1.396c2.372-15.239-0.484-26.533-5.167-32.293C37.781,183.225,37.997,182.908,38.24,182.816z
						 M33.853,179.405c-0.432-0.038-0.454-0.285-0.354-0.506l4.083-9.073c0.138-0.307,0.284-0.349,0.483-0.26
						c0.558,0.26,1.74,0.809,2.284,1.104C44.392,172.875,41.866,179.683,33.853,179.405z"/>
					<path fill="#D23243" d="M120.573,157.933c-2.282-1.12-6.633-3.368-6.633-3.368l-12.897,35.543l0.947,2.143l0.121,2.046
						l1.396,1.396l7.127-19.813C127.304,174.063,127.735,161.439,120.573,157.933z M113.232,171.394
						c-0.618,0.044-0.836-0.413-0.668-0.884l3.529-9.807c0.103-0.284,0.421-0.453,0.822-0.229c0.593,0.332,1.456,0.823,1.882,1.109
						C121.721,163.549,120.775,170.783,113.232,171.394z"/>
					<path fill="#D23243" d="M134.564,175.958c-1.322,0-2.522,0.751-3.368,1.799l-0.003-0.001c-0.266,0.309-0.37,0.247-0.289-0.043
						c0.467-1.678,0.765-2.779,1.077-3.728l-1.396-1.397l-1.88,3.107l0.101,0.262l-0.673,0.418
						c-0.436,0.957-0.701,2.129-2.024,3.362l-0.373-1.242l-1.667,1.123c-0.459-2.263-2.044-3.66-4.305-3.66
						c-1.86,0-5,0.282-7.632,5.308c-2.632,5.028-1.665,10.761,3.007,10.761c3.95,0,7.154-2.953,8.536-7.736
						c0.002-0.001,0.005-0.002,0.007-0.003c0.107-0.387,0.396-0.754,0.792-1.099c0-0.001,0-0.003,0.001-0.005
						c0.533-0.444,1.035-0.938,1.508-1.462v0.003c0.217-0.246,0.436-0.125,0.32,0.223c-2.492,7.6-8.966,27.297-8.966,27.297
						l0.964,3.279l-0.356,2.136l1.396,1.396c0,0,4.136-13.962,7.725-25.937c0.293-0.981,1.619-4.766,1.902-5.709
						c0.044-0.146,0.084-0.277,0.126-0.42v0.002c0.152-0.47,0.353-0.942,0.594-1.405c1.528-2.94,3.067-3.105,3.971-3.105
						c1.576,0,2.335,1.676,1.708,4.12c-0.527,2.043-1.484,3.554-2.596,4.467c-0.437,0.357-0.858,0.422-1.16-0.314
						c-0.573-1.412-3.562-0.024-2.781,2.198c0.604,1.724,1.76,2.187,3.151,1.798c3.314-0.925,5.861-4.118,6.819-8.75
						C139.665,178.823,137.806,175.958,134.564,175.958z M119.734,185.849c-0.962,1.905-2.374,3.029-3.921,3.029
						c-2.27,0-2.453-3.352-0.926-6.291c0.067-0.13,0.134-0.247,0.2-0.366c0.121-0.191,0.303-0.197,0.314,0.013
						c0.034,1.192,0.562,3.12,3.638,3.12c0.104,0,0.205-0.01,0.307-0.014c-0.001,0.004-0.005,0.012-0.005,0.014
						C119.754,185.32,119.916,185.488,119.734,185.849z M120.138,182.531c-0.759,0.066-1.476-0.002-2.132-0.23
						c-1.727-0.599-1.103-2.235-0.553-2.543c0.547-0.244,1.032-0.276,1.405-0.276c1.189,0,1.912,0.954,1.928,2.468
						C120.779,182.225,120.534,182.494,120.138,182.531z"/>
					<path fill="#D23243" d="M97.651,186.324c0-0.002-0.002-0.004-0.002-0.007c2.176-2.755,4.29-6.32,5.953-10.359l-1.394-1.396
						l-0.99,1.757l-0.38,0.058c-1.267,2.98-2.788,5.432-4.332,7.316c-0.265,0.301-0.596,0.419-0.841-0.121l-2.084-4.621
						c-0.198-0.438-0.033-0.655,0.143-0.808c0.442-0.353,0.905-0.718,1.408-1.104c3.96-3.047,4.619-6.056,3.377-7.58
						c-0.001-0.001,0-0.002-0.001-0.004c-0.012-0.016-0.034-0.041-0.063-0.072c-0.005-0.006-0.01-0.011-0.015-0.016
						c-0.313-0.348-1.394-1.465-2.008-1.895l0.319,1.02c-1.019-0.177-2.312,0.02-3.766,0.709c-3.266,1.547-4.149,5.056-3.235,8.524
						c0,0,0,0.001-0.001,0.003c0.151,0.649,0.04,0.988-0.204,1.192v0.001c-3.641,3.086-5.768,5.663-5.768,8.674
						c0,4.246,4.968,5.494,8.098,3.938c0.584-0.289,1.192-0.691,1.817-1.17c0,0.002,0.001,0.007,0.003,0.008
						c0.293-0.233,0.612-0.235,0.796,0.252l0.785,2.114l-0.628,0.672l1.396,1.396l5.098,0.886l-3.614-8.01
						C97.3,187.193,97.23,186.866,97.651,186.324z M92.601,187.273c-2.537,1.557-4.491,1.13-4.491-1.554
						c0-1.56,0.664-2.924,2.236-4.575c0.264-0.27,0.52-0.248,0.618,0.016l1.985,5.34C93.031,186.727,92.905,187.088,92.601,187.273z
						 M92.375,176.025c-0.611-2.289,0.034-4.41,1.991-5.295c2.736-1.24,3.009,2.061-0.267,4.568
						c-0.367,0.283-0.724,0.558-1.076,0.829v-0.001C92.643,176.421,92.453,176.254,92.375,176.025z"/>
				</g>
			</g>
			<g>
				<polygon fill="#D23243" points="119.73,232.643 47.194,234.641 43.773,222.468 123.136,218.329 				"/>
				<g>
					<path fill="#FFFFFF" d="M49.269,225.825l1.708-0.045c1.29-0.033,2.379,0.952,2.414,2.253c0.035,1.303-1.008,2.346-2.292,2.378
						l-1.708,0.046L49.269,225.825z M50.568,229.405l0.27-0.006c0.719-0.021,1.322-0.429,1.298-1.332
						c-0.022-0.829-0.581-1.281-1.354-1.262l-0.282,0.008L50.568,229.405z"/>
					<path fill="#FFFFFF" d="M58.81,227.805c0.04,1.5-1.007,2.583-2.493,2.623c-1.486,0.039-2.589-0.989-2.628-2.487
						c-0.038-1.401,1.165-2.415,2.497-2.45C57.519,225.455,58.773,226.405,58.81,227.805z M54.941,227.913
						c0.021,0.798,0.626,1.368,1.344,1.347c0.72-0.019,1.293-0.617,1.272-1.415c-0.017-0.639-0.622-1.207-1.34-1.188
						C55.498,226.676,54.924,227.274,54.941,227.913z"/>
					<path fill="#FFFFFF" d="M59.29,225.562l1.204-0.033l2.28,2.774l0.012-0.001l-0.074-2.831l1.203-0.031l0.123,4.631l-1.204,0.031
						l-2.28-2.778h-0.012l0.075,2.838l-1.204,0.031L59.29,225.562z"/>
					<path fill="#FFFFFF" d="M64.687,225.418l1.707-0.045c1.29-0.034,2.379,0.952,2.413,2.254c0.035,1.302-1.007,2.344-2.291,2.376
						l-1.708,0.048L64.687,225.418z M65.985,228.997l0.271-0.005c0.718-0.021,1.322-0.43,1.298-1.333
						c-0.021-0.828-0.581-1.28-1.355-1.261l-0.282,0.007L65.985,228.997z"/>
					<path fill="#FFFFFF" d="M70.499,226.286l0.02,0.773l1.358-0.036l0.027,1.021l-1.357,0.034l0.021,0.799l1.43-0.037l0.027,1.019
						l-2.634,0.071l-0.124-4.633l2.636-0.069l0.027,1.021L70.499,226.286z"/>
					<path fill="#FFFFFF" d="M75.984,226.141l0.021,0.774l1.356-0.037l0.027,1.02l-1.357,0.036l0.021,0.799l1.432-0.037l0.025,1.019
						l-2.634,0.068l-0.123-4.63l2.636-0.069l0.027,1.019L75.984,226.141z"/>
					<path fill="#FFFFFF" d="M79.406,228.643l1.443-0.036l0.026,1.019l-2.647,0.069l-0.121-4.631l1.203-0.031L79.406,228.643z"/>
					<path fill="#FFFFFF" d="M87.229,229.457l-1.498,0.039l-1.185-1.751l-0.012,0.001l0.048,1.78l-1.205,0.033l-0.122-4.633
						l1.799-0.047c0.916-0.023,1.622,0.394,1.647,1.384c0.018,0.638-0.324,1.2-0.979,1.334L87.229,229.457z M84.514,226.973
						l0.116-0.003c0.394-0.011,0.833-0.097,0.82-0.602c-0.013-0.503-0.458-0.564-0.851-0.554l-0.117,0.003L84.514,226.973z"/>
					<path fill="#FFFFFF" d="M92.237,226.92c0.04,1.5-1.007,2.584-2.493,2.624c-1.486,0.039-2.59-0.987-2.629-2.487
						c-0.037-1.399,1.166-2.415,2.498-2.45C90.947,224.571,92.201,225.521,92.237,226.92z M88.368,227.03
						c0.021,0.799,0.626,1.365,1.346,1.348c0.718-0.019,1.292-0.619,1.271-1.416c-0.016-0.641-0.621-1.208-1.34-1.189
						C88.926,225.794,88.352,226.393,88.368,227.03z"/>
					<path fill="#FFFFFF" d="M96.066,226.145c-0.254-0.325-0.657-0.493-1.069-0.482c-0.737,0.019-1.219,0.598-1.2,1.315
						c0.019,0.731,0.536,1.246,1.286,1.227c0.393-0.011,0.781-0.21,1.025-0.518l0.038,1.442c-0.396,0.134-0.683,0.233-1.058,0.244
						c-0.645,0.016-1.266-0.213-1.756-0.637c-0.522-0.448-0.771-1.044-0.79-1.729c-0.017-0.633,0.207-1.247,0.638-1.715
						c0.442-0.478,1.092-0.777,1.743-0.796c0.387-0.011,0.744,0.065,1.104,0.205L96.066,226.145z"/>
					<path fill="#FFFFFF" d="M99.425,224.502l1.493-0.04l-1.784,2.24l2.072,2.386l-1.56,0.041l-1.607-1.967h-0.013l0.054,2.009
						l-1.204,0.031l-0.122-4.631l1.204-0.033l0.05,1.912h0.012L99.425,224.502z"/>
					<path fill="#FFFFFF" d="M105.532,227.154l1.05-2.843l1.308-0.034l-1.854,4.682l-0.934,0.025l-2.069-4.58l1.309-0.034
						L105.532,227.154z"/>
					<path fill="#FFFFFF" d="M109.479,228.869l-1.203,0.031l-0.123-4.63l1.204-0.031L109.479,228.869z"/>
					<path fill="#FFFFFF" d="M112.107,226.98l1.05-2.844l1.308-0.034l-1.855,4.684l-0.934,0.024l-2.069-4.58l1.309-0.033
						L112.107,226.98z"/>
					<path fill="#FFFFFF" d="M115.959,225.084l0.02,0.772l1.357-0.034l0.027,1.02l-1.357,0.036l0.021,0.797l1.432-0.038l0.027,1.021
						l-2.636,0.068l-0.122-4.63l2.635-0.07l0.027,1.02L115.959,225.084z"/>
				</g>
			</g>
			<path fill="#D23243" d="M79.176,178.979l10.989-11.337l-1.396-1.396l-3.191,2.504l-0.502,0.122c0,0-0.977,1.225-6.329,6.255
				c-0.241,0.223-0.528,0.117-0.413-0.173c3.358-8.354,8.554-20.395,8.554-20.395l-1.396-1.397l-3.834,3.324l1.328,0.611
				c-2.193,4.594-7.324,15.381-10.198,21.798c-1.015,2.267-2.145,4.083-3.313,5.515h-2.271l-3.388,4.155
				c-0.69,0.212-1.351,0.313-1.959,0.313c-2.269,0-2.452-3.352-0.924-6.291c1.529-2.94,3.068-3.105,3.971-3.105
				c0.618,0,1.167,0.224,1.444,0.722c0.306,0.547-0.187,1.781-0.856,1.358c-0.67-0.425-1.656,0.634-1.022,1.831
				c0.759,1.436,4.387,1.32,5.041-2.141c0.339-1.79-0.184-3.334-1.18-4.285c-0.604-0.625-1.703-1.652-1.858-1.751l-0.273,0.765
				c-0.128-0.015-0.258-0.022-0.391-0.022c-0.18,0-0.375,0.005-0.577,0.014c-0.027,0.001-0.055,0.003-0.082,0.005
				c-0.125,0.006-0.257,0.016-0.389,0.029c-2.71,0.25-3.959,1.524-6.915,3.75c-0.044,0.032-0.087,0.063-0.13,0.095l-0.247-1.136
				l-1.223,1.034c-0.149-0.825-0.447-1.534-0.868-2.114c-0.005-0.008-0.012-0.018-0.017-0.025c-0.026-0.034-0.051-0.07-0.078-0.104
				c-0.428-0.556-1.543-1.62-2.003-2.011l-0.278,0.584c-0.34-0.076-0.699-0.12-1.08-0.12c-1.86,0-5,0.282-7.632,5.308
				c-2.631,5.028-1.666,10.761,3.007,10.761c4.154,0,7.48-3.265,8.734-8.49c0.002-0.001,0.004,0,0.006-0.001
				c0.082-0.322,0.209-0.502,0.36-0.628l-0.001-0.001c0.612-0.518,1.156-1.057,1.585-1.562l-0.001,0.002
				c0.061-0.072,0.187-0.06,0.131,0.05c0,0,0.001,0,0.002,0c-2.549,4.996-1.56,10.63,3.071,10.63c2.206,0,5.245-1.26,8.001-5.062
				l0.003,0.003c0.147-0.205,0.362-0.124,0.225,0.151l-6.053,12.295l-0.832-0.598l-1.72,1.548l1.396,1.396l5.34-0.688l7.925-18.283
				l0,0c0.196-0.449,0.413-0.396,0.529,0l2.974,10.118l-0.78,0.702l1.396,1.396l4.194-0.344l-4.788-14.637
				C78.875,179.65,78.957,179.205,79.176,178.979z M52.033,185.557c-0.966,2.08-2.438,3.321-4.063,3.321
				c-2.269,0-2.453-3.352-0.925-6.291c0.093-0.177,0.185-0.341,0.275-0.499c0.102-0.176,0.241-0.111,0.238,0.064l0.002-0.002
				c0.01,1.185,0.486,3.203,3.637,3.203c0.216,0,0.441-0.023,0.666-0.061l-0.002,0.007C52.029,185.27,52.12,185.348,52.033,185.557z
				 M52.702,182.369c-0.984,0.207-1.838,0.176-2.537-0.068c-1.727-0.599-1.104-2.235-0.553-2.543
				c0.547-0.244,1.032-0.276,1.407-0.276c1.213,0,1.939,0.997,1.924,2.571C52.936,182.253,52.828,182.335,52.702,182.369z"/>
			<g>
				<g>
					<path fill="#FFE00F" d="M119.179,156.535c-2.283-1.119-6.635-3.367-6.635-3.367l-12.897,35.543l2.465,5.585l7.127-19.814
						C125.908,172.666,126.338,160.044,119.179,156.535z M111.837,169.998c-0.617,0.044-0.836-0.412-0.668-0.883l3.529-9.809
						c0.103-0.284,0.422-0.451,0.821-0.227c0.592,0.331,1.457,0.821,1.882,1.109C120.325,162.152,119.381,169.387,111.837,169.998z
						 M133.168,174.563c-1.32,0-2.521,0.752-3.369,1.8c0,0,0-0.001-0.003-0.001c-0.262,0.306-0.367,0.246-0.287-0.043
						c0.466-1.678,0.766-2.779,1.077-3.73l-3.848,2.392c-0.524,1.149-0.797,2.61-2.965,4.114c-0.183,0.125-0.369,0.248-0.55,0.359
						c-0.207,0.113-0.392,0.115-0.418-0.224c0,0-0.005,0.001-0.005,0.002c-0.152-2.849-1.849-4.669-4.432-4.669
						c-1.859,0-5,0.282-7.632,5.309c-2.631,5.028-1.665,10.76,3.008,10.76c3.949,0,7.154-2.953,8.535-7.737
						c0.002-0.001,0.006-0.002,0.006-0.002c0.107-0.386,0.396-0.755,0.793-1.099c0-0.002,0-0.004,0.001-0.005
						c0.534-0.446,1.036-0.938,1.509-1.463v0.003c0.215-0.245,0.434-0.124,0.319,0.223c-2.491,7.602-8.965,27.296-8.965,27.296
						l2.002,6.813c0,0,4.136-13.962,7.726-25.935c0.293-0.982,1.619-4.765,1.902-5.711c0.043-0.145,0.083-0.277,0.125-0.418l0,0
						c0.154-0.468,0.352-0.941,0.594-1.404c1.529-2.939,3.069-3.105,3.973-3.105c1.573,0,2.335,1.676,1.704,4.119
						c-0.524,2.045-1.48,3.554-2.594,4.467c-0.437,0.357-0.859,0.422-1.16-0.314c-0.573-1.408-3.56-0.025-2.779,2.199
						c0.604,1.723,1.76,2.186,3.15,1.797c3.315-0.923,5.859-4.117,6.818-8.748C138.27,177.429,136.41,174.563,133.168,174.563z
						 M118.339,184.451c-0.964,1.906-2.373,3.032-3.923,3.032c-2.269,0-2.453-3.353-0.924-6.292
						c0.066-0.131,0.135-0.248,0.201-0.365c0.12-0.193,0.302-0.199,0.313,0.011c0.033,1.193,0.561,3.123,3.637,3.123
						c0.104,0,0.205-0.01,0.309-0.017c-0.003,0.006-0.005,0.013-0.007,0.017C118.357,183.924,118.52,184.092,118.339,184.451z
						 M118.743,181.135c-0.76,0.066-1.478-0.002-2.133-0.23c-1.727-0.598-1.103-2.234-0.555-2.544
						c0.549-0.243,1.034-0.274,1.408-0.274c1.188,0,1.909,0.953,1.927,2.468C119.384,180.828,119.137,181.097,118.743,181.135z
						 M36.649,182.16c-0.264-0.332-0.049-0.646,0.196-0.741l-0.006-0.006c12.251-4.843,9.333-12.423,5.681-14.696
						c-2.159-1.344-8.081-4.417-8.081-4.417l-15.017,33.264l1.487,6.813l8.45-18.776l0,0c0.161-0.359,0.392-0.555,0.853-0.306
						c6.541,4.157,9.005,13.79,9.757,20.477c0.03,0.271-0.209,0.28-0.368,0.155l-0.005,0.008c-0.816-0.587-2.087-0.622-2.807-0.335
						c2.201,1.026,4.838,5.31,5.027,10.853C44.188,199.213,41.333,187.92,36.649,182.16L36.649,182.16z M32.457,178.01
						c-0.432-0.039-0.455-0.284-0.354-0.509l4.083-9.069c0.138-0.309,0.285-0.351,0.484-0.26c0.558,0.258,1.74,0.807,2.282,1.102
						C42.996,171.479,40.473,178.287,32.457,178.01z M77.779,177.582l10.99-11.336l-5.09,1.229c0,0-0.977,1.227-6.329,6.256
						c-0.241,0.223-0.528,0.119-0.413-0.173c3.357-8.352,8.555-20.396,8.555-20.396l-2.859,0.363c0,0-7.517,15.658-11.239,23.975
						c-3.287,7.34-7.782,9.983-10.933,9.983c-2.269,0-2.453-3.353-0.925-6.292c1.53-2.939,3.07-3.105,3.972-3.105
						c0.619,0,1.168,0.223,1.444,0.72c0.308,0.549-0.187,1.782-0.856,1.36c-0.669-0.424-1.656,0.633-1.021,1.831
						c0.76,1.435,4.385,1.319,5.04-2.142c0.568-2.989-1.269-5.293-3.701-5.293c-0.18,0-0.376,0.005-0.577,0.014
						c-0.026,0.002-0.054,0.002-0.082,0.004c-0.126,0.006-0.256,0.018-0.389,0.031c-2.711,0.248-3.961,1.525-6.917,3.749
						c-0.397,0.3-0.788,0.571-1.165,0.819c-0.182,0.119-0.322,0.015-0.335-0.158l-0.005,0.015c-0.217-2.737-1.896-4.474-4.417-4.474
						c-1.859,0-4.999,0.282-7.631,5.309c-2.631,5.028-1.664,10.76,3.008,10.76c4.152,0,7.479-3.266,8.733-8.49
						c0.003-0.002,0.004,0,0.008-0.002c0.081-0.323,0.209-0.501,0.358-0.627H55c0.613-0.517,1.157-1.059,1.586-1.563l-0.001,0.002
						c0.063-0.072,0.186-0.058,0.13,0.05h0.003c-2.548,4.995-1.561,10.63,3.071,10.63c2.206,0,5.247-1.26,8.002-5.063l0.002,0.004
						c0.146-0.205,0.361-0.125,0.225,0.152l-7.208,14.64l5.342-0.686l7.925-18.286l0,0c0.194-0.449,0.412-0.396,0.528,0
						l3.589,12.217l4.194-0.343l-4.787-14.634C77.479,178.257,77.561,177.81,77.779,177.582z M50.637,184.162
						c-0.967,2.078-2.437,3.321-4.062,3.321c-2.269,0-2.452-3.353-0.925-6.292c0.092-0.177,0.183-0.341,0.275-0.498
						c0.104-0.176,0.24-0.113,0.238,0.063l0.002-0.001c0.011,1.184,0.486,3.205,3.639,3.205c0.218,0,0.44-0.026,0.665-0.063
						l-0.001,0.007C50.633,183.875,50.725,183.951,50.637,184.162z M51.305,180.975c-0.984,0.207-1.838,0.174-2.536-0.07
						c-1.727-0.598-1.103-2.234-0.553-2.544c0.547-0.243,1.032-0.274,1.407-0.274c1.214,0,1.94,0.996,1.923,2.572
						C51.54,180.857,51.432,180.938,51.305,180.975z M96.255,184.93c0-0.004,0-0.006-0.002-0.007
						c2.177-2.754,4.29-6.321,5.956-10.36l-2.767,0.418c-1.267,2.982-2.788,5.432-4.331,7.318c-0.265,0.301-0.595,0.418-0.841-0.123
						l-2.085-4.619c-0.196-0.438-0.033-0.656,0.144-0.809c0.442-0.354,0.905-0.719,1.409-1.104c6.976-5.368,3.712-10.62-2.155-7.839
						c-3.267,1.547-4.151,5.059-3.236,8.525l-0.002,0.001c0.151,0.651,0.041,0.989-0.204,1.193c0,0,0,0.003,0.002,0.003
						c-3.642,3.085-5.768,5.662-5.768,8.674c0,4.246,4.967,5.491,8.098,3.936c0.583-0.29,1.192-0.689,1.816-1.168
						c0,0.002,0,0.004,0.002,0.007c0.293-0.232,0.614-0.237,0.796,0.254l1.554,4.18l5.1,0.887l-3.616-8.009
						C95.904,185.797,95.835,185.473,96.255,184.93z M91.207,185.879c-2.537,1.555-4.492,1.129-4.492-1.555
						c0-1.559,0.664-2.924,2.237-4.576c0.261-0.27,0.517-0.25,0.614,0.017l1.985,5.339
						C91.636,185.331,91.508,185.691,91.207,185.879z M91.627,174.732c-0.381,0.293-0.568,0.124-0.646-0.103
						c-0.611-2.29,0.033-4.413,1.989-5.296c2.736-1.238,3.011,2.063-0.266,4.569c-0.367,0.282-0.724,0.558-1.077,0.831
						C91.627,174.732,91.627,174.732,91.627,174.732z"/>
				</g>
			</g>
		</g>
		<g>
			<g>
				<g>
					<path fill="#FFFFFF" d="M58.953,213.485c0.599,0.679,1.188,1.187,1.771,1.522c0.582,0.337,1.162,0.505,1.74,0.505
						c0.539,0,0.98-0.145,1.327-0.434c0.346-0.29,0.519-0.656,0.519-1.101c0-0.491-0.15-0.869-0.449-1.135s-0.977-0.54-2.032-0.823
						c-1.446-0.39-2.469-0.896-3.067-1.522c-0.599-0.627-0.898-1.482-0.898-2.572c0-1.413,0.473-2.564,1.418-3.456
						c0.945-0.892,2.17-1.338,3.677-1.338c0.813,0,1.585,0.11,2.315,0.329c0.729,0.218,1.42,0.55,2.073,0.993l-1.261,2.896
						c-0.458-0.391-0.927-0.685-1.408-0.883c-0.48-0.199-0.957-0.299-1.427-0.299c-0.484,0-0.877,0.116-1.18,0.349
						s-0.455,0.529-0.455,0.894c0,0.37,0.133,0.664,0.398,0.888c0.266,0.222,0.779,0.433,1.539,0.635l0.181,0.05
						c1.642,0.444,2.721,0.933,3.239,1.463c0.35,0.364,0.616,0.799,0.797,1.308c0.182,0.508,0.272,1.072,0.272,1.689
						c0,1.567-0.515,2.828-1.543,3.778c-1.029,0.952-2.401,1.429-4.116,1.429c-1.029,0-1.966-0.176-2.81-0.525
						c-0.844-0.349-1.656-0.897-2.437-1.644L58.953,213.485z"/>
					<path fill="#FFFFFF" d="M68.753,218.257v-14.771h9.05v3.239h-5.125v2.563h4.833v3.168h-4.833v2.492h5.125v3.31H68.753z"/>
				</g>
			</g>
			<g>
				<g>
					<path fill="#FFFFFF" d="M86.336,218.293l-6.194-14.771h4.278l2.956,8.264c0.026,0.087,0.082,0.297,0.166,0.63
						c0.084,0.334,0.193,0.783,0.328,1.348c0.107-0.452,0.208-0.859,0.303-1.222c0.094-0.362,0.165-0.615,0.212-0.756l2.936-8.264
						h4.278l-6.194,14.771H86.336z"/>
					<path fill="#FFFFFF" d="M95.766,218.293v-14.771h9.05v3.238H99.69v2.563h4.833v3.168H99.69v2.492h5.125v3.309H95.766z"/>
				</g>
			</g>
		</g>
	</g>
	<rect x="11.919" y="145.666" fill="none" width="135.833" height="93.975"/>
</g>
</svg>
