<?xml version="1.0" encoding="utf-8"?>
<!-- Generator: Adobe Illustrator 15.1.0, SVG Export Plug-In . SVG Version: 6.00 Build 0)  -->
<!DOCTYPE svg PUBLIC "-//W3C//DTD SVG 1.1//EN" "http://www.w3.org/Graphics/SVG/1.1/DTD/svg11.dtd">
<svg version="1.1"
	 id="svg2" xmlns:rdf="http://www.w3.org/1999/02/22-rdf-syntax-ns#" xmlns:dc="http://purl.org/dc/elements/1.1/" xmlns:inkscape="http://www.inkscape.org/namespaces/inkscape" xmlns:cc="http://creativecommons.org/ns#" xmlns:svg="http://www.w3.org/2000/svg"
	 xmlns="http://www.w3.org/2000/svg" xmlns:xlink="http://www.w3.org/1999/xlink" x="0px" y="0px" width="137.5px"
	 height="96.388px" viewBox="-181 31.166 137.5 96.388" enable-background="new -181 31.166 137.5 96.388" xml:space="preserve">
<g>
	<rect x="-181" y="31.166" fill="#79C143" width="137.5" height="62.333"/>
	<rect x="-181" y="93.499" fill="#2E292A" width="137.5" height="34.055"/>
	<path fill="#FFFFFF" d="M-112.609,76.281c3.638-2.585,4.588-2.943,4.728-6.875c0.177-5.112-6.024-6.742-6.024-6.742h-29.585v23.782
		h13.505v-9.973h4.303l6.755,9.973h14.057L-112.609,76.281z M-124.18,73.554h-5.64v-7.957h5.64
		C-124.18,65.601-117.937,70.067-124.18,73.554z"/>
	<polygon fill="#FFFFFF" points="-109.114,62.664 -109.114,65.696 -98.215,65.696 -98.215,86.446 -84.709,86.446 -84.709,65.601 
		-73.606,65.601 -73.606,62.664 	"/>
	<g>
		<path fill="#FFFFFF" d="M-138.081,103.47h-1.111l-1.336-2.647h-1.185v2.647h-0.958v-6.292h2.438c0.38,0,0.723,0.08,1.024,0.231
			c0.293,0.161,0.523,0.372,0.688,0.655c0.154,0.274,0.236,0.595,0.236,0.958c0,0.423-0.116,0.786-0.346,1.081
			c-0.232,0.283-0.537,0.478-0.904,0.583L-138.081,103.47z M-139.225,99.022c0-0.304-0.095-0.549-0.285-0.726
			c-0.201-0.169-0.45-0.263-0.788-0.263h-1.41v1.969h1.41c0.319,0,0.587-0.085,0.788-0.262
			C-139.324,99.572-139.225,99.322-139.225,99.022z"/>
		<path fill="#FFFFFF" d="M-132.458,101.346c0,0.422-0.095,0.802-0.285,1.14c-0.198,0.33-0.466,0.583-0.813,0.77
			c-0.346,0.177-0.73,0.27-1.159,0.27c-0.437,0-0.817-0.093-1.163-0.27c-0.342-0.187-0.61-0.439-0.809-0.77
			c-0.19-0.338-0.289-0.718-0.289-1.14v-4.168h0.955v4.121c0,0.274,0.057,0.52,0.156,0.723c0.107,0.202,0.264,0.363,0.454,0.473
			c0.199,0.11,0.424,0.169,0.688,0.169c0.26,0,0.479-0.059,0.678-0.169c0.205-0.109,0.355-0.271,0.458-0.473
			c0.109-0.203,0.16-0.448,0.16-0.723v-4.121h0.957v4.168H-132.458z"/>
		<path fill="#FFFFFF" d="M-126.974,101.671c0,0.283-0.062,0.536-0.165,0.772c-0.107,0.229-0.268,0.431-0.471,0.592
			c-0.205,0.16-0.45,0.287-0.718,0.363c-0.268,0.088-0.577,0.126-0.904,0.126c-0.481,0-0.899-0.067-1.258-0.194
			c-0.355-0.135-0.68-0.346-0.978-0.642l0.631-0.625c0.142,0.144,0.293,0.262,0.462,0.354c0.169,0.085,0.347,0.152,0.537,0.194
			c0.19,0.034,0.393,0.06,0.614,0.06c0.401,0,0.722-0.093,0.95-0.262c0.239-0.161,0.342-0.406,0.342-0.71
			c0-0.287-0.083-0.498-0.247-0.65c-0.081-0.076-0.159-0.127-0.264-0.169c-0.099-0.042-0.245-0.067-0.431-0.093l-0.741-0.102
			c-0.513-0.076-0.912-0.245-1.193-0.502c-0.302-0.283-0.45-0.685-0.45-1.2c0-0.367,0.082-0.688,0.251-0.975
			c0.169-0.271,0.42-0.49,0.727-0.643c0.321-0.151,0.692-0.232,1.13-0.232c0.422,0,0.79,0.063,1.089,0.174
			c0.306,0.109,0.595,0.295,0.855,0.545l-0.614,0.604c-0.12-0.118-0.26-0.22-0.405-0.287c-0.144-0.067-0.29-0.123-0.45-0.152
			c-0.161-0.033-0.33-0.042-0.52-0.042c-0.239,0-0.441,0.042-0.619,0.118c-0.173,0.085-0.302,0.203-0.389,0.347
			c-0.095,0.147-0.135,0.316-0.135,0.502c0,0.258,0.074,0.452,0.234,0.596c0.083,0.067,0.177,0.122,0.302,0.173
			c0.126,0.056,0.264,0.089,0.407,0.11l0.718,0.105c0.276,0.042,0.519,0.097,0.701,0.177c0.186,0.068,0.34,0.169,0.471,0.288
			C-127.147,100.679-126.974,101.113-126.974,101.671z"/>
		<path fill="#FFFFFF" d="M-121.758,101.671c0,0.283-0.065,0.536-0.169,0.772c-0.104,0.229-0.268,0.431-0.466,0.592
			c-0.209,0.16-0.45,0.287-0.723,0.363c-0.268,0.088-0.576,0.126-0.906,0.126c-0.479,0-0.897-0.067-1.252-0.194
			c-0.355-0.135-0.68-0.346-0.982-0.642l0.636-0.625c0.137,0.144,0.289,0.262,0.462,0.354c0.165,0.085,0.346,0.152,0.536,0.194
			c0.186,0.034,0.393,0.06,0.61,0.06c0.401,0,0.722-0.093,0.955-0.262c0.238-0.161,0.346-0.406,0.346-0.71
			c0-0.287-0.086-0.498-0.255-0.65c-0.083-0.076-0.165-0.127-0.269-0.169c-0.091-0.042-0.241-0.067-0.424-0.093l-0.743-0.102
			c-0.513-0.076-0.908-0.245-1.193-0.502c-0.302-0.283-0.454-0.685-0.454-1.2c0-0.367,0.086-0.688,0.255-0.975
			c0.173-0.271,0.429-0.49,0.73-0.643c0.319-0.151,0.688-0.232,1.119-0.232c0.433,0,0.8,0.063,1.1,0.174
			c0.302,0.109,0.596,0.295,0.859,0.545l-0.619,0.604c-0.125-0.118-0.268-0.22-0.41-0.287c-0.139-0.067-0.285-0.123-0.45-0.152
			c-0.16-0.033-0.325-0.042-0.515-0.042c-0.238,0-0.445,0.042-0.619,0.118c-0.177,0.085-0.306,0.203-0.397,0.347
			c-0.091,0.147-0.135,0.316-0.135,0.502c0,0.258,0.087,0.452,0.239,0.596c0.086,0.067,0.182,0.122,0.306,0.173
			c0.123,0.056,0.264,0.089,0.403,0.11l0.718,0.105c0.285,0.042,0.518,0.097,0.703,0.177c0.182,0.068,0.338,0.169,0.465,0.288
			C-121.936,100.679-121.758,101.113-121.758,101.671z"/>
		<path fill="#FFFFFF" d="M-119.528,103.47h-0.963v-6.292h0.963V103.47z"/>
		<path fill="#FFFFFF" d="M-113.253,103.47h-1.011l-0.437-1.267h-2.479l-0.435,1.267h-1.014l2.302-6.292h0.769L-113.253,103.47z
			 M-114.974,101.388l-0.953-2.791l-0.99,2.791H-114.974z"/>
		<path fill="#FFFFFF" d="M-106.373,98.034h-1.731v5.436h-0.957v-5.436h-1.728v-0.856h4.416V98.034z"/>
		<path fill="#FFFFFF" d="M-100.993,100.315c0,0.498,0,0.878-0.025,1.145c-0.017,0.266-0.076,0.511-0.156,0.743
			c-0.089,0.232-0.228,0.451-0.427,0.646c-0.447,0.443-0.992,0.668-1.655,0.668c-0.65,0-1.203-0.229-1.647-0.668
			c-0.206-0.202-0.346-0.413-0.435-0.642c-0.089-0.228-0.14-0.465-0.16-0.739c-0.013-0.266-0.025-0.646-0.025-1.152
			c0-0.381,0.004-0.685,0.017-0.904c0.009-0.228,0.029-0.435,0.072-0.62c0.033-0.19,0.093-0.359,0.177-0.524
			c0.089-0.156,0.194-0.325,0.354-0.477c0.444-0.452,0.988-0.668,1.647-0.668c0.654,0,1.208,0.22,1.655,0.668
			c0.207,0.202,0.338,0.418,0.427,0.642c0.089,0.236,0.14,0.473,0.156,0.743C-100.993,99.437-100.993,99.821-100.993,100.315z
			 M-101.943,100.315c0-0.621-0.029-1.064-0.08-1.318c-0.043-0.257-0.144-0.464-0.296-0.633c-0.105-0.114-0.245-0.211-0.414-0.279
			c-0.177-0.075-0.346-0.101-0.523-0.101s-0.354,0.033-0.523,0.101c-0.169,0.068-0.3,0.165-0.414,0.279
			c-0.16,0.169-0.258,0.384-0.304,0.633c-0.051,0.254-0.072,0.693-0.072,1.318c0,0.338,0,0.604,0.021,0.802
			c0,0.199,0.025,0.376,0.059,0.524c0.03,0.144,0.063,0.262,0.098,0.346c0.038,0.093,0.105,0.178,0.198,0.279
			c0.105,0.122,0.253,0.211,0.414,0.287c0.169,0.067,0.346,0.101,0.523,0.101c0.38,0,0.692-0.126,0.938-0.388
			c0.097-0.119,0.178-0.245,0.241-0.389c0.055-0.144,0.088-0.338,0.105-0.587C-101.956,101.059-101.943,100.729-101.943,100.315z"/>
		<path fill="#FFFFFF" d="M-95.102,100.281v0.313c0,0.338-0.021,0.634-0.047,0.892c-0.025,0.257-0.084,0.498-0.178,0.743
			c-0.093,0.249-0.232,0.46-0.422,0.65c-0.401,0.388-0.941,0.591-1.63,0.591h-2.213v-6.292h2.213c0.688,0,1.229,0.198,1.63,0.587
			c0.189,0.194,0.325,0.405,0.422,0.633c0.094,0.237,0.152,0.474,0.178,0.719c0.025,0.236,0.047,0.519,0.047,0.844V100.281z
			 M-96.061,100.281c0-0.363,0-0.638-0.017-0.836c-0.009-0.194-0.047-0.38-0.089-0.558c-0.063-0.178-0.131-0.309-0.232-0.422
			c-0.266-0.287-0.621-0.432-1.072-0.432h-1.162v4.578h1.162c0.451,0,0.811-0.144,1.072-0.427c0.144-0.164,0.245-0.384,0.274-0.671
			C-96.077,101.235-96.061,100.822-96.061,100.281z"/>
		<path fill="#FFFFFF" d="M-89.059,103.47h-1.014l-0.439-1.267h-2.475l-0.435,1.267h-1.019l2.307-6.292h0.769L-89.059,103.47z
			 M-90.77,101.388l-0.958-2.791l-0.984,2.791H-90.77z"/>
		<path fill="#FFFFFF" d="M-84.219,97.178l-1.884,3.703v2.589h-0.972v-2.589l-1.875-3.703h1.039l1.317,2.766l1.326-2.766H-84.219z"
			/>
	</g>
</g>
</svg>
