<?xml version="1.0" encoding="utf-8"?>
<!-- Generator: Adobe Illustrator 15.1.0, SVG Export Plug-In . SVG Version: 6.00 Build 0)  -->
<!DOCTYPE svg PUBLIC "-//W3C//DTD SVG 1.1//EN" "http://www.w3.org/Graphics/SVG/1.1/DTD/svg11.dtd">
<svg version="1.1" id="Capa_1" xmlns="http://www.w3.org/2000/svg" xmlns:xlink="http://www.w3.org/1999/xlink" x="0px" y="0px"
	 width="260px" height="144.336px" viewBox="0 0 260 144.336" enable-background="new 0 0 260 144.336" xml:space="preserve">
<g>
	<rect fill="none" width="260" height="144.337"/>
	<g>
		<g>
			<path fill="#414142" d="M11.649,131.218H3.478c-0.249,0-0.419-0.059-0.506-0.169c-0.086-0.106-0.129-0.289-0.129-0.54
				l1.593-15.222c0.033-0.345,0.36-0.511,0.983-0.511h0.187c0.595,0,0.894,0.166,0.894,0.511l-1.475,14.146h6.814
				c0.268,0,0.4,0.174,0.4,0.516C12.235,130.794,12.04,131.218,11.649,131.218"/>
			<path fill="#414142" d="M24.343,129.671l0.631-0.125c0.096,0,0.146,0.089,0.146,0.263c0,0.171-0.03,0.409-0.082,0.713
				c-0.057,0.309-0.236,0.516-0.542,0.646c-0.306,0.128-0.595,0.183-0.875,0.183c-1.406,0-2.106-0.764-2.106-2.295v-0.236
				c-0.892,1.687-2.106,2.529-3.653,2.529c-0.891,0-1.727-0.328-2.504-0.979c-0.421-0.358-0.765-0.891-1.021-1.58
				c-0.254-0.698-0.387-1.531-0.387-2.5c0-2.203,0.525-3.993,1.568-5.388c1.048-1.39,2.438-2.086,4.171-2.086
				c1.09,0,2.084,0.419,2.972,1.267c0.094-0.296,0.172-0.503,0.235-0.636c0.187-0.358,0.461-0.534,0.821-0.534h0.14
				c0.39,0,0.585,0.161,0.585,0.488c-0.622,5.778-0.935,8.83-0.935,9.16c0,0.328,0.021,0.559,0.068,0.701
				c0.047,0.142,0.118,0.233,0.207,0.274C23.953,129.628,24.144,129.671,24.343,129.671 M19.874,120.533
				c-2.593,0-3.89,1.873-3.89,5.621c0,2.324,0.772,3.493,2.318,3.493c0.624,0,1.258-0.316,1.896-0.926
				c0.64-0.616,1.179-1.633,1.619-3.034l0.304-3.069c0.031-0.279,0.093-0.674,0.187-1.17
				C21.541,120.841,20.73,120.533,19.874,120.533"/>
			<path fill="#414142" d="M32.026,130.018c0-0.843,0.126-1.262,0.375-1.262c0.047,0,0.187,0.065,0.421,0.212
				c0.732,0.465,1.497,0.703,2.294,0.703c0.796,0,1.43-0.188,1.901-0.557c0.466-0.363,0.7-0.843,0.7-1.426
				c0-0.59-0.177-1.05-0.527-1.382c-0.353-0.34-0.777-0.593-1.278-0.764c-0.503-0.174-0.994-0.352-1.485-0.555
				c-0.493-0.192-0.915-0.51-1.268-0.948c-0.352-0.434-0.527-1.007-0.527-1.706c0-1.045,0.407-1.897,1.209-2.548
				c0.808-0.646,1.825-0.969,3.058-0.969c0.668,0,1.322,0.097,1.954,0.285c0.632,0.183,0.95,0.465,0.95,0.838
				c0,0.159-0.094,0.385-0.292,0.684c-0.198,0.294-0.379,0.448-0.553,0.448c-0.015,0-0.118-0.053-0.304-0.149
				c-0.565-0.274-1.168-0.414-1.815-0.414c-0.649,0-1.169,0.14-1.556,0.414c-0.39,0.282-0.585,0.646-0.585,1.091
				c0,0.446,0.171,0.8,0.513,1.067c0.346,0.263,0.762,0.484,1.256,0.66c0.49,0.168,0.989,0.366,1.487,0.598
				c0.498,0.221,0.922,0.575,1.262,1.06c0.346,0.486,0.516,1.089,0.516,1.807c0,1.232-0.405,2.228-1.206,2.996
				c-0.805,0.766-1.88,1.146-3.222,1.146c-0.628,0-1.327-0.116-2.109-0.347C32.418,130.77,32.026,130.441,32.026,130.018"/>
			<path fill="#414142" d="M50.672,128.823c0.311-0.202,0.501-0.304,0.563-0.304c0.108,0,0.165,0.126,0.165,0.361
				c0,0.246-0.039,0.568-0.118,0.979c-0.099,0.474-0.574,0.853-1.452,1.105c-0.878,0.258-1.675,0.385-2.388,0.385
				c-3.526,0-5.293-1.613-5.293-4.846c0-2.267,0.529-4.109,1.591-5.54c1.059-1.431,2.676-2.144,4.85-2.144
				c1.327,0,2.313,0.332,2.961,0.995c0.647,0.667,0.975,1.38,0.975,2.144s-0.177,1.436-0.528,2.009
				c-0.351,0.583-0.838,1.021-1.462,1.339c-1.204,0.607-2.647,0.915-4.334,0.915c-0.767,0-1.438-0.053-2.017-0.163v0.23
				c0,1.233,0.296,2.107,0.878,2.618c0.584,0.506,1.433,0.764,2.54,0.764C48.709,129.671,49.735,129.387,50.672,128.823
				 M48.374,120.514c-2.343,0-3.7,1.344-4.075,4.027h1.663c1.326,0,2.382-0.171,3.161-0.516c0.341-0.156,0.654-0.397,0.935-0.728
				c0.282-0.327,0.425-0.718,0.425-1.171c0-0.452-0.193-0.833-0.576-1.151C49.53,120.668,49.017,120.514,48.374,120.514"/>
			<path fill="#414142" d="M64.724,121.872l-0.675,6.833c0,0.465,0.09,0.754,0.276,0.841c0.172,0.079,0.362,0.125,0.564,0.125
				l0.631-0.125c0.096,0,0.143,0.089,0.143,0.263c0,0.171-0.028,0.409-0.082,0.713c-0.057,0.309-0.238,0.516-0.54,0.646
				c-0.306,0.128-0.597,0.183-0.875,0.183c-1.403,0-2.108-0.764-2.108-2.295c0-0.277,0.108-1.44,0.33-3.476
				c0.217-2.038,0.324-3.119,0.324-3.242c0-1.202-0.595-1.804-1.779-1.804c-0.64,0-1.308,0.289-2.003,0.866
				c-0.696,0.583-1.268,1.552-1.722,2.905l-0.68,6.44c-0.042,0.342-0.372,0.516-0.981,0.516h-0.092c-0.594,0-0.89-0.164-0.89-0.491
				c0.683-6.104,1.028-9.523,1.028-10.256l-0.021-0.793c0-0.361,0.433-0.546,1.311-0.546c0.405,0,0.609,0.587,0.609,1.753
				c0,0.087-0.007,0.169-0.021,0.26c1.151-1.579,2.545-2.365,4.166-2.365C63.693,118.822,64.724,119.839,64.724,121.872
				 M63.821,116.366c-0.49,0.299-1.017,0.443-1.568,0.443c-0.555,0-1.16-0.077-1.826-0.231c-0.668-0.159-1.113-0.236-1.346-0.236
				c-0.235,0-0.471,0.053-0.715,0.149c-0.242,0.102-0.442,0.156-0.598,0.156s-0.303-0.082-0.445-0.248
				c-0.141-0.161-0.209-0.317-0.209-0.457c0-0.294,0.264-0.588,0.796-0.877c0.527-0.289,1.063-0.434,1.593-0.434
				c0.532,0,1.115,0.082,1.746,0.236c0.631,0.158,1.073,0.233,1.322,0.233c0.252,0,0.495-0.053,0.737-0.152
				c0.242-0.105,0.439-0.156,0.587-0.156c0.145,0,0.293,0.089,0.446,0.263c0.144,0.169,0.22,0.318,0.22,0.443
				C64.558,115.783,64.314,116.067,63.821,116.366"/>
			<path fill="#414142" d="M78.071,129.671l0.634-0.125c0.097,0,0.141,0.089,0.141,0.263c0,0.171-0.028,0.409-0.084,0.713
				c-0.052,0.309-0.237,0.516-0.536,0.646c-0.302,0.128-0.599,0.183-0.88,0.183c-1.403,0-2.106-0.764-2.106-2.295v-0.236
				c-0.892,1.687-2.106,2.529-3.655,2.529c-0.888,0-1.724-0.328-2.506-0.979c-0.421-0.358-0.761-0.891-1.018-1.58
				c-0.257-0.698-0.385-1.531-0.385-2.5c0-2.203,0.52-3.993,1.569-5.388c1.043-1.39,2.432-2.086,4.168-2.086
				c1.09,0,2.081,0.419,2.972,1.267c0.096-0.296,0.172-0.503,0.233-0.636c0.188-0.358,0.461-0.534,0.821-0.534h0.144
				c0.39,0,0.582,0.161,0.582,0.488c-0.626,5.778-0.937,8.83-0.937,9.16c0,0.328,0.022,0.559,0.071,0.701
				c0.047,0.142,0.114,0.233,0.213,0.274C77.682,129.628,77.873,129.671,78.071,129.671 M73.602,120.533
				c-2.594,0-3.889,1.873-3.889,5.621c0,2.324,0.772,3.493,2.318,3.493c0.621,0,1.257-0.316,1.896-0.926
				c0.643-0.616,1.182-1.633,1.615-3.034l0.306-3.069c0.033-0.279,0.094-0.674,0.188-1.17
				C75.272,120.841,74.458,120.533,73.602,120.533"/>
			<path fill="#414142" d="M84.119,129.671l0.631-0.125c0.092,0,0.141,0.089,0.141,0.263c0,0.171-0.029,0.409-0.083,0.713
				c-0.049,0.309-0.232,0.516-0.536,0.646c-0.308,0.128-0.602,0.183-0.88,0.183c-1.405,0-2.106-0.764-2.106-2.295
				c0-0.701,0.377-4.514,1.125-11.432l0.4-3.517c0.044-0.342,0.37-0.511,0.979-0.511h0.099c0.594,0,0.893,0.169,0.893,0.511
				c-1.004,9.269-1.504,14.066-1.504,14.423c0,0.35,0.021,0.593,0.068,0.737c0.049,0.142,0.126,0.233,0.24,0.274
				C83.737,129.628,83.912,129.671,84.119,129.671"/>
			<path fill="#414142" d="M104.048,129.671l0.631-0.125c0.099,0,0.143,0.089,0.143,0.263c0,0.171-0.026,0.409-0.084,0.713
				c-0.052,0.309-0.236,0.516-0.537,0.646c-0.306,0.128-0.598,0.183-0.878,0.183c-1.406,0-2.106-0.764-2.106-2.295v-0.236
				c-0.908,1.687-2.163,2.529-3.774,2.529c-0.999,0-1.945-0.328-2.831-0.979c-0.471-0.358-0.846-0.891-1.14-1.58
				c-0.288-0.698-0.431-1.531-0.431-2.5c0-2.203,0.542-3.993,1.618-5.388c1.078-1.39,2.499-2.086,4.264-2.086
				c1.28,0,2.344,0.354,3.187,1.055l0.63-5.766c0.054-0.343,0.375-0.511,0.986-0.511h0.09c0.598,0,0.894,0.168,0.894,0.511
				c-1,9.268-1.499,14.066-1.499,14.425c0,0.347,0.021,0.59,0.068,0.737c0.049,0.14,0.125,0.231,0.235,0.272
				C103.666,129.628,103.848,129.671,104.048,129.671 M101.942,121.424c-0.753-0.593-1.591-0.891-2.519-0.891
				c-0.932,0-1.669,0.158-2.227,0.472c-0.555,0.309-0.977,0.747-1.278,1.306c-0.545,1.069-0.821,2.288-0.821,3.685
				c0,1.388,0.236,2.342,0.702,2.862c0.472,0.524,1.167,0.79,2.089,0.79c0.64,0,1.288-0.309,1.944-0.916
				c0.656-0.611,1.206-1.608,1.657-2.998L101.942,121.424z"/>
			<path fill="#414142" d="M114.915,128.823c0.314-0.202,0.501-0.304,0.563-0.304c0.109,0,0.166,0.126,0.166,0.361
				c0,0.246-0.042,0.568-0.122,0.979c-0.085,0.474-0.577,0.853-1.45,1.105c-0.873,0.258-1.675,0.385-2.387,0.385
				c-3.53,0-5.293-1.613-5.293-4.846c0-2.267,0.525-4.109,1.591-5.54c1.058-1.431,2.678-2.144,4.846-2.144
				c1.33,0,2.316,0.332,2.965,0.995c0.65,0.667,0.971,1.38,0.971,2.144s-0.177,1.436-0.527,2.009
				c-0.353,0.583-0.838,1.021-1.464,1.339c-1.2,0.607-2.643,0.915-4.332,0.915c-0.767,0-1.438-0.053-2.012-0.163v0.23
				c0,1.233,0.294,2.107,0.878,2.618c0.585,0.506,1.433,0.764,2.539,0.764C112.956,129.671,113.98,129.387,114.915,128.823
				 M112.619,120.514c-2.339,0-3.697,1.344-4.069,4.027h1.657c1.33,0,2.384-0.171,3.164-0.516c0.343-0.156,0.654-0.397,0.938-0.728
				c0.281-0.327,0.419-0.718,0.419-1.171c0-0.452-0.193-0.833-0.577-1.151C113.778,120.668,113.265,120.514,112.619,120.514"/>
			<path fill="#414142" d="M128.178,129.671l0.626-0.125c0.099,0,0.146,0.089,0.146,0.263c0,0.171-0.028,0.409-0.084,0.713
				c-0.054,0.309-0.237,0.516-0.541,0.646c-0.302,0.128-0.591,0.183-0.875,0.183c-1.405,0-2.111-0.764-2.111-2.295
				c0-0.701,0.38-4.514,1.125-11.432l0.402-3.517c0.047-0.342,0.372-0.511,0.984-0.511h0.092c0.592,0,0.89,0.169,0.89,0.511
				c-0.998,9.269-1.504,14.066-1.504,14.423c0,0.35,0.028,0.593,0.073,0.737c0.049,0.142,0.124,0.233,0.235,0.274
				C127.794,129.628,127.973,129.671,128.178,129.671"/>
			<path fill="#414142" d="M141.855,129.671l0.631-0.125c0.096,0,0.145,0.089,0.145,0.263c0,0.171-0.034,0.409-0.08,0.713
				c-0.055,0.309-0.238,0.516-0.54,0.646c-0.311,0.128-0.6,0.183-0.884,0.183c-1.402,0-2.105-0.764-2.105-2.295v-0.236
				c-0.884,1.687-2.105,2.529-3.651,2.529c-0.887,0-1.729-0.328-2.508-0.979c-0.421-0.358-0.758-0.891-1.016-1.58
				c-0.258-0.698-0.39-1.531-0.39-2.5c0-2.203,0.527-3.993,1.573-5.388c1.045-1.39,2.433-2.086,4.167-2.086
				c1.088,0,2.085,0.419,2.975,1.267c0.096-0.296,0.171-0.503,0.233-0.636c0.188-0.358,0.467-0.534,0.824-0.534h0.135
				c0.395,0,0.593,0.161,0.593,0.488c-0.626,5.778-0.939,8.83-0.939,9.16c0,0.328,0.024,0.559,0.065,0.701
				c0.051,0.142,0.123,0.233,0.214,0.274C141.46,129.628,141.652,129.671,141.855,129.671 M137.377,120.533
				c-2.589,0-3.885,1.873-3.885,5.621c0,2.324,0.771,3.493,2.317,3.493c0.622,0,1.257-0.316,1.896-0.926
				c0.643-0.616,1.183-1.633,1.621-3.034l0.304-3.069c0.026-0.279,0.091-0.674,0.183-1.17
				C139.051,120.841,138.239,120.533,137.377,120.533"/>
			<path fill="#414142" d="M158.366,128.943c0.094,0,0.142,0.121,0.142,0.371c0,0.251-0.041,0.573-0.12,0.979
				c-0.077,0.395-0.481,0.672-1.229,0.833c-0.744,0.154-1.44,0.227-2.096,0.227c-1.69,0-2.953-0.386-3.796-1.171
				c-0.84-0.78-1.262-1.951-1.262-3.528c0-1.565,0.193-2.9,0.578-4.003c0.393-1.097,1.07-2.012,2.019-2.739
				c0.949-0.728,2.146-1.089,3.584-1.089c0.978,0,1.772,0.131,2.374,0.4c0.603,0.265,0.901,0.539,0.901,0.823
				c0,0.169-0.106,0.405-0.318,0.709c-0.212,0.303-0.404,0.457-0.595,0.457c-0.017,0-0.105-0.051-0.279-0.164
				c-0.542-0.356-1.37-0.534-2.462-0.534c-1.086,0-1.994,0.465-2.702,1.39c-0.713,0.935-1.067,2.395-1.067,4.391
				c0,1.173,0.255,2.028,0.763,2.563c0.501,0.546,1.308,0.813,2.421,0.813c0.971,0,1.864-0.186,2.692-0.563
				C158.19,128.997,158.335,128.943,158.366,128.943"/>
			<path fill="#414142" d="M164.547,129.671l0.638-0.125c0.092,0,0.135,0.089,0.135,0.263c0,0.171-0.023,0.409-0.077,0.713
				c-0.058,0.309-0.235,0.516-0.539,0.646c-0.309,0.128-0.598,0.183-0.877,0.183c-1.393,0-2.088-0.739-2.088-2.226
				c0-0.559,0.156-2.314,0.465-5.265c0.317-2.953,0.477-4.433,0.496-4.433c0.043-0.339,0.371-0.51,0.982-0.51h0.092
				c0.597,0,0.891,0.171,0.891,0.51c-0.628,5.716-0.939,8.768-0.939,9.148c0,0.383,0.049,0.65,0.145,0.797
				c0.092,0.149,0.188,0.234,0.28,0.258C164.245,129.656,164.375,129.671,164.547,129.671 M164.153,113.601h0.28
				c0.59,0,0.886,0.169,0.886,0.511l-0.14,1.388c0,0.344-0.299,0.516-0.891,0.516h-0.28c-0.654,0-0.987-0.172-0.987-0.516
				l0.145-1.388C163.215,113.77,163.542,113.601,164.153,113.601"/>
			<path fill="#414142" d="M176.071,128.823c0.313-0.202,0.501-0.304,0.566-0.304c0.11,0,0.161,0.126,0.161,0.361
				c0,0.246-0.043,0.568-0.115,0.979c-0.097,0.474-0.583,0.853-1.46,1.105c-0.872,0.258-1.669,0.385-2.385,0.385
				c-3.53,0-5.289-1.613-5.289-4.846c0-2.267,0.521-4.109,1.59-5.54c1.06-1.431,2.679-2.144,4.851-2.144
				c1.322,0,2.313,0.332,2.958,0.995c0.65,0.667,0.974,1.38,0.974,2.144s-0.174,1.436-0.525,2.009
				c-0.352,0.583-0.843,1.021-1.462,1.339c-1.207,0.607-2.647,0.915-4.341,0.915c-0.764,0-1.433-0.053-2.009-0.163v0.23
				c0,1.233,0.294,2.107,0.875,2.618c0.592,0.506,1.436,0.764,2.543,0.764C174.116,129.671,175.132,129.387,176.071,128.823
				 M173.776,120.514c-2.339,0-3.7,1.344-4.073,4.027h1.662c1.329,0,2.38-0.171,3.16-0.516c0.347-0.156,0.655-0.397,0.935-0.728
				c0.284-0.327,0.424-0.718,0.424-1.171c0-0.452-0.188-0.833-0.568-1.151C174.928,120.668,174.417,120.514,173.776,120.514"/>
			<path fill="#414142" d="M190.126,121.872l-0.677,6.833c0,0.465,0.092,0.749,0.276,0.841c0.172,0.079,0.364,0.125,0.562,0.125
				l0.636-0.125c0.094,0,0.143,0.089,0.143,0.263c0,0.171-0.029,0.409-0.08,0.713c-0.053,0.309-0.238,0.516-0.542,0.646
				c-0.301,0.128-0.595,0.183-0.874,0.183c-1.409,0-2.107-0.764-2.107-2.295c0-0.277,0.106-1.44,0.325-3.476
				c0.222-2.038,0.332-3.119,0.332-3.242c0-1.202-0.595-1.804-1.784-1.804c-0.641,0-1.304,0.289-2.002,0.866
				c-0.693,0.583-1.271,1.552-1.722,2.905l-0.677,6.44c-0.046,0.342-0.371,0.516-0.98,0.516h-0.104
				c-0.596,0-0.892-0.164-0.892-0.491c0.687-6.104,1.031-9.523,1.031-10.256l-0.026-0.793c0-0.361,0.44-0.546,1.313-0.546
				c0.409,0,0.611,0.587,0.611,1.753c0,0.087-0.01,0.169-0.023,0.26c1.155-1.579,2.543-2.365,4.167-2.365
				C189.093,118.822,190.126,119.839,190.126,121.872"/>
			<path fill="#414142" d="M201.601,128.943c0.094,0,0.14,0.121,0.14,0.371c0,0.251-0.036,0.573-0.12,0.979
				c-0.072,0.395-0.484,0.672-1.224,0.833c-0.747,0.154-1.443,0.227-2.099,0.227c-1.688,0-2.952-0.386-3.796-1.171
				c-0.843-0.78-1.262-1.951-1.262-3.528c0-1.565,0.192-2.9,0.583-4.003c0.39-1.097,1.06-2.012,2.014-2.739
				c0.951-0.728,2.144-1.089,3.579-1.089c0.987,0,1.78,0.131,2.375,0.4c0.606,0.265,0.905,0.539,0.905,0.823
				c0,0.169-0.101,0.405-0.313,0.709c-0.212,0.303-0.414,0.457-0.597,0.457c-0.015,0-0.111-0.051-0.282-0.164
				c-0.547-0.356-1.37-0.534-2.457-0.534c-1.096,0-2.001,0.465-2.709,1.39c-0.708,0.935-1.063,2.395-1.063,4.391
				c0,1.173,0.253,2.028,0.759,2.563c0.511,0.546,1.315,0.813,2.426,0.813c0.966,0,1.866-0.186,2.69-0.563
				C201.422,128.997,201.569,128.943,201.601,128.943"/>
			<path fill="#414142" d="M207.783,129.671l0.636-0.125c0.092,0,0.14,0.089,0.14,0.263c0,0.171-0.028,0.409-0.081,0.713
				c-0.054,0.309-0.231,0.516-0.54,0.646c-0.309,0.128-0.598,0.183-0.877,0.183c-1.392,0-2.086-0.739-2.086-2.226
				c0-0.559,0.157-2.314,0.468-5.265c0.313-2.953,0.475-4.433,0.489-4.433c0.045-0.339,0.378-0.51,0.984-0.51h0.097
				c0.585,0,0.884,0.171,0.884,0.51c-0.621,5.716-0.935,8.768-0.935,9.148c0,0.383,0.051,0.65,0.143,0.797
				c0.089,0.149,0.186,0.234,0.281,0.258C207.479,129.656,207.615,129.671,207.783,129.671 M207.389,113.601h0.279
				c0.588,0,0.891,0.169,0.891,0.511l-0.142,1.388c0,0.344-0.301,0.516-0.894,0.516h-0.279c-0.655,0-0.98-0.172-0.98-0.516
				l0.137-1.388C206.449,113.77,206.779,113.601,207.389,113.601"/>
			<path fill="#414142" d="M221.038,129.671l0.639-0.125c0.091,0,0.14,0.089,0.14,0.263c0,0.171-0.029,0.409-0.087,0.713
				c-0.051,0.309-0.231,0.516-0.535,0.646c-0.308,0.128-0.602,0.183-0.877,0.183c-1.403,0-2.109-0.764-2.109-2.295v-0.236
				c-0.887,1.687-2.105,2.529-3.649,2.529c-0.891,0-1.727-0.328-2.507-0.979c-0.424-0.358-0.764-0.891-1.017-1.58
				c-0.265-0.698-0.386-1.531-0.386-2.5c0-2.203,0.521-3.993,1.568-5.388c1.043-1.39,2.435-2.086,4.169-2.086
				c1.089,0,2.084,0.419,2.978,1.267c0.091-0.296,0.163-0.503,0.233-0.636c0.186-0.358,0.46-0.534,0.816-0.534h0.143
				c0.388,0,0.585,0.161,0.585,0.488c-0.626,5.778-0.939,8.83-0.939,9.16c0,0.328,0.021,0.559,0.072,0.701
				c0.046,0.142,0.115,0.233,0.207,0.274C220.652,129.628,220.841,129.671,221.038,129.671 M216.565,120.533
				c-2.59,0-3.888,1.873-3.888,5.621c0,2.324,0.778,3.493,2.322,3.493c0.626,0,1.257-0.316,1.897-0.926
				c0.641-0.616,1.181-1.633,1.619-3.034l0.303-3.069c0.029-0.279,0.092-0.674,0.184-1.17
				C218.236,120.841,217.423,120.533,216.565,120.533"/>
			<path fill="#414142" d="M23.593,96.803c0,1.012,0.824,1.831,1.831,1.831h9.89c1.014,0,1.833-0.819,1.833-1.831h-0.005V27.638
				c0-1.011,0.826-1.833,1.838-1.833l19.364,0.005c1.013,0,1.837-0.821,1.837-1.833v-8.04c0-1.012-0.824-1.833-1.837-1.833H2.39
				c-1.014,0-1.833,0.821-1.833,1.833v8.04c0,1.012,0.819,1.833,1.833,1.833l19.371-0.005c1.011,0,1.832,0.822,1.832,1.833V96.803z"
				/>
			<path fill="#414142" d="M109.805,78.221h10.605l0.018-0.002c1.014,0,1.838,0.818,1.838,1.835c0,0.265-0.058,0.521-0.159,0.744
				l0.013-0.017c-1.287,3.495-3.224,6.542-5.779,9.09c-6.138,6.138-13.493,9.124-22.488,9.124c-8.943,0-16.553-3.073-22.607-9.124
				c-3.68-3.666-6.095-8.469-7.173-14.269c-0.636-3.533-0.962-10.131-0.962-19.606c0-9.479,0.324-16.084,0.962-19.615
				c1.08-5.795,3.495-10.593,7.173-14.264c6.134-6.142,13.533-9.133,22.607-9.133c8.995,0,16.354,2.989,22.488,9.131
				c3.808,3.811,6.154,8.471,7.185,14.262c0.565,2.862,0.93,7.635,1.048,14.191c0,0.821-0.535,1.508-1.279,1.741L78.266,68.341
				c-0.808,0.291-1.309,1.096-1.208,1.948c0.626,5.282,2.02,9.095,4.267,11.687c3.166,3.551,7.376,5.338,12.53,5.338
				c5.709,0,10.259-2.255,13.493-6.701c0.269-0.371,0.523-0.775,0.76-1.247c0.261-0.67,0.93-1.156,1.699-1.156v0.012H109.805z
				 M93.853,24.69c-5.148,0-9.353,1.782-12.511,5.309c-2.441,2.82-3.89,7.047-4.427,12.944c-0.092,0.81-0.155,2.374-0.195,4.624
				l-0.007,7.017c0,0.6,0.293,1.158,0.781,1.5c0.313,0.222,0.678,0.335,1.054,0.335c0.205,0,0.415-0.036,0.617-0.108l30.455-10.952
				c0.753-0.271,1.247-0.999,1.211-1.799c-0.005-0.221-0.027-0.453-0.044-0.641c-0.54-5.898-2.02-10.128-4.54-12.924
				C103.081,26.472,98.908,24.69,93.853,24.69"/>
			<path fill="#414142" d="M193.009,35.172l0.024,0.072c0.028,0.14,0.056,0.294,0.056,0.451c0,1.012-0.836,1.85-1.841,1.85h-10.225
				c-0.749-0.034-1.421-0.527-1.679-1.192l0.005-0.009l-0.005-0.012c-2.651-7.382-8.091-11.265-15.849-11.265
				c-5.788,0-10.34,2.211-13.51,6.576c-2.491,3.509-3.695,11.599-3.695,24.736c0,6.963,0.087,11.238,0.258,13.06
				c0.626,5.987,2.107,10.241,4.533,13.03c3.083,3.474,7.253,5.225,12.414,5.225c7.772,0,13.211-3.899,15.865-11.309l-0.004-0.015
				c0.255-0.66,0.93-1.151,1.671-1.189h10.223c1.012,0,1.84,0.848,1.84,1.854c0,0.156-0.017,0.309-0.053,0.455l-0.02,0.065
				c-1.79,6.368-5.015,11.453-9.615,15.157c-5.352,4.441-12.079,6.677-20.027,6.677c-8.876,0-16.441-3.073-22.492-9.139
				c-3.688-3.68-6.101-8.48-7.178-14.264c-0.631-3.466-0.949-10.059-0.949-19.604c0-9.548,0.318-16.149,0.949-19.61
				c1.082-5.793,3.495-10.593,7.178-14.278c6.05-6.055,13.616-9.122,22.492-9.122c8.027,0,14.868,2.279,20.331,6.766
				c4.297,3.546,7.36,8.401,9.162,14.481L193.009,35.172z"/>
			<path fill="#2693CC" d="M259.443,43.457c0,16.699-13.531,30.233-30.232,30.233c-16.702,0-30.229-13.537-30.229-30.233
				c0-16.691,13.526-30.228,30.229-30.228C245.912,13.229,259.443,26.766,259.443,43.457"/>
			<polygon fill="#FFFFFF" points="242.236,33.447 237.277,49.117 232.313,33.447 230.126,33.447 228.922,33.447 212.738,33.447 
				212.738,36.381 218.666,36.381 218.666,54.984 221.932,54.984 221.932,36.381 229.892,36.381 236.003,54.984 238.551,54.984 
				245.681,33.447 			"/>
		</g>
	</g>
</g>
</svg>
