<?xml version="1.0" encoding="utf-8"?>
<!-- Generator: Adobe Illustrator 15.1.0, SVG Export Plug-In . SVG Version: 6.00 Build 0)  -->
<!DOCTYPE svg PUBLIC "-//W3C//DTD SVG 1.1//EN" "http://www.w3.org/Graphics/SVG/1.1/DTD/svg11.dtd">
<svg version="1.1" id="Layer_2" xmlns="http://www.w3.org/2000/svg" xmlns:xlink="http://www.w3.org/1999/xlink" x="0px" y="0px"
	 width="339.336px" height="339.336px" viewBox="-14.168 -0.563 339.336 339.336"
	 enable-background="new -14.168 -0.563 339.336 339.336" xml:space="preserve">
<g>
	
		<linearGradient id="SVGID_1_" gradientUnits="userSpaceOnUse" x1="149.3848" y1="205.7744" x2="216.8848" y2="205.7744" gradientTransform="matrix(1 0 0 -1 -31.1348 363.0059)">
		<stop  offset="0.1145" style="stop-color:#71509C"/>
		<stop  offset="0.3211" style="stop-color:#614584"/>
		<stop  offset="0.5639" style="stop-color:#50396B"/>
	</linearGradient>
	<path fill="url(#SVGID_1_)" d="M185.75,178.981c0,6.627-5.373,12-12,12h-43.5c-6.627,0-12-5.373-12-12v-43.5
		c0-6.627,5.373-12,12-12h43.5c6.627,0,12,5.373,12,12V178.981z"/>
	
		<linearGradient id="SVGID_2_" gradientUnits="userSpaceOnUse" x1="145.2715" y1="320.5225" x2="76.5664" y2="320.5225" gradientTransform="matrix(1 0 0 -1 -31.1348 363.0059)">
		<stop  offset="0.37" style="stop-color:#EC6143"/>
		<stop  offset="0.5804" style="stop-color:#E85F41"/>
		<stop  offset="0.7707" style="stop-color:#DD583A"/>
		<stop  offset="0.9527" style="stop-color:#CB4D2F"/>
		<stop  offset="1" style="stop-color:#C5492B"/>
	</linearGradient>
	<path fill="url(#SVGID_2_)" d="M114.137,64.898c0,6.627-5.373,12-12,12H57.432c-6.627,0-12-5.373-12-12V20.07
		c0-6.627,5.373-12,12-12h44.705c6.627,0,12,5.373,12,12V64.898z"/>
	
		<linearGradient id="SVGID_3_" gradientUnits="userSpaceOnUse" x1="145.2715" y1="309.5654" x2="92.1152" y2="309.5654" gradientTransform="matrix(1 0 0 -1 -31.1348 363.0059)">
		<stop  offset="0.37" style="stop-color:#EC6143"/>
		<stop  offset="0.5804" style="stop-color:#E85F41"/>
		<stop  offset="0.7707" style="stop-color:#DD583A"/>
		<stop  offset="0.9527" style="stop-color:#CB4D2F"/>
		<stop  offset="1" style="stop-color:#C5492B"/>
	</linearGradient>
	<path fill="url(#SVGID_3_)" d="M110.695,73.307c-3.287,3.286-7.32,3.592-7.32,3.592H63.787l-2.806-36.715
		c0-5.633,5.373-10.199,12-10.199h41.156v35.747C114.137,65.731,113.925,70.077,110.695,73.307z"/>
	
		<radialGradient id="SVGID_4_" cx="-99.1533" cy="221.6055" r="44.872" gradientTransform="matrix(0.5 -0.866 -1.299 -0.75 450.5668 155.1961)" gradientUnits="userSpaceOnUse">
		<stop  offset="0" style="stop-color:#F6F746"/>
		<stop  offset="0.2011" style="stop-color:#F6F044"/>
		<stop  offset="0.4937" style="stop-color:#F5DD3E"/>
		<stop  offset="0.8406" style="stop-color:#F3BD33"/>
		<stop  offset="1" style="stop-color:#F2AC2E"/>
	</radialGradient>
	<path opacity="0.9" fill="url(#SVGID_4_)" enable-background="new    " d="M68.25,107.734c0,6.627,5.373,12,12,12H146
		c6.627,0,12-5.373,12-12v-65.75c0-6.627-5.373-12-12-12H80.25c-6.627,0-12,5.373-12,12V107.734z"/>
	
		<linearGradient id="SVGID_5_" gradientUnits="userSpaceOnUse" x1="189.2451" y1="207.9375" x2="286.5251" y2="271.112" gradientTransform="matrix(1 0 0 -1 -31.1348 363.0059)">
		<stop  offset="0.4229" style="stop-color:#4DA32E"/>
		<stop  offset="0.4943" style="stop-color:#61A936"/>
		<stop  offset="0.6331" style="stop-color:#81B343"/>
		<stop  offset="0.7668" style="stop-color:#98BA4C"/>
		<stop  offset="0.892" style="stop-color:#A6BF52"/>
		<stop  offset="1" style="stop-color:#ABC054"/>
	</linearGradient>
	<path opacity="0.9" fill="url(#SVGID_5_)" enable-background="new    " d="M252,156.731c0,6.627-5.373,12-12,12h-66.5
		c-6.627,0-12-5.373-12-12v-66.5c0-6.627,5.373-12,12-12H240c6.627,0,12,5.373,12,12V156.731z"/>
	
		<radialGradient id="SVGID_6_" cx="148.8848" cy="209.6367" r="22.75" gradientTransform="matrix(1 0 0 -2 -31.1348 637.0059)" gradientUnits="userSpaceOnUse">
		<stop  offset="0.2731" style="stop-color:#12A6DC"/>
		<stop  offset="0.7137" style="stop-color:#5FBAE3"/>
		<stop  offset="1" style="stop-color:#94C7E8"/>
	</radialGradient>
	<path fill="url(#SVGID_6_)" d="M140.5,228.481c0,6.627-5.373,12-12,12H107c-6.627,0-12-5.373-12-12v-21.5c0-6.627,5.373-12,12-12
		h21.5c6.627,0,12,5.373,12,12V228.481z"/>
	
		<linearGradient id="SVGID_7_" gradientUnits="userSpaceOnUse" x1="77.6567" y1="79.9512" x2="41.1672" y2="53.44" gradientTransform="matrix(1 0 0 -1 -31.1348 363.0059)">
		<stop  offset="0" style="stop-color:#787878"/>
		<stop  offset="0.7149" style="stop-color:#232323"/>
		<stop  offset="1" style="stop-color:#000000"/>
	</linearGradient>
	<path fill="url(#SVGID_7_)" d="M16.809,263.398l12.525-4v19.084H40.75l3.583,9.5l-13.75,0.333c0,0-1.211,25.495-0.833,28.083
		c0.583,4,9.583,4.084,12.083,2.417l0.417,8.588c0,0-16.667,5.666-22.5-4.584l-0.917-34.42l-11.947-0.25l1.083-9.75
		c0,0,0.416-1.834,2.333-1.834c1.917,0,6.589,0,6.589,0L16.809,263.398z"/>
	<g>
		
			<linearGradient id="SVGID_8_" gradientUnits="userSpaceOnUse" x1="118.0522" y1="60.6089" x2="76.7388" y2="60.6089" gradientTransform="matrix(1 0 0 -1 -31.1348 363.0059)">
			<stop  offset="0" style="stop-color:#787878"/>
			<stop  offset="0.1142" style="stop-color:#5C5C5C"/>
			<stop  offset="0.2783" style="stop-color:#3B3B3B"/>
			<stop  offset="0.4472" style="stop-color:#212121"/>
			<stop  offset="0.6205" style="stop-color:#0F0F0F"/>
			<stop  offset="0.801" style="stop-color:#040404"/>
			<stop  offset="1" style="stop-color:#000000"/>
		</linearGradient>
		<path fill="url(#SVGID_8_)" d="M69.75,319.048c0,0-9.978,0.579-12.833-6c0,0-1.917-3.376-1.583-8.08l2.792-1.605l28.792-0.063
			l-1.5-13.769c0,0-4.417-13.983-19.583-12.483s-18.585,12.416-20.168,24.833c0,0-1.583,17.188,11.167,23.771
			c0,0,4.667,3.417,15.75,1.75c0,0,3.917-0.167,11.417-3l-0.251-9.938C83.75,314.464,79.5,319.132,69.75,319.048z M66.75,284.13
			c10.417-0.166,11.417,10.834,11.417,10.834H55.333C58.25,282.964,66.75,284.13,66.75,284.13z"/>
	</g>
	
		<linearGradient id="SVGID_9_" gradientUnits="userSpaceOnUse" x1="139.3013" y1="69.9824" x2="126.4673" y2="69.9824" gradientTransform="matrix(1 0 0 -1 -31.1348 363.0059)">
		<stop  offset="0" style="stop-color:#787878"/>
		<stop  offset="0.1142" style="stop-color:#5C5C5C"/>
		<stop  offset="0.2783" style="stop-color:#3B3B3B"/>
		<stop  offset="0.4472" style="stop-color:#212121"/>
		<stop  offset="0.6205" style="stop-color:#0F0F0F"/>
		<stop  offset="0.801" style="stop-color:#040404"/>
		<stop  offset="1" style="stop-color:#000000"/>
	</linearGradient>
	<polygon fill="url(#SVGID_9_)" points="95.333,258.18 107.333,256.982 108.167,329.065 106.167,329.065 95.333,329.065 	"/>
	
		<linearGradient id="SVGID_10_" gradientUnits="userSpaceOnUse" x1="232.6006" y1="61.4307" x2="198.5928" y2="61.4307" gradientTransform="matrix(1 0 0 -1 -31.1348 363.0059)">
		<stop  offset="0" style="stop-color:#787878"/>
		<stop  offset="0.1142" style="stop-color:#5C5C5C"/>
		<stop  offset="0.2783" style="stop-color:#3B3B3B"/>
		<stop  offset="0.4472" style="stop-color:#212121"/>
		<stop  offset="0.6205" style="stop-color:#0F0F0F"/>
		<stop  offset="0.801" style="stop-color:#040404"/>
		<stop  offset="1" style="stop-color:#000000"/>
	</linearGradient>
	<path fill="url(#SVGID_10_)" d="M196.376,276.909l-0.5,11.943c0,0-0.478-0.262-1.288-0.607c-2.158-0.925-4.718-2.461-8.838-1.31
		c-5.667,1.583-2.418,5.999,0.916,7.583s13.5,5.417,14.75,12.75c0,0,1.083,10.916-6.75,15.583s-22.54,3.816-25.957,3.783h-1.25
		l0.5-12.866c0,0,3.625,0.749,7.791,1.083s15.917,0.75,10.25-5.583c0,0-7.583-3.583-12.5-5.583c0,0-8.501-5.667-5.334-15.75
		s12.668-11.5,15.834-11.5S196.376,276.909,196.376,276.909z"/>
	
		<linearGradient id="SVGID_11_" gradientUnits="userSpaceOnUse" x1="282.3838" y1="60.5762" x2="239.3008" y2="60.5762" gradientTransform="matrix(1 0 0 -1 -31.1348 363.0059)">
		<stop  offset="0" style="stop-color:#787878"/>
		<stop  offset="0.1142" style="stop-color:#5C5C5C"/>
		<stop  offset="0.2783" style="stop-color:#3B3B3B"/>
		<stop  offset="0.4472" style="stop-color:#212121"/>
		<stop  offset="0.6205" style="stop-color:#0F0F0F"/>
		<stop  offset="0.801" style="stop-color:#040404"/>
		<stop  offset="1" style="stop-color:#000000"/>
	</linearGradient>
	<path fill="url(#SVGID_11_)" d="M208.167,278.769l15.333-1.25v33.5c0,0,0.333,4.917,6.083,4.75s6.334-5.417,6.334-5.417
		l-0.917-31.5l16.25-1.333v34.917c0,0-3.167,13.417-18.25,14.75s-20.334-6.166-22.667-10.583c0,0-2.166-5.417-2.166-10.667v-26.282
		V278.769z"/>
	<g>
		
			<linearGradient id="SVGID_12_" gradientUnits="userSpaceOnUse" x1="335.3838" y1="59.6987" x2="292.4443" y2="59.6987" gradientTransform="matrix(1 0 0 -1 -31.1348 363.0059)">
			<stop  offset="0" style="stop-color:#787878"/>
			<stop  offset="0.1142" style="stop-color:#5C5C5C"/>
			<stop  offset="0.2783" style="stop-color:#3B3B3B"/>
			<stop  offset="0.4472" style="stop-color:#212121"/>
			<stop  offset="0.6205" style="stop-color:#0F0F0F"/>
			<stop  offset="0.801" style="stop-color:#040404"/>
			<stop  offset="1" style="stop-color:#000000"/>
		</linearGradient>
		<path fill="url(#SVGID_12_)" d="M304.25,329.106l-12.938-23.109l5.317-5.547c0,0,5.994-6.266,1.994-14.891
			c-4.022-8.673-12.625-8.041-12.625-8.041h-24.688v51.588h15.75l-0.438-20.297l9.625,20.297H304.25L304.25,329.106z
			 M285.063,294.06c-1.313,6.5-8.438,4.938-8.438,4.938V288.06C278.875,286.81,286.375,287.56,285.063,294.06z"/>
	</g>
	
		<linearGradient id="SVGID_13_" gradientUnits="userSpaceOnUse" x1="55.6763" y1="33.4614" x2="55.6763" y2="101.6074" gradientTransform="matrix(1 0 0 -1 -31.1348 363.0059)">
		<stop  offset="0.0044" style="stop-color:#000000"/>
		<stop  offset="1" style="stop-color:#1A1A1A"/>
	</linearGradient>
	<path fill="url(#SVGID_13_)" d="M16.833,265.398l10.5-4v19.084H38.75l3.583,7.583l-13.75,0.333c0,0-1.211,27.412-0.833,30
		c0.583,4,9.583,4.084,12.083,2.417l0.417,7.167c0,0-16.667,5.666-22.5-4.584l-0.917-34.916l-10.083-0.25l1.083-7.833
		c0,0,0.416-1.834,2.333-1.834s6.75,0,6.75,0L16.833,265.398z"/>
	<g>
		
			<linearGradient id="SVGID_14_" gradientUnits="userSpaceOnUse" x1="97.396" y1="33.4819" x2="97.396" y2="83.1362" gradientTransform="matrix(1 0 0 -1 -31.1348 363.0059)">
			<stop  offset="0.0044" style="stop-color:#000000"/>
			<stop  offset="1" style="stop-color:#1A1A1A"/>
		</linearGradient>
		<path fill="url(#SVGID_14_)" d="M69.75,321.982c0,0-9.167,0.917-12.833-6c0,0-2.416-3.666-1.583-10l2.792-1.626l28.792-0.063
			l-1.5-11.828c0,0-4.417-13.983-19.583-12.483s-18.585,12.416-20.168,24.833c0,0-1.583,15.917,11.167,22.5
			c0,0,4.667,3.417,15.75,1.75c0,0,3.917-0.167,11.417-3l-0.251-8.667C83.75,317.398,79.5,322.066,69.75,321.982z M66.75,287.065
			c10.417-0.167,11.417,10.833,11.417,10.833H55.333C58.25,285.898,66.75,287.065,66.75,287.065z"/>
	</g>
	
		<linearGradient id="SVGID_15_" gradientUnits="userSpaceOnUse" x1="131.8848" y1="33.9404" x2="131.8848" y2="104.0234" gradientTransform="matrix(1 0 0 -1 -31.1348 363.0059)">
		<stop  offset="0.0044" style="stop-color:#000000"/>
		<stop  offset="1" style="stop-color:#1A1A1A"/>
	</linearGradient>
	<polygon fill="url(#SVGID_15_)" points="95.333,259.732 105.333,258.982 106.167,329.065 95.333,329.065 	"/>
	
		<linearGradient id="SVGID_16_" gradientUnits="userSpaceOnUse" x1="213.5977" y1="33.4932" x2="213.5977" y2="83.7734" gradientTransform="matrix(1 0 0 -1 -31.1348 363.0059)">
		<stop  offset="0.0044" style="stop-color:#000000"/>
		<stop  offset="1" style="stop-color:#1A1A1A"/>
	</linearGradient>
	<path fill="url(#SVGID_16_)" d="M196.333,279.706l-0.5,11.943c0,0-6.416-3.5-12.083-1.917s-2.418,5.999,0.916,7.583
		s13.5,5.417,14.75,12.75c0,0,1.083,10.916-6.75,15.583s-20.499,3.816-23.916,3.783h-1.25l0.5-12.866c0,0,1.584,0.749,5.75,1.083
		s15.917,0.75,10.25-5.583c0,0-7.583-3.583-12.5-5.583c0,0-8.501-5.667-5.334-15.75s12.668-11.5,15.834-11.5
		S196.333,279.706,196.333,279.706z"/>
	
		<linearGradient id="SVGID_17_" gradientUnits="userSpaceOnUse" x1="260.8438" y1="32.8672" x2="260.8438" y2="82.6904" gradientTransform="matrix(1 0 0 -1 -31.1348 363.0059)">
		<stop  offset="0.0044" style="stop-color:#000000"/>
		<stop  offset="1" style="stop-color:#1A1A1A"/>
	</linearGradient>
	<path fill="url(#SVGID_17_)" d="M208.167,281.565l15.333-1.25v33.5c0,0,0.333,4.917,6.083,4.75s6.334-5.417,6.334-5.417
		l-0.917-31.5l16.25-1.333v34.917c0,0-3.167,13.417-18.25,14.75s-20.334-6.166-22.667-10.583c0,0-2.166-5.417-2.166-10.667V281.565z
		"/>
	<g>
		
			<linearGradient id="SVGID_18_" gradientUnits="userSpaceOnUse" x1="314.6973" y1="33.8994" x2="314.6973" y2="82.7017" gradientTransform="matrix(1 0 0 -1 -31.1348 363.0059)">
			<stop  offset="0.0044" style="stop-color:#000000"/>
			<stop  offset="1" style="stop-color:#1A1A1A"/>
		</linearGradient>
		<path fill="url(#SVGID_18_)" d="M304.25,329.106l-12.938-20.313l5.317-5.548c0,0,5.994-6.266,1.994-14.891
			c-4.022-8.673-12.625-8.041-12.625-8.041h-23.125v48.791h14.188l-0.438-17.5l9.625,17.5L304.25,329.106L304.25,329.106z
			 M285.063,296.856c-1.313,6.5-8.438,4.938-8.438,4.938v-10.938C278.875,289.606,286.375,290.356,285.063,296.856z"/>
	</g>
	<g>
		
			<linearGradient id="SVGID_19_" gradientUnits="userSpaceOnUse" x1="188.4072" y1="60.6089" x2="147.0952" y2="60.6089" gradientTransform="matrix(1 0 0 -1 -31.1348 363.0059)">
			<stop  offset="0" style="stop-color:#787878"/>
			<stop  offset="0.1142" style="stop-color:#5C5C5C"/>
			<stop  offset="0.2783" style="stop-color:#3B3B3B"/>
			<stop  offset="0.4472" style="stop-color:#212121"/>
			<stop  offset="0.6205" style="stop-color:#0F0F0F"/>
			<stop  offset="0.801" style="stop-color:#040404"/>
			<stop  offset="1" style="stop-color:#000000"/>
		</linearGradient>
		<path fill="url(#SVGID_19_)" d="M140.106,319.048c0,0-9.978,0.579-12.833-6c0,0-1.917-3.376-1.583-8.08l2.792-1.605l28.792-0.063
			l-1.5-13.769c0,0-4.416-13.983-19.583-12.483s-18.583,12.416-20.167,24.833c0,0-1.583,17.188,11.167,23.771
			c0,0,4.667,3.417,15.75,1.75c0,0,3.916-0.167,11.417-3l-0.25-9.938C154.105,314.464,149.856,319.132,140.106,319.048z
			 M137.106,284.13c10.416-0.166,11.417,10.834,11.417,10.834H125.69C128.606,282.964,137.106,284.13,137.106,284.13z"/>
	</g>
	<g>
		
			<linearGradient id="SVGID_20_" gradientUnits="userSpaceOnUse" x1="167.7295" y1="33.646" x2="167.7295" y2="83.3003" gradientTransform="matrix(1 0 0 -1 -31.1348 363.0059)">
			<stop  offset="0.0044" style="stop-color:#000000"/>
			<stop  offset="1" style="stop-color:#1A1A1A"/>
		</linearGradient>
		<path fill="url(#SVGID_20_)" d="M140.083,321.818c0,0-9.167,0.917-12.833-6c0,0-2.416-3.666-1.583-10l2.792-1.626l28.792-0.063
			l-1.5-11.827c0,0-4.417-13.984-19.583-12.484s-18.583,12.416-20.167,24.833c0,0-1.583,15.917,11.167,22.5
			c0,0,4.667,3.417,15.75,1.75c0,0,3.917-0.167,11.417-3l-0.25-8.667C154.084,317.234,149.833,321.902,140.083,321.818z
			 M137.083,286.901c10.416-0.167,11.417,10.833,11.417,10.833h-22.833C128.583,285.734,137.083,286.901,137.083,286.901z"/>
	</g>
</g>
<rect x="-14.168" y="-0.563" fill="none" width="339.336" height="339.336"/>
</svg>
