<?xml version="1.0" encoding="iso-8859-1"?>
<!-- Generator: Adobe Illustrator 15.1.0, SVG Export Plug-In . SVG Version: 6.00 Build 0)  -->
<!DOCTYPE svg PUBLIC "-//W3C//DTD SVG 1.0//EN" "http://www.w3.org/TR/2001/REC-SVG-20010904/DTD/svg10.dtd">
<svg version="1.0" id="Layer_1" xmlns="http://www.w3.org/2000/svg" xmlns:xlink="http://www.w3.org/1999/xlink" x="0px" y="0px"
	 width="272px" height="192px" viewBox="0 0 272 192" style="enable-background:new 0 0 272 192;" xml:space="preserve">
<g>
	<g>
		<linearGradient id="SVGID_1_" gradientUnits="userSpaceOnUse" x1="50.6802" y1="12.605" x2="50.6802" y2="94.1055">
			<stop  offset="0" style="stop-color:#003078"/>
			<stop  offset="0.0691" style="stop-color:#003584"/>
			<stop  offset="0.533" style="stop-color:#0053CF"/>
		</linearGradient>
		<circle style="fill:url(#SVGID_1_);" cx="50.68" cy="53.354" r="40.75"/>
		<linearGradient id="SVGID_2_" gradientUnits="userSpaceOnUse" x1="50.6802" y1="94.1055" x2="50.6802" y2="61.7617">
			<stop  offset="0.1057" style="stop-color:#D6E6FF"/>
			<stop  offset="0.5809" style="stop-color:#5990E3"/>
			<stop  offset="0.9339" style="stop-color:#0053CF"/>
		</linearGradient>
		<path style="fill:url(#SVGID_2_);" d="M50.68,61.762c-16.568,0-30,6.884-30,15.375c0,2.363,1.043,4.601,2.902,6.601
			c1.225,1.318,2.807,2.532,4.679,3.611c6.442,4.266,14.163,6.756,22.468,6.756c8.605,0,16.583-2.674,23.16-7.228
			c1.269-0.793,2.381-1.653,3.324-2.566c2.21-2.142,3.467-4.583,3.467-7.174C80.68,68.646,67.249,61.762,50.68,61.762z"/>
		<linearGradient id="SVGID_3_" gradientUnits="userSpaceOnUse" x1="136.5127" y1="12.605" x2="136.5127" y2="94.1055">
			<stop  offset="0" style="stop-color:#176017"/>
			<stop  offset="0.533" style="stop-color:#2BAA2B"/>
		</linearGradient>
		<circle style="fill:url(#SVGID_3_);" cx="136.512" cy="53.354" r="40.75"/>
		<linearGradient id="SVGID_4_" gradientUnits="userSpaceOnUse" x1="136.5117" y1="94.1055" x2="136.5117" y2="61.7617">
			<stop  offset="0.1057" style="stop-color:#DCF6DC"/>
			<stop  offset="0.5153" style="stop-color:#83D083"/>
			<stop  offset="0.9339" style="stop-color:#2BAA2B"/>
		</linearGradient>
		<path style="fill:url(#SVGID_4_);" d="M136.513,61.762c-16.569,0-30,6.884-30,15.375c0,2.363,1.043,4.601,2.902,6.601
			c1.225,1.318,2.807,2.532,4.679,3.611c6.442,4.266,14.163,6.756,22.468,6.756c8.605,0,16.582-2.674,23.16-7.228
			c1.268-0.793,2.381-1.653,3.323-2.566c2.21-2.142,3.468-4.583,3.468-7.174C166.513,68.646,153.081,61.762,136.513,61.762z"/>
		<linearGradient id="SVGID_5_" gradientUnits="userSpaceOnUse" x1="222.3447" y1="12.605" x2="222.3447" y2="94.1055">
			<stop  offset="0" style="stop-color:#780000"/>
			<stop  offset="0.1567" style="stop-color:#990303"/>
			<stop  offset="0.533" style="stop-color:#E40B0B"/>
		</linearGradient>
		<circle style="fill:url(#SVGID_5_);" cx="222.345" cy="53.354" r="40.75"/>
		<linearGradient id="SVGID_6_" gradientUnits="userSpaceOnUse" x1="222.3447" y1="94.1055" x2="222.3447" y2="61.7617">
			<stop  offset="0.1057" style="stop-color:#FFD6D6"/>
			<stop  offset="0.5626" style="stop-color:#F06464"/>
			<stop  offset="0.9339" style="stop-color:#E40B0B"/>
		</linearGradient>
		<path style="fill:url(#SVGID_6_);" d="M222.345,61.762c-16.568,0-30,6.884-30,15.375c0,2.363,1.043,4.601,2.901,6.601
			c1.226,1.318,2.808,2.532,4.679,3.611c6.442,4.266,14.163,6.756,22.469,6.756c8.605,0,16.582-2.674,23.16-7.228
			c1.268-0.793,2.381-1.653,3.323-2.566c2.21-2.142,3.468-4.583,3.468-7.174C252.345,68.646,238.913,61.762,222.345,61.762z"/>
	</g>
	<g>
		<path d="M21.112,121.375l8.875-3.875v13.094h13.031v7.031H29.987v27.969c0,0-0.283,4.978,4.594,6.938
			c0.693,0.278,1.263,0.365,2.969,0.344c1.234-0.016,2.427-0.176,3.219-0.344c0.918-0.195,3.594-1.094,3.594-1.094l1.594-0.687
			v8.312c0,0-4.406,2.249-10.188,1.5s-8.125-2.813-10.906-5.219s-3.75-6.563-3.75-9.75s0.031-28,0.031-28l-6.188,0.031v-7.031
			l6.125-0.031L21.112,121.375z"/>
		<g>
			<path d="M95.856,155.756l0.048-8.458c0,0-0.492-17.166-21.746-17.166c-20.671,0-22.275,20.241-22.275,20.241
				s-0.77,8.258,0.688,14.175c0,0,3.458,15.042,22.167,16.167h1.875c0,0,8.5-0.021,14.875-5.833l-3.708-6.667
				c0,0-3.042,4.041-13.083,4.459c0,0-7.375,0.499-11.417-6.251c0,0-3.209-4.833-2.626-10.625L95.856,155.756z M60.612,149.507
				c0,0,0.863-12.083,13.917-12.083c13.958,0,13.167,12.208,13.167,12.208L60.612,149.507z"/>
		</g>
		<g>
			<path d="M173.523,155.756l0.047-8.458c0,0-0.492-17.166-21.746-17.166c-20.67,0-22.275,20.241-22.275,20.241
				s-0.77,8.258,0.688,14.175c0,0,3.458,15.042,22.167,16.167h1.875c0,0,8.5-0.021,14.875-5.833l-3.709-6.667
				c0,0-3.041,4.041-13.082,4.459c0,0-7.376,0.499-11.417-6.251c0,0-3.21-4.833-2.626-10.625L173.523,155.756z M138.279,149.507
				c0,0,0.863-12.083,13.916-12.083c13.959,0,13.167,12.208,13.167,12.208L138.279,149.507z"/>
		</g>
		<g>
			<path d="M258.022,155.756l0.047-8.458c0,0-0.492-17.166-21.746-17.166c-20.67,0-22.275,20.241-22.275,20.241
				s-0.77,8.258,0.689,14.175c0,0,3.457,15.042,22.166,16.167h1.875c0,0,8.5-0.021,14.875-5.833l-3.709-6.667
				c0,0-3.041,4.041-13.082,4.459c0,0-7.376,0.499-11.417-6.251c0,0-3.21-4.833-2.626-10.625L258.022,155.756z M222.778,149.507
				c0,0,0.863-12.083,13.916-12.083c13.959,0,13.167,12.208,13.167,12.208L222.778,149.507z"/>
		</g>
		<path d="M105.862,111.223h9.125v55.959c0,0,0.125,1.875,2.583,3.875s5.542,1.572,5.542,1.572v8.031c0,0-8.75,0.897-13.25-4.562
			s-4-8.875-4-8.875V111.223z"/>
		<path d="M179.487,132.309v7.031h7.333v41.375h8.5V139.34h10.208v-7.031H195.3l0.021-4.875c0,0,1.166-6.344,5.375-7.177
			s7.875,0.375,7.875,0.375l2.667-6.541c0,0-4.958-2.084-10.75-0.959s-9.792,4-12.208,10.542c0,0-0.876,3.501-1.126,6.167v2.468
			H179.487z"/>
	</g>
</g>
</svg>
