<?xml version="1.0" encoding="utf-8"?>
<!-- Generator: Adobe Illustrator 15.1.0, SVG Export Plug-In . SVG Version: 6.00 Build 0)  -->
<!DOCTYPE svg PUBLIC "-//W3C//DTD SVG 1.1//EN" "http://www.w3.org/Graphics/SVG/1.1/DTD/svg11.dtd">
<svg version="1.1" id="Layer_1" xmlns="http://www.w3.org/2000/svg" xmlns:xlink="http://www.w3.org/1999/xlink" x="0px" y="0px"
	 width="22.715px" height="19.754px" viewBox="0 0 22.715 19.754" enable-background="new 0 0 22.715 19.754" xml:space="preserve">
<g>
	<polygon fill="#010202" points="19.647,19.497 21.228,14.585 2.044,14.585 0.297,19.497 	"/>
	<path fill="#FFFFFF" d="M5.296,15.264c-0.015,0.064-0.033,0.125-0.06,0.182C5.215,15.5,5.18,15.549,5.14,15.591
		c-0.041,0.042-0.093,0.074-0.155,0.096c-0.06,0.024-0.141,0.035-0.23,0.035h-0.68L3.366,18.82H3.166
		c-0.065,0-0.125-0.006-0.179-0.016c-0.052-0.012-0.097-0.034-0.13-0.067c-0.035-0.032-0.058-0.077-0.063-0.135
		c-0.012-0.059-0.006-0.131,0.016-0.219l0.616-2.661H2.309c0.016-0.066,0.035-0.127,0.059-0.184c0.023-0.056,0.06-0.104,0.102-0.146
		c0.042-0.043,0.095-0.076,0.157-0.098c0.061-0.021,0.138-0.031,0.223-0.031H5.296z"/>
	<path fill="#FFFFFF" d="M6.797,17.056c-0.034,0.133-0.093,0.259-0.177,0.372c-0.085,0.116-0.201,0.212-0.349,0.284
		c-0.148,0.07-0.334,0.114-0.557,0.13c-0.223,0.015-0.492-0.016-0.806-0.088c-0.023,0.226,0.006,0.39,0.087,0.49
		c0.08,0.101,0.197,0.15,0.349,0.154c0.156,0,0.298-0.008,0.426-0.021c0.128-0.015,0.236-0.019,0.322-0.011
		c0.087,0.006,0.147,0.032,0.183,0.078c0.036,0.042,0.038,0.126,0.008,0.247c-0.086,0.032-0.183,0.063-0.292,0.087
		c-0.094,0.023-0.207,0.043-0.337,0.06c-0.131,0.018-0.279,0.024-0.444,0.024c-0.156,0-0.302-0.022-0.439-0.07
		c-0.137-0.05-0.253-0.126-0.345-0.229c-0.091-0.105-0.153-0.243-0.185-0.412c-0.033-0.17-0.021-0.377,0.033-0.618
		c0.059-0.244,0.142-0.449,0.25-0.615c0.11-0.165,0.236-0.3,0.377-0.401c0.139-0.104,0.289-0.181,0.45-0.229
		c0.161-0.048,0.319-0.08,0.475-0.092c0.147-0.01,0.287,0,0.422,0.033c0.135,0.033,0.25,0.087,0.344,0.16
		c0.098,0.073,0.165,0.166,0.208,0.279C6.839,16.78,6.839,16.911,6.797,17.056z M5.009,17.317c0.142,0.039,0.276,0.066,0.401,0.08
		c0.126,0.013,0.24,0.009,0.339-0.012c0.102-0.02,0.188-0.058,0.259-0.109c0.071-0.055,0.124-0.127,0.155-0.22
		c0.042-0.114,0.028-0.213-0.036-0.3c-0.064-0.088-0.188-0.125-0.379-0.113c-0.154,0.006-0.296,0.063-0.425,0.167
		C5.199,16.917,5.092,17.084,5.009,17.317z"/>
	<path fill="#FFFFFF" d="M7.755,15.278c0.054,0.012,0.098,0.034,0.133,0.066c0.034,0.033,0.057,0.078,0.065,0.135
		c0.008,0.06,0.002,0.131-0.02,0.22l-0.718,3.12H7.022c-0.065,0-0.125-0.006-0.179-0.017c-0.053-0.012-0.098-0.034-0.132-0.065
		c-0.034-0.033-0.056-0.078-0.065-0.137c-0.008-0.058-0.004-0.129,0.018-0.219l0.72-3.119h0.193
		C7.643,15.264,7.703,15.268,7.755,15.278z"/>
	<path fill="#FFFFFF" d="M10.201,17.056c-0.036,0.133-0.095,0.259-0.178,0.372c-0.084,0.116-0.201,0.212-0.35,0.284
		c-0.148,0.07-0.333,0.114-0.557,0.13c-0.223,0.015-0.492-0.016-0.804-0.088c-0.023,0.226,0.005,0.39,0.086,0.49
		c0.081,0.101,0.197,0.15,0.349,0.154c0.154,0,0.296-0.008,0.427-0.021c0.127-0.015,0.237-0.019,0.322-0.011
		c0.088,0.006,0.146,0.032,0.183,0.078c0.036,0.042,0.039,0.126,0.006,0.247c-0.084,0.032-0.182,0.063-0.291,0.087
		c-0.094,0.023-0.205,0.043-0.336,0.06c-0.131,0.018-0.278,0.024-0.445,0.024c-0.154,0-0.301-0.022-0.438-0.07
		c-0.138-0.05-0.253-0.126-0.345-0.229c-0.093-0.105-0.154-0.243-0.187-0.412c-0.032-0.17-0.021-0.377,0.034-0.618
		c0.058-0.244,0.142-0.449,0.252-0.615c0.108-0.165,0.234-0.3,0.374-0.401c0.14-0.104,0.292-0.181,0.451-0.229
		c0.162-0.05,0.32-0.08,0.478-0.092c0.146-0.01,0.285,0,0.421,0.033c0.134,0.033,0.25,0.087,0.344,0.16
		c0.097,0.073,0.166,0.166,0.206,0.279C10.242,16.78,10.243,16.911,10.201,17.056z M8.412,17.317
		c0.142,0.039,0.276,0.066,0.402,0.08c0.125,0.013,0.238,0.009,0.339-0.012c0.102-0.02,0.186-0.058,0.259-0.109
		c0.071-0.053,0.123-0.127,0.154-0.22c0.043-0.114,0.028-0.213-0.034-0.3c-0.064-0.088-0.19-0.125-0.379-0.113
		c-0.157,0.006-0.299,0.063-0.425,0.167C8.601,16.917,8.495,17.084,8.412,17.317z"/>
	<path fill="#23A7D2" d="M13.31,16.196c0.144-0.01,0.283,0.006,0.408,0.054c0.125,0.046,0.227,0.122,0.307,0.23
		c0.079,0.109,0.132,0.251,0.155,0.427c0.023,0.175,0.008,0.385-0.047,0.627l-0.298,1.286H13.64c-0.064,0-0.124-0.006-0.177-0.016
		c-0.057-0.012-0.099-0.034-0.133-0.067c-0.034-0.032-0.058-0.077-0.064-0.135c-0.01-0.059-0.002-0.131,0.019-0.219l0.188-0.823
		c0.039-0.17,0.063-0.311,0.074-0.425c0.009-0.109,0.004-0.199-0.018-0.266c-0.021-0.066-0.055-0.112-0.102-0.141
		c-0.049-0.031-0.111-0.044-0.188-0.048s-0.15,0.008-0.222,0.032c-0.07,0.026-0.138,0.07-0.195,0.133
		c-0.061,0.063-0.116,0.147-0.167,0.255c-0.051,0.106-0.097,0.24-0.133,0.397l-0.304,1.319h-0.19c-0.067,0-0.126-0.006-0.18-0.016
		c-0.054-0.012-0.099-0.034-0.132-0.066c-0.035-0.033-0.058-0.078-0.065-0.136c-0.01-0.059-0.004-0.131,0.017-0.22l0.19-0.822
		c0.04-0.169,0.063-0.311,0.072-0.424c0.01-0.11,0.004-0.2-0.017-0.267c-0.02-0.066-0.052-0.112-0.101-0.141
		c-0.047-0.03-0.107-0.044-0.186-0.048c-0.076-0.004-0.152,0.008-0.224,0.032c-0.069,0.026-0.134,0.07-0.196,0.133
		c-0.06,0.063-0.113,0.147-0.163,0.255c-0.049,0.107-0.093,0.24-0.128,0.398l-0.305,1.318h-0.195c-0.068,0-0.128-0.007-0.181-0.016
		c-0.053-0.013-0.097-0.034-0.129-0.066c-0.033-0.033-0.053-0.078-0.063-0.136c-0.008-0.059-0.004-0.131,0.019-0.22l0.495-2.135
		h0.191c0.102,0,0.188,0.015,0.261,0.044c0.07,0.032,0.107,0.099,0.113,0.197c0.021-0.015,0.044-0.038,0.077-0.068
		c0.034-0.031,0.072-0.061,0.119-0.093c0.044-0.027,0.099-0.057,0.161-0.08c0.062-0.026,0.134-0.044,0.214-0.052
		c0.184-0.014,0.351,0.018,0.498,0.092c0.148,0.076,0.257,0.201,0.321,0.379c0.03-0.037,0.072-0.081,0.122-0.134
		c0.053-0.051,0.108-0.101,0.176-0.146c0.065-0.046,0.14-0.087,0.224-0.124C13.122,16.225,13.21,16.202,13.31,16.196z"/>
	<path fill="#23A7D2" d="M15.858,16.196c0.098,0,0.207,0.004,0.329,0.014c0.124,0.01,0.23,0.048,0.329,0.11
		c0.098,0.064,0.166,0.169,0.207,0.314c0.046,0.146,0.035,0.356-0.026,0.629l-0.361,1.557h-0.19c-0.101,0-0.183-0.016-0.251-0.044
		c-0.066-0.03-0.106-0.088-0.12-0.172c-0.057,0.053-0.139,0.106-0.247,0.164c-0.109,0.057-0.249,0.089-0.414,0.096
		c-0.139,0.005-0.268-0.011-0.388-0.044c-0.12-0.031-0.223-0.085-0.305-0.159c-0.082-0.073-0.14-0.168-0.17-0.28
		c-0.032-0.111-0.028-0.245,0.012-0.4c0.082-0.323,0.281-0.542,0.602-0.654c0.318-0.11,0.726-0.127,1.223-0.046
		c0.044-0.113,0.064-0.22,0.061-0.315c-0.003-0.082-0.032-0.154-0.09-0.222c-0.057-0.065-0.167-0.1-0.328-0.1
		c-0.154,0-0.293,0.014-0.415,0.036c-0.119,0.024-0.221,0.036-0.298,0.037c-0.078,0.003-0.134-0.02-0.162-0.063
		c-0.03-0.046-0.026-0.142,0.006-0.285c0.087-0.029,0.183-0.058,0.289-0.082c0.089-0.023,0.195-0.044,0.317-0.062
		C15.588,16.206,15.719,16.196,15.858,16.196z M15.233,18.377c0.077,0,0.154-0.01,0.233-0.03s0.153-0.057,0.221-0.108
		c0.068-0.051,0.132-0.121,0.184-0.211c0.053-0.092,0.094-0.205,0.121-0.346c-0.048-0.016-0.102-0.027-0.163-0.038
		c-0.049-0.008-0.109-0.016-0.182-0.021c-0.072-0.008-0.151-0.01-0.235-0.008c-0.054,0.004-0.107,0.014-0.166,0.026
		c-0.055,0.014-0.109,0.035-0.163,0.065c-0.054,0.032-0.102,0.072-0.142,0.118c-0.041,0.049-0.068,0.109-0.086,0.184
		c-0.019,0.072-0.021,0.134-0.007,0.182c0.014,0.047,0.038,0.085,0.074,0.113c0.034,0.027,0.08,0.046,0.136,0.06
		C15.113,18.372,15.171,18.377,15.233,18.377z"/>
	<path fill="#23A7D2" d="M18.213,17.504c0.113,0.17,0.228,0.327,0.337,0.474c0.045,0.067,0.091,0.134,0.142,0.199
		c0.049,0.066,0.096,0.132,0.142,0.194c0.043,0.062,0.085,0.121,0.123,0.178c0.039,0.053,0.072,0.102,0.101,0.142
		c-0.047,0.048-0.104,0.087-0.175,0.121c-0.068,0.032-0.154,0.05-0.258,0.05c-0.081,0-0.152-0.018-0.216-0.053
		c-0.061-0.035-0.119-0.077-0.169-0.133c-0.054-0.053-0.102-0.114-0.148-0.182c-0.048-0.067-0.097-0.136-0.147-0.202
		c-0.025-0.04-0.06-0.085-0.092-0.134c-0.037-0.047-0.071-0.097-0.107-0.148l-0.976,0.851c-0.093-0.059-0.155-0.126-0.19-0.203
		c-0.032-0.062-0.039-0.141-0.019-0.234c0.021-0.091,0.101-0.19,0.242-0.302c0.081-0.067,0.161-0.132,0.239-0.196
		c0.077-0.064,0.143-0.123,0.205-0.173c0.066-0.062,0.133-0.115,0.19-0.168l-0.333-0.512c-0.116-0.156-0.167-0.286-0.154-0.396
		c0.014-0.108,0.051-0.196,0.112-0.263c0.074-0.079,0.175-0.143,0.305-0.188l0.524,0.855c0.074-0.065,0.152-0.135,0.238-0.204
		s0.163-0.138,0.239-0.198c0.074-0.063,0.142-0.118,0.2-0.165c0.06-0.048,0.102-0.081,0.129-0.1c0.136-0.107,0.25-0.167,0.345-0.177
		c0.093-0.006,0.167,0.006,0.224,0.036c0.063,0.04,0.115,0.101,0.156,0.184L18.213,17.504z"/>
	<line fill="none" x1="3.681" y1="2.129" x2="11.818" y2="2.129"/>
	<path fill="#23A7D2" d="M3.681,2.129c-0.757,0-1.371,0.819-1.371,1.831h2.847L2.31,13.468c1.573,0,2.505,0.28,2.847-1.832
		l2.29-7.676h3.949l0.425-1.831"/>
	<line fill="none" x1="8.762" y1="4.793" x2="10.086" y2="4.793"/>
	<path fill="#23A7D2" d="M8.762,4.793L6.3,13.48h6.193c0.057-0.612,0.884-1.553-0.305-2.105H9.175l1.492-5.115
		c0.167-0.733,0.25-1.466-0.582-1.466"/>
	<polygon fill="#23A7D2" points="15.645,4.435 19.822,0.258 22.418,0.258 16.558,6.619 19.241,13.48 16.752,13.48 14.706,8.816 
		13.158,10.793 10.225,10.793 13.959,6.619 12.355,2.129 14.955,2.129 	"/>
</g>
</svg>
