<?xml version="1.0" encoding="utf-8"?>
<!-- Generator: Adobe Illustrator 15.1.0, SVG Export Plug-In . SVG Version: 6.00 Build 0)  -->
<!DOCTYPE svg PUBLIC "-//W3C//DTD SVG 1.1//EN" "http://www.w3.org/Graphics/SVG/1.1/DTD/svg11.dtd">
<svg version="1.1" id="Layer_1" xmlns="http://www.w3.org/2000/svg" xmlns:xlink="http://www.w3.org/1999/xlink" x="0px" y="0px"
	 width="291.701px" height="161.366px" viewBox="-258.279 989.411 291.701 161.366"
	 enable-background="new -258.279 989.411 291.701 161.366" xml:space="preserve">
<g>
	<g>
		<path stroke="#231F20" stroke-width="10.8834" stroke-miterlimit="10" d="M-37.652,1070.096"/>
	</g>
	<g>
		<g>
			
				<linearGradient id="SVGID_1_" gradientUnits="userSpaceOnUse" x1="-29.7395" y1="-940.7759" x2="-29.7395" y2="-963.0087" gradientTransform="matrix(1 0 0 -1 -31.1348 113.4922)">
				<stop  offset="0.227" style="stop-color:#666666"/>
				<stop  offset="0.3555" style="stop-color:#535353"/>
				<stop  offset="0.7916" style="stop-color:#171717"/>
				<stop  offset="1" style="stop-color:#000000"/>
			</linearGradient>
			<polygon fill="url(#SVGID_1_)" points="-27.623,1039.97 -39.802,1085.188 -51.327,1039.97 -106.494,1039.97 -106.494,1049.204 
				-91.74,1049.204 -91.74,1100.21 -78.422,1100.21 -78.422,1049.204 -63.284,1049.204 -47.041,1100.21 -34.481,1100.21 
				-15.254,1039.97 			"/>
			<path fill="#231F20" d="M-34.481,1100.998h-12.562c-0.341,0-0.644-0.225-0.749-0.549l-16.067-50.466h-13.783v50.227
				c0,0.438-0.35,0.788-0.782,0.788H-91.74c-0.434,0-0.786-0.351-0.786-0.788v-50.227h-13.968c-0.432,0-0.782-0.352-0.782-0.779
				v-9.234c0-0.432,0.35-0.777,0.782-0.777h55.167c0.354,0,0.669,0.237,0.758,0.581l10.788,42.32l11.398-42.33
				c0.091-0.342,0.401-0.571,0.758-0.571h12.371c0.249,0,0.485,0.116,0.633,0.313c0.149,0.202,0.188,0.464,0.11,0.704
				l-19.224,60.239C-33.835,1100.773-34.143,1100.998-34.481,1100.998z M-46.468,1099.436h11.417l18.726-58.677h-10.701
				l-12.018,44.631c-0.092,0.348-0.402,0.577-0.755,0.577c0,0,0,0-0.003,0c-0.357,0-0.665-0.238-0.755-0.582l-11.378-44.626h-53.773
				v7.661h13.971c0.43,0,0.782,0.353,0.782,0.784v50.231h11.752v-50.231c0-0.437,0.35-0.788,0.785-0.788h15.137
				c0.343,0,0.646,0.226,0.747,0.549L-46.468,1099.436z"/>
		</g>
		<g>
			
				<linearGradient id="SVGID_2_" gradientUnits="userSpaceOnUse" x1="41.3816" y1="-940.7759" x2="41.3816" y2="-963.0087" gradientTransform="matrix(1 0 0 -1 -31.1348 113.4922)">
				<stop  offset="0.227" style="stop-color:#666666"/>
				<stop  offset="0.3555" style="stop-color:#535353"/>
				<stop  offset="0.7916" style="stop-color:#171717"/>
				<stop  offset="1" style="stop-color:#000000"/>
			</linearGradient>
			<path fill="url(#SVGID_2_)" d="M31.095,1058.054c0,14.28-11.623,18.75-24.093,18.75H2.725v23.406h-13.419v-60.24H7.483
				c12.279,0,23.705,3.901,23.705,18.078h-0.092V1058.054z M6.335,1049.204H2.631v18.369h3.804c6.569,0,10.09-2.76,10.09-9.52
				C16.525,1051.674,12.246,1049.204,6.335,1049.204z"/>
			<path fill="#231F20" d="M2.725,1100.998h-13.419c-0.427,0-0.777-0.346-0.777-0.788v-60.24c0-0.432,0.351-0.777,0.777-0.777H7.483
				c15.986,0,24.454,6.49,24.487,18.781c0,0.023,0.003,0.051,0.003,0.074c0,0.147-0.036,0.277-0.102,0.391
				c-0.096,6.68-2.692,11.728-7.719,15.004c-4.169,2.704-10.102,4.146-17.149,4.146H3.509v22.622
				C3.509,1100.652,3.16,1100.998,2.725,1100.998z M-9.91,1099.436H1.946v-22.632c0-0.433,0.348-0.779,0.779-0.779h4.277
				c6.743,0,12.376-1.353,16.295-3.893c4.648-3.027,7.012-7.765,7.012-14.078c0-0.132,0.03-0.258,0.091-0.361
				c-0.091-6.047-2.403-10.53-6.877-13.332c-3.819-2.39-9.218-3.602-16.042-3.602H-9.91V1099.436z M6.435,1068.354H2.631
				c-0.436,0-0.784-0.348-0.784-0.78v-18.369c0-0.437,0.351-0.788,0.784-0.788h3.704c7.077,0,10.978,3.421,10.978,9.638
				C17.313,1064.991,13.751,1068.354,6.435,1068.354z M3.411,1066.791h3.024c6.437,0,9.307-2.691,9.307-8.737
				c0-5.356-3.161-8.065-9.406-8.065H3.411V1066.791z"/>
		</g>
	</g>
	<g>
		<path fill="#404041" d="M-34.481,1100.642h-12.562c-0.186,0-0.35-0.121-0.406-0.295l-16.142-50.72h-14.408v50.583
			c0,0.244-0.19,0.432-0.42,0.432H-91.74c-0.237,0-0.427-0.188-0.427-0.432v-50.583h-14.327c-0.235,0-0.427-0.192-0.427-0.423
			v-9.234c0-0.234,0.192-0.423,0.427-0.423h55.167c0.197,0,0.364,0.133,0.414,0.315l11.121,43.648l11.753-43.653
			c0.051-0.184,0.217-0.311,0.415-0.311h12.371c0.136,0,0.265,0.062,0.345,0.175c0.077,0.103,0.101,0.248,0.059,0.37l-19.224,60.25
			C-34.132,1100.521-34.298,1100.642-34.481,1100.642z M-46.733,1099.792h11.942l18.957-59.398h-11.463l-12.089,44.906
			c-0.054,0.184-0.22,0.32-0.412,0.32l0,0c-0.195,0-0.367-0.137-0.412-0.329l-11.447-44.897h-54.409v8.383h14.327
			c0.232,0,0.423,0.188,0.423,0.428v50.588h12.468v-50.588c0-0.239,0.19-0.428,0.427-0.428h15.138c0.183,0,0.347,0.119,0.401,0.291
			L-46.733,1099.792z"/>
		<path fill="#404041" d="M2.725,1100.642h-13.419c-0.234,0-0.424-0.188-0.424-0.432v-60.24c0-0.234,0.19-0.423,0.424-0.423H7.483
			c7.057,0,12.669,1.27,16.683,3.785c4.929,3.079,7.438,8.014,7.446,14.665c0.006,0.019,0.006,0.032,0.006,0.051
			c0,0.109-0.038,0.197-0.098,0.277c-0.07,6.61-2.615,11.597-7.563,14.812c-4.112,2.681-9.97,4.093-16.952,4.093h-3.85v22.98
			C3.153,1100.454,2.963,1100.642,2.725,1100.642z M-10.269,1099.792H2.298v-22.988c0-0.234,0.19-0.423,0.425-0.423h4.277
			c6.819,0,12.518-1.361,16.488-3.958c4.762-3.094,7.172-7.929,7.172-14.369c0-0.1,0.038-0.192,0.091-0.269
			c-0.06-6.224-2.431-10.843-7.04-13.73c-3.876-2.427-9.337-3.661-16.229-3.661h-17.751V1099.792z M6.435,1067.997H2.631
			c-0.234,0-0.428-0.188-0.428-0.424v-18.369c0-0.239,0.194-0.428,0.428-0.428h3.704c6.848,0,10.619,3.297,10.619,9.271
			C16.954,1064.744,13.514,1067.997,6.435,1067.997z M3.054,1067.146h3.377c3.29,0,5.652-0.69,7.225-2.116
			c1.646-1.484,2.448-3.756,2.448-6.977c0-6.962-5.314-8.427-9.77-8.427H3.057v17.52H3.054z"/>
	</g>
	<g>
		<path fill="#929497" d="M-34.481,1100.29h-12.562c-0.029,0-0.055-0.023-0.066-0.057l-16.227-50.96h-15.015v50.937
			c0,0.047-0.031,0.08-0.071,0.08H-91.74c-0.042,0-0.075-0.038-0.075-0.08v-50.937h-14.68c-0.04,0-0.07-0.036-0.07-0.069v-9.234
			c0-0.042,0.03-0.07,0.07-0.07h55.167c0.031,0,0.062,0.024,0.066,0.057l11.462,44.959l12.104-44.959
			c0.012-0.037,0.041-0.057,0.072-0.057h12.371c0.025,0,0.046,0.015,0.054,0.028c0.014,0.023,0.021,0.046,0.014,0.066
			l-19.225,60.239C-34.424,1100.267-34.45,1100.29-34.481,1100.29z M-46.987,1100.146h12.455l19.179-60.104h-12.22l-12.161,45.161
			c-0.007,0.038-0.035,0.057-0.068,0.057l0,0c-0.03,0-0.056-0.023-0.068-0.057l-11.516-45.161h-55.039v9.083h14.685
			c0.036,0,0.07,0.039,0.07,0.08v50.937h13.176v-50.937c0-0.041,0.03-0.08,0.07-0.08h15.137c0.03,0,0.057,0.023,0.068,0.053
			L-46.987,1100.146z"/>
		<path fill="#929497" d="M2.725,1100.29h-13.419c-0.038,0-0.067-0.038-0.067-0.08v-60.24c0-0.046,0.032-0.07,0.067-0.07H7.483
			c6.986,0,12.538,1.258,16.496,3.731c4.828,3.024,7.271,7.864,7.277,14.398c0.003,0.009,0.003,0.015,0.003,0.024
			c0,0.042-0.03,0.07-0.063,0.07c-0.008,0-0.008,0-0.008,0h-0.028c-0.044,16.316-15.146,18.754-24.157,18.754H2.796v23.332
			C2.796,1100.252,2.766,1100.29,2.725,1100.29z M-10.623,1100.146H2.653v-23.342c0-0.038,0.036-0.07,0.07-0.07h4.277
			c8.972,0,24.021-2.424,24.021-18.68c0-0.033,0.03-0.066,0.072-0.066h0.021c-0.017-6.464-2.448-11.248-7.21-14.232
			c-3.946-2.461-9.463-3.709-16.423-3.709h-18.105v60.1H-10.623z M6.435,1067.645H2.631c-0.042,0-0.068-0.032-0.068-0.071v-18.369
			c0-0.041,0.028-0.08,0.068-0.08h3.704c4.688,0,10.268,1.554,10.268,8.93C16.6,1064.597,13.37,1067.645,6.435,1067.645z
			 M2.701,1067.504h3.733c6.84,0,10.019-3.01,10.019-9.456c0-7.257-5.501-8.774-10.119-8.774H2.701V1067.504z"/>
	</g>
</g>
<rect x="-258.279" y="989.411" fill="none" width="291.701" height="161.366"/>
<g>
	
		<linearGradient id="SVGID_3_" gradientUnits="userSpaceOnUse" x1="-344.5779" y1="366.4111" x2="-343.5784" y2="366.4111" gradientTransform="matrix(99.7713 86.7299 86.7299 -99.7713 2359.5356 67469.2344)">
		<stop  offset="0" style="stop-color:#FFFFFF"/>
		<stop  offset="0.0606" style="stop-color:#FFFFFF"/>
		<stop  offset="0.2901" style="stop-color:#FCFCFC"/>
		<stop  offset="0.4499" style="stop-color:#F3F3F3"/>
		<stop  offset="0.5885" style="stop-color:#E4E4E4"/>
		<stop  offset="0.715" style="stop-color:#CECECE"/>
		<stop  offset="0.8334" style="stop-color:#B2B2B2"/>
		<stop  offset="0.9441" style="stop-color:#90908F"/>
		<stop  offset="1" style="stop-color:#7C7C7B"/>
	</linearGradient>
	<path fill="url(#SVGID_3_)" d="M-190.726,1134.799c-35.798,0-64.814-29.006-64.814-64.807c0-35.792,29.015-64.804,64.814-64.804
		c35.793,0,64.814,29.012,64.814,64.804C-125.911,1105.793-154.93,1134.799-190.726,1134.799 M-190.731,1003.996
		c-36.504,0-66.099,29.594-66.099,66.098c0,36.506,29.594,66.099,66.099,66.099c36.505,0,66.098-29.593,66.098-66.099
		C-124.633,1033.59-154.226,1003.996-190.731,1003.996"/>
	
		<linearGradient id="SVGID_4_" gradientUnits="userSpaceOnUse" x1="-344.5779" y1="366.4111" x2="-343.5779" y2="366.4111" gradientTransform="matrix(99.7713 86.7299 86.7299 -99.7713 2359.5356 67469.2344)">
		<stop  offset="0" style="stop-color:#FFFFFF"/>
		<stop  offset="0.0606" style="stop-color:#FFFFFF"/>
		<stop  offset="0.2901" style="stop-color:#FCFCFC"/>
		<stop  offset="0.4499" style="stop-color:#F3F3F3"/>
		<stop  offset="0.5885" style="stop-color:#E4E4E4"/>
		<stop  offset="0.715" style="stop-color:#CECECE"/>
		<stop  offset="0.8334" style="stop-color:#B2B2B2"/>
		<stop  offset="0.9441" style="stop-color:#90908F"/>
		<stop  offset="1" style="stop-color:#7C7C7B"/>
	</linearGradient>
	<path fill="url(#SVGID_4_)" d="M-190.721,1085.67c-0.101,0-0.201-0.001-0.302-0.003c-8.647-0.156-15.53-7.31-15.382-15.966
		c0.17-8.552,7.166-15.375,15.685-15.376c0.096,0,0.192,0.001,0.289,0.003c8.645,0.161,15.534,7.312,15.374,15.958
		C-175.22,1078.837-182.204,1085.67-190.721,1085.67 M-190.726,1033.379c-20.226,0-36.622,16.393-36.622,36.613
		c0,20.228,16.396,36.626,36.622,36.626c20.222,0,36.622-16.398,36.622-36.626C-154.104,1049.771-170.504,1033.379-190.726,1033.379
		 M-190.726,1111.088c-22.691,0-41.098-18.396-41.098-41.096c0-22.685,18.407-41.085,41.098-41.085
		c22.687,0,41.092,18.4,41.092,41.085C-149.634,1092.694-168.039,1111.088-190.726,1111.088 M-190.726,1025.685
		c-24.479,0-44.313,19.847-44.313,44.312c0,24.473,19.836,44.316,44.313,44.316c24.47,0,44.312-19.844,44.313-44.316
		C-146.412,1045.531-166.256,1025.685-190.726,1025.685 M-190.726,1127.128c-31.568,0-57.136-25.576-57.136-57.136
		c0-31.555,25.568-57.132,57.136-57.132c31.559,0,57.137,25.577,57.137,57.132C-133.589,1101.552-159.167,1127.128-190.726,1127.128
		 M-190.726,1009.629c-33.345,0-60.376,27.026-60.376,60.363c0,33.35,27.031,60.37,60.376,60.37c33.34,0,60.369-27.021,60.369-60.37
		C-130.357,1036.655-157.385,1009.629-190.726,1009.629"/>
	
		<linearGradient id="SVGID_5_" gradientUnits="userSpaceOnUse" x1="-344.5779" y1="366.4111" x2="-343.5779" y2="366.4111" gradientTransform="matrix(99.7713 86.7299 86.7299 -99.7713 2359.5356 67469.2344)">
		<stop  offset="0" style="stop-color:#54ABCB"/>
		<stop  offset="0.0606" style="stop-color:#54ABCB"/>
		<stop  offset="0.3097" style="stop-color:#53A9C8"/>
		<stop  offset="0.4835" style="stop-color:#4FA1BF"/>
		<stop  offset="0.6344" style="stop-color:#4994B0"/>
		<stop  offset="0.7722" style="stop-color:#40829A"/>
		<stop  offset="0.8999" style="stop-color:#346A7E"/>
		<stop  offset="1" style="stop-color:#295362"/>
	</linearGradient>
	<path fill="url(#SVGID_5_)" d="M-190.726,1130.362c-33.345,0-60.376-27.021-60.376-60.37c0-33.337,27.031-60.363,60.376-60.363
		c33.34,0,60.369,27.026,60.369,60.363C-130.357,1103.342-157.385,1130.362-190.726,1130.362 M-190.726,1005.188
		c-35.8,0-64.814,29.012-64.814,64.804c0,35.801,29.017,64.807,64.814,64.807c35.796,0,64.814-29.006,64.814-64.807
		C-125.911,1034.2-154.932,1005.188-190.726,1005.188"/>
	
		<linearGradient id="SVGID_6_" gradientUnits="userSpaceOnUse" x1="-344.5779" y1="366.4111" x2="-343.5779" y2="366.4111" gradientTransform="matrix(99.7713 86.7299 86.7299 -99.7713 2359.5356 67469.2344)">
		<stop  offset="0" style="stop-color:#54ABCB"/>
		<stop  offset="0.0606" style="stop-color:#54ABCB"/>
		<stop  offset="0.3097" style="stop-color:#53A9C8"/>
		<stop  offset="0.4835" style="stop-color:#4FA1BF"/>
		<stop  offset="0.6344" style="stop-color:#4994B0"/>
		<stop  offset="0.7722" style="stop-color:#40829A"/>
		<stop  offset="0.8999" style="stop-color:#346A7E"/>
		<stop  offset="1" style="stop-color:#295362"/>
	</linearGradient>
	<path fill="url(#SVGID_6_)" d="M-190.726,1114.313c-24.477,0-44.313-19.844-44.313-44.316c0-24.465,19.834-44.312,44.313-44.312
		c24.47,0,44.313,19.847,44.313,44.312C-146.414,1094.469-166.256,1114.313-190.726,1114.313 M-190.726,1012.86
		c-31.568,0-57.136,25.577-57.136,57.132c0,31.56,25.568,57.136,57.136,57.136c31.559,0,57.137-25.576,57.137-57.136
		C-133.589,1038.438-159.167,1012.86-190.726,1012.86"/>
	
		<linearGradient id="SVGID_7_" gradientUnits="userSpaceOnUse" x1="-344.5779" y1="366.4111" x2="-343.5779" y2="366.4111" gradientTransform="matrix(99.7713 86.7299 86.7299 -99.7713 2359.5356 67469.2344)">
		<stop  offset="0" style="stop-color:#54ABCB"/>
		<stop  offset="0.0606" style="stop-color:#54ABCB"/>
		<stop  offset="0.3097" style="stop-color:#53A9C8"/>
		<stop  offset="0.4835" style="stop-color:#4FA1BF"/>
		<stop  offset="0.6344" style="stop-color:#4994B0"/>
		<stop  offset="0.7722" style="stop-color:#40829A"/>
		<stop  offset="0.8999" style="stop-color:#346A7E"/>
		<stop  offset="1" style="stop-color:#295362"/>
	</linearGradient>
	<path fill="url(#SVGID_7_)" d="M-190.726,1106.618c-20.226,0-36.622-16.398-36.622-36.626c0-20.221,16.396-36.613,36.622-36.613
		c20.222,0,36.622,16.393,36.622,36.613C-154.104,1090.22-170.504,1106.618-190.726,1106.618 M-190.726,1028.907
		c-22.691,0-41.098,18.4-41.098,41.085c0,22.699,18.407,41.096,41.098,41.096c22.687,0,41.092-18.394,41.092-41.096
		C-149.634,1047.308-168.039,1028.907-190.726,1028.907"/>
	
		<linearGradient id="SVGID_8_" gradientUnits="userSpaceOnUse" x1="-344.5779" y1="366.4111" x2="-343.5779" y2="366.4111" gradientTransform="matrix(99.7713 86.7299 86.7299 -99.7713 2359.5356 67469.2344)">
		<stop  offset="0" style="stop-color:#F9A231"/>
		<stop  offset="0.0606" style="stop-color:#F9A231"/>
		<stop  offset="0.2914" style="stop-color:#F6A030"/>
		<stop  offset="0.4531" style="stop-color:#ED9A2F"/>
		<stop  offset="0.5936" style="stop-color:#DE902C"/>
		<stop  offset="0.7221" style="stop-color:#C88227"/>
		<stop  offset="0.8424" style="stop-color:#AB7022"/>
		<stop  offset="0.955" style="stop-color:#89591B"/>
		<stop  offset="1" style="stop-color:#794F18"/>
	</linearGradient>
	<path fill="url(#SVGID_8_)" d="M-190.72,1054.325c-8.52,0.001-15.515,6.824-15.685,15.376c-0.148,8.656,6.734,15.81,15.382,15.966
		c0.102,0.002,0.202,0.003,0.302,0.003c8.518,0,15.501-6.833,15.664-15.384c0.16-8.646-6.729-15.797-15.374-15.958
		C-190.529,1054.326-190.624,1054.325-190.72,1054.325"/>
</g>
</svg>
