<?xml version="1.0" encoding="utf-8"?>
<!-- Generator: Adobe Illustrator 15.1.0, SVG Export Plug-In . SVG Version: 6.00 Build 0)  -->
<!DOCTYPE svg PUBLIC "-//W3C//DTD SVG 1.1//EN" "http://www.w3.org/Graphics/SVG/1.1/DTD/svg11.dtd">
<svg version="1.1" id="Capa_1" xmlns="http://www.w3.org/2000/svg" xmlns:xlink="http://www.w3.org/1999/xlink" x="0px" y="0px"
	 width="260px" height="144.336px" viewBox="0 0 260 144.336" enable-background="new 0 0 260 144.336" xml:space="preserve">
<g>
	<path fill="#33AADD" d="M92.922,140.859c-0.162,0.094-0.334,0.184-0.497,0.278C92.588,141.043,92.755,140.953,92.922,140.859"/>
	<path fill="#33AADD" d="M243.935,68.885c-0.364,1.23-1.774,3.639-5.346,4.385c-1.389,0.318-3.069,0.318-6.403,0.318h-5.697
		l2.868-9.461h5.692C239.45,64.131,245.375,64.131,243.935,68.885 M177.1,80.754l12.491-16.199h0.227l2.174,16.199H177.1z
		 M257.874,59.807c-2.555-2.357-6.151-2.783-16.036-2.783h-25.393l-7.694,25.424l-6.571-25.424h-14.406
		c2.203-3.086,4.41-6.34,6.584-9.785c3.96-6.336,7.467-12.799,9.927-19.563c1.214-3.386,2.169-6.863,2.443-10.485
		c0.266-3.536-0.257-7.655-3.052-10.575c-2.812-2.88-6.747-3.489-10.021-3.412c-3.369,0.081-6.507,0.801-9.478,1.671
		c-5.924,1.796-11.209,4.316-16.074,6.889c-9.7,5.221-17.699,10.819-24.317,15.744c-6.605,4.951-11.801,9.314-15.628,12.611
		c0.479-1.51,0.96-3.023,1.466-4.532c-6.815,6.807-13.288,13.883-19.461,21.17c7.549-5.846,15.29-11.385,23.22-16.537
		c-1.672,0.207-3.339,0.412-5.011,0.643c3.893-3.12,9.203-7.256,15.92-11.984c6.722-4.689,14.836-10.039,24.523-14.981
		c4.848-2.443,10.103-4.801,15.809-6.447c2.846-0.801,5.825-1.423,8.821-1.487c2.957-0.056,6.057,0.536,8.003,2.529
		c1.988,1.959,2.521,5.152,2.284,8.316c-0.257,3.206-1.152,6.481-2.327,9.705c-2.384,6.459-5.847,12.799-9.747,19.04
		c-2.563,4.068-5.174,7.879-7.793,11.471h-0.253L151.042,94.75c-10.334,10.27-18.877,17.703-25.92,23.541
		c-14.904,12.117-23.048,17.51-32.204,22.568c10.077-5.547,18.162-10.125,33.259-21.377c7.424-5.658,16.533-13.057,27.721-23.834
		h11.577l6.065-7.754h21.977l1.458,7.754h25.059l4.564-15.084h6.388c6.841,0,6.554,1.711,5.833,6.361
		c-0.505,3.43-1.016,6.371-0.814,8.723h16.499c-0.467-2.725,0.034-6.9,0.296-9.523c0.574-5.938,1.003-9.361-9.58-9.576
		c1.577-0.158,5.032-0.531,9.006-2.084c2.923-1.127,5.902-2.939,7.18-7.17C260.673,63.123,259.189,60.977,257.874,59.807"/>
	<path d="M84.868,80.424l12.495-16.189h0.223l2.169,16.189H84.868z M152.088,56.27l-7.835,25.924
		c-0.617,2.027-1.745,5.766-7.292,5.766c-5.165,0-3.931-3.844-3.441-5.447h-15.114c-0.291,0.947-0.271,4.072-0.176,6.982
		l-8.482-32.805H91.212L57.897,95.271h15.191l6.065-7.744h21.951l1.453,7.744h17.167l-0.004-0.025h33.528
		c0,0,6.053-11.834,6.532-13.438l7.725-25.547h-15.419V56.27z M42.539,56.693L20.927,84.676l-4.008-27.982H0.112l7.707,38.621
		h18.179l24.433-29.785l-9.006,29.785h15.667l11.677-38.621H42.539z"/>
</g>
</svg>
